%TF.GenerationSoftware,KiCad,Pcbnew,9.0.7+1*%
%TF.CreationDate,2026-06-05T22:23:58+00:00*%
%TF.ProjectId,hw-module-gps,68772d6d-6f64-4756-9c65-2d6770732e6b,rev?*%
%TF.SameCoordinates,Original*%
%TF.FileFunction,Drillmap*%
%TF.FilePolarity,Positive*%
%FSLAX45Y45*%
G04 Gerber Fmt 4.5, Leading zero omitted, Abs format (unit mm)*
G04 Created by KiCad (PCBNEW 9.0.7+1) date 2026-06-05 22:23:58*
%MOMM*%
%LPD*%
G01*
G04 APERTURE LIST*
%ADD10C,0.050000*%
%ADD11C,0.200000*%
G04 APERTURE END LIST*
D10*
X15600000Y-13980000D02*
G75*
G02*
X16100000Y-13480000I500000J0D01*
G01*
X15600000Y-18460000D02*
X15600000Y-13980000D01*
X15600000Y-18460000D02*
X15600000Y-18780000D01*
X16100000Y-19280000D02*
G75*
G02*
X15600000Y-18780000I0J500000D01*
G01*
X16100000Y-19280000D02*
X24425000Y-19280000D01*
X17565000Y-13480000D02*
X16100000Y-13480000D01*
X23955000Y-13480000D02*
X17565000Y-13480000D01*
X23955000Y-13480000D02*
X24425000Y-13480000D01*
X24425000Y-13480000D02*
G75*
G02*
X24925000Y-13980000I0J-500000D01*
G01*
X24925000Y-18780000D02*
G75*
G02*
X24425000Y-19280000I-500000J0D01*
G01*
X24925000Y-18780000D02*
X24925000Y-13980000D01*
D11*
X15858277Y-19593984D02*
X15858277Y-19393984D01*
X15858277Y-19393984D02*
X15905896Y-19393984D01*
X15905896Y-19393984D02*
X15934467Y-19403508D01*
X15934467Y-19403508D02*
X15953515Y-19422555D01*
X15953515Y-19422555D02*
X15963039Y-19441603D01*
X15963039Y-19441603D02*
X15972562Y-19479698D01*
X15972562Y-19479698D02*
X15972562Y-19508270D01*
X15972562Y-19508270D02*
X15963039Y-19546365D01*
X15963039Y-19546365D02*
X15953515Y-19565412D01*
X15953515Y-19565412D02*
X15934467Y-19584460D01*
X15934467Y-19584460D02*
X15905896Y-19593984D01*
X15905896Y-19593984D02*
X15858277Y-19593984D01*
X16058277Y-19593984D02*
X16058277Y-19460650D01*
X16058277Y-19498746D02*
X16067801Y-19479698D01*
X16067801Y-19479698D02*
X16077324Y-19470174D01*
X16077324Y-19470174D02*
X16096372Y-19460650D01*
X16096372Y-19460650D02*
X16115420Y-19460650D01*
X16182086Y-19593984D02*
X16182086Y-19460650D01*
X16182086Y-19393984D02*
X16172562Y-19403508D01*
X16172562Y-19403508D02*
X16182086Y-19413031D01*
X16182086Y-19413031D02*
X16191610Y-19403508D01*
X16191610Y-19403508D02*
X16182086Y-19393984D01*
X16182086Y-19393984D02*
X16182086Y-19413031D01*
X16305896Y-19593984D02*
X16286848Y-19584460D01*
X16286848Y-19584460D02*
X16277324Y-19565412D01*
X16277324Y-19565412D02*
X16277324Y-19393984D01*
X16410658Y-19593984D02*
X16391610Y-19584460D01*
X16391610Y-19584460D02*
X16382086Y-19565412D01*
X16382086Y-19565412D02*
X16382086Y-19393984D01*
X16639229Y-19593984D02*
X16639229Y-19393984D01*
X16639229Y-19393984D02*
X16705896Y-19536841D01*
X16705896Y-19536841D02*
X16772562Y-19393984D01*
X16772562Y-19393984D02*
X16772562Y-19593984D01*
X16953515Y-19593984D02*
X16953515Y-19489222D01*
X16953515Y-19489222D02*
X16943991Y-19470174D01*
X16943991Y-19470174D02*
X16924944Y-19460650D01*
X16924944Y-19460650D02*
X16886848Y-19460650D01*
X16886848Y-19460650D02*
X16867801Y-19470174D01*
X16953515Y-19584460D02*
X16934467Y-19593984D01*
X16934467Y-19593984D02*
X16886848Y-19593984D01*
X16886848Y-19593984D02*
X16867801Y-19584460D01*
X16867801Y-19584460D02*
X16858277Y-19565412D01*
X16858277Y-19565412D02*
X16858277Y-19546365D01*
X16858277Y-19546365D02*
X16867801Y-19527317D01*
X16867801Y-19527317D02*
X16886848Y-19517793D01*
X16886848Y-19517793D02*
X16934467Y-19517793D01*
X16934467Y-19517793D02*
X16953515Y-19508270D01*
X17048753Y-19460650D02*
X17048753Y-19660650D01*
X17048753Y-19470174D02*
X17067801Y-19460650D01*
X17067801Y-19460650D02*
X17105896Y-19460650D01*
X17105896Y-19460650D02*
X17124944Y-19470174D01*
X17124944Y-19470174D02*
X17134467Y-19479698D01*
X17134467Y-19479698D02*
X17143991Y-19498746D01*
X17143991Y-19498746D02*
X17143991Y-19555889D01*
X17143991Y-19555889D02*
X17134467Y-19574936D01*
X17134467Y-19574936D02*
X17124944Y-19584460D01*
X17124944Y-19584460D02*
X17105896Y-19593984D01*
X17105896Y-19593984D02*
X17067801Y-19593984D01*
X17067801Y-19593984D02*
X17048753Y-19584460D01*
X17229705Y-19574936D02*
X17239229Y-19584460D01*
X17239229Y-19584460D02*
X17229705Y-19593984D01*
X17229705Y-19593984D02*
X17220182Y-19584460D01*
X17220182Y-19584460D02*
X17229705Y-19574936D01*
X17229705Y-19574936D02*
X17229705Y-19593984D01*
X17229705Y-19470174D02*
X17239229Y-19479698D01*
X17239229Y-19479698D02*
X17229705Y-19489222D01*
X17229705Y-19489222D02*
X17220182Y-19479698D01*
X17220182Y-19479698D02*
X17229705Y-19470174D01*
X17229705Y-19470174D02*
X17229705Y-19489222D01*
M02*
