M48
; DRILL file {KiCad 9.0.7+1} date 2026-06-05T22:23:58+0000
; FORMAT={-:-/ absolute / metric / decimal}
; #@! TF.CreationDate,2026-06-05T22:23:58+00:00
; #@! TF.GenerationSoftware,Kicad,Pcbnew,9.0.7+1
; #@! TF.FileFunction,Plated,1,4,PTH
FMAT,2
METRIC
; #@! TA.AperFunction,Plated,PTH,ViaDrill
T1C0.300
; #@! TA.AperFunction,Plated,PTH,ComponentDrill
T2C0.600
; #@! TA.AperFunction,Plated,PTH,ComponentDrill
T3C0.950
; #@! TA.AperFunction,Plated,PTH,ComponentDrill
T4C1.016
; #@! TA.AperFunction,Plated,PTH,ComponentDrill
T5C4.300
%
G90
G05
T1
X162.15Y-181.05
X162.45Y-172.25
X163.8Y-170.1
X163.8Y-173.95
X164.55Y-167.5
X164.6Y-164.9
X165.5Y-169.25
X167.5Y-170.1
X167.7Y-175.3
X168.95Y-170.5
X169.6Y-151.8
X169.95Y-172.25
X170.1Y-181.1
X177.0Y-180.4
X178.7Y-182.5
X184.3Y-156.3
X200.2Y-154.8
X205.9Y-144.2
X216.1Y-154.6
X217.7Y-179.8
X221.5Y-171.9
X233.2Y-166.4
X236.0Y-139.0
X237.2Y-175.8
X246.3Y-167.1
T2
X157.775Y-139.8
X157.775Y-187.8
X158.72Y-137.52
X158.72Y-142.08
X158.72Y-185.52
X158.72Y-190.08
X161.0Y-136.575
X161.0Y-143.025
X161.0Y-184.575
X161.0Y-191.025
X163.28Y-137.52
X163.28Y-142.08
X163.28Y-185.52
X163.28Y-190.08
X164.225Y-139.8
X164.225Y-187.8
X241.025Y-139.8
X241.05Y-187.73
X241.97Y-137.52
X241.97Y-142.08
X241.995Y-185.45
X241.995Y-190.011
X244.25Y-136.575
X244.25Y-143.025
X244.275Y-184.505
X244.275Y-190.955
X246.53Y-137.52
X246.53Y-142.08
X246.555Y-185.45
X246.555Y-190.011
X247.475Y-139.8
X247.5Y-187.73
T3
X162.1Y-149.5
X162.1Y-152.0
X162.1Y-154.5
X162.1Y-157.0
X162.1Y-159.5
T4
X174.577Y-138.558
X174.577Y-186.817
X177.117Y-138.558
X177.117Y-186.817
X179.657Y-138.558
X179.657Y-186.817
X182.197Y-138.558
X182.198Y-186.817
X184.737Y-138.558
X184.737Y-186.817
X187.278Y-138.558
X187.278Y-186.817
X189.817Y-186.817
X192.357Y-186.817
X192.357Y-138.558
X194.897Y-138.558
X196.421Y-186.817
X197.438Y-138.558
X198.962Y-186.817
X199.977Y-138.558
X201.501Y-186.817
X202.517Y-138.558
X204.041Y-186.817
X205.058Y-138.558
X206.581Y-186.817
X207.597Y-138.558
X209.122Y-186.817
X210.137Y-138.558
X211.661Y-186.817
X214.201Y-186.817
X216.742Y-186.817
X219.281Y-186.817
T5
X161.0Y-139.8
X161.0Y-187.8
X244.25Y-139.8
X244.275Y-187.73
M30
