%TF.GenerationSoftware,KiCad,Pcbnew,9.0.7+1*%
%TF.CreationDate,2026-06-05T22:23:58+00:00*%
%TF.ProjectId,hw-module-gps,68772d6d-6f64-4756-9c65-2d6770732e6b,rev?*%
%TF.SameCoordinates,Original*%
%TF.FileFunction,Drillmap*%
%TF.FilePolarity,Positive*%
%FSLAX45Y45*%
G04 Gerber Fmt 4.5, Leading zero omitted, Abs format (unit mm)*
G04 Created by KiCad (PCBNEW 9.0.7+1) date 2026-06-05 22:23:58*
%MOMM*%
%LPD*%
G01*
G04 APERTURE LIST*
%ADD10C,0.050000*%
%ADD11C,0.200000*%
%ADD12C,0.100000*%
%ADD13C,0.101600*%
%ADD14C,0.430000*%
G04 APERTURE END LIST*
D10*
X15600000Y-13980000D02*
G75*
G02*
X16100000Y-13480000I500000J0D01*
G01*
X15600000Y-18460000D02*
X15600000Y-13980000D01*
X15600000Y-18460000D02*
X15600000Y-18780000D01*
X16100000Y-19280000D02*
G75*
G02*
X15600000Y-18780000I0J500000D01*
G01*
X16100000Y-19280000D02*
X24425000Y-19280000D01*
X17565000Y-13480000D02*
X16100000Y-13480000D01*
X23955000Y-13480000D02*
X17565000Y-13480000D01*
X23955000Y-13480000D02*
X24425000Y-13480000D01*
X24425000Y-13480000D02*
G75*
G02*
X24925000Y-13980000I0J-500000D01*
G01*
X24925000Y-18780000D02*
G75*
G02*
X24425000Y-19280000I-500000J0D01*
G01*
X24925000Y-18780000D02*
X24925000Y-13980000D01*
D11*
D12*
X16200000Y-18090000D02*
X16230000Y-18120000D01*
X16230000Y-18090000D02*
X16200000Y-18120000D01*
X16230000Y-17210000D02*
X16260000Y-17240000D01*
X16260000Y-17210000D02*
X16230000Y-17240000D01*
X16365000Y-16995000D02*
X16395000Y-17025000D01*
X16395000Y-16995000D02*
X16365000Y-17025000D01*
X16365000Y-17380000D02*
X16395000Y-17410000D01*
X16395000Y-17380000D02*
X16365000Y-17410000D01*
X16440000Y-16735000D02*
X16470000Y-16765000D01*
X16470000Y-16735000D02*
X16440000Y-16765000D01*
X16445000Y-16475000D02*
X16475000Y-16505000D01*
X16475000Y-16475000D02*
X16445000Y-16505000D01*
X16535000Y-16910000D02*
X16565000Y-16940000D01*
X16565000Y-16910000D02*
X16535000Y-16940000D01*
X16735000Y-16995000D02*
X16765000Y-17025000D01*
X16765000Y-16995000D02*
X16735000Y-17025000D01*
X16755000Y-17515000D02*
X16785000Y-17545000D01*
X16785000Y-17515000D02*
X16755000Y-17545000D01*
X16880000Y-17035000D02*
X16910000Y-17065000D01*
X16910000Y-17035000D02*
X16880000Y-17065000D01*
X16945000Y-15165000D02*
X16975000Y-15195000D01*
X16975000Y-15165000D02*
X16945000Y-15195000D01*
X16980000Y-17210000D02*
X17010000Y-17240000D01*
X17010000Y-17210000D02*
X16980000Y-17240000D01*
X16995000Y-18095000D02*
X17025000Y-18125000D01*
X17025000Y-18095000D02*
X16995000Y-18125000D01*
X17685000Y-18025000D02*
X17715000Y-18055000D01*
X17715000Y-18025000D02*
X17685000Y-18055000D01*
X17855000Y-18235000D02*
X17885000Y-18265000D01*
X17885000Y-18235000D02*
X17855000Y-18265000D01*
X18415000Y-15615000D02*
X18445000Y-15645000D01*
X18445000Y-15615000D02*
X18415000Y-15645000D01*
X20005000Y-15465000D02*
X20035000Y-15495000D01*
X20035000Y-15465000D02*
X20005000Y-15495000D01*
X20575000Y-14405000D02*
X20605000Y-14435000D01*
X20605000Y-14405000D02*
X20575000Y-14435000D01*
X21595000Y-15445000D02*
X21625000Y-15475000D01*
X21625000Y-15445000D02*
X21595000Y-15475000D01*
X21755000Y-17965000D02*
X21785000Y-17995000D01*
X21785000Y-17965000D02*
X21755000Y-17995000D01*
X22135000Y-17175000D02*
X22165000Y-17205000D01*
X22165000Y-17175000D02*
X22135000Y-17205000D01*
X23305000Y-16625000D02*
X23335000Y-16655000D01*
X23335000Y-16625000D02*
X23305000Y-16655000D01*
X23585000Y-13885000D02*
X23615000Y-13915000D01*
X23615000Y-13885000D02*
X23585000Y-13915000D01*
X23705000Y-17565000D02*
X23735000Y-17595000D01*
X23735000Y-17565000D02*
X23705000Y-17595000D01*
X24615000Y-16695000D02*
X24645000Y-16725000D01*
X24645000Y-16695000D02*
X24615000Y-16725000D01*
X15807500Y-13980000D02*
G75*
G02*
X15747500Y-13980000I-30000J0D01*
G01*
X15747500Y-13980000D02*
G75*
G02*
X15807500Y-13980000I30000J0D01*
G01*
X15807500Y-18780000D02*
G75*
G02*
X15747500Y-18780000I-30000J0D01*
G01*
X15747500Y-18780000D02*
G75*
G02*
X15807500Y-18780000I30000J0D01*
G01*
X15901958Y-13751958D02*
G75*
G02*
X15841958Y-13751958I-30000J0D01*
G01*
X15841958Y-13751958D02*
G75*
G02*
X15901958Y-13751958I30000J0D01*
G01*
X15901958Y-14208042D02*
G75*
G02*
X15841958Y-14208042I-30000J0D01*
G01*
X15841958Y-14208042D02*
G75*
G02*
X15901958Y-14208042I30000J0D01*
G01*
X15901958Y-18551958D02*
G75*
G02*
X15841958Y-18551958I-30000J0D01*
G01*
X15841958Y-18551958D02*
G75*
G02*
X15901958Y-18551958I30000J0D01*
G01*
X15901958Y-19008042D02*
G75*
G02*
X15841958Y-19008042I-30000J0D01*
G01*
X15841958Y-19008042D02*
G75*
G02*
X15901958Y-19008042I30000J0D01*
G01*
X16130000Y-13657500D02*
G75*
G02*
X16070000Y-13657500I-30000J0D01*
G01*
X16070000Y-13657500D02*
G75*
G02*
X16130000Y-13657500I30000J0D01*
G01*
X16130000Y-14302500D02*
G75*
G02*
X16070000Y-14302500I-30000J0D01*
G01*
X16070000Y-14302500D02*
G75*
G02*
X16130000Y-14302500I30000J0D01*
G01*
X16130000Y-18457500D02*
G75*
G02*
X16070000Y-18457500I-30000J0D01*
G01*
X16070000Y-18457500D02*
G75*
G02*
X16130000Y-18457500I30000J0D01*
G01*
X16130000Y-19102500D02*
G75*
G02*
X16070000Y-19102500I-30000J0D01*
G01*
X16070000Y-19102500D02*
G75*
G02*
X16130000Y-19102500I30000J0D01*
G01*
X16358042Y-13751958D02*
G75*
G02*
X16298042Y-13751958I-30000J0D01*
G01*
X16298042Y-13751958D02*
G75*
G02*
X16358042Y-13751958I30000J0D01*
G01*
X16358042Y-14208042D02*
G75*
G02*
X16298042Y-14208042I-30000J0D01*
G01*
X16298042Y-14208042D02*
G75*
G02*
X16358042Y-14208042I30000J0D01*
G01*
X16358042Y-18551958D02*
G75*
G02*
X16298042Y-18551958I-30000J0D01*
G01*
X16298042Y-18551958D02*
G75*
G02*
X16358042Y-18551958I30000J0D01*
G01*
X16358042Y-19008042D02*
G75*
G02*
X16298042Y-19008042I-30000J0D01*
G01*
X16298042Y-19008042D02*
G75*
G02*
X16358042Y-19008042I30000J0D01*
G01*
X16452500Y-13980000D02*
G75*
G02*
X16392500Y-13980000I-30000J0D01*
G01*
X16392500Y-13980000D02*
G75*
G02*
X16452500Y-13980000I30000J0D01*
G01*
X16452500Y-18780000D02*
G75*
G02*
X16392500Y-18780000I-30000J0D01*
G01*
X16392500Y-18780000D02*
G75*
G02*
X16452500Y-18780000I30000J0D01*
G01*
X24132500Y-13980000D02*
G75*
G02*
X24072500Y-13980000I-30000J0D01*
G01*
X24072500Y-13980000D02*
G75*
G02*
X24132500Y-13980000I30000J0D01*
G01*
X24135000Y-18773042D02*
G75*
G02*
X24075000Y-18773042I-30000J0D01*
G01*
X24075000Y-18773042D02*
G75*
G02*
X24135000Y-18773042I30000J0D01*
G01*
X24226958Y-13751958D02*
G75*
G02*
X24166958Y-13751958I-30000J0D01*
G01*
X24166958Y-13751958D02*
G75*
G02*
X24226958Y-13751958I30000J0D01*
G01*
X24226958Y-14208042D02*
G75*
G02*
X24166958Y-14208042I-30000J0D01*
G01*
X24166958Y-14208042D02*
G75*
G02*
X24226958Y-14208042I30000J0D01*
G01*
X24229458Y-18545000D02*
G75*
G02*
X24169458Y-18545000I-30000J0D01*
G01*
X24169458Y-18545000D02*
G75*
G02*
X24229458Y-18545000I30000J0D01*
G01*
X24229458Y-19001084D02*
G75*
G02*
X24169458Y-19001084I-30000J0D01*
G01*
X24169458Y-19001084D02*
G75*
G02*
X24229458Y-19001084I30000J0D01*
G01*
X24455000Y-13657500D02*
G75*
G02*
X24395000Y-13657500I-30000J0D01*
G01*
X24395000Y-13657500D02*
G75*
G02*
X24455000Y-13657500I30000J0D01*
G01*
X24455000Y-14302500D02*
G75*
G02*
X24395000Y-14302500I-30000J0D01*
G01*
X24395000Y-14302500D02*
G75*
G02*
X24455000Y-14302500I30000J0D01*
G01*
X24457500Y-18450542D02*
G75*
G02*
X24397500Y-18450542I-30000J0D01*
G01*
X24397500Y-18450542D02*
G75*
G02*
X24457500Y-18450542I30000J0D01*
G01*
X24457500Y-19095542D02*
G75*
G02*
X24397500Y-19095542I-30000J0D01*
G01*
X24397500Y-19095542D02*
G75*
G02*
X24457500Y-19095542I30000J0D01*
G01*
X24683042Y-13751958D02*
G75*
G02*
X24623042Y-13751958I-30000J0D01*
G01*
X24623042Y-13751958D02*
G75*
G02*
X24683042Y-13751958I30000J0D01*
G01*
X24683042Y-14208042D02*
G75*
G02*
X24623042Y-14208042I-30000J0D01*
G01*
X24623042Y-14208042D02*
G75*
G02*
X24683042Y-14208042I30000J0D01*
G01*
X24685542Y-18545000D02*
G75*
G02*
X24625542Y-18545000I-30000J0D01*
G01*
X24625542Y-18545000D02*
G75*
G02*
X24685542Y-18545000I30000J0D01*
G01*
X24685542Y-19001084D02*
G75*
G02*
X24625542Y-19001084I-30000J0D01*
G01*
X24625542Y-19001084D02*
G75*
G02*
X24685542Y-19001084I30000J0D01*
G01*
X24777500Y-13980000D02*
G75*
G02*
X24717500Y-13980000I-30000J0D01*
G01*
X24717500Y-13980000D02*
G75*
G02*
X24777500Y-13980000I30000J0D01*
G01*
X24780000Y-18773042D02*
G75*
G02*
X24720000Y-18773042I-30000J0D01*
G01*
X24720000Y-18773042D02*
G75*
G02*
X24780000Y-18773042I30000J0D01*
G01*
X16210000Y-14902500D02*
X16210000Y-14997500D01*
X16162500Y-14950000D02*
X16257500Y-14950000D01*
X16210000Y-15152500D02*
X16210000Y-15247500D01*
X16162500Y-15200000D02*
X16257500Y-15200000D01*
X16210000Y-15402500D02*
X16210000Y-15497500D01*
X16162500Y-15450000D02*
X16257500Y-15450000D01*
X16210000Y-15652500D02*
X16210000Y-15747500D01*
X16162500Y-15700000D02*
X16257500Y-15700000D01*
X16210000Y-15902500D02*
X16210000Y-15997500D01*
X16162500Y-15950000D02*
X16257500Y-15950000D01*
D13*
X17493671Y-13891671D02*
X17493671Y-13819829D01*
X17421829Y-13819829D01*
X17421829Y-13891671D01*
X17493671Y-13891671D01*
X17493671Y-18717671D02*
X17493671Y-18645829D01*
X17421829Y-18645829D01*
X17421829Y-18717671D01*
X17493671Y-18717671D01*
X17747671Y-13891671D02*
X17747671Y-13819829D01*
X17675829Y-13819829D01*
X17675829Y-13891671D01*
X17747671Y-13891671D01*
X17747671Y-18717671D02*
X17747671Y-18645829D01*
X17675829Y-18645829D01*
X17675829Y-18717671D01*
X17747671Y-18717671D01*
X18001671Y-13891671D02*
X18001671Y-13819829D01*
X17929829Y-13819829D01*
X17929829Y-13891671D01*
X18001671Y-13891671D01*
X18001671Y-18717671D02*
X18001671Y-18645829D01*
X17929829Y-18645829D01*
X17929829Y-18717671D01*
X18001671Y-18717671D01*
X18255671Y-13891671D02*
X18255671Y-13819829D01*
X18183829Y-13819829D01*
X18183829Y-13891671D01*
X18255671Y-13891671D01*
X18255672Y-18717671D02*
X18255672Y-18645829D01*
X18183829Y-18645829D01*
X18183829Y-18717671D01*
X18255672Y-18717671D01*
X18509671Y-13891671D02*
X18509671Y-13819829D01*
X18437829Y-13819829D01*
X18437829Y-13891671D01*
X18509671Y-13891671D01*
X18509671Y-18717671D02*
X18509671Y-18645829D01*
X18437829Y-18645829D01*
X18437829Y-18717671D01*
X18509671Y-18717671D01*
X18763671Y-13891671D02*
X18763671Y-13819829D01*
X18691829Y-13819829D01*
X18691829Y-13891671D01*
X18763671Y-13891671D01*
X18763671Y-18717671D02*
X18763671Y-18645829D01*
X18691829Y-18645829D01*
X18691829Y-18717671D01*
X18763671Y-18717671D01*
X19017671Y-18717671D02*
X19017671Y-18645829D01*
X18945829Y-18645829D01*
X18945829Y-18717671D01*
X19017671Y-18717671D01*
X19271671Y-18717671D02*
X19271671Y-18645829D01*
X19199829Y-18645829D01*
X19199829Y-18717671D01*
X19271671Y-18717671D01*
X19271671Y-13891671D02*
X19271671Y-13819829D01*
X19199829Y-13819829D01*
X19199829Y-13891671D01*
X19271671Y-13891671D01*
X19525671Y-13891671D02*
X19525671Y-13819829D01*
X19453829Y-13819829D01*
X19453829Y-13891671D01*
X19525671Y-13891671D01*
X19678071Y-18717671D02*
X19678071Y-18645829D01*
X19606229Y-18645829D01*
X19606229Y-18717671D01*
X19678071Y-18717671D01*
X19779671Y-13891671D02*
X19779671Y-13819829D01*
X19707829Y-13819829D01*
X19707829Y-13891671D01*
X19779671Y-13891671D01*
X19932071Y-18717671D02*
X19932071Y-18645829D01*
X19860229Y-18645829D01*
X19860229Y-18717671D01*
X19932071Y-18717671D01*
X20033671Y-13891671D02*
X20033671Y-13819829D01*
X19961829Y-13819829D01*
X19961829Y-13891671D01*
X20033671Y-13891671D01*
X20186071Y-18717671D02*
X20186071Y-18645829D01*
X20114229Y-18645829D01*
X20114229Y-18717671D01*
X20186071Y-18717671D01*
X20287671Y-13891671D02*
X20287671Y-13819829D01*
X20215829Y-13819829D01*
X20215829Y-13891671D01*
X20287671Y-13891671D01*
X20440071Y-18717671D02*
X20440071Y-18645829D01*
X20368229Y-18645829D01*
X20368229Y-18717671D01*
X20440071Y-18717671D01*
X20541671Y-13891671D02*
X20541671Y-13819829D01*
X20469829Y-13819829D01*
X20469829Y-13891671D01*
X20541671Y-13891671D01*
X20694071Y-18717671D02*
X20694071Y-18645829D01*
X20622229Y-18645829D01*
X20622229Y-18717671D01*
X20694071Y-18717671D01*
X20795671Y-13891671D02*
X20795671Y-13819829D01*
X20723829Y-13819829D01*
X20723829Y-13891671D01*
X20795671Y-13891671D01*
X20948072Y-18717671D02*
X20948072Y-18645829D01*
X20876229Y-18645829D01*
X20876229Y-18717671D01*
X20948072Y-18717671D01*
X21049671Y-13891671D02*
X21049671Y-13819829D01*
X20977829Y-13819829D01*
X20977829Y-13891671D01*
X21049671Y-13891671D01*
X21202071Y-18717671D02*
X21202071Y-18645829D01*
X21130229Y-18645829D01*
X21130229Y-18717671D01*
X21202071Y-18717671D01*
X21456071Y-18717671D02*
X21456071Y-18645829D01*
X21384229Y-18645829D01*
X21384229Y-18717671D01*
X21456071Y-18717671D01*
X21710071Y-18717671D02*
X21710071Y-18645829D01*
X21638229Y-18645829D01*
X21638229Y-18717671D01*
X21710071Y-18717671D01*
X21964071Y-18717671D02*
X21964071Y-18645829D01*
X21892229Y-18645829D01*
X21892229Y-18717671D01*
X21964071Y-18717671D01*
D14*
X16100000Y-14195000D02*
X16315000Y-13980000D01*
X16100000Y-13765000D01*
X15885000Y-13980000D01*
X16100000Y-14195000D01*
X16100000Y-18995000D02*
X16315000Y-18780000D01*
X16100000Y-18565000D01*
X15885000Y-18780000D01*
X16100000Y-18995000D01*
X24425000Y-14195000D02*
X24640000Y-13980000D01*
X24425000Y-13765000D01*
X24210000Y-13980000D01*
X24425000Y-14195000D01*
X24427500Y-18988042D02*
X24642500Y-18773042D01*
X24427500Y-18558042D01*
X24212500Y-18773042D01*
X24427500Y-18988042D01*
D11*
X15858277Y-19593984D02*
X15858277Y-19393984D01*
X15858277Y-19393984D02*
X15905896Y-19393984D01*
X15905896Y-19393984D02*
X15934467Y-19403508D01*
X15934467Y-19403508D02*
X15953515Y-19422555D01*
X15953515Y-19422555D02*
X15963039Y-19441603D01*
X15963039Y-19441603D02*
X15972562Y-19479698D01*
X15972562Y-19479698D02*
X15972562Y-19508270D01*
X15972562Y-19508270D02*
X15963039Y-19546365D01*
X15963039Y-19546365D02*
X15953515Y-19565412D01*
X15953515Y-19565412D02*
X15934467Y-19584460D01*
X15934467Y-19584460D02*
X15905896Y-19593984D01*
X15905896Y-19593984D02*
X15858277Y-19593984D01*
X16058277Y-19593984D02*
X16058277Y-19460650D01*
X16058277Y-19498746D02*
X16067801Y-19479698D01*
X16067801Y-19479698D02*
X16077324Y-19470174D01*
X16077324Y-19470174D02*
X16096372Y-19460650D01*
X16096372Y-19460650D02*
X16115420Y-19460650D01*
X16182086Y-19593984D02*
X16182086Y-19460650D01*
X16182086Y-19393984D02*
X16172562Y-19403508D01*
X16172562Y-19403508D02*
X16182086Y-19413031D01*
X16182086Y-19413031D02*
X16191610Y-19403508D01*
X16191610Y-19403508D02*
X16182086Y-19393984D01*
X16182086Y-19393984D02*
X16182086Y-19413031D01*
X16305896Y-19593984D02*
X16286848Y-19584460D01*
X16286848Y-19584460D02*
X16277324Y-19565412D01*
X16277324Y-19565412D02*
X16277324Y-19393984D01*
X16410658Y-19593984D02*
X16391610Y-19584460D01*
X16391610Y-19584460D02*
X16382086Y-19565412D01*
X16382086Y-19565412D02*
X16382086Y-19393984D01*
X16639229Y-19593984D02*
X16639229Y-19393984D01*
X16639229Y-19393984D02*
X16705896Y-19536841D01*
X16705896Y-19536841D02*
X16772562Y-19393984D01*
X16772562Y-19393984D02*
X16772562Y-19593984D01*
X16953515Y-19593984D02*
X16953515Y-19489222D01*
X16953515Y-19489222D02*
X16943991Y-19470174D01*
X16943991Y-19470174D02*
X16924944Y-19460650D01*
X16924944Y-19460650D02*
X16886848Y-19460650D01*
X16886848Y-19460650D02*
X16867801Y-19470174D01*
X16953515Y-19584460D02*
X16934467Y-19593984D01*
X16934467Y-19593984D02*
X16886848Y-19593984D01*
X16886848Y-19593984D02*
X16867801Y-19584460D01*
X16867801Y-19584460D02*
X16858277Y-19565412D01*
X16858277Y-19565412D02*
X16858277Y-19546365D01*
X16858277Y-19546365D02*
X16867801Y-19527317D01*
X16867801Y-19527317D02*
X16886848Y-19517793D01*
X16886848Y-19517793D02*
X16934467Y-19517793D01*
X16934467Y-19517793D02*
X16953515Y-19508270D01*
X17048753Y-19460650D02*
X17048753Y-19660650D01*
X17048753Y-19470174D02*
X17067801Y-19460650D01*
X17067801Y-19460650D02*
X17105896Y-19460650D01*
X17105896Y-19460650D02*
X17124944Y-19470174D01*
X17124944Y-19470174D02*
X17134467Y-19479698D01*
X17134467Y-19479698D02*
X17143991Y-19498746D01*
X17143991Y-19498746D02*
X17143991Y-19555889D01*
X17143991Y-19555889D02*
X17134467Y-19574936D01*
X17134467Y-19574936D02*
X17124944Y-19584460D01*
X17124944Y-19584460D02*
X17105896Y-19593984D01*
X17105896Y-19593984D02*
X17067801Y-19593984D01*
X17067801Y-19593984D02*
X17048753Y-19584460D01*
X17229705Y-19574936D02*
X17239229Y-19584460D01*
X17239229Y-19584460D02*
X17229705Y-19593984D01*
X17229705Y-19593984D02*
X17220182Y-19584460D01*
X17220182Y-19584460D02*
X17229705Y-19574936D01*
X17229705Y-19574936D02*
X17229705Y-19593984D01*
X17229705Y-19470174D02*
X17239229Y-19479698D01*
X17239229Y-19479698D02*
X17229705Y-19489222D01*
X17229705Y-19489222D02*
X17220182Y-19479698D01*
X17220182Y-19479698D02*
X17229705Y-19470174D01*
X17229705Y-19470174D02*
X17229705Y-19489222D01*
D12*
X15567500Y-19907500D02*
X15597500Y-19937500D01*
X15597500Y-19907500D02*
X15567500Y-19937500D01*
D11*
X15896372Y-19813984D02*
X15915420Y-19813984D01*
X15915420Y-19813984D02*
X15934467Y-19823508D01*
X15934467Y-19823508D02*
X15943991Y-19833031D01*
X15943991Y-19833031D02*
X15953515Y-19852079D01*
X15953515Y-19852079D02*
X15963039Y-19890174D01*
X15963039Y-19890174D02*
X15963039Y-19937793D01*
X15963039Y-19937793D02*
X15953515Y-19975889D01*
X15953515Y-19975889D02*
X15943991Y-19994936D01*
X15943991Y-19994936D02*
X15934467Y-20004460D01*
X15934467Y-20004460D02*
X15915420Y-20013984D01*
X15915420Y-20013984D02*
X15896372Y-20013984D01*
X15896372Y-20013984D02*
X15877324Y-20004460D01*
X15877324Y-20004460D02*
X15867801Y-19994936D01*
X15867801Y-19994936D02*
X15858277Y-19975889D01*
X15858277Y-19975889D02*
X15848753Y-19937793D01*
X15848753Y-19937793D02*
X15848753Y-19890174D01*
X15848753Y-19890174D02*
X15858277Y-19852079D01*
X15858277Y-19852079D02*
X15867801Y-19833031D01*
X15867801Y-19833031D02*
X15877324Y-19823508D01*
X15877324Y-19823508D02*
X15896372Y-19813984D01*
X16048753Y-19994936D02*
X16058277Y-20004460D01*
X16058277Y-20004460D02*
X16048753Y-20013984D01*
X16048753Y-20013984D02*
X16039229Y-20004460D01*
X16039229Y-20004460D02*
X16048753Y-19994936D01*
X16048753Y-19994936D02*
X16048753Y-20013984D01*
X16124943Y-19813984D02*
X16248753Y-19813984D01*
X16248753Y-19813984D02*
X16182086Y-19890174D01*
X16182086Y-19890174D02*
X16210658Y-19890174D01*
X16210658Y-19890174D02*
X16229705Y-19899698D01*
X16229705Y-19899698D02*
X16239229Y-19909222D01*
X16239229Y-19909222D02*
X16248753Y-19928270D01*
X16248753Y-19928270D02*
X16248753Y-19975889D01*
X16248753Y-19975889D02*
X16239229Y-19994936D01*
X16239229Y-19994936D02*
X16229705Y-20004460D01*
X16229705Y-20004460D02*
X16210658Y-20013984D01*
X16210658Y-20013984D02*
X16153515Y-20013984D01*
X16153515Y-20013984D02*
X16134467Y-20004460D01*
X16134467Y-20004460D02*
X16124943Y-19994936D01*
X16372562Y-19813984D02*
X16391610Y-19813984D01*
X16391610Y-19813984D02*
X16410658Y-19823508D01*
X16410658Y-19823508D02*
X16420182Y-19833031D01*
X16420182Y-19833031D02*
X16429705Y-19852079D01*
X16429705Y-19852079D02*
X16439229Y-19890174D01*
X16439229Y-19890174D02*
X16439229Y-19937793D01*
X16439229Y-19937793D02*
X16429705Y-19975889D01*
X16429705Y-19975889D02*
X16420182Y-19994936D01*
X16420182Y-19994936D02*
X16410658Y-20004460D01*
X16410658Y-20004460D02*
X16391610Y-20013984D01*
X16391610Y-20013984D02*
X16372562Y-20013984D01*
X16372562Y-20013984D02*
X16353515Y-20004460D01*
X16353515Y-20004460D02*
X16343991Y-19994936D01*
X16343991Y-19994936D02*
X16334467Y-19975889D01*
X16334467Y-19975889D02*
X16324943Y-19937793D01*
X16324943Y-19937793D02*
X16324943Y-19890174D01*
X16324943Y-19890174D02*
X16334467Y-19852079D01*
X16334467Y-19852079D02*
X16343991Y-19833031D01*
X16343991Y-19833031D02*
X16353515Y-19823508D01*
X16353515Y-19823508D02*
X16372562Y-19813984D01*
X16563039Y-19813984D02*
X16582086Y-19813984D01*
X16582086Y-19813984D02*
X16601134Y-19823508D01*
X16601134Y-19823508D02*
X16610658Y-19833031D01*
X16610658Y-19833031D02*
X16620182Y-19852079D01*
X16620182Y-19852079D02*
X16629705Y-19890174D01*
X16629705Y-19890174D02*
X16629705Y-19937793D01*
X16629705Y-19937793D02*
X16620182Y-19975889D01*
X16620182Y-19975889D02*
X16610658Y-19994936D01*
X16610658Y-19994936D02*
X16601134Y-20004460D01*
X16601134Y-20004460D02*
X16582086Y-20013984D01*
X16582086Y-20013984D02*
X16563039Y-20013984D01*
X16563039Y-20013984D02*
X16543991Y-20004460D01*
X16543991Y-20004460D02*
X16534467Y-19994936D01*
X16534467Y-19994936D02*
X16524943Y-19975889D01*
X16524943Y-19975889D02*
X16515420Y-19937793D01*
X16515420Y-19937793D02*
X16515420Y-19890174D01*
X16515420Y-19890174D02*
X16524943Y-19852079D01*
X16524943Y-19852079D02*
X16534467Y-19833031D01*
X16534467Y-19833031D02*
X16543991Y-19823508D01*
X16543991Y-19823508D02*
X16563039Y-19813984D01*
X16715420Y-20013984D02*
X16715420Y-19880650D01*
X16715420Y-19899698D02*
X16724943Y-19890174D01*
X16724943Y-19890174D02*
X16743991Y-19880650D01*
X16743991Y-19880650D02*
X16772563Y-19880650D01*
X16772563Y-19880650D02*
X16791610Y-19890174D01*
X16791610Y-19890174D02*
X16801134Y-19909222D01*
X16801134Y-19909222D02*
X16801134Y-20013984D01*
X16801134Y-19909222D02*
X16810658Y-19890174D01*
X16810658Y-19890174D02*
X16829705Y-19880650D01*
X16829705Y-19880650D02*
X16858277Y-19880650D01*
X16858277Y-19880650D02*
X16877325Y-19890174D01*
X16877325Y-19890174D02*
X16886848Y-19909222D01*
X16886848Y-19909222D02*
X16886848Y-20013984D01*
X16982086Y-20013984D02*
X16982086Y-19880650D01*
X16982086Y-19899698D02*
X16991610Y-19890174D01*
X16991610Y-19890174D02*
X17010658Y-19880650D01*
X17010658Y-19880650D02*
X17039229Y-19880650D01*
X17039229Y-19880650D02*
X17058277Y-19890174D01*
X17058277Y-19890174D02*
X17067801Y-19909222D01*
X17067801Y-19909222D02*
X17067801Y-20013984D01*
X17067801Y-19909222D02*
X17077325Y-19890174D01*
X17077325Y-19890174D02*
X17096372Y-19880650D01*
X17096372Y-19880650D02*
X17124944Y-19880650D01*
X17124944Y-19880650D02*
X17143991Y-19890174D01*
X17143991Y-19890174D02*
X17153515Y-19909222D01*
X17153515Y-19909222D02*
X17153515Y-20013984D01*
X17543991Y-19804460D02*
X17372563Y-20061603D01*
X17801134Y-19813984D02*
X17820182Y-19813984D01*
X17820182Y-19813984D02*
X17839229Y-19823508D01*
X17839229Y-19823508D02*
X17848753Y-19833031D01*
X17848753Y-19833031D02*
X17858277Y-19852079D01*
X17858277Y-19852079D02*
X17867801Y-19890174D01*
X17867801Y-19890174D02*
X17867801Y-19937793D01*
X17867801Y-19937793D02*
X17858277Y-19975889D01*
X17858277Y-19975889D02*
X17848753Y-19994936D01*
X17848753Y-19994936D02*
X17839229Y-20004460D01*
X17839229Y-20004460D02*
X17820182Y-20013984D01*
X17820182Y-20013984D02*
X17801134Y-20013984D01*
X17801134Y-20013984D02*
X17782087Y-20004460D01*
X17782087Y-20004460D02*
X17772563Y-19994936D01*
X17772563Y-19994936D02*
X17763039Y-19975889D01*
X17763039Y-19975889D02*
X17753515Y-19937793D01*
X17753515Y-19937793D02*
X17753515Y-19890174D01*
X17753515Y-19890174D02*
X17763039Y-19852079D01*
X17763039Y-19852079D02*
X17772563Y-19833031D01*
X17772563Y-19833031D02*
X17782087Y-19823508D01*
X17782087Y-19823508D02*
X17801134Y-19813984D01*
X17953515Y-19994936D02*
X17963039Y-20004460D01*
X17963039Y-20004460D02*
X17953515Y-20013984D01*
X17953515Y-20013984D02*
X17943991Y-20004460D01*
X17943991Y-20004460D02*
X17953515Y-19994936D01*
X17953515Y-19994936D02*
X17953515Y-20013984D01*
X18086848Y-19813984D02*
X18105896Y-19813984D01*
X18105896Y-19813984D02*
X18124944Y-19823508D01*
X18124944Y-19823508D02*
X18134468Y-19833031D01*
X18134468Y-19833031D02*
X18143991Y-19852079D01*
X18143991Y-19852079D02*
X18153515Y-19890174D01*
X18153515Y-19890174D02*
X18153515Y-19937793D01*
X18153515Y-19937793D02*
X18143991Y-19975889D01*
X18143991Y-19975889D02*
X18134468Y-19994936D01*
X18134468Y-19994936D02*
X18124944Y-20004460D01*
X18124944Y-20004460D02*
X18105896Y-20013984D01*
X18105896Y-20013984D02*
X18086848Y-20013984D01*
X18086848Y-20013984D02*
X18067801Y-20004460D01*
X18067801Y-20004460D02*
X18058277Y-19994936D01*
X18058277Y-19994936D02*
X18048753Y-19975889D01*
X18048753Y-19975889D02*
X18039229Y-19937793D01*
X18039229Y-19937793D02*
X18039229Y-19890174D01*
X18039229Y-19890174D02*
X18048753Y-19852079D01*
X18048753Y-19852079D02*
X18058277Y-19833031D01*
X18058277Y-19833031D02*
X18067801Y-19823508D01*
X18067801Y-19823508D02*
X18086848Y-19813984D01*
X18343991Y-20013984D02*
X18229706Y-20013984D01*
X18286848Y-20013984D02*
X18286848Y-19813984D01*
X18286848Y-19813984D02*
X18267801Y-19842555D01*
X18267801Y-19842555D02*
X18248753Y-19861603D01*
X18248753Y-19861603D02*
X18229706Y-19871127D01*
X18534468Y-20013984D02*
X18420182Y-20013984D01*
X18477325Y-20013984D02*
X18477325Y-19813984D01*
X18477325Y-19813984D02*
X18458277Y-19842555D01*
X18458277Y-19842555D02*
X18439229Y-19861603D01*
X18439229Y-19861603D02*
X18420182Y-19871127D01*
X18648753Y-19899698D02*
X18629706Y-19890174D01*
X18629706Y-19890174D02*
X18620182Y-19880650D01*
X18620182Y-19880650D02*
X18610658Y-19861603D01*
X18610658Y-19861603D02*
X18610658Y-19852079D01*
X18610658Y-19852079D02*
X18620182Y-19833031D01*
X18620182Y-19833031D02*
X18629706Y-19823508D01*
X18629706Y-19823508D02*
X18648753Y-19813984D01*
X18648753Y-19813984D02*
X18686849Y-19813984D01*
X18686849Y-19813984D02*
X18705896Y-19823508D01*
X18705896Y-19823508D02*
X18715420Y-19833031D01*
X18715420Y-19833031D02*
X18724944Y-19852079D01*
X18724944Y-19852079D02*
X18724944Y-19861603D01*
X18724944Y-19861603D02*
X18715420Y-19880650D01*
X18715420Y-19880650D02*
X18705896Y-19890174D01*
X18705896Y-19890174D02*
X18686849Y-19899698D01*
X18686849Y-19899698D02*
X18648753Y-19899698D01*
X18648753Y-19899698D02*
X18629706Y-19909222D01*
X18629706Y-19909222D02*
X18620182Y-19918746D01*
X18620182Y-19918746D02*
X18610658Y-19937793D01*
X18610658Y-19937793D02*
X18610658Y-19975889D01*
X18610658Y-19975889D02*
X18620182Y-19994936D01*
X18620182Y-19994936D02*
X18629706Y-20004460D01*
X18629706Y-20004460D02*
X18648753Y-20013984D01*
X18648753Y-20013984D02*
X18686849Y-20013984D01*
X18686849Y-20013984D02*
X18705896Y-20004460D01*
X18705896Y-20004460D02*
X18715420Y-19994936D01*
X18715420Y-19994936D02*
X18724944Y-19975889D01*
X18724944Y-19975889D02*
X18724944Y-19937793D01*
X18724944Y-19937793D02*
X18715420Y-19918746D01*
X18715420Y-19918746D02*
X18705896Y-19909222D01*
X18705896Y-19909222D02*
X18686849Y-19899698D01*
X18801134Y-19813984D02*
X18801134Y-19852079D01*
X18877325Y-19813984D02*
X18877325Y-19852079D01*
X19172563Y-20090174D02*
X19163039Y-20080650D01*
X19163039Y-20080650D02*
X19143991Y-20052079D01*
X19143991Y-20052079D02*
X19134468Y-20033031D01*
X19134468Y-20033031D02*
X19124944Y-20004460D01*
X19124944Y-20004460D02*
X19115420Y-19956841D01*
X19115420Y-19956841D02*
X19115420Y-19918746D01*
X19115420Y-19918746D02*
X19124944Y-19871127D01*
X19124944Y-19871127D02*
X19134468Y-19842555D01*
X19134468Y-19842555D02*
X19143991Y-19823508D01*
X19143991Y-19823508D02*
X19163039Y-19794936D01*
X19163039Y-19794936D02*
X19172563Y-19785412D01*
X19239230Y-19833031D02*
X19248753Y-19823508D01*
X19248753Y-19823508D02*
X19267801Y-19813984D01*
X19267801Y-19813984D02*
X19315420Y-19813984D01*
X19315420Y-19813984D02*
X19334468Y-19823508D01*
X19334468Y-19823508D02*
X19343991Y-19833031D01*
X19343991Y-19833031D02*
X19353515Y-19852079D01*
X19353515Y-19852079D02*
X19353515Y-19871127D01*
X19353515Y-19871127D02*
X19343991Y-19899698D01*
X19343991Y-19899698D02*
X19229706Y-20013984D01*
X19229706Y-20013984D02*
X19353515Y-20013984D01*
X19534468Y-19813984D02*
X19439230Y-19813984D01*
X19439230Y-19813984D02*
X19429706Y-19909222D01*
X19429706Y-19909222D02*
X19439230Y-19899698D01*
X19439230Y-19899698D02*
X19458277Y-19890174D01*
X19458277Y-19890174D02*
X19505896Y-19890174D01*
X19505896Y-19890174D02*
X19524944Y-19899698D01*
X19524944Y-19899698D02*
X19534468Y-19909222D01*
X19534468Y-19909222D02*
X19543991Y-19928270D01*
X19543991Y-19928270D02*
X19543991Y-19975889D01*
X19543991Y-19975889D02*
X19534468Y-19994936D01*
X19534468Y-19994936D02*
X19524944Y-20004460D01*
X19524944Y-20004460D02*
X19505896Y-20013984D01*
X19505896Y-20013984D02*
X19458277Y-20013984D01*
X19458277Y-20013984D02*
X19439230Y-20004460D01*
X19439230Y-20004460D02*
X19429706Y-19994936D01*
X19782087Y-20013984D02*
X19782087Y-19813984D01*
X19867801Y-20013984D02*
X19867801Y-19909222D01*
X19867801Y-19909222D02*
X19858277Y-19890174D01*
X19858277Y-19890174D02*
X19839230Y-19880650D01*
X19839230Y-19880650D02*
X19810658Y-19880650D01*
X19810658Y-19880650D02*
X19791611Y-19890174D01*
X19791611Y-19890174D02*
X19782087Y-19899698D01*
X19991611Y-20013984D02*
X19972563Y-20004460D01*
X19972563Y-20004460D02*
X19963039Y-19994936D01*
X19963039Y-19994936D02*
X19953515Y-19975889D01*
X19953515Y-19975889D02*
X19953515Y-19918746D01*
X19953515Y-19918746D02*
X19963039Y-19899698D01*
X19963039Y-19899698D02*
X19972563Y-19890174D01*
X19972563Y-19890174D02*
X19991611Y-19880650D01*
X19991611Y-19880650D02*
X20020182Y-19880650D01*
X20020182Y-19880650D02*
X20039230Y-19890174D01*
X20039230Y-19890174D02*
X20048753Y-19899698D01*
X20048753Y-19899698D02*
X20058277Y-19918746D01*
X20058277Y-19918746D02*
X20058277Y-19975889D01*
X20058277Y-19975889D02*
X20048753Y-19994936D01*
X20048753Y-19994936D02*
X20039230Y-20004460D01*
X20039230Y-20004460D02*
X20020182Y-20013984D01*
X20020182Y-20013984D02*
X19991611Y-20013984D01*
X20172563Y-20013984D02*
X20153515Y-20004460D01*
X20153515Y-20004460D02*
X20143992Y-19985412D01*
X20143992Y-19985412D02*
X20143992Y-19813984D01*
X20324944Y-20004460D02*
X20305896Y-20013984D01*
X20305896Y-20013984D02*
X20267801Y-20013984D01*
X20267801Y-20013984D02*
X20248753Y-20004460D01*
X20248753Y-20004460D02*
X20239230Y-19985412D01*
X20239230Y-19985412D02*
X20239230Y-19909222D01*
X20239230Y-19909222D02*
X20248753Y-19890174D01*
X20248753Y-19890174D02*
X20267801Y-19880650D01*
X20267801Y-19880650D02*
X20305896Y-19880650D01*
X20305896Y-19880650D02*
X20324944Y-19890174D01*
X20324944Y-19890174D02*
X20334468Y-19909222D01*
X20334468Y-19909222D02*
X20334468Y-19928270D01*
X20334468Y-19928270D02*
X20239230Y-19947317D01*
X20410658Y-20004460D02*
X20429706Y-20013984D01*
X20429706Y-20013984D02*
X20467801Y-20013984D01*
X20467801Y-20013984D02*
X20486849Y-20004460D01*
X20486849Y-20004460D02*
X20496373Y-19985412D01*
X20496373Y-19985412D02*
X20496373Y-19975889D01*
X20496373Y-19975889D02*
X20486849Y-19956841D01*
X20486849Y-19956841D02*
X20467801Y-19947317D01*
X20467801Y-19947317D02*
X20439230Y-19947317D01*
X20439230Y-19947317D02*
X20420182Y-19937793D01*
X20420182Y-19937793D02*
X20410658Y-19918746D01*
X20410658Y-19918746D02*
X20410658Y-19909222D01*
X20410658Y-19909222D02*
X20420182Y-19890174D01*
X20420182Y-19890174D02*
X20439230Y-19880650D01*
X20439230Y-19880650D02*
X20467801Y-19880650D01*
X20467801Y-19880650D02*
X20486849Y-19890174D01*
X20563039Y-20090174D02*
X20572563Y-20080650D01*
X20572563Y-20080650D02*
X20591611Y-20052079D01*
X20591611Y-20052079D02*
X20601134Y-20033031D01*
X20601134Y-20033031D02*
X20610658Y-20004460D01*
X20610658Y-20004460D02*
X20620182Y-19956841D01*
X20620182Y-19956841D02*
X20620182Y-19918746D01*
X20620182Y-19918746D02*
X20610658Y-19871127D01*
X20610658Y-19871127D02*
X20601134Y-19842555D01*
X20601134Y-19842555D02*
X20591611Y-19823508D01*
X20591611Y-19823508D02*
X20572563Y-19794936D01*
X20572563Y-19794936D02*
X20563039Y-19785412D01*
D12*
X15597500Y-20186500D02*
G75*
G02*
X15537500Y-20186500I-30000J0D01*
G01*
X15537500Y-20186500D02*
G75*
G02*
X15597500Y-20186500I30000J0D01*
G01*
D11*
X15896372Y-20077984D02*
X15915420Y-20077984D01*
X15915420Y-20077984D02*
X15934467Y-20087508D01*
X15934467Y-20087508D02*
X15943991Y-20097031D01*
X15943991Y-20097031D02*
X15953515Y-20116079D01*
X15953515Y-20116079D02*
X15963039Y-20154174D01*
X15963039Y-20154174D02*
X15963039Y-20201793D01*
X15963039Y-20201793D02*
X15953515Y-20239889D01*
X15953515Y-20239889D02*
X15943991Y-20258936D01*
X15943991Y-20258936D02*
X15934467Y-20268460D01*
X15934467Y-20268460D02*
X15915420Y-20277984D01*
X15915420Y-20277984D02*
X15896372Y-20277984D01*
X15896372Y-20277984D02*
X15877324Y-20268460D01*
X15877324Y-20268460D02*
X15867801Y-20258936D01*
X15867801Y-20258936D02*
X15858277Y-20239889D01*
X15858277Y-20239889D02*
X15848753Y-20201793D01*
X15848753Y-20201793D02*
X15848753Y-20154174D01*
X15848753Y-20154174D02*
X15858277Y-20116079D01*
X15858277Y-20116079D02*
X15867801Y-20097031D01*
X15867801Y-20097031D02*
X15877324Y-20087508D01*
X15877324Y-20087508D02*
X15896372Y-20077984D01*
X16048753Y-20258936D02*
X16058277Y-20268460D01*
X16058277Y-20268460D02*
X16048753Y-20277984D01*
X16048753Y-20277984D02*
X16039229Y-20268460D01*
X16039229Y-20268460D02*
X16048753Y-20258936D01*
X16048753Y-20258936D02*
X16048753Y-20277984D01*
X16229705Y-20077984D02*
X16191610Y-20077984D01*
X16191610Y-20077984D02*
X16172562Y-20087508D01*
X16172562Y-20087508D02*
X16163039Y-20097031D01*
X16163039Y-20097031D02*
X16143991Y-20125603D01*
X16143991Y-20125603D02*
X16134467Y-20163698D01*
X16134467Y-20163698D02*
X16134467Y-20239889D01*
X16134467Y-20239889D02*
X16143991Y-20258936D01*
X16143991Y-20258936D02*
X16153515Y-20268460D01*
X16153515Y-20268460D02*
X16172562Y-20277984D01*
X16172562Y-20277984D02*
X16210658Y-20277984D01*
X16210658Y-20277984D02*
X16229705Y-20268460D01*
X16229705Y-20268460D02*
X16239229Y-20258936D01*
X16239229Y-20258936D02*
X16248753Y-20239889D01*
X16248753Y-20239889D02*
X16248753Y-20192270D01*
X16248753Y-20192270D02*
X16239229Y-20173222D01*
X16239229Y-20173222D02*
X16229705Y-20163698D01*
X16229705Y-20163698D02*
X16210658Y-20154174D01*
X16210658Y-20154174D02*
X16172562Y-20154174D01*
X16172562Y-20154174D02*
X16153515Y-20163698D01*
X16153515Y-20163698D02*
X16143991Y-20173222D01*
X16143991Y-20173222D02*
X16134467Y-20192270D01*
X16372562Y-20077984D02*
X16391610Y-20077984D01*
X16391610Y-20077984D02*
X16410658Y-20087508D01*
X16410658Y-20087508D02*
X16420182Y-20097031D01*
X16420182Y-20097031D02*
X16429705Y-20116079D01*
X16429705Y-20116079D02*
X16439229Y-20154174D01*
X16439229Y-20154174D02*
X16439229Y-20201793D01*
X16439229Y-20201793D02*
X16429705Y-20239889D01*
X16429705Y-20239889D02*
X16420182Y-20258936D01*
X16420182Y-20258936D02*
X16410658Y-20268460D01*
X16410658Y-20268460D02*
X16391610Y-20277984D01*
X16391610Y-20277984D02*
X16372562Y-20277984D01*
X16372562Y-20277984D02*
X16353515Y-20268460D01*
X16353515Y-20268460D02*
X16343991Y-20258936D01*
X16343991Y-20258936D02*
X16334467Y-20239889D01*
X16334467Y-20239889D02*
X16324943Y-20201793D01*
X16324943Y-20201793D02*
X16324943Y-20154174D01*
X16324943Y-20154174D02*
X16334467Y-20116079D01*
X16334467Y-20116079D02*
X16343991Y-20097031D01*
X16343991Y-20097031D02*
X16353515Y-20087508D01*
X16353515Y-20087508D02*
X16372562Y-20077984D01*
X16563039Y-20077984D02*
X16582086Y-20077984D01*
X16582086Y-20077984D02*
X16601134Y-20087508D01*
X16601134Y-20087508D02*
X16610658Y-20097031D01*
X16610658Y-20097031D02*
X16620182Y-20116079D01*
X16620182Y-20116079D02*
X16629705Y-20154174D01*
X16629705Y-20154174D02*
X16629705Y-20201793D01*
X16629705Y-20201793D02*
X16620182Y-20239889D01*
X16620182Y-20239889D02*
X16610658Y-20258936D01*
X16610658Y-20258936D02*
X16601134Y-20268460D01*
X16601134Y-20268460D02*
X16582086Y-20277984D01*
X16582086Y-20277984D02*
X16563039Y-20277984D01*
X16563039Y-20277984D02*
X16543991Y-20268460D01*
X16543991Y-20268460D02*
X16534467Y-20258936D01*
X16534467Y-20258936D02*
X16524943Y-20239889D01*
X16524943Y-20239889D02*
X16515420Y-20201793D01*
X16515420Y-20201793D02*
X16515420Y-20154174D01*
X16515420Y-20154174D02*
X16524943Y-20116079D01*
X16524943Y-20116079D02*
X16534467Y-20097031D01*
X16534467Y-20097031D02*
X16543991Y-20087508D01*
X16543991Y-20087508D02*
X16563039Y-20077984D01*
X16715420Y-20277984D02*
X16715420Y-20144650D01*
X16715420Y-20163698D02*
X16724943Y-20154174D01*
X16724943Y-20154174D02*
X16743991Y-20144650D01*
X16743991Y-20144650D02*
X16772563Y-20144650D01*
X16772563Y-20144650D02*
X16791610Y-20154174D01*
X16791610Y-20154174D02*
X16801134Y-20173222D01*
X16801134Y-20173222D02*
X16801134Y-20277984D01*
X16801134Y-20173222D02*
X16810658Y-20154174D01*
X16810658Y-20154174D02*
X16829705Y-20144650D01*
X16829705Y-20144650D02*
X16858277Y-20144650D01*
X16858277Y-20144650D02*
X16877325Y-20154174D01*
X16877325Y-20154174D02*
X16886848Y-20173222D01*
X16886848Y-20173222D02*
X16886848Y-20277984D01*
X16982086Y-20277984D02*
X16982086Y-20144650D01*
X16982086Y-20163698D02*
X16991610Y-20154174D01*
X16991610Y-20154174D02*
X17010658Y-20144650D01*
X17010658Y-20144650D02*
X17039229Y-20144650D01*
X17039229Y-20144650D02*
X17058277Y-20154174D01*
X17058277Y-20154174D02*
X17067801Y-20173222D01*
X17067801Y-20173222D02*
X17067801Y-20277984D01*
X17067801Y-20173222D02*
X17077325Y-20154174D01*
X17077325Y-20154174D02*
X17096372Y-20144650D01*
X17096372Y-20144650D02*
X17124944Y-20144650D01*
X17124944Y-20144650D02*
X17143991Y-20154174D01*
X17143991Y-20154174D02*
X17153515Y-20173222D01*
X17153515Y-20173222D02*
X17153515Y-20277984D01*
X17543991Y-20068460D02*
X17372563Y-20325603D01*
X17801134Y-20077984D02*
X17820182Y-20077984D01*
X17820182Y-20077984D02*
X17839229Y-20087508D01*
X17839229Y-20087508D02*
X17848753Y-20097031D01*
X17848753Y-20097031D02*
X17858277Y-20116079D01*
X17858277Y-20116079D02*
X17867801Y-20154174D01*
X17867801Y-20154174D02*
X17867801Y-20201793D01*
X17867801Y-20201793D02*
X17858277Y-20239889D01*
X17858277Y-20239889D02*
X17848753Y-20258936D01*
X17848753Y-20258936D02*
X17839229Y-20268460D01*
X17839229Y-20268460D02*
X17820182Y-20277984D01*
X17820182Y-20277984D02*
X17801134Y-20277984D01*
X17801134Y-20277984D02*
X17782087Y-20268460D01*
X17782087Y-20268460D02*
X17772563Y-20258936D01*
X17772563Y-20258936D02*
X17763039Y-20239889D01*
X17763039Y-20239889D02*
X17753515Y-20201793D01*
X17753515Y-20201793D02*
X17753515Y-20154174D01*
X17753515Y-20154174D02*
X17763039Y-20116079D01*
X17763039Y-20116079D02*
X17772563Y-20097031D01*
X17772563Y-20097031D02*
X17782087Y-20087508D01*
X17782087Y-20087508D02*
X17801134Y-20077984D01*
X17953515Y-20258936D02*
X17963039Y-20268460D01*
X17963039Y-20268460D02*
X17953515Y-20277984D01*
X17953515Y-20277984D02*
X17943991Y-20268460D01*
X17943991Y-20268460D02*
X17953515Y-20258936D01*
X17953515Y-20258936D02*
X17953515Y-20277984D01*
X18086848Y-20077984D02*
X18105896Y-20077984D01*
X18105896Y-20077984D02*
X18124944Y-20087508D01*
X18124944Y-20087508D02*
X18134468Y-20097031D01*
X18134468Y-20097031D02*
X18143991Y-20116079D01*
X18143991Y-20116079D02*
X18153515Y-20154174D01*
X18153515Y-20154174D02*
X18153515Y-20201793D01*
X18153515Y-20201793D02*
X18143991Y-20239889D01*
X18143991Y-20239889D02*
X18134468Y-20258936D01*
X18134468Y-20258936D02*
X18124944Y-20268460D01*
X18124944Y-20268460D02*
X18105896Y-20277984D01*
X18105896Y-20277984D02*
X18086848Y-20277984D01*
X18086848Y-20277984D02*
X18067801Y-20268460D01*
X18067801Y-20268460D02*
X18058277Y-20258936D01*
X18058277Y-20258936D02*
X18048753Y-20239889D01*
X18048753Y-20239889D02*
X18039229Y-20201793D01*
X18039229Y-20201793D02*
X18039229Y-20154174D01*
X18039229Y-20154174D02*
X18048753Y-20116079D01*
X18048753Y-20116079D02*
X18058277Y-20097031D01*
X18058277Y-20097031D02*
X18067801Y-20087508D01*
X18067801Y-20087508D02*
X18086848Y-20077984D01*
X18229706Y-20097031D02*
X18239229Y-20087508D01*
X18239229Y-20087508D02*
X18258277Y-20077984D01*
X18258277Y-20077984D02*
X18305896Y-20077984D01*
X18305896Y-20077984D02*
X18324944Y-20087508D01*
X18324944Y-20087508D02*
X18334468Y-20097031D01*
X18334468Y-20097031D02*
X18343991Y-20116079D01*
X18343991Y-20116079D02*
X18343991Y-20135127D01*
X18343991Y-20135127D02*
X18334468Y-20163698D01*
X18334468Y-20163698D02*
X18220182Y-20277984D01*
X18220182Y-20277984D02*
X18343991Y-20277984D01*
X18410658Y-20077984D02*
X18534468Y-20077984D01*
X18534468Y-20077984D02*
X18467801Y-20154174D01*
X18467801Y-20154174D02*
X18496372Y-20154174D01*
X18496372Y-20154174D02*
X18515420Y-20163698D01*
X18515420Y-20163698D02*
X18524944Y-20173222D01*
X18524944Y-20173222D02*
X18534468Y-20192270D01*
X18534468Y-20192270D02*
X18534468Y-20239889D01*
X18534468Y-20239889D02*
X18524944Y-20258936D01*
X18524944Y-20258936D02*
X18515420Y-20268460D01*
X18515420Y-20268460D02*
X18496372Y-20277984D01*
X18496372Y-20277984D02*
X18439229Y-20277984D01*
X18439229Y-20277984D02*
X18420182Y-20268460D01*
X18420182Y-20268460D02*
X18410658Y-20258936D01*
X18705896Y-20077984D02*
X18667801Y-20077984D01*
X18667801Y-20077984D02*
X18648753Y-20087508D01*
X18648753Y-20087508D02*
X18639229Y-20097031D01*
X18639229Y-20097031D02*
X18620182Y-20125603D01*
X18620182Y-20125603D02*
X18610658Y-20163698D01*
X18610658Y-20163698D02*
X18610658Y-20239889D01*
X18610658Y-20239889D02*
X18620182Y-20258936D01*
X18620182Y-20258936D02*
X18629706Y-20268460D01*
X18629706Y-20268460D02*
X18648753Y-20277984D01*
X18648753Y-20277984D02*
X18686849Y-20277984D01*
X18686849Y-20277984D02*
X18705896Y-20268460D01*
X18705896Y-20268460D02*
X18715420Y-20258936D01*
X18715420Y-20258936D02*
X18724944Y-20239889D01*
X18724944Y-20239889D02*
X18724944Y-20192270D01*
X18724944Y-20192270D02*
X18715420Y-20173222D01*
X18715420Y-20173222D02*
X18705896Y-20163698D01*
X18705896Y-20163698D02*
X18686849Y-20154174D01*
X18686849Y-20154174D02*
X18648753Y-20154174D01*
X18648753Y-20154174D02*
X18629706Y-20163698D01*
X18629706Y-20163698D02*
X18620182Y-20173222D01*
X18620182Y-20173222D02*
X18610658Y-20192270D01*
X18801134Y-20077984D02*
X18801134Y-20116079D01*
X18877325Y-20077984D02*
X18877325Y-20116079D01*
X19172563Y-20354174D02*
X19163039Y-20344650D01*
X19163039Y-20344650D02*
X19143991Y-20316079D01*
X19143991Y-20316079D02*
X19134468Y-20297031D01*
X19134468Y-20297031D02*
X19124944Y-20268460D01*
X19124944Y-20268460D02*
X19115420Y-20220841D01*
X19115420Y-20220841D02*
X19115420Y-20182746D01*
X19115420Y-20182746D02*
X19124944Y-20135127D01*
X19124944Y-20135127D02*
X19134468Y-20106555D01*
X19134468Y-20106555D02*
X19143991Y-20087508D01*
X19143991Y-20087508D02*
X19163039Y-20058936D01*
X19163039Y-20058936D02*
X19172563Y-20049412D01*
X19229706Y-20077984D02*
X19353515Y-20077984D01*
X19353515Y-20077984D02*
X19286849Y-20154174D01*
X19286849Y-20154174D02*
X19315420Y-20154174D01*
X19315420Y-20154174D02*
X19334468Y-20163698D01*
X19334468Y-20163698D02*
X19343991Y-20173222D01*
X19343991Y-20173222D02*
X19353515Y-20192270D01*
X19353515Y-20192270D02*
X19353515Y-20239889D01*
X19353515Y-20239889D02*
X19343991Y-20258936D01*
X19343991Y-20258936D02*
X19334468Y-20268460D01*
X19334468Y-20268460D02*
X19315420Y-20277984D01*
X19315420Y-20277984D02*
X19258277Y-20277984D01*
X19258277Y-20277984D02*
X19239230Y-20268460D01*
X19239230Y-20268460D02*
X19229706Y-20258936D01*
X19429706Y-20097031D02*
X19439230Y-20087508D01*
X19439230Y-20087508D02*
X19458277Y-20077984D01*
X19458277Y-20077984D02*
X19505896Y-20077984D01*
X19505896Y-20077984D02*
X19524944Y-20087508D01*
X19524944Y-20087508D02*
X19534468Y-20097031D01*
X19534468Y-20097031D02*
X19543991Y-20116079D01*
X19543991Y-20116079D02*
X19543991Y-20135127D01*
X19543991Y-20135127D02*
X19534468Y-20163698D01*
X19534468Y-20163698D02*
X19420182Y-20277984D01*
X19420182Y-20277984D02*
X19543991Y-20277984D01*
X19782087Y-20277984D02*
X19782087Y-20077984D01*
X19867801Y-20277984D02*
X19867801Y-20173222D01*
X19867801Y-20173222D02*
X19858277Y-20154174D01*
X19858277Y-20154174D02*
X19839230Y-20144650D01*
X19839230Y-20144650D02*
X19810658Y-20144650D01*
X19810658Y-20144650D02*
X19791611Y-20154174D01*
X19791611Y-20154174D02*
X19782087Y-20163698D01*
X19991611Y-20277984D02*
X19972563Y-20268460D01*
X19972563Y-20268460D02*
X19963039Y-20258936D01*
X19963039Y-20258936D02*
X19953515Y-20239889D01*
X19953515Y-20239889D02*
X19953515Y-20182746D01*
X19953515Y-20182746D02*
X19963039Y-20163698D01*
X19963039Y-20163698D02*
X19972563Y-20154174D01*
X19972563Y-20154174D02*
X19991611Y-20144650D01*
X19991611Y-20144650D02*
X20020182Y-20144650D01*
X20020182Y-20144650D02*
X20039230Y-20154174D01*
X20039230Y-20154174D02*
X20048753Y-20163698D01*
X20048753Y-20163698D02*
X20058277Y-20182746D01*
X20058277Y-20182746D02*
X20058277Y-20239889D01*
X20058277Y-20239889D02*
X20048753Y-20258936D01*
X20048753Y-20258936D02*
X20039230Y-20268460D01*
X20039230Y-20268460D02*
X20020182Y-20277984D01*
X20020182Y-20277984D02*
X19991611Y-20277984D01*
X20172563Y-20277984D02*
X20153515Y-20268460D01*
X20153515Y-20268460D02*
X20143992Y-20249412D01*
X20143992Y-20249412D02*
X20143992Y-20077984D01*
X20324944Y-20268460D02*
X20305896Y-20277984D01*
X20305896Y-20277984D02*
X20267801Y-20277984D01*
X20267801Y-20277984D02*
X20248753Y-20268460D01*
X20248753Y-20268460D02*
X20239230Y-20249412D01*
X20239230Y-20249412D02*
X20239230Y-20173222D01*
X20239230Y-20173222D02*
X20248753Y-20154174D01*
X20248753Y-20154174D02*
X20267801Y-20144650D01*
X20267801Y-20144650D02*
X20305896Y-20144650D01*
X20305896Y-20144650D02*
X20324944Y-20154174D01*
X20324944Y-20154174D02*
X20334468Y-20173222D01*
X20334468Y-20173222D02*
X20334468Y-20192270D01*
X20334468Y-20192270D02*
X20239230Y-20211317D01*
X20410658Y-20268460D02*
X20429706Y-20277984D01*
X20429706Y-20277984D02*
X20467801Y-20277984D01*
X20467801Y-20277984D02*
X20486849Y-20268460D01*
X20486849Y-20268460D02*
X20496373Y-20249412D01*
X20496373Y-20249412D02*
X20496373Y-20239889D01*
X20496373Y-20239889D02*
X20486849Y-20220841D01*
X20486849Y-20220841D02*
X20467801Y-20211317D01*
X20467801Y-20211317D02*
X20439230Y-20211317D01*
X20439230Y-20211317D02*
X20420182Y-20201793D01*
X20420182Y-20201793D02*
X20410658Y-20182746D01*
X20410658Y-20182746D02*
X20410658Y-20173222D01*
X20410658Y-20173222D02*
X20420182Y-20154174D01*
X20420182Y-20154174D02*
X20439230Y-20144650D01*
X20439230Y-20144650D02*
X20467801Y-20144650D01*
X20467801Y-20144650D02*
X20486849Y-20154174D01*
X20563039Y-20354174D02*
X20572563Y-20344650D01*
X20572563Y-20344650D02*
X20591611Y-20316079D01*
X20591611Y-20316079D02*
X20601134Y-20297031D01*
X20601134Y-20297031D02*
X20610658Y-20268460D01*
X20610658Y-20268460D02*
X20620182Y-20220841D01*
X20620182Y-20220841D02*
X20620182Y-20182746D01*
X20620182Y-20182746D02*
X20610658Y-20135127D01*
X20610658Y-20135127D02*
X20601134Y-20106555D01*
X20601134Y-20106555D02*
X20591611Y-20087508D01*
X20591611Y-20087508D02*
X20572563Y-20058936D01*
X20572563Y-20058936D02*
X20563039Y-20049412D01*
D12*
X15550000Y-20403000D02*
X15550000Y-20498000D01*
X15502500Y-20450500D02*
X15597500Y-20450500D01*
D11*
X15896372Y-20341984D02*
X15915420Y-20341984D01*
X15915420Y-20341984D02*
X15934467Y-20351508D01*
X15934467Y-20351508D02*
X15943991Y-20361031D01*
X15943991Y-20361031D02*
X15953515Y-20380079D01*
X15953515Y-20380079D02*
X15963039Y-20418174D01*
X15963039Y-20418174D02*
X15963039Y-20465793D01*
X15963039Y-20465793D02*
X15953515Y-20503889D01*
X15953515Y-20503889D02*
X15943991Y-20522936D01*
X15943991Y-20522936D02*
X15934467Y-20532460D01*
X15934467Y-20532460D02*
X15915420Y-20541984D01*
X15915420Y-20541984D02*
X15896372Y-20541984D01*
X15896372Y-20541984D02*
X15877324Y-20532460D01*
X15877324Y-20532460D02*
X15867801Y-20522936D01*
X15867801Y-20522936D02*
X15858277Y-20503889D01*
X15858277Y-20503889D02*
X15848753Y-20465793D01*
X15848753Y-20465793D02*
X15848753Y-20418174D01*
X15848753Y-20418174D02*
X15858277Y-20380079D01*
X15858277Y-20380079D02*
X15867801Y-20361031D01*
X15867801Y-20361031D02*
X15877324Y-20351508D01*
X15877324Y-20351508D02*
X15896372Y-20341984D01*
X16048753Y-20522936D02*
X16058277Y-20532460D01*
X16058277Y-20532460D02*
X16048753Y-20541984D01*
X16048753Y-20541984D02*
X16039229Y-20532460D01*
X16039229Y-20532460D02*
X16048753Y-20522936D01*
X16048753Y-20522936D02*
X16048753Y-20541984D01*
X16153515Y-20541984D02*
X16191610Y-20541984D01*
X16191610Y-20541984D02*
X16210658Y-20532460D01*
X16210658Y-20532460D02*
X16220182Y-20522936D01*
X16220182Y-20522936D02*
X16239229Y-20494365D01*
X16239229Y-20494365D02*
X16248753Y-20456270D01*
X16248753Y-20456270D02*
X16248753Y-20380079D01*
X16248753Y-20380079D02*
X16239229Y-20361031D01*
X16239229Y-20361031D02*
X16229705Y-20351508D01*
X16229705Y-20351508D02*
X16210658Y-20341984D01*
X16210658Y-20341984D02*
X16172562Y-20341984D01*
X16172562Y-20341984D02*
X16153515Y-20351508D01*
X16153515Y-20351508D02*
X16143991Y-20361031D01*
X16143991Y-20361031D02*
X16134467Y-20380079D01*
X16134467Y-20380079D02*
X16134467Y-20427698D01*
X16134467Y-20427698D02*
X16143991Y-20446746D01*
X16143991Y-20446746D02*
X16153515Y-20456270D01*
X16153515Y-20456270D02*
X16172562Y-20465793D01*
X16172562Y-20465793D02*
X16210658Y-20465793D01*
X16210658Y-20465793D02*
X16229705Y-20456270D01*
X16229705Y-20456270D02*
X16239229Y-20446746D01*
X16239229Y-20446746D02*
X16248753Y-20427698D01*
X16429705Y-20341984D02*
X16334467Y-20341984D01*
X16334467Y-20341984D02*
X16324943Y-20437222D01*
X16324943Y-20437222D02*
X16334467Y-20427698D01*
X16334467Y-20427698D02*
X16353515Y-20418174D01*
X16353515Y-20418174D02*
X16401134Y-20418174D01*
X16401134Y-20418174D02*
X16420182Y-20427698D01*
X16420182Y-20427698D02*
X16429705Y-20437222D01*
X16429705Y-20437222D02*
X16439229Y-20456270D01*
X16439229Y-20456270D02*
X16439229Y-20503889D01*
X16439229Y-20503889D02*
X16429705Y-20522936D01*
X16429705Y-20522936D02*
X16420182Y-20532460D01*
X16420182Y-20532460D02*
X16401134Y-20541984D01*
X16401134Y-20541984D02*
X16353515Y-20541984D01*
X16353515Y-20541984D02*
X16334467Y-20532460D01*
X16334467Y-20532460D02*
X16324943Y-20522936D01*
X16563039Y-20341984D02*
X16582086Y-20341984D01*
X16582086Y-20341984D02*
X16601134Y-20351508D01*
X16601134Y-20351508D02*
X16610658Y-20361031D01*
X16610658Y-20361031D02*
X16620182Y-20380079D01*
X16620182Y-20380079D02*
X16629705Y-20418174D01*
X16629705Y-20418174D02*
X16629705Y-20465793D01*
X16629705Y-20465793D02*
X16620182Y-20503889D01*
X16620182Y-20503889D02*
X16610658Y-20522936D01*
X16610658Y-20522936D02*
X16601134Y-20532460D01*
X16601134Y-20532460D02*
X16582086Y-20541984D01*
X16582086Y-20541984D02*
X16563039Y-20541984D01*
X16563039Y-20541984D02*
X16543991Y-20532460D01*
X16543991Y-20532460D02*
X16534467Y-20522936D01*
X16534467Y-20522936D02*
X16524943Y-20503889D01*
X16524943Y-20503889D02*
X16515420Y-20465793D01*
X16515420Y-20465793D02*
X16515420Y-20418174D01*
X16515420Y-20418174D02*
X16524943Y-20380079D01*
X16524943Y-20380079D02*
X16534467Y-20361031D01*
X16534467Y-20361031D02*
X16543991Y-20351508D01*
X16543991Y-20351508D02*
X16563039Y-20341984D01*
X16715420Y-20541984D02*
X16715420Y-20408650D01*
X16715420Y-20427698D02*
X16724943Y-20418174D01*
X16724943Y-20418174D02*
X16743991Y-20408650D01*
X16743991Y-20408650D02*
X16772563Y-20408650D01*
X16772563Y-20408650D02*
X16791610Y-20418174D01*
X16791610Y-20418174D02*
X16801134Y-20437222D01*
X16801134Y-20437222D02*
X16801134Y-20541984D01*
X16801134Y-20437222D02*
X16810658Y-20418174D01*
X16810658Y-20418174D02*
X16829705Y-20408650D01*
X16829705Y-20408650D02*
X16858277Y-20408650D01*
X16858277Y-20408650D02*
X16877325Y-20418174D01*
X16877325Y-20418174D02*
X16886848Y-20437222D01*
X16886848Y-20437222D02*
X16886848Y-20541984D01*
X16982086Y-20541984D02*
X16982086Y-20408650D01*
X16982086Y-20427698D02*
X16991610Y-20418174D01*
X16991610Y-20418174D02*
X17010658Y-20408650D01*
X17010658Y-20408650D02*
X17039229Y-20408650D01*
X17039229Y-20408650D02*
X17058277Y-20418174D01*
X17058277Y-20418174D02*
X17067801Y-20437222D01*
X17067801Y-20437222D02*
X17067801Y-20541984D01*
X17067801Y-20437222D02*
X17077325Y-20418174D01*
X17077325Y-20418174D02*
X17096372Y-20408650D01*
X17096372Y-20408650D02*
X17124944Y-20408650D01*
X17124944Y-20408650D02*
X17143991Y-20418174D01*
X17143991Y-20418174D02*
X17153515Y-20437222D01*
X17153515Y-20437222D02*
X17153515Y-20541984D01*
X17543991Y-20332460D02*
X17372563Y-20589603D01*
X17801134Y-20341984D02*
X17820182Y-20341984D01*
X17820182Y-20341984D02*
X17839229Y-20351508D01*
X17839229Y-20351508D02*
X17848753Y-20361031D01*
X17848753Y-20361031D02*
X17858277Y-20380079D01*
X17858277Y-20380079D02*
X17867801Y-20418174D01*
X17867801Y-20418174D02*
X17867801Y-20465793D01*
X17867801Y-20465793D02*
X17858277Y-20503889D01*
X17858277Y-20503889D02*
X17848753Y-20522936D01*
X17848753Y-20522936D02*
X17839229Y-20532460D01*
X17839229Y-20532460D02*
X17820182Y-20541984D01*
X17820182Y-20541984D02*
X17801134Y-20541984D01*
X17801134Y-20541984D02*
X17782087Y-20532460D01*
X17782087Y-20532460D02*
X17772563Y-20522936D01*
X17772563Y-20522936D02*
X17763039Y-20503889D01*
X17763039Y-20503889D02*
X17753515Y-20465793D01*
X17753515Y-20465793D02*
X17753515Y-20418174D01*
X17753515Y-20418174D02*
X17763039Y-20380079D01*
X17763039Y-20380079D02*
X17772563Y-20361031D01*
X17772563Y-20361031D02*
X17782087Y-20351508D01*
X17782087Y-20351508D02*
X17801134Y-20341984D01*
X17953515Y-20522936D02*
X17963039Y-20532460D01*
X17963039Y-20532460D02*
X17953515Y-20541984D01*
X17953515Y-20541984D02*
X17943991Y-20532460D01*
X17943991Y-20532460D02*
X17953515Y-20522936D01*
X17953515Y-20522936D02*
X17953515Y-20541984D01*
X18086848Y-20341984D02*
X18105896Y-20341984D01*
X18105896Y-20341984D02*
X18124944Y-20351508D01*
X18124944Y-20351508D02*
X18134468Y-20361031D01*
X18134468Y-20361031D02*
X18143991Y-20380079D01*
X18143991Y-20380079D02*
X18153515Y-20418174D01*
X18153515Y-20418174D02*
X18153515Y-20465793D01*
X18153515Y-20465793D02*
X18143991Y-20503889D01*
X18143991Y-20503889D02*
X18134468Y-20522936D01*
X18134468Y-20522936D02*
X18124944Y-20532460D01*
X18124944Y-20532460D02*
X18105896Y-20541984D01*
X18105896Y-20541984D02*
X18086848Y-20541984D01*
X18086848Y-20541984D02*
X18067801Y-20532460D01*
X18067801Y-20532460D02*
X18058277Y-20522936D01*
X18058277Y-20522936D02*
X18048753Y-20503889D01*
X18048753Y-20503889D02*
X18039229Y-20465793D01*
X18039229Y-20465793D02*
X18039229Y-20418174D01*
X18039229Y-20418174D02*
X18048753Y-20380079D01*
X18048753Y-20380079D02*
X18058277Y-20361031D01*
X18058277Y-20361031D02*
X18067801Y-20351508D01*
X18067801Y-20351508D02*
X18086848Y-20341984D01*
X18220182Y-20341984D02*
X18343991Y-20341984D01*
X18343991Y-20341984D02*
X18277325Y-20418174D01*
X18277325Y-20418174D02*
X18305896Y-20418174D01*
X18305896Y-20418174D02*
X18324944Y-20427698D01*
X18324944Y-20427698D02*
X18334468Y-20437222D01*
X18334468Y-20437222D02*
X18343991Y-20456270D01*
X18343991Y-20456270D02*
X18343991Y-20503889D01*
X18343991Y-20503889D02*
X18334468Y-20522936D01*
X18334468Y-20522936D02*
X18324944Y-20532460D01*
X18324944Y-20532460D02*
X18305896Y-20541984D01*
X18305896Y-20541984D02*
X18248753Y-20541984D01*
X18248753Y-20541984D02*
X18229706Y-20532460D01*
X18229706Y-20532460D02*
X18220182Y-20522936D01*
X18410658Y-20341984D02*
X18543991Y-20341984D01*
X18543991Y-20341984D02*
X18458277Y-20541984D01*
X18705896Y-20408650D02*
X18705896Y-20541984D01*
X18658277Y-20332460D02*
X18610658Y-20475317D01*
X18610658Y-20475317D02*
X18734468Y-20475317D01*
X18801134Y-20341984D02*
X18801134Y-20380079D01*
X18877325Y-20341984D02*
X18877325Y-20380079D01*
X19172563Y-20618174D02*
X19163039Y-20608650D01*
X19163039Y-20608650D02*
X19143991Y-20580079D01*
X19143991Y-20580079D02*
X19134468Y-20561031D01*
X19134468Y-20561031D02*
X19124944Y-20532460D01*
X19124944Y-20532460D02*
X19115420Y-20484841D01*
X19115420Y-20484841D02*
X19115420Y-20446746D01*
X19115420Y-20446746D02*
X19124944Y-20399127D01*
X19124944Y-20399127D02*
X19134468Y-20370555D01*
X19134468Y-20370555D02*
X19143991Y-20351508D01*
X19143991Y-20351508D02*
X19163039Y-20322936D01*
X19163039Y-20322936D02*
X19172563Y-20313412D01*
X19343991Y-20341984D02*
X19248753Y-20341984D01*
X19248753Y-20341984D02*
X19239230Y-20437222D01*
X19239230Y-20437222D02*
X19248753Y-20427698D01*
X19248753Y-20427698D02*
X19267801Y-20418174D01*
X19267801Y-20418174D02*
X19315420Y-20418174D01*
X19315420Y-20418174D02*
X19334468Y-20427698D01*
X19334468Y-20427698D02*
X19343991Y-20437222D01*
X19343991Y-20437222D02*
X19353515Y-20456270D01*
X19353515Y-20456270D02*
X19353515Y-20503889D01*
X19353515Y-20503889D02*
X19343991Y-20522936D01*
X19343991Y-20522936D02*
X19334468Y-20532460D01*
X19334468Y-20532460D02*
X19315420Y-20541984D01*
X19315420Y-20541984D02*
X19267801Y-20541984D01*
X19267801Y-20541984D02*
X19248753Y-20532460D01*
X19248753Y-20532460D02*
X19239230Y-20522936D01*
X19591611Y-20541984D02*
X19591611Y-20341984D01*
X19677325Y-20541984D02*
X19677325Y-20437222D01*
X19677325Y-20437222D02*
X19667801Y-20418174D01*
X19667801Y-20418174D02*
X19648753Y-20408650D01*
X19648753Y-20408650D02*
X19620182Y-20408650D01*
X19620182Y-20408650D02*
X19601134Y-20418174D01*
X19601134Y-20418174D02*
X19591611Y-20427698D01*
X19801134Y-20541984D02*
X19782087Y-20532460D01*
X19782087Y-20532460D02*
X19772563Y-20522936D01*
X19772563Y-20522936D02*
X19763039Y-20503889D01*
X19763039Y-20503889D02*
X19763039Y-20446746D01*
X19763039Y-20446746D02*
X19772563Y-20427698D01*
X19772563Y-20427698D02*
X19782087Y-20418174D01*
X19782087Y-20418174D02*
X19801134Y-20408650D01*
X19801134Y-20408650D02*
X19829706Y-20408650D01*
X19829706Y-20408650D02*
X19848753Y-20418174D01*
X19848753Y-20418174D02*
X19858277Y-20427698D01*
X19858277Y-20427698D02*
X19867801Y-20446746D01*
X19867801Y-20446746D02*
X19867801Y-20503889D01*
X19867801Y-20503889D02*
X19858277Y-20522936D01*
X19858277Y-20522936D02*
X19848753Y-20532460D01*
X19848753Y-20532460D02*
X19829706Y-20541984D01*
X19829706Y-20541984D02*
X19801134Y-20541984D01*
X19982087Y-20541984D02*
X19963039Y-20532460D01*
X19963039Y-20532460D02*
X19953515Y-20513412D01*
X19953515Y-20513412D02*
X19953515Y-20341984D01*
X20134468Y-20532460D02*
X20115420Y-20541984D01*
X20115420Y-20541984D02*
X20077325Y-20541984D01*
X20077325Y-20541984D02*
X20058277Y-20532460D01*
X20058277Y-20532460D02*
X20048753Y-20513412D01*
X20048753Y-20513412D02*
X20048753Y-20437222D01*
X20048753Y-20437222D02*
X20058277Y-20418174D01*
X20058277Y-20418174D02*
X20077325Y-20408650D01*
X20077325Y-20408650D02*
X20115420Y-20408650D01*
X20115420Y-20408650D02*
X20134468Y-20418174D01*
X20134468Y-20418174D02*
X20143992Y-20437222D01*
X20143992Y-20437222D02*
X20143992Y-20456270D01*
X20143992Y-20456270D02*
X20048753Y-20475317D01*
X20220182Y-20532460D02*
X20239230Y-20541984D01*
X20239230Y-20541984D02*
X20277325Y-20541984D01*
X20277325Y-20541984D02*
X20296373Y-20532460D01*
X20296373Y-20532460D02*
X20305896Y-20513412D01*
X20305896Y-20513412D02*
X20305896Y-20503889D01*
X20305896Y-20503889D02*
X20296373Y-20484841D01*
X20296373Y-20484841D02*
X20277325Y-20475317D01*
X20277325Y-20475317D02*
X20248753Y-20475317D01*
X20248753Y-20475317D02*
X20229706Y-20465793D01*
X20229706Y-20465793D02*
X20220182Y-20446746D01*
X20220182Y-20446746D02*
X20220182Y-20437222D01*
X20220182Y-20437222D02*
X20229706Y-20418174D01*
X20229706Y-20418174D02*
X20248753Y-20408650D01*
X20248753Y-20408650D02*
X20277325Y-20408650D01*
X20277325Y-20408650D02*
X20296373Y-20418174D01*
X20372563Y-20618174D02*
X20382087Y-20608650D01*
X20382087Y-20608650D02*
X20401134Y-20580079D01*
X20401134Y-20580079D02*
X20410658Y-20561031D01*
X20410658Y-20561031D02*
X20420182Y-20532460D01*
X20420182Y-20532460D02*
X20429706Y-20484841D01*
X20429706Y-20484841D02*
X20429706Y-20446746D01*
X20429706Y-20446746D02*
X20420182Y-20399127D01*
X20420182Y-20399127D02*
X20410658Y-20370555D01*
X20410658Y-20370555D02*
X20401134Y-20351508D01*
X20401134Y-20351508D02*
X20382087Y-20322936D01*
X20382087Y-20322936D02*
X20372563Y-20313412D01*
D13*
X15582621Y-20750421D02*
X15582621Y-20678579D01*
X15510779Y-20678579D01*
X15510779Y-20750421D01*
X15582621Y-20750421D01*
D11*
X15963039Y-20805984D02*
X15848753Y-20805984D01*
X15905896Y-20805984D02*
X15905896Y-20605984D01*
X15905896Y-20605984D02*
X15886848Y-20634555D01*
X15886848Y-20634555D02*
X15867801Y-20653603D01*
X15867801Y-20653603D02*
X15848753Y-20663127D01*
X16048753Y-20786936D02*
X16058277Y-20796460D01*
X16058277Y-20796460D02*
X16048753Y-20805984D01*
X16048753Y-20805984D02*
X16039229Y-20796460D01*
X16039229Y-20796460D02*
X16048753Y-20786936D01*
X16048753Y-20786936D02*
X16048753Y-20805984D01*
X16182086Y-20605984D02*
X16201134Y-20605984D01*
X16201134Y-20605984D02*
X16220182Y-20615508D01*
X16220182Y-20615508D02*
X16229705Y-20625031D01*
X16229705Y-20625031D02*
X16239229Y-20644079D01*
X16239229Y-20644079D02*
X16248753Y-20682174D01*
X16248753Y-20682174D02*
X16248753Y-20729793D01*
X16248753Y-20729793D02*
X16239229Y-20767889D01*
X16239229Y-20767889D02*
X16229705Y-20786936D01*
X16229705Y-20786936D02*
X16220182Y-20796460D01*
X16220182Y-20796460D02*
X16201134Y-20805984D01*
X16201134Y-20805984D02*
X16182086Y-20805984D01*
X16182086Y-20805984D02*
X16163039Y-20796460D01*
X16163039Y-20796460D02*
X16153515Y-20786936D01*
X16153515Y-20786936D02*
X16143991Y-20767889D01*
X16143991Y-20767889D02*
X16134467Y-20729793D01*
X16134467Y-20729793D02*
X16134467Y-20682174D01*
X16134467Y-20682174D02*
X16143991Y-20644079D01*
X16143991Y-20644079D02*
X16153515Y-20625031D01*
X16153515Y-20625031D02*
X16163039Y-20615508D01*
X16163039Y-20615508D02*
X16182086Y-20605984D01*
X16439229Y-20805984D02*
X16324943Y-20805984D01*
X16382086Y-20805984D02*
X16382086Y-20605984D01*
X16382086Y-20605984D02*
X16363039Y-20634555D01*
X16363039Y-20634555D02*
X16343991Y-20653603D01*
X16343991Y-20653603D02*
X16324943Y-20663127D01*
X16610658Y-20605984D02*
X16572562Y-20605984D01*
X16572562Y-20605984D02*
X16553515Y-20615508D01*
X16553515Y-20615508D02*
X16543991Y-20625031D01*
X16543991Y-20625031D02*
X16524943Y-20653603D01*
X16524943Y-20653603D02*
X16515420Y-20691698D01*
X16515420Y-20691698D02*
X16515420Y-20767889D01*
X16515420Y-20767889D02*
X16524943Y-20786936D01*
X16524943Y-20786936D02*
X16534467Y-20796460D01*
X16534467Y-20796460D02*
X16553515Y-20805984D01*
X16553515Y-20805984D02*
X16591610Y-20805984D01*
X16591610Y-20805984D02*
X16610658Y-20796460D01*
X16610658Y-20796460D02*
X16620182Y-20786936D01*
X16620182Y-20786936D02*
X16629705Y-20767889D01*
X16629705Y-20767889D02*
X16629705Y-20720270D01*
X16629705Y-20720270D02*
X16620182Y-20701222D01*
X16620182Y-20701222D02*
X16610658Y-20691698D01*
X16610658Y-20691698D02*
X16591610Y-20682174D01*
X16591610Y-20682174D02*
X16553515Y-20682174D01*
X16553515Y-20682174D02*
X16534467Y-20691698D01*
X16534467Y-20691698D02*
X16524943Y-20701222D01*
X16524943Y-20701222D02*
X16515420Y-20720270D01*
X16715420Y-20805984D02*
X16715420Y-20672650D01*
X16715420Y-20691698D02*
X16724943Y-20682174D01*
X16724943Y-20682174D02*
X16743991Y-20672650D01*
X16743991Y-20672650D02*
X16772563Y-20672650D01*
X16772563Y-20672650D02*
X16791610Y-20682174D01*
X16791610Y-20682174D02*
X16801134Y-20701222D01*
X16801134Y-20701222D02*
X16801134Y-20805984D01*
X16801134Y-20701222D02*
X16810658Y-20682174D01*
X16810658Y-20682174D02*
X16829705Y-20672650D01*
X16829705Y-20672650D02*
X16858277Y-20672650D01*
X16858277Y-20672650D02*
X16877325Y-20682174D01*
X16877325Y-20682174D02*
X16886848Y-20701222D01*
X16886848Y-20701222D02*
X16886848Y-20805984D01*
X16982086Y-20805984D02*
X16982086Y-20672650D01*
X16982086Y-20691698D02*
X16991610Y-20682174D01*
X16991610Y-20682174D02*
X17010658Y-20672650D01*
X17010658Y-20672650D02*
X17039229Y-20672650D01*
X17039229Y-20672650D02*
X17058277Y-20682174D01*
X17058277Y-20682174D02*
X17067801Y-20701222D01*
X17067801Y-20701222D02*
X17067801Y-20805984D01*
X17067801Y-20701222D02*
X17077325Y-20682174D01*
X17077325Y-20682174D02*
X17096372Y-20672650D01*
X17096372Y-20672650D02*
X17124944Y-20672650D01*
X17124944Y-20672650D02*
X17143991Y-20682174D01*
X17143991Y-20682174D02*
X17153515Y-20701222D01*
X17153515Y-20701222D02*
X17153515Y-20805984D01*
X17543991Y-20596460D02*
X17372563Y-20853603D01*
X17801134Y-20605984D02*
X17820182Y-20605984D01*
X17820182Y-20605984D02*
X17839229Y-20615508D01*
X17839229Y-20615508D02*
X17848753Y-20625031D01*
X17848753Y-20625031D02*
X17858277Y-20644079D01*
X17858277Y-20644079D02*
X17867801Y-20682174D01*
X17867801Y-20682174D02*
X17867801Y-20729793D01*
X17867801Y-20729793D02*
X17858277Y-20767889D01*
X17858277Y-20767889D02*
X17848753Y-20786936D01*
X17848753Y-20786936D02*
X17839229Y-20796460D01*
X17839229Y-20796460D02*
X17820182Y-20805984D01*
X17820182Y-20805984D02*
X17801134Y-20805984D01*
X17801134Y-20805984D02*
X17782087Y-20796460D01*
X17782087Y-20796460D02*
X17772563Y-20786936D01*
X17772563Y-20786936D02*
X17763039Y-20767889D01*
X17763039Y-20767889D02*
X17753515Y-20729793D01*
X17753515Y-20729793D02*
X17753515Y-20682174D01*
X17753515Y-20682174D02*
X17763039Y-20644079D01*
X17763039Y-20644079D02*
X17772563Y-20625031D01*
X17772563Y-20625031D02*
X17782087Y-20615508D01*
X17782087Y-20615508D02*
X17801134Y-20605984D01*
X17953515Y-20786936D02*
X17963039Y-20796460D01*
X17963039Y-20796460D02*
X17953515Y-20805984D01*
X17953515Y-20805984D02*
X17943991Y-20796460D01*
X17943991Y-20796460D02*
X17953515Y-20786936D01*
X17953515Y-20786936D02*
X17953515Y-20805984D01*
X18086848Y-20605984D02*
X18105896Y-20605984D01*
X18105896Y-20605984D02*
X18124944Y-20615508D01*
X18124944Y-20615508D02*
X18134468Y-20625031D01*
X18134468Y-20625031D02*
X18143991Y-20644079D01*
X18143991Y-20644079D02*
X18153515Y-20682174D01*
X18153515Y-20682174D02*
X18153515Y-20729793D01*
X18153515Y-20729793D02*
X18143991Y-20767889D01*
X18143991Y-20767889D02*
X18134468Y-20786936D01*
X18134468Y-20786936D02*
X18124944Y-20796460D01*
X18124944Y-20796460D02*
X18105896Y-20805984D01*
X18105896Y-20805984D02*
X18086848Y-20805984D01*
X18086848Y-20805984D02*
X18067801Y-20796460D01*
X18067801Y-20796460D02*
X18058277Y-20786936D01*
X18058277Y-20786936D02*
X18048753Y-20767889D01*
X18048753Y-20767889D02*
X18039229Y-20729793D01*
X18039229Y-20729793D02*
X18039229Y-20682174D01*
X18039229Y-20682174D02*
X18048753Y-20644079D01*
X18048753Y-20644079D02*
X18058277Y-20625031D01*
X18058277Y-20625031D02*
X18067801Y-20615508D01*
X18067801Y-20615508D02*
X18086848Y-20605984D01*
X18324944Y-20672650D02*
X18324944Y-20805984D01*
X18277325Y-20596460D02*
X18229706Y-20739317D01*
X18229706Y-20739317D02*
X18353515Y-20739317D01*
X18467801Y-20605984D02*
X18486849Y-20605984D01*
X18486849Y-20605984D02*
X18505896Y-20615508D01*
X18505896Y-20615508D02*
X18515420Y-20625031D01*
X18515420Y-20625031D02*
X18524944Y-20644079D01*
X18524944Y-20644079D02*
X18534468Y-20682174D01*
X18534468Y-20682174D02*
X18534468Y-20729793D01*
X18534468Y-20729793D02*
X18524944Y-20767889D01*
X18524944Y-20767889D02*
X18515420Y-20786936D01*
X18515420Y-20786936D02*
X18505896Y-20796460D01*
X18505896Y-20796460D02*
X18486849Y-20805984D01*
X18486849Y-20805984D02*
X18467801Y-20805984D01*
X18467801Y-20805984D02*
X18448753Y-20796460D01*
X18448753Y-20796460D02*
X18439229Y-20786936D01*
X18439229Y-20786936D02*
X18429706Y-20767889D01*
X18429706Y-20767889D02*
X18420182Y-20729793D01*
X18420182Y-20729793D02*
X18420182Y-20682174D01*
X18420182Y-20682174D02*
X18429706Y-20644079D01*
X18429706Y-20644079D02*
X18439229Y-20625031D01*
X18439229Y-20625031D02*
X18448753Y-20615508D01*
X18448753Y-20615508D02*
X18467801Y-20605984D01*
X18658277Y-20605984D02*
X18677325Y-20605984D01*
X18677325Y-20605984D02*
X18696372Y-20615508D01*
X18696372Y-20615508D02*
X18705896Y-20625031D01*
X18705896Y-20625031D02*
X18715420Y-20644079D01*
X18715420Y-20644079D02*
X18724944Y-20682174D01*
X18724944Y-20682174D02*
X18724944Y-20729793D01*
X18724944Y-20729793D02*
X18715420Y-20767889D01*
X18715420Y-20767889D02*
X18705896Y-20786936D01*
X18705896Y-20786936D02*
X18696372Y-20796460D01*
X18696372Y-20796460D02*
X18677325Y-20805984D01*
X18677325Y-20805984D02*
X18658277Y-20805984D01*
X18658277Y-20805984D02*
X18639229Y-20796460D01*
X18639229Y-20796460D02*
X18629706Y-20786936D01*
X18629706Y-20786936D02*
X18620182Y-20767889D01*
X18620182Y-20767889D02*
X18610658Y-20729793D01*
X18610658Y-20729793D02*
X18610658Y-20682174D01*
X18610658Y-20682174D02*
X18620182Y-20644079D01*
X18620182Y-20644079D02*
X18629706Y-20625031D01*
X18629706Y-20625031D02*
X18639229Y-20615508D01*
X18639229Y-20615508D02*
X18658277Y-20605984D01*
X18801134Y-20605984D02*
X18801134Y-20644079D01*
X18877325Y-20605984D02*
X18877325Y-20644079D01*
X19172563Y-20882174D02*
X19163039Y-20872650D01*
X19163039Y-20872650D02*
X19143991Y-20844079D01*
X19143991Y-20844079D02*
X19134468Y-20825031D01*
X19134468Y-20825031D02*
X19124944Y-20796460D01*
X19124944Y-20796460D02*
X19115420Y-20748841D01*
X19115420Y-20748841D02*
X19115420Y-20710746D01*
X19115420Y-20710746D02*
X19124944Y-20663127D01*
X19124944Y-20663127D02*
X19134468Y-20634555D01*
X19134468Y-20634555D02*
X19143991Y-20615508D01*
X19143991Y-20615508D02*
X19163039Y-20586936D01*
X19163039Y-20586936D02*
X19172563Y-20577412D01*
X19229706Y-20605984D02*
X19353515Y-20605984D01*
X19353515Y-20605984D02*
X19286849Y-20682174D01*
X19286849Y-20682174D02*
X19315420Y-20682174D01*
X19315420Y-20682174D02*
X19334468Y-20691698D01*
X19334468Y-20691698D02*
X19343991Y-20701222D01*
X19343991Y-20701222D02*
X19353515Y-20720270D01*
X19353515Y-20720270D02*
X19353515Y-20767889D01*
X19353515Y-20767889D02*
X19343991Y-20786936D01*
X19343991Y-20786936D02*
X19334468Y-20796460D01*
X19334468Y-20796460D02*
X19315420Y-20805984D01*
X19315420Y-20805984D02*
X19258277Y-20805984D01*
X19258277Y-20805984D02*
X19239230Y-20796460D01*
X19239230Y-20796460D02*
X19229706Y-20786936D01*
X19429706Y-20625031D02*
X19439230Y-20615508D01*
X19439230Y-20615508D02*
X19458277Y-20605984D01*
X19458277Y-20605984D02*
X19505896Y-20605984D01*
X19505896Y-20605984D02*
X19524944Y-20615508D01*
X19524944Y-20615508D02*
X19534468Y-20625031D01*
X19534468Y-20625031D02*
X19543991Y-20644079D01*
X19543991Y-20644079D02*
X19543991Y-20663127D01*
X19543991Y-20663127D02*
X19534468Y-20691698D01*
X19534468Y-20691698D02*
X19420182Y-20805984D01*
X19420182Y-20805984D02*
X19543991Y-20805984D01*
X19782087Y-20805984D02*
X19782087Y-20605984D01*
X19867801Y-20805984D02*
X19867801Y-20701222D01*
X19867801Y-20701222D02*
X19858277Y-20682174D01*
X19858277Y-20682174D02*
X19839230Y-20672650D01*
X19839230Y-20672650D02*
X19810658Y-20672650D01*
X19810658Y-20672650D02*
X19791611Y-20682174D01*
X19791611Y-20682174D02*
X19782087Y-20691698D01*
X19991611Y-20805984D02*
X19972563Y-20796460D01*
X19972563Y-20796460D02*
X19963039Y-20786936D01*
X19963039Y-20786936D02*
X19953515Y-20767889D01*
X19953515Y-20767889D02*
X19953515Y-20710746D01*
X19953515Y-20710746D02*
X19963039Y-20691698D01*
X19963039Y-20691698D02*
X19972563Y-20682174D01*
X19972563Y-20682174D02*
X19991611Y-20672650D01*
X19991611Y-20672650D02*
X20020182Y-20672650D01*
X20020182Y-20672650D02*
X20039230Y-20682174D01*
X20039230Y-20682174D02*
X20048753Y-20691698D01*
X20048753Y-20691698D02*
X20058277Y-20710746D01*
X20058277Y-20710746D02*
X20058277Y-20767889D01*
X20058277Y-20767889D02*
X20048753Y-20786936D01*
X20048753Y-20786936D02*
X20039230Y-20796460D01*
X20039230Y-20796460D02*
X20020182Y-20805984D01*
X20020182Y-20805984D02*
X19991611Y-20805984D01*
X20172563Y-20805984D02*
X20153515Y-20796460D01*
X20153515Y-20796460D02*
X20143992Y-20777412D01*
X20143992Y-20777412D02*
X20143992Y-20605984D01*
X20324944Y-20796460D02*
X20305896Y-20805984D01*
X20305896Y-20805984D02*
X20267801Y-20805984D01*
X20267801Y-20805984D02*
X20248753Y-20796460D01*
X20248753Y-20796460D02*
X20239230Y-20777412D01*
X20239230Y-20777412D02*
X20239230Y-20701222D01*
X20239230Y-20701222D02*
X20248753Y-20682174D01*
X20248753Y-20682174D02*
X20267801Y-20672650D01*
X20267801Y-20672650D02*
X20305896Y-20672650D01*
X20305896Y-20672650D02*
X20324944Y-20682174D01*
X20324944Y-20682174D02*
X20334468Y-20701222D01*
X20334468Y-20701222D02*
X20334468Y-20720270D01*
X20334468Y-20720270D02*
X20239230Y-20739317D01*
X20410658Y-20796460D02*
X20429706Y-20805984D01*
X20429706Y-20805984D02*
X20467801Y-20805984D01*
X20467801Y-20805984D02*
X20486849Y-20796460D01*
X20486849Y-20796460D02*
X20496373Y-20777412D01*
X20496373Y-20777412D02*
X20496373Y-20767889D01*
X20496373Y-20767889D02*
X20486849Y-20748841D01*
X20486849Y-20748841D02*
X20467801Y-20739317D01*
X20467801Y-20739317D02*
X20439230Y-20739317D01*
X20439230Y-20739317D02*
X20420182Y-20729793D01*
X20420182Y-20729793D02*
X20410658Y-20710746D01*
X20410658Y-20710746D02*
X20410658Y-20701222D01*
X20410658Y-20701222D02*
X20420182Y-20682174D01*
X20420182Y-20682174D02*
X20439230Y-20672650D01*
X20439230Y-20672650D02*
X20467801Y-20672650D01*
X20467801Y-20672650D02*
X20486849Y-20682174D01*
X20563039Y-20882174D02*
X20572563Y-20872650D01*
X20572563Y-20872650D02*
X20591611Y-20844079D01*
X20591611Y-20844079D02*
X20601134Y-20825031D01*
X20601134Y-20825031D02*
X20610658Y-20796460D01*
X20610658Y-20796460D02*
X20620182Y-20748841D01*
X20620182Y-20748841D02*
X20620182Y-20710746D01*
X20620182Y-20710746D02*
X20610658Y-20663127D01*
X20610658Y-20663127D02*
X20601134Y-20634555D01*
X20601134Y-20634555D02*
X20591611Y-20615508D01*
X20591611Y-20615508D02*
X20572563Y-20586936D01*
X20572563Y-20586936D02*
X20563039Y-20577412D01*
X15497500Y-21078500D02*
X15597500Y-20978500D01*
X15497500Y-20878500D01*
X15397500Y-20978500D01*
X15497500Y-21078500D01*
X15943991Y-20936650D02*
X15943991Y-21069984D01*
X15896372Y-20860460D02*
X15848753Y-21003317D01*
X15848753Y-21003317D02*
X15972562Y-21003317D01*
X16048753Y-21050936D02*
X16058277Y-21060460D01*
X16058277Y-21060460D02*
X16048753Y-21069984D01*
X16048753Y-21069984D02*
X16039229Y-21060460D01*
X16039229Y-21060460D02*
X16048753Y-21050936D01*
X16048753Y-21050936D02*
X16048753Y-21069984D01*
X16124943Y-20869984D02*
X16248753Y-20869984D01*
X16248753Y-20869984D02*
X16182086Y-20946174D01*
X16182086Y-20946174D02*
X16210658Y-20946174D01*
X16210658Y-20946174D02*
X16229705Y-20955698D01*
X16229705Y-20955698D02*
X16239229Y-20965222D01*
X16239229Y-20965222D02*
X16248753Y-20984270D01*
X16248753Y-20984270D02*
X16248753Y-21031889D01*
X16248753Y-21031889D02*
X16239229Y-21050936D01*
X16239229Y-21050936D02*
X16229705Y-21060460D01*
X16229705Y-21060460D02*
X16210658Y-21069984D01*
X16210658Y-21069984D02*
X16153515Y-21069984D01*
X16153515Y-21069984D02*
X16134467Y-21060460D01*
X16134467Y-21060460D02*
X16124943Y-21050936D01*
X16372562Y-20869984D02*
X16391610Y-20869984D01*
X16391610Y-20869984D02*
X16410658Y-20879508D01*
X16410658Y-20879508D02*
X16420182Y-20889031D01*
X16420182Y-20889031D02*
X16429705Y-20908079D01*
X16429705Y-20908079D02*
X16439229Y-20946174D01*
X16439229Y-20946174D02*
X16439229Y-20993793D01*
X16439229Y-20993793D02*
X16429705Y-21031889D01*
X16429705Y-21031889D02*
X16420182Y-21050936D01*
X16420182Y-21050936D02*
X16410658Y-21060460D01*
X16410658Y-21060460D02*
X16391610Y-21069984D01*
X16391610Y-21069984D02*
X16372562Y-21069984D01*
X16372562Y-21069984D02*
X16353515Y-21060460D01*
X16353515Y-21060460D02*
X16343991Y-21050936D01*
X16343991Y-21050936D02*
X16334467Y-21031889D01*
X16334467Y-21031889D02*
X16324943Y-20993793D01*
X16324943Y-20993793D02*
X16324943Y-20946174D01*
X16324943Y-20946174D02*
X16334467Y-20908079D01*
X16334467Y-20908079D02*
X16343991Y-20889031D01*
X16343991Y-20889031D02*
X16353515Y-20879508D01*
X16353515Y-20879508D02*
X16372562Y-20869984D01*
X16563039Y-20869984D02*
X16582086Y-20869984D01*
X16582086Y-20869984D02*
X16601134Y-20879508D01*
X16601134Y-20879508D02*
X16610658Y-20889031D01*
X16610658Y-20889031D02*
X16620182Y-20908079D01*
X16620182Y-20908079D02*
X16629705Y-20946174D01*
X16629705Y-20946174D02*
X16629705Y-20993793D01*
X16629705Y-20993793D02*
X16620182Y-21031889D01*
X16620182Y-21031889D02*
X16610658Y-21050936D01*
X16610658Y-21050936D02*
X16601134Y-21060460D01*
X16601134Y-21060460D02*
X16582086Y-21069984D01*
X16582086Y-21069984D02*
X16563039Y-21069984D01*
X16563039Y-21069984D02*
X16543991Y-21060460D01*
X16543991Y-21060460D02*
X16534467Y-21050936D01*
X16534467Y-21050936D02*
X16524943Y-21031889D01*
X16524943Y-21031889D02*
X16515420Y-20993793D01*
X16515420Y-20993793D02*
X16515420Y-20946174D01*
X16515420Y-20946174D02*
X16524943Y-20908079D01*
X16524943Y-20908079D02*
X16534467Y-20889031D01*
X16534467Y-20889031D02*
X16543991Y-20879508D01*
X16543991Y-20879508D02*
X16563039Y-20869984D01*
X16715420Y-21069984D02*
X16715420Y-20936650D01*
X16715420Y-20955698D02*
X16724943Y-20946174D01*
X16724943Y-20946174D02*
X16743991Y-20936650D01*
X16743991Y-20936650D02*
X16772563Y-20936650D01*
X16772563Y-20936650D02*
X16791610Y-20946174D01*
X16791610Y-20946174D02*
X16801134Y-20965222D01*
X16801134Y-20965222D02*
X16801134Y-21069984D01*
X16801134Y-20965222D02*
X16810658Y-20946174D01*
X16810658Y-20946174D02*
X16829705Y-20936650D01*
X16829705Y-20936650D02*
X16858277Y-20936650D01*
X16858277Y-20936650D02*
X16877325Y-20946174D01*
X16877325Y-20946174D02*
X16886848Y-20965222D01*
X16886848Y-20965222D02*
X16886848Y-21069984D01*
X16982086Y-21069984D02*
X16982086Y-20936650D01*
X16982086Y-20955698D02*
X16991610Y-20946174D01*
X16991610Y-20946174D02*
X17010658Y-20936650D01*
X17010658Y-20936650D02*
X17039229Y-20936650D01*
X17039229Y-20936650D02*
X17058277Y-20946174D01*
X17058277Y-20946174D02*
X17067801Y-20965222D01*
X17067801Y-20965222D02*
X17067801Y-21069984D01*
X17067801Y-20965222D02*
X17077325Y-20946174D01*
X17077325Y-20946174D02*
X17096372Y-20936650D01*
X17096372Y-20936650D02*
X17124944Y-20936650D01*
X17124944Y-20936650D02*
X17143991Y-20946174D01*
X17143991Y-20946174D02*
X17153515Y-20965222D01*
X17153515Y-20965222D02*
X17153515Y-21069984D01*
X17543991Y-20860460D02*
X17372563Y-21117603D01*
X17801134Y-20869984D02*
X17820182Y-20869984D01*
X17820182Y-20869984D02*
X17839229Y-20879508D01*
X17839229Y-20879508D02*
X17848753Y-20889031D01*
X17848753Y-20889031D02*
X17858277Y-20908079D01*
X17858277Y-20908079D02*
X17867801Y-20946174D01*
X17867801Y-20946174D02*
X17867801Y-20993793D01*
X17867801Y-20993793D02*
X17858277Y-21031889D01*
X17858277Y-21031889D02*
X17848753Y-21050936D01*
X17848753Y-21050936D02*
X17839229Y-21060460D01*
X17839229Y-21060460D02*
X17820182Y-21069984D01*
X17820182Y-21069984D02*
X17801134Y-21069984D01*
X17801134Y-21069984D02*
X17782087Y-21060460D01*
X17782087Y-21060460D02*
X17772563Y-21050936D01*
X17772563Y-21050936D02*
X17763039Y-21031889D01*
X17763039Y-21031889D02*
X17753515Y-20993793D01*
X17753515Y-20993793D02*
X17753515Y-20946174D01*
X17753515Y-20946174D02*
X17763039Y-20908079D01*
X17763039Y-20908079D02*
X17772563Y-20889031D01*
X17772563Y-20889031D02*
X17782087Y-20879508D01*
X17782087Y-20879508D02*
X17801134Y-20869984D01*
X17953515Y-21050936D02*
X17963039Y-21060460D01*
X17963039Y-21060460D02*
X17953515Y-21069984D01*
X17953515Y-21069984D02*
X17943991Y-21060460D01*
X17943991Y-21060460D02*
X17953515Y-21050936D01*
X17953515Y-21050936D02*
X17953515Y-21069984D01*
X18153515Y-21069984D02*
X18039229Y-21069984D01*
X18096372Y-21069984D02*
X18096372Y-20869984D01*
X18096372Y-20869984D02*
X18077325Y-20898555D01*
X18077325Y-20898555D02*
X18058277Y-20917603D01*
X18058277Y-20917603D02*
X18039229Y-20927127D01*
X18324944Y-20869984D02*
X18286848Y-20869984D01*
X18286848Y-20869984D02*
X18267801Y-20879508D01*
X18267801Y-20879508D02*
X18258277Y-20889031D01*
X18258277Y-20889031D02*
X18239229Y-20917603D01*
X18239229Y-20917603D02*
X18229706Y-20955698D01*
X18229706Y-20955698D02*
X18229706Y-21031889D01*
X18229706Y-21031889D02*
X18239229Y-21050936D01*
X18239229Y-21050936D02*
X18248753Y-21060460D01*
X18248753Y-21060460D02*
X18267801Y-21069984D01*
X18267801Y-21069984D02*
X18305896Y-21069984D01*
X18305896Y-21069984D02*
X18324944Y-21060460D01*
X18324944Y-21060460D02*
X18334468Y-21050936D01*
X18334468Y-21050936D02*
X18343991Y-21031889D01*
X18343991Y-21031889D02*
X18343991Y-20984270D01*
X18343991Y-20984270D02*
X18334468Y-20965222D01*
X18334468Y-20965222D02*
X18324944Y-20955698D01*
X18324944Y-20955698D02*
X18305896Y-20946174D01*
X18305896Y-20946174D02*
X18267801Y-20946174D01*
X18267801Y-20946174D02*
X18248753Y-20955698D01*
X18248753Y-20955698D02*
X18239229Y-20965222D01*
X18239229Y-20965222D02*
X18229706Y-20984270D01*
X18439229Y-21069984D02*
X18477325Y-21069984D01*
X18477325Y-21069984D02*
X18496372Y-21060460D01*
X18496372Y-21060460D02*
X18505896Y-21050936D01*
X18505896Y-21050936D02*
X18524944Y-21022365D01*
X18524944Y-21022365D02*
X18534468Y-20984270D01*
X18534468Y-20984270D02*
X18534468Y-20908079D01*
X18534468Y-20908079D02*
X18524944Y-20889031D01*
X18524944Y-20889031D02*
X18515420Y-20879508D01*
X18515420Y-20879508D02*
X18496372Y-20869984D01*
X18496372Y-20869984D02*
X18458277Y-20869984D01*
X18458277Y-20869984D02*
X18439229Y-20879508D01*
X18439229Y-20879508D02*
X18429706Y-20889031D01*
X18429706Y-20889031D02*
X18420182Y-20908079D01*
X18420182Y-20908079D02*
X18420182Y-20955698D01*
X18420182Y-20955698D02*
X18429706Y-20974746D01*
X18429706Y-20974746D02*
X18439229Y-20984270D01*
X18439229Y-20984270D02*
X18458277Y-20993793D01*
X18458277Y-20993793D02*
X18496372Y-20993793D01*
X18496372Y-20993793D02*
X18515420Y-20984270D01*
X18515420Y-20984270D02*
X18524944Y-20974746D01*
X18524944Y-20974746D02*
X18534468Y-20955698D01*
X18601134Y-20869984D02*
X18724944Y-20869984D01*
X18724944Y-20869984D02*
X18658277Y-20946174D01*
X18658277Y-20946174D02*
X18686849Y-20946174D01*
X18686849Y-20946174D02*
X18705896Y-20955698D01*
X18705896Y-20955698D02*
X18715420Y-20965222D01*
X18715420Y-20965222D02*
X18724944Y-20984270D01*
X18724944Y-20984270D02*
X18724944Y-21031889D01*
X18724944Y-21031889D02*
X18715420Y-21050936D01*
X18715420Y-21050936D02*
X18705896Y-21060460D01*
X18705896Y-21060460D02*
X18686849Y-21069984D01*
X18686849Y-21069984D02*
X18629706Y-21069984D01*
X18629706Y-21069984D02*
X18610658Y-21060460D01*
X18610658Y-21060460D02*
X18601134Y-21050936D01*
X18801134Y-20869984D02*
X18801134Y-20908079D01*
X18877325Y-20869984D02*
X18877325Y-20908079D01*
X19172563Y-21146174D02*
X19163039Y-21136650D01*
X19163039Y-21136650D02*
X19143991Y-21108079D01*
X19143991Y-21108079D02*
X19134468Y-21089031D01*
X19134468Y-21089031D02*
X19124944Y-21060460D01*
X19124944Y-21060460D02*
X19115420Y-21012841D01*
X19115420Y-21012841D02*
X19115420Y-20974746D01*
X19115420Y-20974746D02*
X19124944Y-20927127D01*
X19124944Y-20927127D02*
X19134468Y-20898555D01*
X19134468Y-20898555D02*
X19143991Y-20879508D01*
X19143991Y-20879508D02*
X19163039Y-20850936D01*
X19163039Y-20850936D02*
X19172563Y-20841412D01*
X19334468Y-20936650D02*
X19334468Y-21069984D01*
X19286849Y-20860460D02*
X19239230Y-21003317D01*
X19239230Y-21003317D02*
X19363039Y-21003317D01*
X19591611Y-21069984D02*
X19591611Y-20869984D01*
X19677325Y-21069984D02*
X19677325Y-20965222D01*
X19677325Y-20965222D02*
X19667801Y-20946174D01*
X19667801Y-20946174D02*
X19648753Y-20936650D01*
X19648753Y-20936650D02*
X19620182Y-20936650D01*
X19620182Y-20936650D02*
X19601134Y-20946174D01*
X19601134Y-20946174D02*
X19591611Y-20955698D01*
X19801134Y-21069984D02*
X19782087Y-21060460D01*
X19782087Y-21060460D02*
X19772563Y-21050936D01*
X19772563Y-21050936D02*
X19763039Y-21031889D01*
X19763039Y-21031889D02*
X19763039Y-20974746D01*
X19763039Y-20974746D02*
X19772563Y-20955698D01*
X19772563Y-20955698D02*
X19782087Y-20946174D01*
X19782087Y-20946174D02*
X19801134Y-20936650D01*
X19801134Y-20936650D02*
X19829706Y-20936650D01*
X19829706Y-20936650D02*
X19848753Y-20946174D01*
X19848753Y-20946174D02*
X19858277Y-20955698D01*
X19858277Y-20955698D02*
X19867801Y-20974746D01*
X19867801Y-20974746D02*
X19867801Y-21031889D01*
X19867801Y-21031889D02*
X19858277Y-21050936D01*
X19858277Y-21050936D02*
X19848753Y-21060460D01*
X19848753Y-21060460D02*
X19829706Y-21069984D01*
X19829706Y-21069984D02*
X19801134Y-21069984D01*
X19982087Y-21069984D02*
X19963039Y-21060460D01*
X19963039Y-21060460D02*
X19953515Y-21041412D01*
X19953515Y-21041412D02*
X19953515Y-20869984D01*
X20134468Y-21060460D02*
X20115420Y-21069984D01*
X20115420Y-21069984D02*
X20077325Y-21069984D01*
X20077325Y-21069984D02*
X20058277Y-21060460D01*
X20058277Y-21060460D02*
X20048753Y-21041412D01*
X20048753Y-21041412D02*
X20048753Y-20965222D01*
X20048753Y-20965222D02*
X20058277Y-20946174D01*
X20058277Y-20946174D02*
X20077325Y-20936650D01*
X20077325Y-20936650D02*
X20115420Y-20936650D01*
X20115420Y-20936650D02*
X20134468Y-20946174D01*
X20134468Y-20946174D02*
X20143992Y-20965222D01*
X20143992Y-20965222D02*
X20143992Y-20984270D01*
X20143992Y-20984270D02*
X20048753Y-21003317D01*
X20220182Y-21060460D02*
X20239230Y-21069984D01*
X20239230Y-21069984D02*
X20277325Y-21069984D01*
X20277325Y-21069984D02*
X20296373Y-21060460D01*
X20296373Y-21060460D02*
X20305896Y-21041412D01*
X20305896Y-21041412D02*
X20305896Y-21031889D01*
X20305896Y-21031889D02*
X20296373Y-21012841D01*
X20296373Y-21012841D02*
X20277325Y-21003317D01*
X20277325Y-21003317D02*
X20248753Y-21003317D01*
X20248753Y-21003317D02*
X20229706Y-20993793D01*
X20229706Y-20993793D02*
X20220182Y-20974746D01*
X20220182Y-20974746D02*
X20220182Y-20965222D01*
X20220182Y-20965222D02*
X20229706Y-20946174D01*
X20229706Y-20946174D02*
X20248753Y-20936650D01*
X20248753Y-20936650D02*
X20277325Y-20936650D01*
X20277325Y-20936650D02*
X20296373Y-20946174D01*
X20372563Y-21146174D02*
X20382087Y-21136650D01*
X20382087Y-21136650D02*
X20401134Y-21108079D01*
X20401134Y-21108079D02*
X20410658Y-21089031D01*
X20410658Y-21089031D02*
X20420182Y-21060460D01*
X20420182Y-21060460D02*
X20429706Y-21012841D01*
X20429706Y-21012841D02*
X20429706Y-20974746D01*
X20429706Y-20974746D02*
X20420182Y-20927127D01*
X20420182Y-20927127D02*
X20410658Y-20898555D01*
X20410658Y-20898555D02*
X20401134Y-20879508D01*
X20401134Y-20879508D02*
X20382087Y-20850936D01*
X20382087Y-20850936D02*
X20372563Y-20841412D01*
M02*
