G04 #@! TF.GenerationSoftware,KiCad,Pcbnew,9.0.7+1*
G04 #@! TF.CreationDate,2026-06-05T22:23:58+00:00*
G04 #@! TF.ProjectId,hw-module-gps,68772d6d-6f64-4756-9c65-2d6770732e6b,rev?*
G04 #@! TF.SameCoordinates,Original*
G04 #@! TF.FileFunction,Copper,L4,Bot*
G04 #@! TF.FilePolarity,Positive*
%FSLAX46Y46*%
G04 Gerber Fmt 4.6, Leading zero omitted, Abs format (unit mm)*
G04 Created by KiCad (PCBNEW 9.0.7+1) date 2026-06-05 22:23:58*
%MOMM*%
%LPD*%
G01*
G04 APERTURE LIST*
G04 #@! TA.AperFunction,ComponentPad*
%ADD10C,0.900000*%
G04 #@! TD*
G04 #@! TA.AperFunction,ComponentPad*
%ADD11C,8.600000*%
G04 #@! TD*
G04 #@! TA.AperFunction,ComponentPad*
%ADD12O,1.727200X2.500000*%
G04 #@! TD*
G04 #@! TA.AperFunction,ComponentPad*
%ADD13O,1.950000X1.700000*%
G04 #@! TD*
G04 #@! TA.AperFunction,ViaPad*
%ADD14C,0.600000*%
G04 #@! TD*
G04 #@! TA.AperFunction,Conductor*
%ADD15C,0.500000*%
G04 #@! TD*
G04 #@! TA.AperFunction,Conductor*
%ADD16C,0.300000*%
G04 #@! TD*
G04 APERTURE END LIST*
D10*
X157775000Y-187800000D03*
X158719581Y-185519581D03*
X158719581Y-190080419D03*
X161000000Y-184575000D03*
D11*
X161000000Y-187800000D03*
D10*
X161000000Y-191025000D03*
X163280419Y-185519581D03*
X163280419Y-190080419D03*
X164225000Y-187800000D03*
D12*
X210137500Y-138057500D03*
X202517500Y-138057500D03*
X199977500Y-138057500D03*
X187277500Y-138057500D03*
X184737500Y-138057500D03*
X182197500Y-138057500D03*
X179657500Y-138057500D03*
X177117500Y-138057500D03*
X174577500Y-138057500D03*
X214201500Y-187317500D03*
X174577500Y-187317500D03*
X177117500Y-187317500D03*
X179657500Y-187317500D03*
X182197501Y-187317500D03*
X184737500Y-187317500D03*
X187277500Y-187317500D03*
X189817500Y-187317500D03*
X192357499Y-187317500D03*
X196421499Y-187317500D03*
X198961500Y-187317500D03*
X201501500Y-187317500D03*
X204041500Y-187317500D03*
X206581500Y-187317500D03*
X209121501Y-187317500D03*
X211661500Y-187317500D03*
X197437500Y-138057500D03*
X194897500Y-138057500D03*
X207597500Y-138057500D03*
X205057500Y-138057500D03*
X219281499Y-187317500D03*
X216741500Y-187317500D03*
X192357500Y-138057500D03*
D10*
X241050000Y-187730419D03*
X241994581Y-185450000D03*
X241994581Y-190010838D03*
X244275000Y-184505419D03*
D11*
X244275000Y-187730419D03*
D10*
X244275000Y-190955419D03*
X246555419Y-185450000D03*
X246555419Y-190010838D03*
X247500000Y-187730419D03*
X241025000Y-139800000D03*
X241969581Y-137519581D03*
X241969581Y-142080419D03*
X244250000Y-136575000D03*
D11*
X244250000Y-139800000D03*
D10*
X244250000Y-143025000D03*
X246530419Y-137519581D03*
X246530419Y-142080419D03*
X247475000Y-139800000D03*
G04 #@! TA.AperFunction,ComponentPad*
G36*
G01*
X161375000Y-148650000D02*
X162825000Y-148650000D01*
G75*
G02*
X163075000Y-148900000I0J-250000D01*
G01*
X163075000Y-150100000D01*
G75*
G02*
X162825000Y-150350000I-250000J0D01*
G01*
X161375000Y-150350000D01*
G75*
G02*
X161125000Y-150100000I0J250000D01*
G01*
X161125000Y-148900000D01*
G75*
G02*
X161375000Y-148650000I250000J0D01*
G01*
G37*
G04 #@! TD.AperFunction*
D13*
X162100000Y-152000000D03*
X162100000Y-154500000D03*
X162100000Y-157000000D03*
X162100000Y-159500000D03*
D10*
X157775000Y-139800000D03*
X158719581Y-137519581D03*
X158719581Y-142080419D03*
X161000000Y-136575000D03*
D11*
X161000000Y-139800000D03*
D10*
X161000000Y-143025000D03*
X163280419Y-137519581D03*
X163280419Y-142080419D03*
X164225000Y-139800000D03*
D14*
X217700000Y-179800000D03*
X237200000Y-175800000D03*
X200200000Y-154800000D03*
X246300000Y-167100000D03*
X167500000Y-170100000D03*
X164550000Y-167500000D03*
X170100000Y-181100000D03*
X236000000Y-139000000D03*
X184300000Y-156300000D03*
X169950000Y-172250000D03*
X216100000Y-154600000D03*
X162150000Y-181050000D03*
X233200000Y-166400000D03*
X205900000Y-144200000D03*
X168950000Y-170500000D03*
X167700000Y-175300000D03*
X178700000Y-182500000D03*
X221500000Y-171900000D03*
X163800000Y-170100000D03*
X163800000Y-173950000D03*
X165500000Y-169250000D03*
X164600000Y-164900000D03*
X162450000Y-172250000D03*
X177000000Y-180400000D03*
X169600000Y-151800000D03*
D15*
X170800000Y-150150000D02*
X169910000Y-149260000D01*
X169910000Y-149260000D02*
X166840000Y-149260000D01*
X166840000Y-149260000D02*
X164100000Y-152000000D01*
D16*
X175150000Y-178050000D02*
X177000000Y-179900000D01*
X177000000Y-179900000D02*
X177000000Y-180400000D01*
X170800000Y-150150000D02*
X175150000Y-154500000D01*
X175150000Y-154500000D02*
X175150000Y-178050000D01*
D15*
X164100000Y-152000000D02*
X162100000Y-152000000D01*
D16*
X169750000Y-151800000D02*
X169600000Y-151800000D01*
X177117500Y-183267500D02*
X173600000Y-179750000D01*
X173600000Y-155650000D02*
X169750000Y-151800000D01*
X173600000Y-179750000D02*
X173600000Y-155650000D01*
X177117500Y-186817500D02*
X177117500Y-183267500D01*
G04 #@! TA.AperFunction,Conductor*
G36*
X244252702Y-134950617D02*
G01*
X244667276Y-134968718D01*
X244678011Y-134969658D01*
X245086740Y-135023468D01*
X245097382Y-135025344D01*
X245499865Y-135114572D01*
X245510302Y-135117369D01*
X245903473Y-135241336D01*
X245913616Y-135245027D01*
X246294494Y-135402792D01*
X246304285Y-135407358D01*
X246398600Y-135456455D01*
X246669942Y-135597707D01*
X246679309Y-135603114D01*
X246925964Y-135760251D01*
X247026996Y-135824615D01*
X247035857Y-135830820D01*
X247362906Y-136081773D01*
X247371193Y-136088727D01*
X247675122Y-136367228D01*
X247682771Y-136374877D01*
X247961272Y-136678806D01*
X247968226Y-136687093D01*
X248219179Y-137014142D01*
X248225384Y-137023003D01*
X248446884Y-137370689D01*
X248452292Y-137380057D01*
X248642638Y-137745707D01*
X248647210Y-137755511D01*
X248668745Y-137807500D01*
X248772142Y-138057125D01*
X248804966Y-138136368D01*
X248808666Y-138146534D01*
X248932628Y-138539692D01*
X248935428Y-138550141D01*
X249024654Y-138952614D01*
X249026532Y-138963267D01*
X249080339Y-139371968D01*
X249081282Y-139382744D01*
X249099382Y-139797297D01*
X249099500Y-139802706D01*
X249099500Y-187797293D01*
X249099382Y-187802702D01*
X249081282Y-188217255D01*
X249080339Y-188228031D01*
X249026532Y-188636732D01*
X249024654Y-188647385D01*
X248935428Y-189049858D01*
X248932628Y-189060307D01*
X248808666Y-189453465D01*
X248804966Y-189463631D01*
X248647210Y-189844488D01*
X248642638Y-189854292D01*
X248452292Y-190219942D01*
X248446884Y-190229310D01*
X248225384Y-190576996D01*
X248219179Y-190585857D01*
X247968226Y-190912906D01*
X247961272Y-190921193D01*
X247682771Y-191225122D01*
X247675122Y-191232771D01*
X247371193Y-191511272D01*
X247362906Y-191518226D01*
X247035857Y-191769179D01*
X247026996Y-191775384D01*
X246679310Y-191996884D01*
X246669942Y-192002292D01*
X246304292Y-192192638D01*
X246294488Y-192197210D01*
X245913631Y-192354966D01*
X245903465Y-192358666D01*
X245510307Y-192482628D01*
X245499858Y-192485428D01*
X245097385Y-192574654D01*
X245086732Y-192576532D01*
X244678031Y-192630339D01*
X244667255Y-192631282D01*
X244252703Y-192649382D01*
X244247294Y-192649500D01*
X161002706Y-192649500D01*
X160997297Y-192649382D01*
X160582744Y-192631282D01*
X160571968Y-192630339D01*
X160163267Y-192576532D01*
X160152614Y-192574654D01*
X159750141Y-192485428D01*
X159739692Y-192482628D01*
X159346534Y-192358666D01*
X159336368Y-192354966D01*
X158955511Y-192197210D01*
X158945707Y-192192638D01*
X158580057Y-192002292D01*
X158570689Y-191996884D01*
X158223003Y-191775384D01*
X158214142Y-191769179D01*
X157887093Y-191518226D01*
X157878806Y-191511272D01*
X157575407Y-191233257D01*
X157575402Y-191233248D01*
X157575378Y-191233230D01*
X157574842Y-191232739D01*
X157567228Y-191225122D01*
X157288727Y-190921193D01*
X157281773Y-190912906D01*
X157030820Y-190585857D01*
X157024615Y-190576996D01*
X156803115Y-190229310D01*
X156797707Y-190219942D01*
X156657184Y-189950000D01*
X156607358Y-189854285D01*
X156602789Y-189844488D01*
X156445027Y-189463616D01*
X156441333Y-189453465D01*
X156351804Y-189169516D01*
X156317369Y-189060302D01*
X156314571Y-189049858D01*
X156302861Y-188997039D01*
X156225344Y-188647382D01*
X156223467Y-188636732D01*
X156169658Y-188228011D01*
X156168718Y-188217276D01*
X156150618Y-187802702D01*
X156150500Y-187797293D01*
X156150500Y-187601339D01*
X156450000Y-187601339D01*
X156450000Y-187998660D01*
X156484628Y-188394462D01*
X156484628Y-188394466D01*
X156553619Y-188785729D01*
X156553621Y-188785740D01*
X156656455Y-189169516D01*
X156656458Y-189169526D01*
X156792340Y-189542864D01*
X156792344Y-189542874D01*
X156960251Y-189902948D01*
X156960259Y-189902964D01*
X157158908Y-190247033D01*
X157158924Y-190247059D01*
X157386798Y-190572497D01*
X157609064Y-190837382D01*
X159313098Y-189133348D01*
X159380076Y-189220635D01*
X159579365Y-189419924D01*
X159666651Y-189486900D01*
X157962616Y-191190935D01*
X158227502Y-191413201D01*
X158552940Y-191641075D01*
X158552966Y-191641091D01*
X158897035Y-191839740D01*
X158897051Y-191839748D01*
X159257125Y-192007655D01*
X159257135Y-192007659D01*
X159630473Y-192143541D01*
X159630483Y-192143544D01*
X160014259Y-192246378D01*
X160014270Y-192246380D01*
X160405535Y-192315371D01*
X160801339Y-192349999D01*
X160801342Y-192350000D01*
X161198658Y-192350000D01*
X161198660Y-192349999D01*
X161594462Y-192315371D01*
X161594466Y-192315371D01*
X161985729Y-192246380D01*
X161985740Y-192246378D01*
X162369516Y-192143544D01*
X162369526Y-192143541D01*
X162742864Y-192007659D01*
X162742874Y-192007655D01*
X163102948Y-191839748D01*
X163102964Y-191839740D01*
X163447033Y-191641091D01*
X163447059Y-191641075D01*
X163772504Y-191413196D01*
X164037382Y-191190936D01*
X164037383Y-191190935D01*
X164006383Y-191159935D01*
X162333348Y-189486901D01*
X162420635Y-189419924D01*
X162619924Y-189220635D01*
X162686900Y-189133348D01*
X164390935Y-190837383D01*
X164390936Y-190837382D01*
X164613196Y-190572504D01*
X164841075Y-190247059D01*
X164841091Y-190247033D01*
X165039740Y-189902964D01*
X165039748Y-189902948D01*
X165207655Y-189542874D01*
X165207659Y-189542864D01*
X165343541Y-189169526D01*
X165343544Y-189169516D01*
X165446378Y-188785740D01*
X165446380Y-188785729D01*
X165515371Y-188394466D01*
X165515371Y-188394462D01*
X165549999Y-187998660D01*
X165550000Y-187998658D01*
X165550000Y-187601342D01*
X165549999Y-187601339D01*
X165515371Y-187205537D01*
X165451223Y-186841736D01*
X165451223Y-186841734D01*
X165448500Y-186826290D01*
X173513400Y-186826290D01*
X173513400Y-187808709D01*
X173554042Y-188013026D01*
X173554293Y-188014287D01*
X173634507Y-188207940D01*
X173687702Y-188287553D01*
X173750960Y-188382226D01*
X173899173Y-188530439D01*
X173899176Y-188530441D01*
X174073460Y-188646893D01*
X174267113Y-188727107D01*
X174472690Y-188767999D01*
X174472693Y-188768000D01*
X174472695Y-188768000D01*
X174682307Y-188768000D01*
X174682308Y-188767999D01*
X174887887Y-188727107D01*
X175081540Y-188646893D01*
X175255824Y-188530441D01*
X175404041Y-188382224D01*
X175520493Y-188207940D01*
X175600707Y-188014287D01*
X175641600Y-187808705D01*
X175641600Y-186826295D01*
X175641600Y-186826292D01*
X175641599Y-186826290D01*
X175600708Y-186620720D01*
X175600707Y-186620713D01*
X175520493Y-186427060D01*
X175404041Y-186252776D01*
X175404039Y-186252773D01*
X175255826Y-186104560D01*
X175112068Y-186008505D01*
X175081540Y-185988107D01*
X175081535Y-185988105D01*
X174887887Y-185907893D01*
X174887879Y-185907891D01*
X174682308Y-185867000D01*
X174682305Y-185867000D01*
X174472695Y-185867000D01*
X174472692Y-185867000D01*
X174267120Y-185907891D01*
X174267112Y-185907893D01*
X174073461Y-185988106D01*
X173899173Y-186104560D01*
X173750960Y-186252773D01*
X173634506Y-186427061D01*
X173554293Y-186620712D01*
X173554291Y-186620720D01*
X173513400Y-186826290D01*
X165448500Y-186826290D01*
X165446381Y-186814273D01*
X165446378Y-186814259D01*
X165343544Y-186430483D01*
X165343541Y-186430473D01*
X165207659Y-186057135D01*
X165207655Y-186057125D01*
X165039748Y-185697051D01*
X165039740Y-185697035D01*
X164841091Y-185352966D01*
X164841075Y-185352940D01*
X164613201Y-185027502D01*
X164390935Y-184762616D01*
X162686900Y-186466650D01*
X162619924Y-186379365D01*
X162420635Y-186180076D01*
X162333347Y-186113098D01*
X164037382Y-184409064D01*
X163772497Y-184186798D01*
X163447059Y-183958924D01*
X163447033Y-183958908D01*
X163102964Y-183760259D01*
X163102948Y-183760251D01*
X162742874Y-183592344D01*
X162742864Y-183592340D01*
X162369526Y-183456458D01*
X162369516Y-183456455D01*
X161985740Y-183353621D01*
X161985729Y-183353619D01*
X161594464Y-183284628D01*
X161198660Y-183250000D01*
X160801339Y-183250000D01*
X160405537Y-183284628D01*
X160405533Y-183284628D01*
X160014270Y-183353619D01*
X160014259Y-183353621D01*
X159630483Y-183456455D01*
X159630473Y-183456458D01*
X159257135Y-183592340D01*
X159257125Y-183592344D01*
X158897051Y-183760251D01*
X158897035Y-183760259D01*
X158552966Y-183958908D01*
X158552940Y-183958924D01*
X158227496Y-184186802D01*
X157962616Y-184409062D01*
X157962615Y-184409062D01*
X159666651Y-186113098D01*
X159579365Y-186180076D01*
X159380076Y-186379365D01*
X159313098Y-186466651D01*
X157609062Y-184762615D01*
X157609062Y-184762616D01*
X157386802Y-185027496D01*
X157158924Y-185352940D01*
X157158908Y-185352966D01*
X156960259Y-185697035D01*
X156960251Y-185697051D01*
X156792344Y-186057125D01*
X156792340Y-186057135D01*
X156656458Y-186430473D01*
X156656455Y-186430483D01*
X156553621Y-186814259D01*
X156553619Y-186814270D01*
X156484628Y-187205533D01*
X156484628Y-187205537D01*
X156450000Y-187601339D01*
X156150500Y-187601339D01*
X156150500Y-173884108D01*
X163299500Y-173884108D01*
X163299500Y-174015891D01*
X163333608Y-174143187D01*
X163366554Y-174200250D01*
X163399500Y-174257314D01*
X163492686Y-174350500D01*
X163606814Y-174416392D01*
X163734108Y-174450500D01*
X163734110Y-174450500D01*
X163865890Y-174450500D01*
X163865892Y-174450500D01*
X163993186Y-174416392D01*
X164107314Y-174350500D01*
X164200500Y-174257314D01*
X164266392Y-174143186D01*
X164300500Y-174015892D01*
X164300500Y-173884108D01*
X164266392Y-173756814D01*
X164200500Y-173642686D01*
X164107314Y-173549500D01*
X164050250Y-173516554D01*
X163993187Y-173483608D01*
X163929539Y-173466554D01*
X163865892Y-173449500D01*
X163734108Y-173449500D01*
X163606812Y-173483608D01*
X163492686Y-173549500D01*
X163492683Y-173549502D01*
X163399502Y-173642683D01*
X163399500Y-173642686D01*
X163333608Y-173756812D01*
X163299500Y-173884108D01*
X156150500Y-173884108D01*
X156150500Y-172184108D01*
X161949500Y-172184108D01*
X161949500Y-172315891D01*
X161983608Y-172443187D01*
X162016554Y-172500250D01*
X162049500Y-172557314D01*
X162142686Y-172650500D01*
X162256814Y-172716392D01*
X162384108Y-172750500D01*
X162384110Y-172750500D01*
X162515890Y-172750500D01*
X162515892Y-172750500D01*
X162643186Y-172716392D01*
X162757314Y-172650500D01*
X162850500Y-172557314D01*
X162916392Y-172443186D01*
X162950500Y-172315892D01*
X162950500Y-172184108D01*
X162916392Y-172056814D01*
X162850500Y-171942686D01*
X162757314Y-171849500D01*
X162700250Y-171816554D01*
X162643187Y-171783608D01*
X162579539Y-171766554D01*
X162515892Y-171749500D01*
X162384108Y-171749500D01*
X162256812Y-171783608D01*
X162142686Y-171849500D01*
X162142683Y-171849502D01*
X162049502Y-171942683D01*
X162049500Y-171942686D01*
X161983608Y-172056812D01*
X161949500Y-172184108D01*
X156150500Y-172184108D01*
X156150500Y-170034108D01*
X163299500Y-170034108D01*
X163299500Y-170165891D01*
X163333608Y-170293187D01*
X163366554Y-170350250D01*
X163399500Y-170407314D01*
X163492686Y-170500500D01*
X163606814Y-170566392D01*
X163734108Y-170600500D01*
X163734110Y-170600500D01*
X163865890Y-170600500D01*
X163865892Y-170600500D01*
X163993186Y-170566392D01*
X164107314Y-170500500D01*
X164200500Y-170407314D01*
X164266392Y-170293186D01*
X164300500Y-170165892D01*
X164300500Y-170034108D01*
X164266392Y-169906814D01*
X164200500Y-169792686D01*
X164107314Y-169699500D01*
X164022439Y-169650497D01*
X163993187Y-169633608D01*
X163929539Y-169616554D01*
X163865892Y-169599500D01*
X163734108Y-169599500D01*
X163606812Y-169633608D01*
X163492686Y-169699500D01*
X163492683Y-169699502D01*
X163399502Y-169792683D01*
X163399500Y-169792686D01*
X163333608Y-169906812D01*
X163299500Y-170034108D01*
X156150500Y-170034108D01*
X156150500Y-169184108D01*
X164999500Y-169184108D01*
X164999500Y-169315891D01*
X165033608Y-169443187D01*
X165066554Y-169500250D01*
X165099500Y-169557314D01*
X165192686Y-169650500D01*
X165306814Y-169716392D01*
X165434108Y-169750500D01*
X165434110Y-169750500D01*
X165565890Y-169750500D01*
X165565892Y-169750500D01*
X165693186Y-169716392D01*
X165807314Y-169650500D01*
X165900500Y-169557314D01*
X165966392Y-169443186D01*
X166000500Y-169315892D01*
X166000500Y-169184108D01*
X165966392Y-169056814D01*
X165900500Y-168942686D01*
X165807314Y-168849500D01*
X165750250Y-168816554D01*
X165693187Y-168783608D01*
X165629539Y-168766554D01*
X165565892Y-168749500D01*
X165434108Y-168749500D01*
X165306812Y-168783608D01*
X165192686Y-168849500D01*
X165192683Y-168849502D01*
X165099502Y-168942683D01*
X165099500Y-168942686D01*
X165033608Y-169056812D01*
X164999500Y-169184108D01*
X156150500Y-169184108D01*
X156150500Y-164834108D01*
X164099500Y-164834108D01*
X164099500Y-164965891D01*
X164133608Y-165093187D01*
X164166554Y-165150250D01*
X164199500Y-165207314D01*
X164292686Y-165300500D01*
X164406814Y-165366392D01*
X164534108Y-165400500D01*
X164534110Y-165400500D01*
X164665890Y-165400500D01*
X164665892Y-165400500D01*
X164793186Y-165366392D01*
X164907314Y-165300500D01*
X165000500Y-165207314D01*
X165066392Y-165093186D01*
X165100500Y-164965892D01*
X165100500Y-164834108D01*
X165066392Y-164706814D01*
X165000500Y-164592686D01*
X164907314Y-164499500D01*
X164850250Y-164466554D01*
X164793187Y-164433608D01*
X164729539Y-164416554D01*
X164665892Y-164399500D01*
X164534108Y-164399500D01*
X164406812Y-164433608D01*
X164292686Y-164499500D01*
X164292683Y-164499502D01*
X164199502Y-164592683D01*
X164199500Y-164592686D01*
X164133608Y-164706812D01*
X164099500Y-164834108D01*
X156150500Y-164834108D01*
X156150500Y-159249999D01*
X160900884Y-159249999D01*
X160900885Y-159250000D01*
X161695854Y-159250000D01*
X161657370Y-159316657D01*
X161625000Y-159437465D01*
X161625000Y-159562535D01*
X161657370Y-159683343D01*
X161695854Y-159750000D01*
X160900885Y-159750000D01*
X160902085Y-159757584D01*
X160955591Y-159922255D01*
X161034195Y-160076524D01*
X161135967Y-160216602D01*
X161258397Y-160339032D01*
X161398475Y-160440804D01*
X161552744Y-160519408D01*
X161717415Y-160572913D01*
X161850000Y-160593913D01*
X161850000Y-159904145D01*
X161916657Y-159942630D01*
X162037465Y-159975000D01*
X162162535Y-159975000D01*
X162283343Y-159942630D01*
X162350000Y-159904145D01*
X162350000Y-160593912D01*
X162482584Y-160572913D01*
X162647255Y-160519408D01*
X162801524Y-160440804D01*
X162941602Y-160339032D01*
X163064032Y-160216602D01*
X163165804Y-160076524D01*
X163244408Y-159922255D01*
X163297914Y-159757584D01*
X163299115Y-159750000D01*
X162504146Y-159750000D01*
X162542630Y-159683343D01*
X162575000Y-159562535D01*
X162575000Y-159437465D01*
X162542630Y-159316657D01*
X162504146Y-159250000D01*
X163299115Y-159250000D01*
X163299115Y-159249999D01*
X163297914Y-159242415D01*
X163244408Y-159077744D01*
X163165804Y-158923475D01*
X163064032Y-158783397D01*
X162941602Y-158660967D01*
X162801524Y-158559195D01*
X162647257Y-158480591D01*
X162482585Y-158427086D01*
X162350000Y-158406086D01*
X162350000Y-159095854D01*
X162283343Y-159057370D01*
X162162535Y-159025000D01*
X162037465Y-159025000D01*
X161916657Y-159057370D01*
X161850000Y-159095854D01*
X161850000Y-158406086D01*
X161717414Y-158427086D01*
X161552742Y-158480591D01*
X161398475Y-158559195D01*
X161258397Y-158660967D01*
X161135967Y-158783397D01*
X161034195Y-158923475D01*
X160955591Y-159077744D01*
X160902085Y-159242415D01*
X160900884Y-159249999D01*
X156150500Y-159249999D01*
X156150500Y-156896530D01*
X160924500Y-156896530D01*
X160924500Y-157103469D01*
X160964868Y-157306412D01*
X160964870Y-157306420D01*
X161044058Y-157497596D01*
X161159024Y-157669657D01*
X161305342Y-157815975D01*
X161305345Y-157815977D01*
X161477402Y-157930941D01*
X161668580Y-158010130D01*
X161871530Y-158050499D01*
X161871534Y-158050500D01*
X161871535Y-158050500D01*
X162328466Y-158050500D01*
X162328467Y-158050499D01*
X162531420Y-158010130D01*
X162722598Y-157930941D01*
X162894655Y-157815977D01*
X163040977Y-157669655D01*
X163155941Y-157497598D01*
X163235130Y-157306420D01*
X163275500Y-157103465D01*
X163275500Y-156896535D01*
X163235130Y-156693580D01*
X163155941Y-156502402D01*
X163040977Y-156330345D01*
X163040975Y-156330342D01*
X162894657Y-156184024D01*
X162808626Y-156126541D01*
X162722598Y-156069059D01*
X162531420Y-155989870D01*
X162531412Y-155989868D01*
X162328469Y-155949500D01*
X162328465Y-155949500D01*
X161871535Y-155949500D01*
X161871530Y-155949500D01*
X161668587Y-155989868D01*
X161668579Y-155989870D01*
X161477403Y-156069058D01*
X161305342Y-156184024D01*
X161159024Y-156330342D01*
X161044058Y-156502403D01*
X160964870Y-156693579D01*
X160964868Y-156693587D01*
X160924500Y-156896530D01*
X156150500Y-156896530D01*
X156150500Y-154396530D01*
X160924500Y-154396530D01*
X160924500Y-154603469D01*
X160964868Y-154806412D01*
X160964870Y-154806420D01*
X161044058Y-154997596D01*
X161159024Y-155169657D01*
X161305342Y-155315975D01*
X161305345Y-155315977D01*
X161477402Y-155430941D01*
X161668580Y-155510130D01*
X161871530Y-155550499D01*
X161871534Y-155550500D01*
X161871535Y-155550500D01*
X162328466Y-155550500D01*
X162328467Y-155550499D01*
X162531420Y-155510130D01*
X162722598Y-155430941D01*
X162894655Y-155315977D01*
X163040977Y-155169655D01*
X163155941Y-154997598D01*
X163235130Y-154806420D01*
X163275500Y-154603465D01*
X163275500Y-154396535D01*
X163235130Y-154193580D01*
X163155941Y-154002402D01*
X163040977Y-153830345D01*
X163040975Y-153830342D01*
X162894657Y-153684024D01*
X162808626Y-153626541D01*
X162722598Y-153569059D01*
X162531420Y-153489870D01*
X162531412Y-153489868D01*
X162328469Y-153449500D01*
X162328465Y-153449500D01*
X161871535Y-153449500D01*
X161871530Y-153449500D01*
X161668587Y-153489868D01*
X161668579Y-153489870D01*
X161477403Y-153569058D01*
X161305342Y-153684024D01*
X161159024Y-153830342D01*
X161044058Y-154002403D01*
X160964870Y-154193579D01*
X160964868Y-154193587D01*
X160924500Y-154396530D01*
X156150500Y-154396530D01*
X156150500Y-151896530D01*
X160924500Y-151896530D01*
X160924500Y-152103469D01*
X160964868Y-152306412D01*
X160964870Y-152306420D01*
X161044058Y-152497596D01*
X161159024Y-152669657D01*
X161305342Y-152815975D01*
X161305345Y-152815977D01*
X161477402Y-152930941D01*
X161668580Y-153010130D01*
X161871530Y-153050499D01*
X161871534Y-153050500D01*
X161871535Y-153050500D01*
X162328466Y-153050500D01*
X162328467Y-153050499D01*
X162531420Y-153010130D01*
X162722598Y-152930941D01*
X162894655Y-152815977D01*
X163040977Y-152669655D01*
X163150589Y-152505609D01*
X163204201Y-152460804D01*
X163253691Y-152450500D01*
X164159308Y-152450500D01*
X164159309Y-152450500D01*
X164249673Y-152426286D01*
X164273887Y-152419799D01*
X164376614Y-152360489D01*
X165002995Y-151734108D01*
X169099500Y-151734108D01*
X169099500Y-151865891D01*
X169133608Y-151993187D01*
X169166554Y-152050250D01*
X169199500Y-152107314D01*
X169292686Y-152200500D01*
X169406814Y-152266392D01*
X169534108Y-152300500D01*
X169534110Y-152300500D01*
X169665890Y-152300500D01*
X169665892Y-152300500D01*
X169666865Y-152300239D01*
X169667719Y-152300259D01*
X169673949Y-152299439D01*
X169674076Y-152300410D01*
X169736714Y-152301896D01*
X169786648Y-152332330D01*
X173213181Y-155758863D01*
X173246666Y-155820186D01*
X173249500Y-155846544D01*
X173249500Y-179796143D01*
X173264963Y-179853855D01*
X173273384Y-179885283D01*
X173273387Y-179885290D01*
X173319527Y-179965208D01*
X173319531Y-179965213D01*
X176730681Y-183376363D01*
X176764166Y-183437686D01*
X176767000Y-183464044D01*
X176767000Y-185841654D01*
X176747315Y-185908693D01*
X176694511Y-185954448D01*
X176690453Y-185956215D01*
X176613461Y-185988105D01*
X176439173Y-186104560D01*
X176290960Y-186252773D01*
X176174506Y-186427061D01*
X176094293Y-186620712D01*
X176094291Y-186620720D01*
X176053400Y-186826290D01*
X176053400Y-187808709D01*
X176094042Y-188013026D01*
X176094293Y-188014287D01*
X176174507Y-188207940D01*
X176227702Y-188287553D01*
X176290960Y-188382226D01*
X176439173Y-188530439D01*
X176439176Y-188530441D01*
X176613460Y-188646893D01*
X176807113Y-188727107D01*
X177012690Y-188767999D01*
X177012693Y-188768000D01*
X177012695Y-188768000D01*
X177222307Y-188768000D01*
X177222308Y-188767999D01*
X177427887Y-188727107D01*
X177621540Y-188646893D01*
X177795824Y-188530441D01*
X177944041Y-188382224D01*
X178060493Y-188207940D01*
X178140707Y-188014287D01*
X178181600Y-187808705D01*
X178181600Y-186826295D01*
X178181600Y-186826292D01*
X178181599Y-186826290D01*
X178593400Y-186826290D01*
X178593400Y-187808709D01*
X178634042Y-188013026D01*
X178634293Y-188014287D01*
X178714507Y-188207940D01*
X178767702Y-188287553D01*
X178830960Y-188382226D01*
X178979173Y-188530439D01*
X178979176Y-188530441D01*
X179153460Y-188646893D01*
X179347113Y-188727107D01*
X179552690Y-188767999D01*
X179552693Y-188768000D01*
X179552695Y-188768000D01*
X179762307Y-188768000D01*
X179762308Y-188767999D01*
X179967887Y-188727107D01*
X180161540Y-188646893D01*
X180335824Y-188530441D01*
X180484041Y-188382224D01*
X180600493Y-188207940D01*
X180680707Y-188014287D01*
X180721600Y-187808705D01*
X180721600Y-186826295D01*
X180721600Y-186826292D01*
X180721599Y-186826290D01*
X181133401Y-186826290D01*
X181133401Y-187808709D01*
X181174043Y-188013026D01*
X181174294Y-188014287D01*
X181254508Y-188207940D01*
X181307703Y-188287553D01*
X181370961Y-188382226D01*
X181519174Y-188530439D01*
X181519177Y-188530441D01*
X181693461Y-188646893D01*
X181887114Y-188727107D01*
X182092691Y-188767999D01*
X182092694Y-188768000D01*
X182092696Y-188768000D01*
X182302308Y-188768000D01*
X182302309Y-188767999D01*
X182507888Y-188727107D01*
X182701541Y-188646893D01*
X182875825Y-188530441D01*
X183024042Y-188382224D01*
X183140494Y-188207940D01*
X183220708Y-188014287D01*
X183261601Y-187808705D01*
X183261601Y-186826295D01*
X183261601Y-186826292D01*
X183261600Y-186826290D01*
X183673400Y-186826290D01*
X183673400Y-187808709D01*
X183714042Y-188013026D01*
X183714293Y-188014287D01*
X183794507Y-188207940D01*
X183847702Y-188287553D01*
X183910960Y-188382226D01*
X184059173Y-188530439D01*
X184059176Y-188530441D01*
X184233460Y-188646893D01*
X184427113Y-188727107D01*
X184632690Y-188767999D01*
X184632693Y-188768000D01*
X184632695Y-188768000D01*
X184842307Y-188768000D01*
X184842308Y-188767999D01*
X185047887Y-188727107D01*
X185241540Y-188646893D01*
X185415824Y-188530441D01*
X185564041Y-188382224D01*
X185680493Y-188207940D01*
X185760707Y-188014287D01*
X185801600Y-187808705D01*
X185801600Y-186826295D01*
X185801600Y-186826292D01*
X185801599Y-186826290D01*
X186213400Y-186826290D01*
X186213400Y-187808709D01*
X186254042Y-188013026D01*
X186254293Y-188014287D01*
X186334507Y-188207940D01*
X186387702Y-188287553D01*
X186450960Y-188382226D01*
X186599173Y-188530439D01*
X186599176Y-188530441D01*
X186773460Y-188646893D01*
X186967113Y-188727107D01*
X187172690Y-188767999D01*
X187172693Y-188768000D01*
X187172695Y-188768000D01*
X187382307Y-188768000D01*
X187382308Y-188767999D01*
X187587887Y-188727107D01*
X187781540Y-188646893D01*
X187955824Y-188530441D01*
X188104041Y-188382224D01*
X188220493Y-188207940D01*
X188300707Y-188014287D01*
X188341600Y-187808705D01*
X188341600Y-186826295D01*
X188341600Y-186826292D01*
X188341599Y-186826290D01*
X188753400Y-186826290D01*
X188753400Y-187808709D01*
X188794042Y-188013026D01*
X188794293Y-188014287D01*
X188874507Y-188207940D01*
X188927702Y-188287553D01*
X188990960Y-188382226D01*
X189139173Y-188530439D01*
X189139176Y-188530441D01*
X189313460Y-188646893D01*
X189507113Y-188727107D01*
X189712690Y-188767999D01*
X189712693Y-188768000D01*
X189712695Y-188768000D01*
X189922307Y-188768000D01*
X189922308Y-188767999D01*
X190127887Y-188727107D01*
X190321540Y-188646893D01*
X190495824Y-188530441D01*
X190644041Y-188382224D01*
X190760493Y-188207940D01*
X190840707Y-188014287D01*
X190881600Y-187808705D01*
X190881600Y-186826295D01*
X190881600Y-186826292D01*
X190881599Y-186826290D01*
X191293399Y-186826290D01*
X191293399Y-187808709D01*
X191334041Y-188013026D01*
X191334292Y-188014287D01*
X191414506Y-188207940D01*
X191467701Y-188287553D01*
X191530959Y-188382226D01*
X191679172Y-188530439D01*
X191679175Y-188530441D01*
X191853459Y-188646893D01*
X192047112Y-188727107D01*
X192252689Y-188767999D01*
X192252692Y-188768000D01*
X192252694Y-188768000D01*
X192462306Y-188768000D01*
X192462307Y-188767999D01*
X192667886Y-188727107D01*
X192861539Y-188646893D01*
X193035823Y-188530441D01*
X193184040Y-188382224D01*
X193300492Y-188207940D01*
X193380706Y-188014287D01*
X193421599Y-187808705D01*
X193421599Y-186826295D01*
X193421599Y-186826292D01*
X193421598Y-186826290D01*
X195357399Y-186826290D01*
X195357399Y-187808709D01*
X195398041Y-188013026D01*
X195398292Y-188014287D01*
X195478506Y-188207940D01*
X195531701Y-188287553D01*
X195594959Y-188382226D01*
X195743172Y-188530439D01*
X195743175Y-188530441D01*
X195917459Y-188646893D01*
X196111112Y-188727107D01*
X196316689Y-188767999D01*
X196316692Y-188768000D01*
X196316694Y-188768000D01*
X196526306Y-188768000D01*
X196526307Y-188767999D01*
X196731886Y-188727107D01*
X196925539Y-188646893D01*
X197099823Y-188530441D01*
X197248040Y-188382224D01*
X197364492Y-188207940D01*
X197444706Y-188014287D01*
X197485599Y-187808705D01*
X197485599Y-186826295D01*
X197485599Y-186826292D01*
X197485598Y-186826290D01*
X197897400Y-186826290D01*
X197897400Y-187808709D01*
X197938042Y-188013026D01*
X197938293Y-188014287D01*
X198018507Y-188207940D01*
X198071702Y-188287553D01*
X198134960Y-188382226D01*
X198283173Y-188530439D01*
X198283176Y-188530441D01*
X198457460Y-188646893D01*
X198651113Y-188727107D01*
X198856690Y-188767999D01*
X198856693Y-188768000D01*
X198856695Y-188768000D01*
X199066307Y-188768000D01*
X199066308Y-188767999D01*
X199271887Y-188727107D01*
X199465540Y-188646893D01*
X199639824Y-188530441D01*
X199788041Y-188382224D01*
X199904493Y-188207940D01*
X199984707Y-188014287D01*
X200025600Y-187808705D01*
X200025600Y-186826295D01*
X200025600Y-186826292D01*
X200025599Y-186826290D01*
X200437400Y-186826290D01*
X200437400Y-187808709D01*
X200478042Y-188013026D01*
X200478293Y-188014287D01*
X200558507Y-188207940D01*
X200611702Y-188287553D01*
X200674960Y-188382226D01*
X200823173Y-188530439D01*
X200823176Y-188530441D01*
X200997460Y-188646893D01*
X201191113Y-188727107D01*
X201396690Y-188767999D01*
X201396693Y-188768000D01*
X201396695Y-188768000D01*
X201606307Y-188768000D01*
X201606308Y-188767999D01*
X201811887Y-188727107D01*
X202005540Y-188646893D01*
X202179824Y-188530441D01*
X202328041Y-188382224D01*
X202444493Y-188207940D01*
X202524707Y-188014287D01*
X202565600Y-187808705D01*
X202565600Y-186826295D01*
X202565600Y-186826292D01*
X202565599Y-186826290D01*
X202977400Y-186826290D01*
X202977400Y-187808709D01*
X203018042Y-188013026D01*
X203018293Y-188014287D01*
X203098507Y-188207940D01*
X203151702Y-188287553D01*
X203214960Y-188382226D01*
X203363173Y-188530439D01*
X203363176Y-188530441D01*
X203537460Y-188646893D01*
X203731113Y-188727107D01*
X203936690Y-188767999D01*
X203936693Y-188768000D01*
X203936695Y-188768000D01*
X204146307Y-188768000D01*
X204146308Y-188767999D01*
X204351887Y-188727107D01*
X204545540Y-188646893D01*
X204719824Y-188530441D01*
X204868041Y-188382224D01*
X204984493Y-188207940D01*
X205064707Y-188014287D01*
X205105600Y-187808705D01*
X205105600Y-186826295D01*
X205105600Y-186826292D01*
X205105599Y-186826290D01*
X205517400Y-186826290D01*
X205517400Y-187808709D01*
X205558042Y-188013026D01*
X205558293Y-188014287D01*
X205638507Y-188207940D01*
X205691702Y-188287553D01*
X205754960Y-188382226D01*
X205903173Y-188530439D01*
X205903176Y-188530441D01*
X206077460Y-188646893D01*
X206271113Y-188727107D01*
X206476690Y-188767999D01*
X206476693Y-188768000D01*
X206476695Y-188768000D01*
X206686307Y-188768000D01*
X206686308Y-188767999D01*
X206891887Y-188727107D01*
X207085540Y-188646893D01*
X207259824Y-188530441D01*
X207408041Y-188382224D01*
X207524493Y-188207940D01*
X207604707Y-188014287D01*
X207645600Y-187808705D01*
X207645600Y-186826295D01*
X207645600Y-186826292D01*
X207645599Y-186826290D01*
X208057401Y-186826290D01*
X208057401Y-187808709D01*
X208098043Y-188013026D01*
X208098294Y-188014287D01*
X208178508Y-188207940D01*
X208231703Y-188287553D01*
X208294961Y-188382226D01*
X208443174Y-188530439D01*
X208443177Y-188530441D01*
X208617461Y-188646893D01*
X208811114Y-188727107D01*
X209016691Y-188767999D01*
X209016694Y-188768000D01*
X209016696Y-188768000D01*
X209226308Y-188768000D01*
X209226309Y-188767999D01*
X209431888Y-188727107D01*
X209625541Y-188646893D01*
X209799825Y-188530441D01*
X209948042Y-188382224D01*
X210064494Y-188207940D01*
X210144708Y-188014287D01*
X210185601Y-187808705D01*
X210185601Y-187791541D01*
X210547900Y-187791541D01*
X210575320Y-187964665D01*
X210629488Y-188131376D01*
X210709064Y-188287553D01*
X210812096Y-188429362D01*
X210812096Y-188429363D01*
X210936036Y-188553303D01*
X211077846Y-188656335D01*
X211234023Y-188735911D01*
X211400727Y-188790077D01*
X211411500Y-188791783D01*
X211911500Y-188791783D01*
X211922272Y-188790077D01*
X212088976Y-188735911D01*
X212245153Y-188656335D01*
X212386962Y-188553303D01*
X212386963Y-188553303D01*
X212510903Y-188429363D01*
X212510903Y-188429362D01*
X212613935Y-188287553D01*
X212693511Y-188131376D01*
X212747679Y-187964665D01*
X212775100Y-187791541D01*
X212775100Y-187567500D01*
X211911500Y-187567500D01*
X211911500Y-188791783D01*
X211411500Y-188791783D01*
X211411500Y-187567500D01*
X210547900Y-187567500D01*
X210547900Y-187791541D01*
X210185601Y-187791541D01*
X210185601Y-186843458D01*
X210547900Y-186843458D01*
X210547900Y-187067500D01*
X211219249Y-187067500D01*
X211254998Y-187129420D01*
X211349580Y-187224002D01*
X211465419Y-187290881D01*
X211594620Y-187325500D01*
X211728380Y-187325500D01*
X211857581Y-187290881D01*
X211973420Y-187224002D01*
X212068002Y-187129420D01*
X212103751Y-187067500D01*
X212775100Y-187067500D01*
X212775100Y-186843457D01*
X212774489Y-186839600D01*
X212772381Y-186826290D01*
X213137400Y-186826290D01*
X213137400Y-187808709D01*
X213178042Y-188013026D01*
X213178293Y-188014287D01*
X213258507Y-188207940D01*
X213311702Y-188287553D01*
X213374960Y-188382226D01*
X213523173Y-188530439D01*
X213523176Y-188530441D01*
X213697460Y-188646893D01*
X213891113Y-188727107D01*
X214096690Y-188767999D01*
X214096693Y-188768000D01*
X214096695Y-188768000D01*
X214306307Y-188768000D01*
X214306308Y-188767999D01*
X214511887Y-188727107D01*
X214705540Y-188646893D01*
X214879824Y-188530441D01*
X215028041Y-188382224D01*
X215144493Y-188207940D01*
X215224707Y-188014287D01*
X215265600Y-187808705D01*
X215265600Y-186826295D01*
X215265600Y-186826292D01*
X215265599Y-186826290D01*
X215677400Y-186826290D01*
X215677400Y-187808709D01*
X215718042Y-188013026D01*
X215718293Y-188014287D01*
X215798507Y-188207940D01*
X215851702Y-188287553D01*
X215914960Y-188382226D01*
X216063173Y-188530439D01*
X216063176Y-188530441D01*
X216237460Y-188646893D01*
X216431113Y-188727107D01*
X216636690Y-188767999D01*
X216636693Y-188768000D01*
X216636695Y-188768000D01*
X216846307Y-188768000D01*
X216846308Y-188767999D01*
X217051887Y-188727107D01*
X217245540Y-188646893D01*
X217419824Y-188530441D01*
X217568041Y-188382224D01*
X217684493Y-188207940D01*
X217764707Y-188014287D01*
X217805600Y-187808705D01*
X217805600Y-186826295D01*
X217805600Y-186826292D01*
X217805599Y-186826290D01*
X218217399Y-186826290D01*
X218217399Y-187808709D01*
X218258041Y-188013026D01*
X218258292Y-188014287D01*
X218338506Y-188207940D01*
X218391701Y-188287553D01*
X218454959Y-188382226D01*
X218603172Y-188530439D01*
X218603175Y-188530441D01*
X218777459Y-188646893D01*
X218971112Y-188727107D01*
X219176689Y-188767999D01*
X219176692Y-188768000D01*
X219176694Y-188768000D01*
X219386306Y-188768000D01*
X219386307Y-188767999D01*
X219591886Y-188727107D01*
X219785539Y-188646893D01*
X219959823Y-188530441D01*
X220108040Y-188382224D01*
X220224492Y-188207940D01*
X220304706Y-188014287D01*
X220345599Y-187808705D01*
X220345599Y-187531758D01*
X239725000Y-187531758D01*
X239725000Y-187929079D01*
X239759628Y-188324881D01*
X239759628Y-188324885D01*
X239828619Y-188716148D01*
X239828621Y-188716159D01*
X239931455Y-189099935D01*
X239931458Y-189099945D01*
X240067340Y-189473283D01*
X240067344Y-189473293D01*
X240235251Y-189833367D01*
X240235259Y-189833383D01*
X240433908Y-190177452D01*
X240433924Y-190177478D01*
X240661798Y-190502916D01*
X240884064Y-190767801D01*
X242588098Y-189063767D01*
X242655076Y-189151054D01*
X242854365Y-189350343D01*
X242941651Y-189417319D01*
X241237616Y-191121354D01*
X241502502Y-191343620D01*
X241827940Y-191571494D01*
X241827966Y-191571510D01*
X242172035Y-191770159D01*
X242172051Y-191770167D01*
X242532125Y-191938074D01*
X242532135Y-191938078D01*
X242905473Y-192073960D01*
X242905483Y-192073963D01*
X243289259Y-192176797D01*
X243289270Y-192176799D01*
X243680535Y-192245790D01*
X244076339Y-192280418D01*
X244076342Y-192280419D01*
X244473658Y-192280419D01*
X244473660Y-192280418D01*
X244869462Y-192245790D01*
X244869466Y-192245790D01*
X245260729Y-192176799D01*
X245260740Y-192176797D01*
X245644516Y-192073963D01*
X245644526Y-192073960D01*
X246017864Y-191938078D01*
X246017874Y-191938074D01*
X246377948Y-191770167D01*
X246377964Y-191770159D01*
X246722033Y-191571510D01*
X246722059Y-191571494D01*
X247047504Y-191343615D01*
X247312382Y-191121355D01*
X247312383Y-191121354D01*
X245608348Y-189417320D01*
X245695635Y-189350343D01*
X245894924Y-189151054D01*
X245961900Y-189063767D01*
X247665935Y-190767802D01*
X247665936Y-190767801D01*
X247888196Y-190502923D01*
X248116075Y-190177478D01*
X248116091Y-190177452D01*
X248314740Y-189833383D01*
X248314748Y-189833367D01*
X248482655Y-189473293D01*
X248482659Y-189473283D01*
X248618541Y-189099945D01*
X248618544Y-189099935D01*
X248721378Y-188716159D01*
X248721380Y-188716148D01*
X248790371Y-188324885D01*
X248790371Y-188324881D01*
X248824999Y-187929079D01*
X248825000Y-187929077D01*
X248825000Y-187531761D01*
X248824999Y-187531758D01*
X248790371Y-187135956D01*
X248790371Y-187135952D01*
X248721380Y-186744689D01*
X248721378Y-186744678D01*
X248618544Y-186360902D01*
X248618541Y-186360892D01*
X248482659Y-185987554D01*
X248482655Y-185987544D01*
X248314748Y-185627470D01*
X248314740Y-185627454D01*
X248116091Y-185283385D01*
X248116075Y-185283359D01*
X247888201Y-184957921D01*
X247665935Y-184693035D01*
X245961900Y-186397069D01*
X245894924Y-186309784D01*
X245695635Y-186110495D01*
X245608347Y-186043517D01*
X247312382Y-184339483D01*
X247047497Y-184117217D01*
X246722059Y-183889343D01*
X246722033Y-183889327D01*
X246377964Y-183690678D01*
X246377948Y-183690670D01*
X246017874Y-183522763D01*
X246017864Y-183522759D01*
X245644526Y-183386877D01*
X245644516Y-183386874D01*
X245260740Y-183284040D01*
X245260729Y-183284038D01*
X244869464Y-183215047D01*
X244473660Y-183180419D01*
X244076339Y-183180419D01*
X243680537Y-183215047D01*
X243680533Y-183215047D01*
X243289270Y-183284038D01*
X243289259Y-183284040D01*
X242905483Y-183386874D01*
X242905473Y-183386877D01*
X242532135Y-183522759D01*
X242532125Y-183522763D01*
X242172051Y-183690670D01*
X242172035Y-183690678D01*
X241827966Y-183889327D01*
X241827940Y-183889343D01*
X241502496Y-184117221D01*
X241237616Y-184339481D01*
X241237615Y-184339481D01*
X242941651Y-186043517D01*
X242854365Y-186110495D01*
X242655076Y-186309784D01*
X242588098Y-186397070D01*
X240884062Y-184693034D01*
X240884062Y-184693035D01*
X240661802Y-184957915D01*
X240433924Y-185283359D01*
X240433908Y-185283385D01*
X240235259Y-185627454D01*
X240235251Y-185627470D01*
X240067344Y-185987544D01*
X240067340Y-185987554D01*
X239931458Y-186360892D01*
X239931455Y-186360902D01*
X239828621Y-186744678D01*
X239828619Y-186744689D01*
X239759628Y-187135952D01*
X239759628Y-187135956D01*
X239725000Y-187531758D01*
X220345599Y-187531758D01*
X220345599Y-186826295D01*
X220345599Y-186826292D01*
X220345598Y-186826290D01*
X220304707Y-186620720D01*
X220304706Y-186620713D01*
X220224492Y-186427060D01*
X220108040Y-186252776D01*
X220108038Y-186252773D01*
X219959825Y-186104560D01*
X219816067Y-186008505D01*
X219785539Y-185988107D01*
X219785534Y-185988105D01*
X219591886Y-185907893D01*
X219591878Y-185907891D01*
X219386307Y-185867000D01*
X219386304Y-185867000D01*
X219176694Y-185867000D01*
X219176691Y-185867000D01*
X218971119Y-185907891D01*
X218971111Y-185907893D01*
X218777460Y-185988106D01*
X218603172Y-186104560D01*
X218454959Y-186252773D01*
X218338505Y-186427061D01*
X218258292Y-186620712D01*
X218258290Y-186620720D01*
X218217399Y-186826290D01*
X217805599Y-186826290D01*
X217764708Y-186620720D01*
X217764707Y-186620713D01*
X217684493Y-186427060D01*
X217568041Y-186252776D01*
X217568039Y-186252773D01*
X217419826Y-186104560D01*
X217276068Y-186008505D01*
X217245540Y-185988107D01*
X217245535Y-185988105D01*
X217051887Y-185907893D01*
X217051879Y-185907891D01*
X216846308Y-185867000D01*
X216846305Y-185867000D01*
X216636695Y-185867000D01*
X216636692Y-185867000D01*
X216431120Y-185907891D01*
X216431112Y-185907893D01*
X216237461Y-185988106D01*
X216063173Y-186104560D01*
X215914960Y-186252773D01*
X215798506Y-186427061D01*
X215718293Y-186620712D01*
X215718291Y-186620720D01*
X215677400Y-186826290D01*
X215265599Y-186826290D01*
X215224708Y-186620720D01*
X215224707Y-186620713D01*
X215144493Y-186427060D01*
X215028041Y-186252776D01*
X215028039Y-186252773D01*
X214879826Y-186104560D01*
X214736068Y-186008505D01*
X214705540Y-185988107D01*
X214705535Y-185988105D01*
X214511887Y-185907893D01*
X214511879Y-185907891D01*
X214306308Y-185867000D01*
X214306305Y-185867000D01*
X214096695Y-185867000D01*
X214096692Y-185867000D01*
X213891120Y-185907891D01*
X213891112Y-185907893D01*
X213697461Y-185988106D01*
X213523173Y-186104560D01*
X213374960Y-186252773D01*
X213258506Y-186427061D01*
X213178293Y-186620712D01*
X213178291Y-186620720D01*
X213137400Y-186826290D01*
X212772381Y-186826290D01*
X212747679Y-186670334D01*
X212693511Y-186503623D01*
X212613935Y-186347446D01*
X212510903Y-186205637D01*
X212510903Y-186205636D01*
X212386963Y-186081696D01*
X212245153Y-185978664D01*
X212088976Y-185899088D01*
X211922269Y-185844921D01*
X211922265Y-185844920D01*
X211911500Y-185843214D01*
X211911500Y-186375248D01*
X211857581Y-186344119D01*
X211728380Y-186309500D01*
X211594620Y-186309500D01*
X211465419Y-186344119D01*
X211411500Y-186375248D01*
X211411500Y-185843215D01*
X211411499Y-185843214D01*
X211400734Y-185844920D01*
X211400730Y-185844921D01*
X211234023Y-185899088D01*
X211077846Y-185978664D01*
X210936037Y-186081696D01*
X210936036Y-186081696D01*
X210812096Y-186205636D01*
X210812096Y-186205637D01*
X210709064Y-186347446D01*
X210629488Y-186503623D01*
X210575320Y-186670334D01*
X210547900Y-186843458D01*
X210185601Y-186843458D01*
X210185601Y-186826295D01*
X210185601Y-186826292D01*
X210185600Y-186826290D01*
X210144709Y-186620720D01*
X210144708Y-186620713D01*
X210064494Y-186427060D01*
X209948042Y-186252776D01*
X209948040Y-186252773D01*
X209799827Y-186104560D01*
X209656069Y-186008505D01*
X209625541Y-185988107D01*
X209625536Y-185988105D01*
X209431888Y-185907893D01*
X209431880Y-185907891D01*
X209226309Y-185867000D01*
X209226306Y-185867000D01*
X209016696Y-185867000D01*
X209016693Y-185867000D01*
X208811121Y-185907891D01*
X208811113Y-185907893D01*
X208617462Y-185988106D01*
X208443174Y-186104560D01*
X208294961Y-186252773D01*
X208178507Y-186427061D01*
X208098294Y-186620712D01*
X208098292Y-186620720D01*
X208057401Y-186826290D01*
X207645599Y-186826290D01*
X207604708Y-186620720D01*
X207604707Y-186620713D01*
X207524493Y-186427060D01*
X207408041Y-186252776D01*
X207408039Y-186252773D01*
X207259826Y-186104560D01*
X207116068Y-186008505D01*
X207085540Y-185988107D01*
X207085535Y-185988105D01*
X206891887Y-185907893D01*
X206891879Y-185907891D01*
X206686308Y-185867000D01*
X206686305Y-185867000D01*
X206476695Y-185867000D01*
X206476692Y-185867000D01*
X206271120Y-185907891D01*
X206271112Y-185907893D01*
X206077461Y-185988106D01*
X205903173Y-186104560D01*
X205754960Y-186252773D01*
X205638506Y-186427061D01*
X205558293Y-186620712D01*
X205558291Y-186620720D01*
X205517400Y-186826290D01*
X205105599Y-186826290D01*
X205064708Y-186620720D01*
X205064707Y-186620713D01*
X204984493Y-186427060D01*
X204868041Y-186252776D01*
X204868039Y-186252773D01*
X204719826Y-186104560D01*
X204576068Y-186008505D01*
X204545540Y-185988107D01*
X204545535Y-185988105D01*
X204351887Y-185907893D01*
X204351879Y-185907891D01*
X204146308Y-185867000D01*
X204146305Y-185867000D01*
X203936695Y-185867000D01*
X203936692Y-185867000D01*
X203731120Y-185907891D01*
X203731112Y-185907893D01*
X203537461Y-185988106D01*
X203363173Y-186104560D01*
X203214960Y-186252773D01*
X203098506Y-186427061D01*
X203018293Y-186620712D01*
X203018291Y-186620720D01*
X202977400Y-186826290D01*
X202565599Y-186826290D01*
X202524708Y-186620720D01*
X202524707Y-186620713D01*
X202444493Y-186427060D01*
X202328041Y-186252776D01*
X202328039Y-186252773D01*
X202179826Y-186104560D01*
X202036068Y-186008505D01*
X202005540Y-185988107D01*
X202005535Y-185988105D01*
X201811887Y-185907893D01*
X201811879Y-185907891D01*
X201606308Y-185867000D01*
X201606305Y-185867000D01*
X201396695Y-185867000D01*
X201396692Y-185867000D01*
X201191120Y-185907891D01*
X201191112Y-185907893D01*
X200997461Y-185988106D01*
X200823173Y-186104560D01*
X200674960Y-186252773D01*
X200558506Y-186427061D01*
X200478293Y-186620712D01*
X200478291Y-186620720D01*
X200437400Y-186826290D01*
X200025599Y-186826290D01*
X199984708Y-186620720D01*
X199984707Y-186620713D01*
X199904493Y-186427060D01*
X199788041Y-186252776D01*
X199788039Y-186252773D01*
X199639826Y-186104560D01*
X199496068Y-186008505D01*
X199465540Y-185988107D01*
X199465535Y-185988105D01*
X199271887Y-185907893D01*
X199271879Y-185907891D01*
X199066308Y-185867000D01*
X199066305Y-185867000D01*
X198856695Y-185867000D01*
X198856692Y-185867000D01*
X198651120Y-185907891D01*
X198651112Y-185907893D01*
X198457461Y-185988106D01*
X198283173Y-186104560D01*
X198134960Y-186252773D01*
X198018506Y-186427061D01*
X197938293Y-186620712D01*
X197938291Y-186620720D01*
X197897400Y-186826290D01*
X197485598Y-186826290D01*
X197444707Y-186620720D01*
X197444706Y-186620713D01*
X197364492Y-186427060D01*
X197248040Y-186252776D01*
X197248038Y-186252773D01*
X197099825Y-186104560D01*
X196956067Y-186008505D01*
X196925539Y-185988107D01*
X196925534Y-185988105D01*
X196731886Y-185907893D01*
X196731878Y-185907891D01*
X196526307Y-185867000D01*
X196526304Y-185867000D01*
X196316694Y-185867000D01*
X196316691Y-185867000D01*
X196111119Y-185907891D01*
X196111111Y-185907893D01*
X195917460Y-185988106D01*
X195743172Y-186104560D01*
X195594959Y-186252773D01*
X195478505Y-186427061D01*
X195398292Y-186620712D01*
X195398290Y-186620720D01*
X195357399Y-186826290D01*
X193421598Y-186826290D01*
X193380707Y-186620720D01*
X193380706Y-186620713D01*
X193300492Y-186427060D01*
X193184040Y-186252776D01*
X193184038Y-186252773D01*
X193035825Y-186104560D01*
X192892067Y-186008505D01*
X192861539Y-185988107D01*
X192861534Y-185988105D01*
X192667886Y-185907893D01*
X192667878Y-185907891D01*
X192462307Y-185867000D01*
X192462304Y-185867000D01*
X192252694Y-185867000D01*
X192252691Y-185867000D01*
X192047119Y-185907891D01*
X192047111Y-185907893D01*
X191853460Y-185988106D01*
X191679172Y-186104560D01*
X191530959Y-186252773D01*
X191414505Y-186427061D01*
X191334292Y-186620712D01*
X191334290Y-186620720D01*
X191293399Y-186826290D01*
X190881599Y-186826290D01*
X190840708Y-186620720D01*
X190840707Y-186620713D01*
X190760493Y-186427060D01*
X190644041Y-186252776D01*
X190644039Y-186252773D01*
X190495826Y-186104560D01*
X190352068Y-186008505D01*
X190321540Y-185988107D01*
X190321535Y-185988105D01*
X190127887Y-185907893D01*
X190127879Y-185907891D01*
X189922308Y-185867000D01*
X189922305Y-185867000D01*
X189712695Y-185867000D01*
X189712692Y-185867000D01*
X189507120Y-185907891D01*
X189507112Y-185907893D01*
X189313461Y-185988106D01*
X189139173Y-186104560D01*
X188990960Y-186252773D01*
X188874506Y-186427061D01*
X188794293Y-186620712D01*
X188794291Y-186620720D01*
X188753400Y-186826290D01*
X188341599Y-186826290D01*
X188300708Y-186620720D01*
X188300707Y-186620713D01*
X188220493Y-186427060D01*
X188104041Y-186252776D01*
X188104039Y-186252773D01*
X187955826Y-186104560D01*
X187812068Y-186008505D01*
X187781540Y-185988107D01*
X187781535Y-185988105D01*
X187587887Y-185907893D01*
X187587879Y-185907891D01*
X187382308Y-185867000D01*
X187382305Y-185867000D01*
X187172695Y-185867000D01*
X187172692Y-185867000D01*
X186967120Y-185907891D01*
X186967112Y-185907893D01*
X186773461Y-185988106D01*
X186599173Y-186104560D01*
X186450960Y-186252773D01*
X186334506Y-186427061D01*
X186254293Y-186620712D01*
X186254291Y-186620720D01*
X186213400Y-186826290D01*
X185801599Y-186826290D01*
X185760708Y-186620720D01*
X185760707Y-186620713D01*
X185680493Y-186427060D01*
X185564041Y-186252776D01*
X185564039Y-186252773D01*
X185415826Y-186104560D01*
X185272068Y-186008505D01*
X185241540Y-185988107D01*
X185241535Y-185988105D01*
X185047887Y-185907893D01*
X185047879Y-185907891D01*
X184842308Y-185867000D01*
X184842305Y-185867000D01*
X184632695Y-185867000D01*
X184632692Y-185867000D01*
X184427120Y-185907891D01*
X184427112Y-185907893D01*
X184233461Y-185988106D01*
X184059173Y-186104560D01*
X183910960Y-186252773D01*
X183794506Y-186427061D01*
X183714293Y-186620712D01*
X183714291Y-186620720D01*
X183673400Y-186826290D01*
X183261600Y-186826290D01*
X183220709Y-186620720D01*
X183220708Y-186620713D01*
X183140494Y-186427060D01*
X183024042Y-186252776D01*
X183024040Y-186252773D01*
X182875827Y-186104560D01*
X182732069Y-186008505D01*
X182701541Y-185988107D01*
X182701536Y-185988105D01*
X182507888Y-185907893D01*
X182507880Y-185907891D01*
X182302309Y-185867000D01*
X182302306Y-185867000D01*
X182092696Y-185867000D01*
X182092693Y-185867000D01*
X181887121Y-185907891D01*
X181887113Y-185907893D01*
X181693462Y-185988106D01*
X181519174Y-186104560D01*
X181370961Y-186252773D01*
X181254507Y-186427061D01*
X181174294Y-186620712D01*
X181174292Y-186620720D01*
X181133401Y-186826290D01*
X180721599Y-186826290D01*
X180680708Y-186620720D01*
X180680707Y-186620713D01*
X180600493Y-186427060D01*
X180484041Y-186252776D01*
X180484039Y-186252773D01*
X180335826Y-186104560D01*
X180192068Y-186008505D01*
X180161540Y-185988107D01*
X180161535Y-185988105D01*
X179967887Y-185907893D01*
X179967879Y-185907891D01*
X179762308Y-185867000D01*
X179762305Y-185867000D01*
X179552695Y-185867000D01*
X179552692Y-185867000D01*
X179347120Y-185907891D01*
X179347112Y-185907893D01*
X179153461Y-185988106D01*
X178979173Y-186104560D01*
X178830960Y-186252773D01*
X178714506Y-186427061D01*
X178634293Y-186620712D01*
X178634291Y-186620720D01*
X178593400Y-186826290D01*
X178181599Y-186826290D01*
X178140708Y-186620720D01*
X178140707Y-186620713D01*
X178060493Y-186427060D01*
X177944041Y-186252776D01*
X177944039Y-186252773D01*
X177795826Y-186104560D01*
X177621538Y-185988105D01*
X177544547Y-185956215D01*
X177490144Y-185912374D01*
X177468079Y-185846080D01*
X177468000Y-185841654D01*
X177468000Y-183221358D01*
X177468000Y-183221356D01*
X177444114Y-183132212D01*
X177397970Y-183052288D01*
X173986819Y-179641137D01*
X173953334Y-179579814D01*
X173950500Y-179553456D01*
X173950500Y-155603858D01*
X173950500Y-155603856D01*
X173926614Y-155514712D01*
X173926614Y-155514711D01*
X173923971Y-155510134D01*
X173923969Y-155510130D01*
X173880470Y-155434788D01*
X170093659Y-151647977D01*
X170070746Y-151613685D01*
X170070456Y-151613853D01*
X170067897Y-151609420D01*
X170066778Y-151607746D01*
X170066393Y-151606817D01*
X170066392Y-151606814D01*
X170000500Y-151492686D01*
X169907314Y-151399500D01*
X169850250Y-151366554D01*
X169793187Y-151333608D01*
X169729539Y-151316554D01*
X169665892Y-151299500D01*
X169534108Y-151299500D01*
X169406812Y-151333608D01*
X169292686Y-151399500D01*
X169292683Y-151399502D01*
X169199502Y-151492683D01*
X169199500Y-151492686D01*
X169133608Y-151606812D01*
X169099500Y-151734108D01*
X165002995Y-151734108D01*
X166990284Y-149746819D01*
X167051607Y-149713334D01*
X167077965Y-149710500D01*
X169672035Y-149710500D01*
X169739074Y-149730185D01*
X169759716Y-149746819D01*
X170523386Y-150510489D01*
X170626113Y-150569799D01*
X170626115Y-150569800D01*
X170682658Y-150584949D01*
X170727892Y-150597069D01*
X170783481Y-150629163D01*
X174763181Y-154608863D01*
X174796666Y-154670186D01*
X174799500Y-154696544D01*
X174799500Y-178096143D01*
X174823386Y-178185287D01*
X174823387Y-178185290D01*
X174869527Y-178265208D01*
X174869531Y-178265213D01*
X176567908Y-179963590D01*
X176601393Y-180024913D01*
X176596409Y-180094605D01*
X176587614Y-180113271D01*
X176533609Y-180206810D01*
X176533609Y-180206811D01*
X176499500Y-180334108D01*
X176499500Y-180465891D01*
X176533608Y-180593187D01*
X176566554Y-180650250D01*
X176599500Y-180707314D01*
X176692686Y-180800500D01*
X176806814Y-180866392D01*
X176934108Y-180900500D01*
X176934110Y-180900500D01*
X177065890Y-180900500D01*
X177065892Y-180900500D01*
X177193186Y-180866392D01*
X177307314Y-180800500D01*
X177400500Y-180707314D01*
X177466392Y-180593186D01*
X177500500Y-180465892D01*
X177500500Y-180334108D01*
X177466392Y-180206814D01*
X177400500Y-180092686D01*
X177386819Y-180079005D01*
X177353334Y-180017682D01*
X177350500Y-179991324D01*
X177350500Y-179853857D01*
X177350500Y-179853856D01*
X177326614Y-179764712D01*
X177280470Y-179684788D01*
X175536819Y-177941137D01*
X175503334Y-177879814D01*
X175500500Y-177853456D01*
X175500500Y-154453858D01*
X175500500Y-154453856D01*
X175476614Y-154364712D01*
X175430470Y-154284788D01*
X171279163Y-150133481D01*
X171247069Y-150077891D01*
X171219800Y-149976115D01*
X171219799Y-149976113D01*
X171160489Y-149873386D01*
X170186614Y-148899511D01*
X170135250Y-148869856D01*
X170083888Y-148840201D01*
X170071780Y-148836957D01*
X170059673Y-148833713D01*
X170059670Y-148833712D01*
X170021478Y-148823478D01*
X169969309Y-148809500D01*
X166780691Y-148809500D01*
X166690325Y-148833713D01*
X166690324Y-148833712D01*
X166666116Y-148840199D01*
X166666113Y-148840200D01*
X166563386Y-148899511D01*
X166563383Y-148899513D01*
X163949716Y-151513181D01*
X163888393Y-151546666D01*
X163862035Y-151549500D01*
X163253691Y-151549500D01*
X163186652Y-151529815D01*
X163150589Y-151494391D01*
X163040977Y-151330344D01*
X162894657Y-151184024D01*
X162808626Y-151126541D01*
X162722598Y-151069059D01*
X162531420Y-150989870D01*
X162531412Y-150989868D01*
X162328469Y-150949500D01*
X162328465Y-150949500D01*
X161871535Y-150949500D01*
X161871530Y-150949500D01*
X161668587Y-150989868D01*
X161668579Y-150989870D01*
X161477403Y-151069058D01*
X161305342Y-151184024D01*
X161159024Y-151330342D01*
X161044058Y-151502403D01*
X160964870Y-151693579D01*
X160964868Y-151693587D01*
X160924500Y-151896530D01*
X156150500Y-151896530D01*
X156150500Y-148845730D01*
X160924500Y-148845730D01*
X160924500Y-150154269D01*
X160927353Y-150184699D01*
X160927353Y-150184701D01*
X160972206Y-150312880D01*
X160972207Y-150312882D01*
X161052850Y-150422150D01*
X161162118Y-150502793D01*
X161184112Y-150510489D01*
X161290299Y-150547646D01*
X161320730Y-150550500D01*
X161320734Y-150550500D01*
X162879270Y-150550500D01*
X162909699Y-150547646D01*
X162909701Y-150547646D01*
X162973790Y-150525219D01*
X163037882Y-150502793D01*
X163147150Y-150422150D01*
X163227793Y-150312882D01*
X163250219Y-150248790D01*
X163272646Y-150184701D01*
X163272646Y-150184699D01*
X163275500Y-150154269D01*
X163275500Y-148845730D01*
X163272646Y-148815300D01*
X163272646Y-148815298D01*
X163227793Y-148687119D01*
X163227792Y-148687117D01*
X163147150Y-148577850D01*
X163037882Y-148497207D01*
X163037880Y-148497206D01*
X162909700Y-148452353D01*
X162879270Y-148449500D01*
X162879266Y-148449500D01*
X161320734Y-148449500D01*
X161320730Y-148449500D01*
X161290300Y-148452353D01*
X161290298Y-148452353D01*
X161162119Y-148497206D01*
X161162117Y-148497207D01*
X161052850Y-148577850D01*
X160972207Y-148687117D01*
X160972206Y-148687119D01*
X160927353Y-148815298D01*
X160927353Y-148815300D01*
X160924500Y-148845730D01*
X156150500Y-148845730D01*
X156150500Y-139802706D01*
X156150618Y-139797298D01*
X156151807Y-139770064D01*
X156159173Y-139601339D01*
X156450000Y-139601339D01*
X156450000Y-139998660D01*
X156484628Y-140394462D01*
X156484628Y-140394466D01*
X156553619Y-140785729D01*
X156553621Y-140785740D01*
X156656455Y-141169516D01*
X156656458Y-141169526D01*
X156792340Y-141542864D01*
X156792344Y-141542874D01*
X156960251Y-141902948D01*
X156960259Y-141902964D01*
X157158908Y-142247033D01*
X157158924Y-142247059D01*
X157386798Y-142572497D01*
X157609064Y-142837382D01*
X159313098Y-141133348D01*
X159380076Y-141220635D01*
X159579365Y-141419924D01*
X159666651Y-141486900D01*
X157962616Y-143190935D01*
X158227502Y-143413201D01*
X158552940Y-143641075D01*
X158552966Y-143641091D01*
X158897035Y-143839740D01*
X158897051Y-143839748D01*
X159257125Y-144007655D01*
X159257135Y-144007659D01*
X159630473Y-144143541D01*
X159630483Y-144143544D01*
X160014259Y-144246378D01*
X160014270Y-144246380D01*
X160405535Y-144315371D01*
X160801339Y-144349999D01*
X160801342Y-144350000D01*
X161198658Y-144350000D01*
X161198660Y-144349999D01*
X161594462Y-144315371D01*
X161594466Y-144315371D01*
X161985729Y-144246380D01*
X161985740Y-144246378D01*
X162369516Y-144143544D01*
X162369526Y-144143541D01*
X162742864Y-144007659D01*
X162742874Y-144007655D01*
X163102948Y-143839748D01*
X163102964Y-143839740D01*
X163447033Y-143641091D01*
X163447059Y-143641075D01*
X163772504Y-143413196D01*
X164037382Y-143190936D01*
X164037383Y-143190935D01*
X162333348Y-141486901D01*
X162420635Y-141419924D01*
X162619924Y-141220635D01*
X162686900Y-141133348D01*
X164390935Y-142837383D01*
X164390936Y-142837382D01*
X164613196Y-142572504D01*
X164841075Y-142247059D01*
X164841091Y-142247033D01*
X165039740Y-141902964D01*
X165039748Y-141902948D01*
X165207655Y-141542874D01*
X165207659Y-141542864D01*
X165343541Y-141169526D01*
X165343544Y-141169516D01*
X165446378Y-140785740D01*
X165446380Y-140785729D01*
X165515371Y-140394466D01*
X165515371Y-140394462D01*
X165549999Y-139998660D01*
X165550000Y-139998658D01*
X165550000Y-139601342D01*
X165549999Y-139601339D01*
X239700000Y-139601339D01*
X239700000Y-139998660D01*
X239734628Y-140394462D01*
X239734628Y-140394466D01*
X239803619Y-140785729D01*
X239803621Y-140785740D01*
X239906455Y-141169516D01*
X239906458Y-141169526D01*
X240042340Y-141542864D01*
X240042344Y-141542874D01*
X240210251Y-141902948D01*
X240210259Y-141902964D01*
X240408908Y-142247033D01*
X240408924Y-142247059D01*
X240636798Y-142572497D01*
X240859064Y-142837382D01*
X242563098Y-141133348D01*
X242630076Y-141220635D01*
X242829365Y-141419924D01*
X242916651Y-141486900D01*
X241212616Y-143190935D01*
X241477502Y-143413201D01*
X241802940Y-143641075D01*
X241802966Y-143641091D01*
X242147035Y-143839740D01*
X242147051Y-143839748D01*
X242507125Y-144007655D01*
X242507135Y-144007659D01*
X242880473Y-144143541D01*
X242880483Y-144143544D01*
X243264259Y-144246378D01*
X243264270Y-144246380D01*
X243655535Y-144315371D01*
X244051339Y-144349999D01*
X244051342Y-144350000D01*
X244448658Y-144350000D01*
X244448660Y-144349999D01*
X244844462Y-144315371D01*
X244844466Y-144315371D01*
X245235729Y-144246380D01*
X245235740Y-144246378D01*
X245619516Y-144143544D01*
X245619526Y-144143541D01*
X245992864Y-144007659D01*
X245992874Y-144007655D01*
X246352948Y-143839748D01*
X246352964Y-143839740D01*
X246697033Y-143641091D01*
X246697059Y-143641075D01*
X247022504Y-143413196D01*
X247287382Y-143190936D01*
X247287383Y-143190935D01*
X245583348Y-141486901D01*
X245670635Y-141419924D01*
X245869924Y-141220635D01*
X245936900Y-141133348D01*
X247640935Y-142837383D01*
X247640936Y-142837382D01*
X247863196Y-142572504D01*
X248091075Y-142247059D01*
X248091091Y-142247033D01*
X248289740Y-141902964D01*
X248289748Y-141902948D01*
X248457655Y-141542874D01*
X248457659Y-141542864D01*
X248593541Y-141169526D01*
X248593544Y-141169516D01*
X248696378Y-140785740D01*
X248696380Y-140785729D01*
X248765371Y-140394466D01*
X248765371Y-140394462D01*
X248799999Y-139998660D01*
X248800000Y-139998658D01*
X248800000Y-139601342D01*
X248799999Y-139601339D01*
X248765371Y-139205537D01*
X248765371Y-139205533D01*
X248696380Y-138814270D01*
X248696378Y-138814259D01*
X248593544Y-138430483D01*
X248593541Y-138430473D01*
X248457659Y-138057135D01*
X248457655Y-138057125D01*
X248289748Y-137697051D01*
X248289740Y-137697035D01*
X248091091Y-137352966D01*
X248091075Y-137352940D01*
X247863201Y-137027502D01*
X247640935Y-136762616D01*
X245936900Y-138466650D01*
X245869924Y-138379365D01*
X245670635Y-138180076D01*
X245583347Y-138113098D01*
X247287382Y-136409064D01*
X247022497Y-136186798D01*
X246697059Y-135958924D01*
X246697033Y-135958908D01*
X246352964Y-135760259D01*
X246352948Y-135760251D01*
X245992874Y-135592344D01*
X245992864Y-135592340D01*
X245619526Y-135456458D01*
X245619516Y-135456455D01*
X245235740Y-135353621D01*
X245235729Y-135353619D01*
X244844464Y-135284628D01*
X244448660Y-135250000D01*
X244051339Y-135250000D01*
X243655537Y-135284628D01*
X243655533Y-135284628D01*
X243264270Y-135353619D01*
X243264259Y-135353621D01*
X242880483Y-135456455D01*
X242880473Y-135456458D01*
X242507135Y-135592340D01*
X242507125Y-135592344D01*
X242147051Y-135760251D01*
X242147035Y-135760259D01*
X241802966Y-135958908D01*
X241802940Y-135958924D01*
X241477496Y-136186802D01*
X241212616Y-136409062D01*
X241212615Y-136409062D01*
X242916651Y-138113098D01*
X242829365Y-138180076D01*
X242630076Y-138379365D01*
X242563098Y-138466651D01*
X240859062Y-136762615D01*
X240859062Y-136762616D01*
X240636802Y-137027496D01*
X240408924Y-137352940D01*
X240408908Y-137352966D01*
X240210259Y-137697035D01*
X240210251Y-137697051D01*
X240042344Y-138057125D01*
X240042340Y-138057135D01*
X239906458Y-138430473D01*
X239906455Y-138430483D01*
X239803621Y-138814259D01*
X239803619Y-138814270D01*
X239734628Y-139205533D01*
X239734628Y-139205537D01*
X239700000Y-139601339D01*
X165549999Y-139601339D01*
X165515371Y-139205537D01*
X165515371Y-139205533D01*
X165446380Y-138814270D01*
X165446378Y-138814259D01*
X165343544Y-138430483D01*
X165343541Y-138430473D01*
X165207659Y-138057135D01*
X165207655Y-138057125D01*
X165039748Y-137697051D01*
X165039740Y-137697035D01*
X164996536Y-137622203D01*
X164964254Y-137566290D01*
X173513400Y-137566290D01*
X173513400Y-138548709D01*
X173554291Y-138754279D01*
X173554293Y-138754287D01*
X173634507Y-138947940D01*
X173644748Y-138963267D01*
X173750960Y-139122226D01*
X173899173Y-139270439D01*
X173899176Y-139270441D01*
X174073460Y-139386893D01*
X174267113Y-139467107D01*
X174472690Y-139507999D01*
X174472693Y-139508000D01*
X174472695Y-139508000D01*
X174682307Y-139508000D01*
X174682308Y-139507999D01*
X174887887Y-139467107D01*
X175081540Y-139386893D01*
X175255824Y-139270441D01*
X175404041Y-139122224D01*
X175520493Y-138947940D01*
X175600707Y-138754287D01*
X175641600Y-138548705D01*
X175641600Y-137566295D01*
X175641600Y-137566292D01*
X175641599Y-137566290D01*
X176053400Y-137566290D01*
X176053400Y-138548709D01*
X176094291Y-138754279D01*
X176094293Y-138754287D01*
X176174507Y-138947940D01*
X176184748Y-138963267D01*
X176290960Y-139122226D01*
X176439173Y-139270439D01*
X176439176Y-139270441D01*
X176613460Y-139386893D01*
X176807113Y-139467107D01*
X177012690Y-139507999D01*
X177012693Y-139508000D01*
X177012695Y-139508000D01*
X177222307Y-139508000D01*
X177222308Y-139507999D01*
X177427887Y-139467107D01*
X177621540Y-139386893D01*
X177795824Y-139270441D01*
X177944041Y-139122224D01*
X178060493Y-138947940D01*
X178140707Y-138754287D01*
X178181600Y-138548705D01*
X178181600Y-137566295D01*
X178181600Y-137566292D01*
X178181599Y-137566290D01*
X178593400Y-137566290D01*
X178593400Y-138548709D01*
X178634291Y-138754279D01*
X178634293Y-138754287D01*
X178714507Y-138947940D01*
X178724748Y-138963267D01*
X178830960Y-139122226D01*
X178979173Y-139270439D01*
X178979176Y-139270441D01*
X179153460Y-139386893D01*
X179347113Y-139467107D01*
X179552690Y-139507999D01*
X179552693Y-139508000D01*
X179552695Y-139508000D01*
X179762307Y-139508000D01*
X179762308Y-139507999D01*
X179967887Y-139467107D01*
X180161540Y-139386893D01*
X180335824Y-139270441D01*
X180484041Y-139122224D01*
X180600493Y-138947940D01*
X180680707Y-138754287D01*
X180721600Y-138548705D01*
X180721600Y-137566295D01*
X180721600Y-137566292D01*
X180721599Y-137566290D01*
X181133400Y-137566290D01*
X181133400Y-138548709D01*
X181174291Y-138754279D01*
X181174293Y-138754287D01*
X181254507Y-138947940D01*
X181264748Y-138963267D01*
X181370960Y-139122226D01*
X181519173Y-139270439D01*
X181519176Y-139270441D01*
X181693460Y-139386893D01*
X181887113Y-139467107D01*
X182092690Y-139507999D01*
X182092693Y-139508000D01*
X182092695Y-139508000D01*
X182302307Y-139508000D01*
X182302308Y-139507999D01*
X182507887Y-139467107D01*
X182701540Y-139386893D01*
X182875824Y-139270441D01*
X183024041Y-139122224D01*
X183140493Y-138947940D01*
X183220707Y-138754287D01*
X183261600Y-138548705D01*
X183261600Y-137566295D01*
X183261600Y-137566292D01*
X183261599Y-137566290D01*
X183673400Y-137566290D01*
X183673400Y-138548709D01*
X183714291Y-138754279D01*
X183714293Y-138754287D01*
X183794507Y-138947940D01*
X183804748Y-138963267D01*
X183910960Y-139122226D01*
X184059173Y-139270439D01*
X184059176Y-139270441D01*
X184233460Y-139386893D01*
X184427113Y-139467107D01*
X184632690Y-139507999D01*
X184632693Y-139508000D01*
X184632695Y-139508000D01*
X184842307Y-139508000D01*
X184842308Y-139507999D01*
X185047887Y-139467107D01*
X185241540Y-139386893D01*
X185415824Y-139270441D01*
X185564041Y-139122224D01*
X185680493Y-138947940D01*
X185760707Y-138754287D01*
X185801600Y-138548705D01*
X185801600Y-137566295D01*
X185801600Y-137566292D01*
X185801599Y-137566290D01*
X186213400Y-137566290D01*
X186213400Y-138548709D01*
X186254291Y-138754279D01*
X186254293Y-138754287D01*
X186334507Y-138947940D01*
X186344748Y-138963267D01*
X186450960Y-139122226D01*
X186599173Y-139270439D01*
X186599176Y-139270441D01*
X186773460Y-139386893D01*
X186967113Y-139467107D01*
X187172690Y-139507999D01*
X187172693Y-139508000D01*
X187172695Y-139508000D01*
X187382307Y-139508000D01*
X187382308Y-139507999D01*
X187587887Y-139467107D01*
X187781540Y-139386893D01*
X187955824Y-139270441D01*
X188104041Y-139122224D01*
X188220493Y-138947940D01*
X188300707Y-138754287D01*
X188341600Y-138548705D01*
X188341600Y-137566295D01*
X188341600Y-137566292D01*
X188341599Y-137566290D01*
X191293400Y-137566290D01*
X191293400Y-138548709D01*
X191334291Y-138754279D01*
X191334293Y-138754287D01*
X191414507Y-138947940D01*
X191424748Y-138963267D01*
X191530960Y-139122226D01*
X191679173Y-139270439D01*
X191679176Y-139270441D01*
X191853460Y-139386893D01*
X192047113Y-139467107D01*
X192252690Y-139507999D01*
X192252693Y-139508000D01*
X192252695Y-139508000D01*
X192462307Y-139508000D01*
X192462308Y-139507999D01*
X192667887Y-139467107D01*
X192861540Y-139386893D01*
X193035824Y-139270441D01*
X193184041Y-139122224D01*
X193300493Y-138947940D01*
X193380707Y-138754287D01*
X193421600Y-138548705D01*
X193421600Y-138307500D01*
X193783900Y-138307500D01*
X193783900Y-138531541D01*
X193811320Y-138704665D01*
X193865488Y-138871376D01*
X193945064Y-139027553D01*
X194048096Y-139169362D01*
X194048096Y-139169363D01*
X194172036Y-139293303D01*
X194313846Y-139396335D01*
X194470023Y-139475911D01*
X194636727Y-139530077D01*
X194647500Y-139531783D01*
X194647500Y-138999751D01*
X194701419Y-139030881D01*
X194830620Y-139065500D01*
X194964380Y-139065500D01*
X195093581Y-139030881D01*
X195147500Y-138999751D01*
X195147500Y-139531783D01*
X195158272Y-139530077D01*
X195324976Y-139475911D01*
X195481153Y-139396335D01*
X195622962Y-139293303D01*
X195622963Y-139293303D01*
X195746903Y-139169363D01*
X195746903Y-139169362D01*
X195849935Y-139027553D01*
X195929511Y-138871376D01*
X195983679Y-138704665D01*
X196011100Y-138531541D01*
X196011100Y-138307500D01*
X196323900Y-138307500D01*
X196323900Y-138531541D01*
X196351320Y-138704665D01*
X196405488Y-138871376D01*
X196485064Y-139027553D01*
X196588096Y-139169362D01*
X196588096Y-139169363D01*
X196712036Y-139293303D01*
X196853846Y-139396335D01*
X197010023Y-139475911D01*
X197176727Y-139530077D01*
X197187500Y-139531783D01*
X197187500Y-138999751D01*
X197241419Y-139030881D01*
X197370620Y-139065500D01*
X197504380Y-139065500D01*
X197633581Y-139030881D01*
X197687500Y-138999751D01*
X197687500Y-139531783D01*
X197698272Y-139530077D01*
X197864976Y-139475911D01*
X198021153Y-139396335D01*
X198162962Y-139293303D01*
X198162963Y-139293303D01*
X198286903Y-139169363D01*
X198286903Y-139169362D01*
X198389935Y-139027553D01*
X198469511Y-138871376D01*
X198523679Y-138704665D01*
X198551100Y-138531541D01*
X198551100Y-138307500D01*
X197879751Y-138307500D01*
X197844002Y-138245580D01*
X197749420Y-138150998D01*
X197633581Y-138084119D01*
X197504380Y-138049500D01*
X197370620Y-138049500D01*
X197241419Y-138084119D01*
X197125580Y-138150998D01*
X197030998Y-138245580D01*
X196995249Y-138307500D01*
X196323900Y-138307500D01*
X196011100Y-138307500D01*
X195339751Y-138307500D01*
X195304002Y-138245580D01*
X195209420Y-138150998D01*
X195093581Y-138084119D01*
X194964380Y-138049500D01*
X194830620Y-138049500D01*
X194701419Y-138084119D01*
X194585580Y-138150998D01*
X194490998Y-138245580D01*
X194455249Y-138307500D01*
X193783900Y-138307500D01*
X193421600Y-138307500D01*
X193421600Y-137583458D01*
X193783900Y-137583458D01*
X193783900Y-137807500D01*
X194647500Y-137807500D01*
X195147500Y-137807500D01*
X196011100Y-137807500D01*
X196011100Y-137583458D01*
X196323900Y-137583458D01*
X196323900Y-137807500D01*
X197187500Y-137807500D01*
X197187500Y-136600403D01*
X197687500Y-136600403D01*
X197687500Y-137807500D01*
X198551100Y-137807500D01*
X198551100Y-137583457D01*
X198550489Y-137579600D01*
X198548381Y-137566290D01*
X198913400Y-137566290D01*
X198913400Y-138548709D01*
X198954291Y-138754279D01*
X198954293Y-138754287D01*
X199034507Y-138947940D01*
X199044748Y-138963267D01*
X199150960Y-139122226D01*
X199299173Y-139270439D01*
X199299176Y-139270441D01*
X199473460Y-139386893D01*
X199667113Y-139467107D01*
X199872690Y-139507999D01*
X199872693Y-139508000D01*
X199872695Y-139508000D01*
X200082307Y-139508000D01*
X200082308Y-139507999D01*
X200287887Y-139467107D01*
X200481540Y-139386893D01*
X200655824Y-139270441D01*
X200804041Y-139122224D01*
X200920493Y-138947940D01*
X201000707Y-138754287D01*
X201041600Y-138548705D01*
X201041600Y-137566295D01*
X201041600Y-137566292D01*
X201041599Y-137566290D01*
X201453400Y-137566290D01*
X201453400Y-138548709D01*
X201494291Y-138754279D01*
X201494293Y-138754287D01*
X201574507Y-138947940D01*
X201584748Y-138963267D01*
X201690960Y-139122226D01*
X201839173Y-139270439D01*
X201839176Y-139270441D01*
X202013460Y-139386893D01*
X202207113Y-139467107D01*
X202412690Y-139507999D01*
X202412693Y-139508000D01*
X202412695Y-139508000D01*
X202622307Y-139508000D01*
X202622308Y-139507999D01*
X202827887Y-139467107D01*
X203021540Y-139386893D01*
X203195824Y-139270441D01*
X203344041Y-139122224D01*
X203460493Y-138947940D01*
X203540707Y-138754287D01*
X203581600Y-138548705D01*
X203581600Y-137566295D01*
X203581600Y-137566292D01*
X203581599Y-137566290D01*
X203993400Y-137566290D01*
X203993400Y-138548709D01*
X204034291Y-138754279D01*
X204034293Y-138754287D01*
X204114507Y-138947940D01*
X204124748Y-138963267D01*
X204230960Y-139122226D01*
X204379173Y-139270439D01*
X204379176Y-139270441D01*
X204553460Y-139386893D01*
X204747113Y-139467107D01*
X204952690Y-139507999D01*
X204952693Y-139508000D01*
X204952695Y-139508000D01*
X205162307Y-139508000D01*
X205162308Y-139507999D01*
X205367887Y-139467107D01*
X205561540Y-139386893D01*
X205735824Y-139270441D01*
X205884041Y-139122224D01*
X206000493Y-138947940D01*
X206080707Y-138754287D01*
X206121600Y-138548705D01*
X206121600Y-137566295D01*
X206121600Y-137566292D01*
X206121599Y-137566290D01*
X206533400Y-137566290D01*
X206533400Y-138548709D01*
X206574291Y-138754279D01*
X206574293Y-138754287D01*
X206654507Y-138947940D01*
X206664748Y-138963267D01*
X206770960Y-139122226D01*
X206919173Y-139270439D01*
X206919176Y-139270441D01*
X207093460Y-139386893D01*
X207287113Y-139467107D01*
X207492690Y-139507999D01*
X207492693Y-139508000D01*
X207492695Y-139508000D01*
X207702307Y-139508000D01*
X207702308Y-139507999D01*
X207907887Y-139467107D01*
X208101540Y-139386893D01*
X208275824Y-139270441D01*
X208424041Y-139122224D01*
X208540493Y-138947940D01*
X208620707Y-138754287D01*
X208661600Y-138548705D01*
X208661600Y-137566295D01*
X208661600Y-137566292D01*
X208661599Y-137566290D01*
X209073400Y-137566290D01*
X209073400Y-138548709D01*
X209114291Y-138754279D01*
X209114293Y-138754287D01*
X209194507Y-138947940D01*
X209204748Y-138963267D01*
X209310960Y-139122226D01*
X209459173Y-139270439D01*
X209459176Y-139270441D01*
X209633460Y-139386893D01*
X209827113Y-139467107D01*
X210032690Y-139507999D01*
X210032693Y-139508000D01*
X210032695Y-139508000D01*
X210242307Y-139508000D01*
X210242308Y-139507999D01*
X210284383Y-139499630D01*
X210398054Y-139477020D01*
X210422111Y-139472234D01*
X210447887Y-139467107D01*
X210641540Y-139386893D01*
X210815824Y-139270441D01*
X210964041Y-139122224D01*
X211080493Y-138947940D01*
X211160707Y-138754287D01*
X211201600Y-138548705D01*
X211201600Y-137566295D01*
X211201600Y-137566292D01*
X211201599Y-137566290D01*
X211170577Y-137410334D01*
X211160707Y-137360713D01*
X211080493Y-137167060D01*
X210964041Y-136992776D01*
X210964039Y-136992773D01*
X210815826Y-136844560D01*
X210693185Y-136762615D01*
X210641540Y-136728107D01*
X210447887Y-136647893D01*
X210447879Y-136647891D01*
X210242308Y-136607000D01*
X210242305Y-136607000D01*
X210032695Y-136607000D01*
X210032692Y-136607000D01*
X209827120Y-136647891D01*
X209827112Y-136647893D01*
X209633461Y-136728106D01*
X209459173Y-136844560D01*
X209310960Y-136992773D01*
X209194506Y-137167061D01*
X209114293Y-137360712D01*
X209114291Y-137360720D01*
X209073400Y-137566290D01*
X208661599Y-137566290D01*
X208630577Y-137410334D01*
X208620707Y-137360713D01*
X208540493Y-137167060D01*
X208424041Y-136992776D01*
X208424039Y-136992773D01*
X208275826Y-136844560D01*
X208153185Y-136762615D01*
X208101540Y-136728107D01*
X207907887Y-136647893D01*
X207907879Y-136647891D01*
X207702308Y-136607000D01*
X207702305Y-136607000D01*
X207492695Y-136607000D01*
X207492692Y-136607000D01*
X207287120Y-136647891D01*
X207287112Y-136647893D01*
X207093461Y-136728106D01*
X206919173Y-136844560D01*
X206770960Y-136992773D01*
X206654506Y-137167061D01*
X206574293Y-137360712D01*
X206574291Y-137360720D01*
X206533400Y-137566290D01*
X206121599Y-137566290D01*
X206090577Y-137410334D01*
X206080707Y-137360713D01*
X206000493Y-137167060D01*
X205884041Y-136992776D01*
X205884039Y-136992773D01*
X205735826Y-136844560D01*
X205613185Y-136762615D01*
X205561540Y-136728107D01*
X205367887Y-136647893D01*
X205367879Y-136647891D01*
X205162308Y-136607000D01*
X205162305Y-136607000D01*
X204952695Y-136607000D01*
X204952692Y-136607000D01*
X204747120Y-136647891D01*
X204747112Y-136647893D01*
X204553461Y-136728106D01*
X204379173Y-136844560D01*
X204230960Y-136992773D01*
X204114506Y-137167061D01*
X204034293Y-137360712D01*
X204034291Y-137360720D01*
X203993400Y-137566290D01*
X203581599Y-137566290D01*
X203550577Y-137410334D01*
X203540707Y-137360713D01*
X203460493Y-137167060D01*
X203344041Y-136992776D01*
X203344039Y-136992773D01*
X203195826Y-136844560D01*
X203073185Y-136762615D01*
X203021540Y-136728107D01*
X202827887Y-136647893D01*
X202827879Y-136647891D01*
X202622308Y-136607000D01*
X202622305Y-136607000D01*
X202412695Y-136607000D01*
X202412692Y-136607000D01*
X202207120Y-136647891D01*
X202207112Y-136647893D01*
X202013461Y-136728106D01*
X201839173Y-136844560D01*
X201690960Y-136992773D01*
X201574506Y-137167061D01*
X201494293Y-137360712D01*
X201494291Y-137360720D01*
X201453400Y-137566290D01*
X201041599Y-137566290D01*
X201010577Y-137410334D01*
X201000707Y-137360713D01*
X200920493Y-137167060D01*
X200804041Y-136992776D01*
X200804039Y-136992773D01*
X200655826Y-136844560D01*
X200533185Y-136762615D01*
X200481540Y-136728107D01*
X200287887Y-136647893D01*
X200287879Y-136647891D01*
X200082308Y-136607000D01*
X200082305Y-136607000D01*
X199872695Y-136607000D01*
X199872692Y-136607000D01*
X199667120Y-136647891D01*
X199667112Y-136647893D01*
X199473461Y-136728106D01*
X199299173Y-136844560D01*
X199150960Y-136992773D01*
X199034506Y-137167061D01*
X198954293Y-137360712D01*
X198954291Y-137360720D01*
X198913400Y-137566290D01*
X198548381Y-137566290D01*
X198523679Y-137410334D01*
X198469511Y-137243623D01*
X198389935Y-137087446D01*
X198286903Y-136945637D01*
X198286903Y-136945636D01*
X198162963Y-136821696D01*
X198021153Y-136718664D01*
X197864976Y-136639088D01*
X197709598Y-136588602D01*
X197687500Y-136600403D01*
X197187500Y-136600403D01*
X197187500Y-136583215D01*
X197187499Y-136583214D01*
X197176734Y-136584920D01*
X197176730Y-136584921D01*
X197010023Y-136639088D01*
X196853846Y-136718664D01*
X196712037Y-136821696D01*
X196712036Y-136821696D01*
X196588096Y-136945636D01*
X196588096Y-136945637D01*
X196485064Y-137087446D01*
X196405488Y-137243623D01*
X196351320Y-137410334D01*
X196323900Y-137583458D01*
X196011100Y-137583458D01*
X195983679Y-137410334D01*
X195929511Y-137243623D01*
X195849935Y-137087446D01*
X195746903Y-136945637D01*
X195746903Y-136945636D01*
X195622963Y-136821696D01*
X195481153Y-136718664D01*
X195324976Y-136639088D01*
X195158269Y-136584921D01*
X195158265Y-136584920D01*
X195147500Y-136583214D01*
X195147500Y-137807500D01*
X194647500Y-137807500D01*
X194647500Y-136583215D01*
X194647499Y-136583214D01*
X194636734Y-136584920D01*
X194636730Y-136584921D01*
X194470023Y-136639088D01*
X194313846Y-136718664D01*
X194172037Y-136821696D01*
X194172036Y-136821696D01*
X194048096Y-136945636D01*
X194048096Y-136945637D01*
X193945064Y-137087446D01*
X193865488Y-137243623D01*
X193811320Y-137410334D01*
X193783900Y-137583458D01*
X193421600Y-137583458D01*
X193421600Y-137566295D01*
X193421600Y-137566292D01*
X193421599Y-137566290D01*
X193390577Y-137410334D01*
X193380707Y-137360713D01*
X193300493Y-137167060D01*
X193184041Y-136992776D01*
X193184039Y-136992773D01*
X193035826Y-136844560D01*
X192913185Y-136762615D01*
X192861540Y-136728107D01*
X192667887Y-136647893D01*
X192667879Y-136647891D01*
X192462308Y-136607000D01*
X192462305Y-136607000D01*
X192252695Y-136607000D01*
X192252692Y-136607000D01*
X192047120Y-136647891D01*
X192047112Y-136647893D01*
X191853461Y-136728106D01*
X191679173Y-136844560D01*
X191530960Y-136992773D01*
X191414506Y-137167061D01*
X191334293Y-137360712D01*
X191334291Y-137360720D01*
X191293400Y-137566290D01*
X188341599Y-137566290D01*
X188310577Y-137410334D01*
X188300707Y-137360713D01*
X188220493Y-137167060D01*
X188104041Y-136992776D01*
X188104039Y-136992773D01*
X187955826Y-136844560D01*
X187833185Y-136762615D01*
X187781540Y-136728107D01*
X187587887Y-136647893D01*
X187587879Y-136647891D01*
X187382308Y-136607000D01*
X187382305Y-136607000D01*
X187172695Y-136607000D01*
X187172692Y-136607000D01*
X186967120Y-136647891D01*
X186967112Y-136647893D01*
X186773461Y-136728106D01*
X186599173Y-136844560D01*
X186450960Y-136992773D01*
X186334506Y-137167061D01*
X186254293Y-137360712D01*
X186254291Y-137360720D01*
X186213400Y-137566290D01*
X185801599Y-137566290D01*
X185770577Y-137410334D01*
X185760707Y-137360713D01*
X185680493Y-137167060D01*
X185564041Y-136992776D01*
X185564039Y-136992773D01*
X185415826Y-136844560D01*
X185293185Y-136762615D01*
X185241540Y-136728107D01*
X185047887Y-136647893D01*
X185047879Y-136647891D01*
X184842308Y-136607000D01*
X184842305Y-136607000D01*
X184632695Y-136607000D01*
X184632692Y-136607000D01*
X184427120Y-136647891D01*
X184427112Y-136647893D01*
X184233461Y-136728106D01*
X184059173Y-136844560D01*
X183910960Y-136992773D01*
X183794506Y-137167061D01*
X183714293Y-137360712D01*
X183714291Y-137360720D01*
X183673400Y-137566290D01*
X183261599Y-137566290D01*
X183230577Y-137410334D01*
X183220707Y-137360713D01*
X183140493Y-137167060D01*
X183024041Y-136992776D01*
X183024039Y-136992773D01*
X182875826Y-136844560D01*
X182753185Y-136762615D01*
X182701540Y-136728107D01*
X182507887Y-136647893D01*
X182507879Y-136647891D01*
X182302308Y-136607000D01*
X182302305Y-136607000D01*
X182092695Y-136607000D01*
X182092692Y-136607000D01*
X181887120Y-136647891D01*
X181887112Y-136647893D01*
X181693461Y-136728106D01*
X181519173Y-136844560D01*
X181370960Y-136992773D01*
X181254506Y-137167061D01*
X181174293Y-137360712D01*
X181174291Y-137360720D01*
X181133400Y-137566290D01*
X180721599Y-137566290D01*
X180690577Y-137410334D01*
X180680707Y-137360713D01*
X180600493Y-137167060D01*
X180484041Y-136992776D01*
X180484039Y-136992773D01*
X180335826Y-136844560D01*
X180213185Y-136762615D01*
X180161540Y-136728107D01*
X179967887Y-136647893D01*
X179967879Y-136647891D01*
X179762308Y-136607000D01*
X179762305Y-136607000D01*
X179552695Y-136607000D01*
X179552692Y-136607000D01*
X179347120Y-136647891D01*
X179347112Y-136647893D01*
X179153461Y-136728106D01*
X178979173Y-136844560D01*
X178830960Y-136992773D01*
X178714506Y-137167061D01*
X178634293Y-137360712D01*
X178634291Y-137360720D01*
X178593400Y-137566290D01*
X178181599Y-137566290D01*
X178150577Y-137410334D01*
X178140707Y-137360713D01*
X178060493Y-137167060D01*
X177944041Y-136992776D01*
X177944039Y-136992773D01*
X177795826Y-136844560D01*
X177673185Y-136762615D01*
X177621540Y-136728107D01*
X177427887Y-136647893D01*
X177427879Y-136647891D01*
X177222308Y-136607000D01*
X177222305Y-136607000D01*
X177012695Y-136607000D01*
X177012692Y-136607000D01*
X176807120Y-136647891D01*
X176807112Y-136647893D01*
X176613461Y-136728106D01*
X176439173Y-136844560D01*
X176290960Y-136992773D01*
X176174506Y-137167061D01*
X176094293Y-137360712D01*
X176094291Y-137360720D01*
X176053400Y-137566290D01*
X175641599Y-137566290D01*
X175610577Y-137410334D01*
X175600707Y-137360713D01*
X175520493Y-137167060D01*
X175404041Y-136992776D01*
X175404039Y-136992773D01*
X175255826Y-136844560D01*
X175133185Y-136762615D01*
X175081540Y-136728107D01*
X174887887Y-136647893D01*
X174887879Y-136647891D01*
X174682308Y-136607000D01*
X174682305Y-136607000D01*
X174472695Y-136607000D01*
X174472692Y-136607000D01*
X174267120Y-136647891D01*
X174267112Y-136647893D01*
X174073461Y-136728106D01*
X173899173Y-136844560D01*
X173750960Y-136992773D01*
X173634506Y-137167061D01*
X173554293Y-137360712D01*
X173554291Y-137360720D01*
X173513400Y-137566290D01*
X164964254Y-137566290D01*
X164841091Y-137352966D01*
X164841075Y-137352940D01*
X164613201Y-137027502D01*
X164390935Y-136762616D01*
X162686900Y-138466650D01*
X162619924Y-138379365D01*
X162420635Y-138180076D01*
X162333347Y-138113098D01*
X164037382Y-136409064D01*
X163772497Y-136186798D01*
X163447059Y-135958924D01*
X163447033Y-135958908D01*
X163102964Y-135760259D01*
X163102948Y-135760251D01*
X162742874Y-135592344D01*
X162742864Y-135592340D01*
X162369526Y-135456458D01*
X162369516Y-135456455D01*
X161985740Y-135353621D01*
X161985729Y-135353619D01*
X161594464Y-135284628D01*
X161198660Y-135250000D01*
X160801339Y-135250000D01*
X160405537Y-135284628D01*
X160405533Y-135284628D01*
X160014270Y-135353619D01*
X160014259Y-135353621D01*
X159630483Y-135456455D01*
X159630473Y-135456458D01*
X159257135Y-135592340D01*
X159257125Y-135592344D01*
X158897051Y-135760251D01*
X158897035Y-135760259D01*
X158552966Y-135958908D01*
X158552940Y-135958924D01*
X158227496Y-136186802D01*
X157962616Y-136409062D01*
X157962615Y-136409062D01*
X159666651Y-138113098D01*
X159579365Y-138180076D01*
X159380076Y-138379365D01*
X159313098Y-138466651D01*
X157609062Y-136762615D01*
X157609062Y-136762616D01*
X157386802Y-137027496D01*
X157158924Y-137352940D01*
X157158908Y-137352966D01*
X156960259Y-137697035D01*
X156960251Y-137697051D01*
X156792344Y-138057125D01*
X156792340Y-138057135D01*
X156656458Y-138430473D01*
X156656455Y-138430483D01*
X156553621Y-138814259D01*
X156553619Y-138814270D01*
X156484628Y-139205533D01*
X156484628Y-139205537D01*
X156450000Y-139601339D01*
X156159173Y-139601339D01*
X156168718Y-139382721D01*
X156169658Y-139371990D01*
X156223468Y-138963255D01*
X156225345Y-138952614D01*
X156314574Y-138550128D01*
X156317368Y-138539702D01*
X156441338Y-138146518D01*
X156445024Y-138136390D01*
X156602795Y-137755496D01*
X156607353Y-137745722D01*
X156797713Y-137380045D01*
X156803108Y-137370700D01*
X157024622Y-137022992D01*
X157030812Y-137014152D01*
X157281780Y-136687084D01*
X157288718Y-136678815D01*
X157567238Y-136374866D01*
X157574818Y-136367282D01*
X157575373Y-136366773D01*
X157575377Y-136366772D01*
X157575392Y-136366756D01*
X157878815Y-136088718D01*
X157887084Y-136081780D01*
X158214152Y-135830812D01*
X158222992Y-135824622D01*
X158570700Y-135603108D01*
X158580045Y-135597713D01*
X158945722Y-135407353D01*
X158955496Y-135402795D01*
X159336390Y-135245024D01*
X159346518Y-135241338D01*
X159739702Y-135117368D01*
X159750128Y-135114574D01*
X160152621Y-135025343D01*
X160163255Y-135023468D01*
X160571990Y-134969658D01*
X160582721Y-134968718D01*
X160997297Y-134950617D01*
X161002706Y-134950500D01*
X161034351Y-134950500D01*
X175620064Y-134950500D01*
X239520064Y-134950500D01*
X244215649Y-134950500D01*
X244247294Y-134950500D01*
X244252702Y-134950617D01*
G37*
G04 #@! TD.AperFunction*
M02*
