G04 #@! TF.GenerationSoftware,KiCad,Pcbnew,9.0.7+1*
G04 #@! TF.CreationDate,2026-06-05T23:15:52+00:00*
G04 #@! TF.ProjectId,hw-module-gps,68772d6d-6f64-4756-9c65-2d6770732e6b,rev?*
G04 #@! TF.SameCoordinates,Original*
G04 #@! TF.FileFunction,Soldermask,Top*
G04 #@! TF.FilePolarity,Negative*
%FSLAX46Y46*%
G04 Gerber Fmt 4.6, Leading zero omitted, Abs format (unit mm)*
G04 Created by KiCad (PCBNEW 9.0.7+1) date 2026-06-05 23:15:52*
%MOMM*%
%LPD*%
G01*
G04 APERTURE LIST*
%ADD10C,0.900000*%
%ADD11C,8.600000*%
%ADD12O,1.727200X2.500000*%
%ADD13O,1.950000X1.700000*%
G04 APERTURE END LIST*
G36*
G01*
X162675000Y-181350000D02*
X162675000Y-180850000D01*
G75*
G02*
X162900000Y-180625000I225000J0D01*
G01*
X163350000Y-180625000D01*
G75*
G02*
X163575000Y-180850000I0J-225000D01*
G01*
X163575000Y-181350000D01*
G75*
G02*
X163350000Y-181575000I-225000J0D01*
G01*
X162900000Y-181575000D01*
G75*
G02*
X162675000Y-181350000I0J225000D01*
G01*
G37*
G36*
G01*
X164225000Y-181350000D02*
X164225000Y-180850000D01*
G75*
G02*
X164450000Y-180625000I225000J0D01*
G01*
X164900000Y-180625000D01*
G75*
G02*
X165125000Y-180850000I0J-225000D01*
G01*
X165125000Y-181350000D01*
G75*
G02*
X164900000Y-181575000I-225000J0D01*
G01*
X164450000Y-181575000D01*
G75*
G02*
X164225000Y-181350000I0J225000D01*
G01*
G37*
D10*
X157775000Y-187800000D03*
X158719581Y-185519581D03*
X158719581Y-190080419D03*
X161000000Y-184575000D03*
D11*
X161000000Y-187800000D03*
D10*
X161000000Y-191025000D03*
X163280419Y-185519581D03*
X163280419Y-190080419D03*
X164225000Y-187800000D03*
D12*
X210137500Y-138057500D03*
X202517500Y-138057500D03*
X199977500Y-138057500D03*
X187277500Y-138057500D03*
X184737500Y-138057500D03*
X182197500Y-138057500D03*
X179657500Y-138057500D03*
X177117500Y-138057500D03*
X174577500Y-138057500D03*
X214201500Y-187317500D03*
X174577500Y-187317500D03*
X177117500Y-187317500D03*
X179657500Y-187317500D03*
X182197501Y-187317500D03*
X184737500Y-187317500D03*
X187277500Y-187317500D03*
X189817500Y-187317500D03*
X192357499Y-187317500D03*
X196421499Y-187317500D03*
X198961500Y-187317500D03*
X201501500Y-187317500D03*
X204041500Y-187317500D03*
X206581500Y-187317500D03*
X209121501Y-187317500D03*
X211661500Y-187317500D03*
X197437500Y-138057500D03*
X194897500Y-138057500D03*
X207597500Y-138057500D03*
X205057500Y-138057500D03*
X219281499Y-187317500D03*
X216741500Y-187317500D03*
X192357500Y-138057500D03*
G36*
G01*
X160835000Y-168345000D02*
X160835000Y-167445000D01*
G75*
G02*
X161085000Y-167195000I250000J0D01*
G01*
X161610000Y-167195000D01*
G75*
G02*
X161860000Y-167445000I0J-250000D01*
G01*
X161860000Y-168345000D01*
G75*
G02*
X161610000Y-168595000I-250000J0D01*
G01*
X161085000Y-168595000D01*
G75*
G02*
X160835000Y-168345000I0J250000D01*
G01*
G37*
G36*
G01*
X162660000Y-168345000D02*
X162660000Y-167445000D01*
G75*
G02*
X162910000Y-167195000I250000J0D01*
G01*
X163435000Y-167195000D01*
G75*
G02*
X163685000Y-167445000I0J-250000D01*
G01*
X163685000Y-168345000D01*
G75*
G02*
X163435000Y-168595000I-250000J0D01*
G01*
X162910000Y-168595000D01*
G75*
G02*
X162660000Y-168345000I0J250000D01*
G01*
G37*
G36*
G01*
X175050000Y-183425000D02*
X174150000Y-183425000D01*
G75*
G02*
X173900000Y-183175000I0J250000D01*
G01*
X173900000Y-182650000D01*
G75*
G02*
X174150000Y-182400000I250000J0D01*
G01*
X175050000Y-182400000D01*
G75*
G02*
X175300000Y-182650000I0J-250000D01*
G01*
X175300000Y-183175000D01*
G75*
G02*
X175050000Y-183425000I-250000J0D01*
G01*
G37*
G36*
G01*
X175050000Y-181600000D02*
X174150000Y-181600000D01*
G75*
G02*
X173900000Y-181350000I0J250000D01*
G01*
X173900000Y-180825000D01*
G75*
G02*
X174150000Y-180575000I250000J0D01*
G01*
X175050000Y-180575000D01*
G75*
G02*
X175300000Y-180825000I0J-250000D01*
G01*
X175300000Y-181350000D01*
G75*
G02*
X175050000Y-181600000I-250000J0D01*
G01*
G37*
G36*
G01*
X168025000Y-171250000D02*
X168775000Y-171250000D01*
G75*
G02*
X169150000Y-171625000I0J-375000D01*
G01*
X169150000Y-172875000D01*
G75*
G02*
X168775000Y-173250000I-375000J0D01*
G01*
X168025000Y-173250000D01*
G75*
G02*
X167650000Y-172875000I0J375000D01*
G01*
X167650000Y-171625000D01*
G75*
G02*
X168025000Y-171250000I375000J0D01*
G01*
G37*
G36*
G01*
X165725000Y-171250000D02*
X166475000Y-171250000D01*
G75*
G02*
X166850000Y-171625000I0J-375000D01*
G01*
X166850000Y-172875000D01*
G75*
G02*
X166475000Y-173250000I-375000J0D01*
G01*
X165725000Y-173250000D01*
G75*
G02*
X165350000Y-172875000I0J375000D01*
G01*
X165350000Y-171625000D01*
G75*
G02*
X165725000Y-171250000I375000J0D01*
G01*
G37*
G36*
G01*
X164700000Y-177550000D02*
X167500000Y-177550000D01*
G75*
G02*
X168000000Y-178050000I0J-500000D01*
G01*
X168000000Y-179050000D01*
G75*
G02*
X167500000Y-179550000I-500000J0D01*
G01*
X164700000Y-179550000D01*
G75*
G02*
X164200000Y-179050000I0J500000D01*
G01*
X164200000Y-178050000D01*
G75*
G02*
X164700000Y-177550000I500000J0D01*
G01*
G37*
G36*
G01*
X163425000Y-171250000D02*
X164175000Y-171250000D01*
G75*
G02*
X164550000Y-171625000I0J-375000D01*
G01*
X164550000Y-172875000D01*
G75*
G02*
X164175000Y-173250000I-375000J0D01*
G01*
X163425000Y-173250000D01*
G75*
G02*
X163050000Y-172875000I0J375000D01*
G01*
X163050000Y-171625000D01*
G75*
G02*
X163425000Y-171250000I375000J0D01*
G01*
G37*
D10*
X241050000Y-187730419D03*
X241994581Y-185450000D03*
X241994581Y-190010838D03*
X244275000Y-184505419D03*
D11*
X244275000Y-187730419D03*
D10*
X244275000Y-190955419D03*
X246555419Y-185450000D03*
X246555419Y-190010838D03*
X247500000Y-187730419D03*
G36*
G01*
X166760000Y-169930000D02*
X166760000Y-170270000D01*
G75*
G02*
X166620000Y-170410000I-140000J0D01*
G01*
X166340000Y-170410000D01*
G75*
G02*
X166200000Y-170270000I0J140000D01*
G01*
X166200000Y-169930000D01*
G75*
G02*
X166340000Y-169790000I140000J0D01*
G01*
X166620000Y-169790000D01*
G75*
G02*
X166760000Y-169930000I0J-140000D01*
G01*
G37*
G36*
G01*
X165800000Y-169930000D02*
X165800000Y-170270000D01*
G75*
G02*
X165660000Y-170410000I-140000J0D01*
G01*
X165380000Y-170410000D01*
G75*
G02*
X165240000Y-170270000I0J140000D01*
G01*
X165240000Y-169930000D01*
G75*
G02*
X165380000Y-169790000I140000J0D01*
G01*
X165660000Y-169790000D01*
G75*
G02*
X165800000Y-169930000I0J-140000D01*
G01*
G37*
X241025000Y-139800000D03*
X241969581Y-137519581D03*
X241969581Y-142080419D03*
X244250000Y-136575000D03*
D11*
X244250000Y-139800000D03*
D10*
X244250000Y-143025000D03*
X246530419Y-137519581D03*
X246530419Y-142080419D03*
X247475000Y-139800000D03*
G36*
G01*
X161375000Y-148650000D02*
X162825000Y-148650000D01*
G75*
G02*
X163075000Y-148900000I0J-250000D01*
G01*
X163075000Y-150100000D01*
G75*
G02*
X162825000Y-150350000I-250000J0D01*
G01*
X161375000Y-150350000D01*
G75*
G02*
X161125000Y-150100000I0J250000D01*
G01*
X161125000Y-148900000D01*
G75*
G02*
X161375000Y-148650000I250000J0D01*
G01*
G37*
D13*
X162100000Y-152000000D03*
X162100000Y-154500000D03*
X162100000Y-157000000D03*
X162100000Y-159500000D03*
G36*
G01*
X169625000Y-180850000D02*
X169625000Y-181350000D01*
G75*
G02*
X169400000Y-181575000I-225000J0D01*
G01*
X168950000Y-181575000D01*
G75*
G02*
X168725000Y-181350000I0J225000D01*
G01*
X168725000Y-180850000D01*
G75*
G02*
X168950000Y-180625000I225000J0D01*
G01*
X169400000Y-180625000D01*
G75*
G02*
X169625000Y-180850000I0J-225000D01*
G01*
G37*
G36*
G01*
X168075000Y-180850000D02*
X168075000Y-181350000D01*
G75*
G02*
X167850000Y-181575000I-225000J0D01*
G01*
X167400000Y-181575000D01*
G75*
G02*
X167175000Y-181350000I0J225000D01*
G01*
X167175000Y-180850000D01*
G75*
G02*
X167400000Y-180625000I225000J0D01*
G01*
X167850000Y-180625000D01*
G75*
G02*
X168075000Y-180850000I0J-225000D01*
G01*
G37*
G36*
G01*
X161240000Y-170270000D02*
X161240000Y-169930000D01*
G75*
G02*
X161380000Y-169790000I140000J0D01*
G01*
X161660000Y-169790000D01*
G75*
G02*
X161800000Y-169930000I0J-140000D01*
G01*
X161800000Y-170270000D01*
G75*
G02*
X161660000Y-170410000I-140000J0D01*
G01*
X161380000Y-170410000D01*
G75*
G02*
X161240000Y-170270000I0J140000D01*
G01*
G37*
G36*
G01*
X162200000Y-170270000D02*
X162200000Y-169930000D01*
G75*
G02*
X162340000Y-169790000I140000J0D01*
G01*
X162620000Y-169790000D01*
G75*
G02*
X162760000Y-169930000I0J-140000D01*
G01*
X162760000Y-170270000D01*
G75*
G02*
X162620000Y-170410000I-140000J0D01*
G01*
X162340000Y-170410000D01*
G75*
G02*
X162200000Y-170270000I0J140000D01*
G01*
G37*
G36*
G01*
X160875000Y-165356250D02*
X160875000Y-164443750D01*
G75*
G02*
X161118750Y-164200000I243750J0D01*
G01*
X161606250Y-164200000D01*
G75*
G02*
X161850000Y-164443750I0J-243750D01*
G01*
X161850000Y-165356250D01*
G75*
G02*
X161606250Y-165600000I-243750J0D01*
G01*
X161118750Y-165600000D01*
G75*
G02*
X160875000Y-165356250I0J243750D01*
G01*
G37*
G36*
G01*
X162750000Y-165356250D02*
X162750000Y-164443750D01*
G75*
G02*
X162993750Y-164200000I243750J0D01*
G01*
X163481250Y-164200000D01*
G75*
G02*
X163725000Y-164443750I0J-243750D01*
G01*
X163725000Y-165356250D01*
G75*
G02*
X163481250Y-165600000I-243750J0D01*
G01*
X162993750Y-165600000D01*
G75*
G02*
X162750000Y-165356250I0J243750D01*
G01*
G37*
D10*
X157775000Y-139800000D03*
X158719581Y-137519581D03*
X158719581Y-142080419D03*
X161000000Y-136575000D03*
D11*
X161000000Y-139800000D03*
D10*
X161000000Y-143025000D03*
X163280419Y-137519581D03*
X163280419Y-142080419D03*
X164225000Y-139800000D03*
M02*
