G04 #@! TF.GenerationSoftware,KiCad,Pcbnew,9.0.7+1*
G04 #@! TF.CreationDate,2026-06-05T23:15:52+00:00*
G04 #@! TF.ProjectId,hw-module-gps,68772d6d-6f64-4756-9c65-2d6770732e6b,rev?*
G04 #@! TF.SameCoordinates,Original*
G04 #@! TF.FileFunction,Copper,L3,Inr*
G04 #@! TF.FilePolarity,Positive*
%FSLAX46Y46*%
G04 Gerber Fmt 4.6, Leading zero omitted, Abs format (unit mm)*
G04 Created by KiCad (PCBNEW 9.0.7+1) date 2026-06-05 23:15:52*
%MOMM*%
%LPD*%
G01*
G04 APERTURE LIST*
G04 #@! TA.AperFunction,ComponentPad*
%ADD10C,0.900000*%
G04 #@! TD*
G04 #@! TA.AperFunction,ComponentPad*
%ADD11C,8.600000*%
G04 #@! TD*
G04 #@! TA.AperFunction,ComponentPad*
%ADD12O,1.727200X2.500000*%
G04 #@! TD*
G04 #@! TA.AperFunction,ComponentPad*
%ADD13O,1.950000X1.700000*%
G04 #@! TD*
G04 #@! TA.AperFunction,ViaPad*
%ADD14C,0.600000*%
G04 #@! TD*
G04 APERTURE END LIST*
D10*
X157775000Y-187800000D03*
X158719581Y-185519581D03*
X158719581Y-190080419D03*
X161000000Y-184575000D03*
D11*
X161000000Y-187800000D03*
D10*
X161000000Y-191025000D03*
X163280419Y-185519581D03*
X163280419Y-190080419D03*
X164225000Y-187800000D03*
D12*
X210137500Y-138057500D03*
X202517500Y-138057500D03*
X199977500Y-138057500D03*
X187277500Y-138057500D03*
X184737500Y-138057500D03*
X182197500Y-138057500D03*
X179657500Y-138057500D03*
X177117500Y-138057500D03*
X174577500Y-138057500D03*
X214201500Y-187317500D03*
X174577500Y-187317500D03*
X177117500Y-187317500D03*
X179657500Y-187317500D03*
X182197501Y-187317500D03*
X184737500Y-187317500D03*
X187277500Y-187317500D03*
X189817500Y-187317500D03*
X192357499Y-187317500D03*
X196421499Y-187317500D03*
X198961500Y-187317500D03*
X201501500Y-187317500D03*
X204041500Y-187317500D03*
X206581500Y-187317500D03*
X209121501Y-187317500D03*
X211661500Y-187317500D03*
X197437500Y-138057500D03*
X194897500Y-138057500D03*
X207597500Y-138057500D03*
X205057500Y-138057500D03*
X219281499Y-187317500D03*
X216741500Y-187317500D03*
X192357500Y-138057500D03*
D10*
X241050000Y-187730419D03*
X241994581Y-185450000D03*
X241994581Y-190010838D03*
X244275000Y-184505419D03*
D11*
X244275000Y-187730419D03*
D10*
X244275000Y-190955419D03*
X246555419Y-185450000D03*
X246555419Y-190010838D03*
X247500000Y-187730419D03*
X241025000Y-139800000D03*
X241969581Y-137519581D03*
X241969581Y-142080419D03*
X244250000Y-136575000D03*
D11*
X244250000Y-139800000D03*
D10*
X244250000Y-143025000D03*
X246530419Y-137519581D03*
X246530419Y-142080419D03*
X247475000Y-139800000D03*
G04 #@! TA.AperFunction,ComponentPad*
G36*
G01*
X161375000Y-148650000D02*
X162825000Y-148650000D01*
G75*
G02*
X163075000Y-148900000I0J-250000D01*
G01*
X163075000Y-150100000D01*
G75*
G02*
X162825000Y-150350000I-250000J0D01*
G01*
X161375000Y-150350000D01*
G75*
G02*
X161125000Y-150100000I0J250000D01*
G01*
X161125000Y-148900000D01*
G75*
G02*
X161375000Y-148650000I250000J0D01*
G01*
G37*
G04 #@! TD.AperFunction*
D13*
X162100000Y-152000000D03*
X162100000Y-154500000D03*
X162100000Y-157000000D03*
X162100000Y-159500000D03*
D10*
X157775000Y-139800000D03*
X158719581Y-137519581D03*
X158719581Y-142080419D03*
X161000000Y-136575000D03*
D11*
X161000000Y-139800000D03*
D10*
X161000000Y-143025000D03*
X163280419Y-137519581D03*
X163280419Y-142080419D03*
X164225000Y-139800000D03*
D14*
X217700000Y-179800000D03*
X237200000Y-175800000D03*
X200200000Y-154800000D03*
X246300000Y-167100000D03*
X167500000Y-170100000D03*
X164550000Y-167500000D03*
X170100000Y-181100000D03*
X236000000Y-139000000D03*
X184300000Y-156300000D03*
X169950000Y-172250000D03*
X216100000Y-154600000D03*
X162150000Y-181050000D03*
X233200000Y-166400000D03*
X205900000Y-144200000D03*
X168950000Y-170500000D03*
X167700000Y-175300000D03*
X178700000Y-182500000D03*
X221500000Y-171900000D03*
X163800000Y-170100000D03*
X163800000Y-173950000D03*
X165500000Y-169250000D03*
X164600000Y-164900000D03*
X162450000Y-172250000D03*
X177000000Y-180400000D03*
X169600000Y-151800000D03*
G04 #@! TA.AperFunction,Conductor*
G36*
X178754601Y-182209223D02*
G01*
X178798102Y-182220879D01*
X178827999Y-182233263D01*
X178867000Y-182255780D01*
X178892679Y-182275485D01*
X178924513Y-182307319D01*
X178944219Y-182333000D01*
X178966733Y-182371995D01*
X178979119Y-182401898D01*
X178990774Y-182445392D01*
X178995000Y-182477485D01*
X178995000Y-182522513D01*
X178990774Y-182554609D01*
X178979120Y-182598099D01*
X178966733Y-182628003D01*
X178944219Y-182666998D01*
X178924513Y-182692679D01*
X178892679Y-182724513D01*
X178866998Y-182744219D01*
X178828003Y-182766733D01*
X178798099Y-182779120D01*
X178779887Y-182784000D01*
X178754607Y-182790774D01*
X178722513Y-182795000D01*
X178677489Y-182795000D01*
X178645397Y-182790775D01*
X178601902Y-182779121D01*
X178571997Y-182766734D01*
X178532997Y-182744217D01*
X178507320Y-182724514D01*
X178475485Y-182692679D01*
X178455778Y-182666996D01*
X178433265Y-182628001D01*
X178420878Y-182598096D01*
X178409225Y-182554605D01*
X178405000Y-182522512D01*
X178405000Y-182477484D01*
X178409223Y-182445398D01*
X178420879Y-182401895D01*
X178433261Y-182372001D01*
X178455783Y-182332993D01*
X178475476Y-182307329D01*
X178507324Y-182275481D01*
X178532996Y-182255781D01*
X178571997Y-182233263D01*
X178601905Y-182220877D01*
X178645394Y-182209225D01*
X178677485Y-182205000D01*
X178722513Y-182205000D01*
X178754601Y-182209223D01*
G37*
G04 #@! TD.AperFunction*
G04 #@! TA.AperFunction,Conductor*
G36*
X170154601Y-180809223D02*
G01*
X170198102Y-180820879D01*
X170227999Y-180833263D01*
X170267000Y-180855780D01*
X170292679Y-180875485D01*
X170324513Y-180907319D01*
X170344219Y-180933000D01*
X170366733Y-180971995D01*
X170379119Y-181001898D01*
X170390774Y-181045392D01*
X170395000Y-181077485D01*
X170395000Y-181122513D01*
X170390774Y-181154609D01*
X170379120Y-181198099D01*
X170366733Y-181228003D01*
X170344219Y-181266998D01*
X170324513Y-181292679D01*
X170292679Y-181324513D01*
X170266998Y-181344219D01*
X170228003Y-181366733D01*
X170198099Y-181379120D01*
X170179887Y-181384000D01*
X170154607Y-181390774D01*
X170122513Y-181395000D01*
X170077489Y-181395000D01*
X170045397Y-181390775D01*
X170001902Y-181379121D01*
X169971997Y-181366734D01*
X169932997Y-181344217D01*
X169907320Y-181324514D01*
X169875485Y-181292679D01*
X169855778Y-181266996D01*
X169833265Y-181228001D01*
X169820878Y-181198096D01*
X169809225Y-181154605D01*
X169805000Y-181122512D01*
X169805000Y-181077484D01*
X169809223Y-181045398D01*
X169820879Y-181001895D01*
X169833261Y-180972001D01*
X169855783Y-180932993D01*
X169875476Y-180907329D01*
X169907324Y-180875481D01*
X169932996Y-180855781D01*
X169971997Y-180833263D01*
X170001905Y-180820877D01*
X170045394Y-180809225D01*
X170077485Y-180805000D01*
X170122513Y-180805000D01*
X170154601Y-180809223D01*
G37*
G04 #@! TD.AperFunction*
G04 #@! TA.AperFunction,Conductor*
G36*
X162204601Y-180759223D02*
G01*
X162248102Y-180770879D01*
X162277999Y-180783263D01*
X162317000Y-180805780D01*
X162342679Y-180825485D01*
X162374513Y-180857319D01*
X162394219Y-180883000D01*
X162416733Y-180921995D01*
X162429119Y-180951898D01*
X162440774Y-180995392D01*
X162445000Y-181027485D01*
X162445000Y-181072513D01*
X162440775Y-181104605D01*
X162435976Y-181122513D01*
X162429120Y-181148099D01*
X162416733Y-181178003D01*
X162394219Y-181216998D01*
X162374513Y-181242679D01*
X162342679Y-181274513D01*
X162316998Y-181294219D01*
X162278003Y-181316733D01*
X162248099Y-181329120D01*
X162229887Y-181334000D01*
X162204607Y-181340774D01*
X162172513Y-181345000D01*
X162127489Y-181345000D01*
X162095397Y-181340775D01*
X162051902Y-181329121D01*
X162021997Y-181316734D01*
X161982997Y-181294217D01*
X161957320Y-181274514D01*
X161925485Y-181242679D01*
X161905778Y-181216996D01*
X161903970Y-181213865D01*
X161883266Y-181178003D01*
X161883265Y-181178001D01*
X161870878Y-181148096D01*
X161859225Y-181104605D01*
X161855000Y-181072512D01*
X161855000Y-181027484D01*
X161859223Y-180995398D01*
X161870879Y-180951895D01*
X161883261Y-180922001D01*
X161905783Y-180882993D01*
X161925476Y-180857329D01*
X161957324Y-180825481D01*
X161982996Y-180805781D01*
X162021997Y-180783263D01*
X162051905Y-180770877D01*
X162095394Y-180759225D01*
X162127485Y-180755000D01*
X162172513Y-180755000D01*
X162204601Y-180759223D01*
G37*
G04 #@! TD.AperFunction*
G04 #@! TA.AperFunction,Conductor*
G36*
X217754601Y-179509223D02*
G01*
X217798102Y-179520879D01*
X217827999Y-179533263D01*
X217867000Y-179555780D01*
X217892679Y-179575485D01*
X217924513Y-179607319D01*
X217944219Y-179633000D01*
X217966733Y-179671995D01*
X217979119Y-179701898D01*
X217990774Y-179745392D01*
X217995000Y-179777485D01*
X217995000Y-179822513D01*
X217990774Y-179854609D01*
X217979120Y-179898099D01*
X217966733Y-179928003D01*
X217944219Y-179966998D01*
X217924513Y-179992679D01*
X217892679Y-180024513D01*
X217866998Y-180044219D01*
X217828003Y-180066733D01*
X217798099Y-180079120D01*
X217779887Y-180084000D01*
X217754607Y-180090774D01*
X217722513Y-180095000D01*
X217677489Y-180095000D01*
X217645397Y-180090775D01*
X217601902Y-180079121D01*
X217571997Y-180066734D01*
X217532997Y-180044217D01*
X217507320Y-180024514D01*
X217475485Y-179992679D01*
X217455778Y-179966996D01*
X217433265Y-179928001D01*
X217420878Y-179898096D01*
X217409225Y-179854605D01*
X217405000Y-179822512D01*
X217405000Y-179777484D01*
X217409223Y-179745398D01*
X217420879Y-179701895D01*
X217433261Y-179672001D01*
X217455783Y-179632993D01*
X217475476Y-179607329D01*
X217507324Y-179575481D01*
X217532996Y-179555781D01*
X217571997Y-179533263D01*
X217601905Y-179520877D01*
X217645394Y-179509225D01*
X217677485Y-179505000D01*
X217722513Y-179505000D01*
X217754601Y-179509223D01*
G37*
G04 #@! TD.AperFunction*
G04 #@! TA.AperFunction,Conductor*
G36*
X237254601Y-175509223D02*
G01*
X237298102Y-175520879D01*
X237327999Y-175533263D01*
X237367000Y-175555780D01*
X237392679Y-175575485D01*
X237424513Y-175607319D01*
X237444219Y-175633000D01*
X237466733Y-175671995D01*
X237479119Y-175701898D01*
X237490774Y-175745392D01*
X237495000Y-175777485D01*
X237495000Y-175822513D01*
X237490774Y-175854609D01*
X237479120Y-175898099D01*
X237466733Y-175928003D01*
X237444219Y-175966998D01*
X237424513Y-175992679D01*
X237392679Y-176024513D01*
X237366998Y-176044219D01*
X237328003Y-176066733D01*
X237298099Y-176079120D01*
X237279887Y-176084000D01*
X237254607Y-176090774D01*
X237222513Y-176095000D01*
X237177489Y-176095000D01*
X237145397Y-176090775D01*
X237101902Y-176079121D01*
X237071997Y-176066734D01*
X237032997Y-176044217D01*
X237007320Y-176024514D01*
X236975485Y-175992679D01*
X236955778Y-175966996D01*
X236933265Y-175928001D01*
X236920878Y-175898096D01*
X236909225Y-175854605D01*
X236905000Y-175822512D01*
X236905000Y-175777484D01*
X236909223Y-175745398D01*
X236920879Y-175701895D01*
X236933261Y-175672001D01*
X236955783Y-175632993D01*
X236975476Y-175607329D01*
X237007324Y-175575481D01*
X237032996Y-175555781D01*
X237071997Y-175533263D01*
X237101905Y-175520877D01*
X237145394Y-175509225D01*
X237177485Y-175505000D01*
X237222513Y-175505000D01*
X237254601Y-175509223D01*
G37*
G04 #@! TD.AperFunction*
G04 #@! TA.AperFunction,Conductor*
G36*
X167754601Y-175009223D02*
G01*
X167798102Y-175020879D01*
X167827999Y-175033263D01*
X167867000Y-175055780D01*
X167892679Y-175075485D01*
X167924513Y-175107319D01*
X167944219Y-175133000D01*
X167966733Y-175171995D01*
X167979119Y-175201898D01*
X167990774Y-175245392D01*
X167995000Y-175277485D01*
X167995000Y-175322513D01*
X167990774Y-175354609D01*
X167979120Y-175398099D01*
X167966733Y-175428003D01*
X167944219Y-175466998D01*
X167924513Y-175492679D01*
X167892677Y-175524515D01*
X167866998Y-175544220D01*
X167860491Y-175547977D01*
X167860490Y-175547976D01*
X167860486Y-175547980D01*
X167827998Y-175566735D01*
X167798100Y-175579119D01*
X167754608Y-175590774D01*
X167722511Y-175595000D01*
X167677489Y-175595000D01*
X167645397Y-175590775D01*
X167601902Y-175579121D01*
X167571997Y-175566734D01*
X167532997Y-175544217D01*
X167507320Y-175524514D01*
X167475485Y-175492679D01*
X167455778Y-175466996D01*
X167433265Y-175428001D01*
X167420878Y-175398096D01*
X167409225Y-175354605D01*
X167405000Y-175322512D01*
X167405000Y-175277484D01*
X167409223Y-175245398D01*
X167420879Y-175201893D01*
X167433261Y-175172001D01*
X167455783Y-175132993D01*
X167475476Y-175107329D01*
X167507324Y-175075481D01*
X167532996Y-175055781D01*
X167571997Y-175033263D01*
X167601905Y-175020877D01*
X167645394Y-175009225D01*
X167677485Y-175005000D01*
X167722513Y-175005000D01*
X167754601Y-175009223D01*
G37*
G04 #@! TD.AperFunction*
G04 #@! TA.AperFunction,Conductor*
G36*
X170004606Y-171959225D02*
G01*
X170048095Y-171970877D01*
X170078003Y-171983264D01*
X170117002Y-172005781D01*
X170142678Y-172025484D01*
X170174513Y-172057319D01*
X170194219Y-172083000D01*
X170216733Y-172121995D01*
X170229119Y-172151898D01*
X170240774Y-172195392D01*
X170245000Y-172227485D01*
X170245000Y-172272513D01*
X170240774Y-172304609D01*
X170229120Y-172348099D01*
X170216733Y-172378003D01*
X170194219Y-172416998D01*
X170174513Y-172442679D01*
X170142679Y-172474513D01*
X170116998Y-172494219D01*
X170078003Y-172516733D01*
X170048099Y-172529120D01*
X170029887Y-172534000D01*
X170004607Y-172540774D01*
X169972513Y-172545000D01*
X169927489Y-172545000D01*
X169895397Y-172540775D01*
X169851902Y-172529121D01*
X169821997Y-172516734D01*
X169782997Y-172494217D01*
X169757320Y-172474514D01*
X169725485Y-172442679D01*
X169705778Y-172416996D01*
X169683265Y-172378001D01*
X169670878Y-172348096D01*
X169659225Y-172304605D01*
X169655000Y-172272512D01*
X169655000Y-172227484D01*
X169659223Y-172195398D01*
X169670879Y-172151895D01*
X169683261Y-172122001D01*
X169705783Y-172082993D01*
X169725476Y-172057329D01*
X169757324Y-172025481D01*
X169782996Y-172005781D01*
X169821997Y-171983263D01*
X169851905Y-171970877D01*
X169895394Y-171959225D01*
X169927485Y-171955000D01*
X169972515Y-171955000D01*
X170004606Y-171959225D01*
G37*
G04 #@! TD.AperFunction*
G04 #@! TA.AperFunction,Conductor*
G36*
X221554601Y-171609223D02*
G01*
X221598102Y-171620879D01*
X221627999Y-171633263D01*
X221667000Y-171655780D01*
X221692679Y-171675485D01*
X221724513Y-171707319D01*
X221744219Y-171733000D01*
X221766733Y-171771995D01*
X221779119Y-171801898D01*
X221790774Y-171845392D01*
X221795000Y-171877485D01*
X221795000Y-171922513D01*
X221790774Y-171954609D01*
X221779120Y-171998099D01*
X221766733Y-172028003D01*
X221744219Y-172066998D01*
X221724513Y-172092679D01*
X221692679Y-172124513D01*
X221666998Y-172144219D01*
X221628003Y-172166733D01*
X221598099Y-172179120D01*
X221579887Y-172184000D01*
X221554607Y-172190774D01*
X221522513Y-172195000D01*
X221477489Y-172195000D01*
X221445397Y-172190775D01*
X221401902Y-172179121D01*
X221371997Y-172166734D01*
X221332997Y-172144217D01*
X221307320Y-172124514D01*
X221275485Y-172092679D01*
X221255778Y-172066996D01*
X221233265Y-172028001D01*
X221220878Y-171998096D01*
X221209225Y-171954605D01*
X221205000Y-171922512D01*
X221205000Y-171877484D01*
X221209223Y-171845398D01*
X221220879Y-171801895D01*
X221233261Y-171772001D01*
X221255783Y-171732993D01*
X221275476Y-171707329D01*
X221307324Y-171675481D01*
X221332996Y-171655781D01*
X221371997Y-171633263D01*
X221401905Y-171620877D01*
X221445394Y-171609225D01*
X221477485Y-171605000D01*
X221522513Y-171605000D01*
X221554601Y-171609223D01*
G37*
G04 #@! TD.AperFunction*
G04 #@! TA.AperFunction,Conductor*
G36*
X169004601Y-170209223D02*
G01*
X169048102Y-170220879D01*
X169077999Y-170233263D01*
X169117000Y-170255780D01*
X169142679Y-170275485D01*
X169174513Y-170307319D01*
X169194219Y-170333000D01*
X169216733Y-170371995D01*
X169229119Y-170401898D01*
X169240774Y-170445392D01*
X169245000Y-170477485D01*
X169245000Y-170522513D01*
X169240774Y-170554609D01*
X169229120Y-170598099D01*
X169216733Y-170628003D01*
X169194219Y-170666998D01*
X169174513Y-170692679D01*
X169142679Y-170724513D01*
X169116998Y-170744219D01*
X169078003Y-170766733D01*
X169048099Y-170779120D01*
X169029887Y-170784000D01*
X169004607Y-170790774D01*
X168972513Y-170795000D01*
X168927489Y-170795000D01*
X168895397Y-170790775D01*
X168851902Y-170779121D01*
X168821997Y-170766734D01*
X168782997Y-170744217D01*
X168757320Y-170724514D01*
X168725485Y-170692679D01*
X168705778Y-170666996D01*
X168683265Y-170628001D01*
X168670878Y-170598096D01*
X168659225Y-170554605D01*
X168655000Y-170522512D01*
X168655000Y-170477484D01*
X168659223Y-170445398D01*
X168670879Y-170401895D01*
X168683261Y-170372001D01*
X168705783Y-170332993D01*
X168725476Y-170307329D01*
X168757324Y-170275481D01*
X168782996Y-170255781D01*
X168821997Y-170233263D01*
X168851905Y-170220877D01*
X168895394Y-170209225D01*
X168927485Y-170205000D01*
X168972513Y-170205000D01*
X169004601Y-170209223D01*
G37*
G04 #@! TD.AperFunction*
G04 #@! TA.AperFunction,Conductor*
G36*
X167554601Y-169809223D02*
G01*
X167598102Y-169820879D01*
X167627999Y-169833263D01*
X167667000Y-169855780D01*
X167692679Y-169875485D01*
X167724513Y-169907319D01*
X167744219Y-169933000D01*
X167766733Y-169971995D01*
X167779119Y-170001898D01*
X167790774Y-170045392D01*
X167795000Y-170077485D01*
X167795000Y-170122510D01*
X167790774Y-170154606D01*
X167779118Y-170198103D01*
X167766734Y-170228002D01*
X167747568Y-170261202D01*
X167747553Y-170261229D01*
X167744208Y-170267020D01*
X167724513Y-170292681D01*
X167692678Y-170324515D01*
X167666998Y-170344219D01*
X167628003Y-170366733D01*
X167598099Y-170379120D01*
X167579887Y-170384000D01*
X167554607Y-170390774D01*
X167522513Y-170395000D01*
X167477489Y-170395000D01*
X167445397Y-170390775D01*
X167401902Y-170379121D01*
X167371997Y-170366734D01*
X167332997Y-170344217D01*
X167307320Y-170324514D01*
X167275485Y-170292679D01*
X167255779Y-170266998D01*
X167254014Y-170263941D01*
X167233263Y-170227999D01*
X167220879Y-170198102D01*
X167209223Y-170154601D01*
X167205000Y-170122513D01*
X167205000Y-170077484D01*
X167209223Y-170045398D01*
X167220879Y-170001895D01*
X167233261Y-169972001D01*
X167255783Y-169932993D01*
X167275476Y-169907329D01*
X167307324Y-169875481D01*
X167332996Y-169855781D01*
X167371997Y-169833263D01*
X167401905Y-169820877D01*
X167445394Y-169809225D01*
X167477485Y-169805000D01*
X167522513Y-169805000D01*
X167554601Y-169809223D01*
G37*
G04 #@! TD.AperFunction*
G04 #@! TA.AperFunction,Conductor*
G36*
X164604601Y-167209223D02*
G01*
X164648102Y-167220879D01*
X164677999Y-167233263D01*
X164717000Y-167255780D01*
X164742679Y-167275485D01*
X164774513Y-167307319D01*
X164794219Y-167333000D01*
X164816733Y-167371995D01*
X164829119Y-167401898D01*
X164840774Y-167445392D01*
X164845000Y-167477485D01*
X164845000Y-167522513D01*
X164840774Y-167554609D01*
X164829120Y-167598099D01*
X164816733Y-167628003D01*
X164794219Y-167666998D01*
X164774513Y-167692679D01*
X164742679Y-167724513D01*
X164716998Y-167744219D01*
X164678003Y-167766733D01*
X164648099Y-167779120D01*
X164629887Y-167784000D01*
X164604607Y-167790774D01*
X164572513Y-167795000D01*
X164527489Y-167795000D01*
X164495397Y-167790775D01*
X164451902Y-167779121D01*
X164421997Y-167766734D01*
X164382997Y-167744217D01*
X164357320Y-167724514D01*
X164325485Y-167692679D01*
X164305778Y-167666996D01*
X164283265Y-167628001D01*
X164270878Y-167598096D01*
X164259225Y-167554605D01*
X164255000Y-167522512D01*
X164255000Y-167477484D01*
X164259223Y-167445398D01*
X164270879Y-167401895D01*
X164283261Y-167372001D01*
X164305783Y-167332993D01*
X164325476Y-167307329D01*
X164357324Y-167275481D01*
X164382996Y-167255781D01*
X164421997Y-167233263D01*
X164451905Y-167220877D01*
X164495394Y-167209225D01*
X164527485Y-167205000D01*
X164572513Y-167205000D01*
X164604601Y-167209223D01*
G37*
G04 #@! TD.AperFunction*
G04 #@! TA.AperFunction,Conductor*
G36*
X246354601Y-166809223D02*
G01*
X246398102Y-166820879D01*
X246427999Y-166833263D01*
X246467000Y-166855780D01*
X246492679Y-166875485D01*
X246524513Y-166907319D01*
X246544219Y-166933000D01*
X246566733Y-166971995D01*
X246579119Y-167001898D01*
X246590774Y-167045392D01*
X246595000Y-167077485D01*
X246595000Y-167122513D01*
X246590775Y-167154604D01*
X246590774Y-167154609D01*
X246579120Y-167198099D01*
X246566733Y-167228003D01*
X246544219Y-167266998D01*
X246524513Y-167292679D01*
X246492679Y-167324513D01*
X246466998Y-167344219D01*
X246428003Y-167366733D01*
X246398099Y-167379120D01*
X246379887Y-167384000D01*
X246354607Y-167390774D01*
X246322513Y-167395000D01*
X246277489Y-167395000D01*
X246245397Y-167390775D01*
X246201902Y-167379121D01*
X246171997Y-167366734D01*
X246132997Y-167344217D01*
X246107320Y-167324514D01*
X246075485Y-167292679D01*
X246055779Y-167266998D01*
X246049302Y-167255779D01*
X246033263Y-167227999D01*
X246020879Y-167198102D01*
X246009223Y-167154601D01*
X246005000Y-167122513D01*
X246005000Y-167077484D01*
X246009223Y-167045398D01*
X246020879Y-167001895D01*
X246033261Y-166972001D01*
X246055783Y-166932993D01*
X246075476Y-166907329D01*
X246107324Y-166875481D01*
X246132996Y-166855781D01*
X246171997Y-166833263D01*
X246201905Y-166820877D01*
X246245394Y-166809225D01*
X246277485Y-166805000D01*
X246322513Y-166805000D01*
X246354601Y-166809223D01*
G37*
G04 #@! TD.AperFunction*
G04 #@! TA.AperFunction,Conductor*
G36*
X233254601Y-166109223D02*
G01*
X233298102Y-166120879D01*
X233327999Y-166133263D01*
X233367000Y-166155780D01*
X233392679Y-166175485D01*
X233424513Y-166207319D01*
X233444219Y-166233000D01*
X233466733Y-166271995D01*
X233479119Y-166301898D01*
X233490774Y-166345392D01*
X233495000Y-166377485D01*
X233495000Y-166422513D01*
X233490774Y-166454609D01*
X233479120Y-166498099D01*
X233466733Y-166528003D01*
X233444219Y-166566998D01*
X233424513Y-166592679D01*
X233392679Y-166624513D01*
X233366998Y-166644219D01*
X233328003Y-166666733D01*
X233298099Y-166679120D01*
X233279887Y-166684000D01*
X233254607Y-166690774D01*
X233222513Y-166695000D01*
X233177489Y-166695000D01*
X233145397Y-166690775D01*
X233101902Y-166679121D01*
X233071997Y-166666734D01*
X233032997Y-166644217D01*
X233007320Y-166624514D01*
X232975485Y-166592679D01*
X232955778Y-166566996D01*
X232933265Y-166528001D01*
X232920878Y-166498096D01*
X232909225Y-166454605D01*
X232905000Y-166422512D01*
X232905000Y-166377484D01*
X232909223Y-166345398D01*
X232920879Y-166301895D01*
X232933261Y-166272001D01*
X232955783Y-166232993D01*
X232975476Y-166207329D01*
X233007324Y-166175481D01*
X233032996Y-166155781D01*
X233071997Y-166133263D01*
X233101905Y-166120877D01*
X233145394Y-166109225D01*
X233177485Y-166105000D01*
X233222513Y-166105000D01*
X233254601Y-166109223D01*
G37*
G04 #@! TD.AperFunction*
G04 #@! TA.AperFunction,Conductor*
G36*
X184354601Y-156009223D02*
G01*
X184398102Y-156020879D01*
X184427999Y-156033263D01*
X184467000Y-156055780D01*
X184492679Y-156075485D01*
X184524513Y-156107319D01*
X184544219Y-156133000D01*
X184566733Y-156171995D01*
X184579119Y-156201898D01*
X184590774Y-156245392D01*
X184595000Y-156277485D01*
X184595000Y-156322513D01*
X184590774Y-156354609D01*
X184579120Y-156398099D01*
X184566733Y-156428003D01*
X184544219Y-156466998D01*
X184524513Y-156492679D01*
X184492679Y-156524513D01*
X184466998Y-156544219D01*
X184428003Y-156566733D01*
X184398099Y-156579120D01*
X184379887Y-156584000D01*
X184354607Y-156590774D01*
X184322513Y-156595000D01*
X184277489Y-156595000D01*
X184245397Y-156590775D01*
X184201902Y-156579121D01*
X184171997Y-156566734D01*
X184132997Y-156544217D01*
X184107320Y-156524514D01*
X184075485Y-156492679D01*
X184055778Y-156466996D01*
X184033265Y-156428001D01*
X184020878Y-156398096D01*
X184009225Y-156354605D01*
X184005000Y-156322512D01*
X184005000Y-156277484D01*
X184009223Y-156245398D01*
X184020879Y-156201895D01*
X184033261Y-156172001D01*
X184055783Y-156132993D01*
X184075476Y-156107329D01*
X184107324Y-156075481D01*
X184132996Y-156055781D01*
X184171997Y-156033263D01*
X184201905Y-156020877D01*
X184245394Y-156009225D01*
X184277485Y-156005000D01*
X184322513Y-156005000D01*
X184354601Y-156009223D01*
G37*
G04 #@! TD.AperFunction*
G04 #@! TA.AperFunction,Conductor*
G36*
X200254601Y-154509223D02*
G01*
X200298102Y-154520879D01*
X200328000Y-154533264D01*
X200349010Y-154545394D01*
X200367002Y-154555782D01*
X200392678Y-154575485D01*
X200392681Y-154575487D01*
X200424512Y-154607318D01*
X200444213Y-154632990D01*
X200446442Y-154636850D01*
X200446440Y-154636850D01*
X200446447Y-154636858D01*
X200466732Y-154671993D01*
X200479119Y-154701896D01*
X200490774Y-154745393D01*
X200495000Y-154777485D01*
X200495000Y-154822513D01*
X200490775Y-154854604D01*
X200490774Y-154854609D01*
X200479120Y-154898099D01*
X200466733Y-154928003D01*
X200444219Y-154966998D01*
X200424513Y-154992679D01*
X200392679Y-155024513D01*
X200366998Y-155044219D01*
X200328003Y-155066733D01*
X200298099Y-155079120D01*
X200279887Y-155084000D01*
X200254607Y-155090774D01*
X200222513Y-155095000D01*
X200177489Y-155095000D01*
X200145397Y-155090775D01*
X200101902Y-155079121D01*
X200071997Y-155066734D01*
X200032997Y-155044217D01*
X200007320Y-155024514D01*
X199975485Y-154992679D01*
X199955779Y-154966998D01*
X199933263Y-154927999D01*
X199920879Y-154898102D01*
X199909223Y-154854601D01*
X199905000Y-154822513D01*
X199905000Y-154777484D01*
X199909223Y-154745398D01*
X199920879Y-154701893D01*
X199933261Y-154672001D01*
X199955783Y-154632993D01*
X199975476Y-154607329D01*
X200007324Y-154575481D01*
X200032996Y-154555781D01*
X200071997Y-154533263D01*
X200101905Y-154520877D01*
X200145394Y-154509225D01*
X200177485Y-154505000D01*
X200222513Y-154505000D01*
X200254601Y-154509223D01*
G37*
G04 #@! TD.AperFunction*
G04 #@! TA.AperFunction,Conductor*
G36*
X216154601Y-154309223D02*
G01*
X216198102Y-154320879D01*
X216227999Y-154333263D01*
X216267000Y-154355780D01*
X216292679Y-154375485D01*
X216324513Y-154407319D01*
X216344219Y-154433000D01*
X216366733Y-154471995D01*
X216379119Y-154501898D01*
X216390774Y-154545392D01*
X216395000Y-154577485D01*
X216395000Y-154622513D01*
X216390775Y-154654604D01*
X216390774Y-154654609D01*
X216379120Y-154698099D01*
X216366733Y-154728003D01*
X216344219Y-154766998D01*
X216324513Y-154792679D01*
X216292679Y-154824513D01*
X216266998Y-154844219D01*
X216228003Y-154866733D01*
X216198099Y-154879120D01*
X216179887Y-154884000D01*
X216154607Y-154890774D01*
X216122513Y-154895000D01*
X216077489Y-154895000D01*
X216045397Y-154890775D01*
X216001902Y-154879121D01*
X215971997Y-154866734D01*
X215932997Y-154844217D01*
X215907320Y-154824514D01*
X215875485Y-154792679D01*
X215855779Y-154766998D01*
X215843306Y-154745394D01*
X215833263Y-154727999D01*
X215820879Y-154698102D01*
X215809223Y-154654601D01*
X215805000Y-154622513D01*
X215805000Y-154577484D01*
X215809223Y-154545398D01*
X215820879Y-154501895D01*
X215833261Y-154472001D01*
X215855783Y-154432993D01*
X215875476Y-154407329D01*
X215907324Y-154375481D01*
X215932996Y-154355781D01*
X215971997Y-154333263D01*
X216001905Y-154320877D01*
X216045394Y-154309225D01*
X216077485Y-154305000D01*
X216122513Y-154305000D01*
X216154601Y-154309223D01*
G37*
G04 #@! TD.AperFunction*
G04 #@! TA.AperFunction,Conductor*
G36*
X205954601Y-143909223D02*
G01*
X205998102Y-143920879D01*
X206027999Y-143933263D01*
X206067000Y-143955780D01*
X206092679Y-143975485D01*
X206124513Y-144007319D01*
X206144219Y-144033000D01*
X206166733Y-144071995D01*
X206179119Y-144101898D01*
X206190774Y-144145392D01*
X206195000Y-144177485D01*
X206195000Y-144222513D01*
X206190775Y-144254604D01*
X206190774Y-144254609D01*
X206179120Y-144298099D01*
X206166733Y-144328003D01*
X206144219Y-144366998D01*
X206124513Y-144392679D01*
X206092679Y-144424513D01*
X206066998Y-144444219D01*
X206028003Y-144466733D01*
X205998099Y-144479120D01*
X205979887Y-144484000D01*
X205954607Y-144490774D01*
X205922513Y-144495000D01*
X205877489Y-144495000D01*
X205845397Y-144490775D01*
X205801902Y-144479121D01*
X205771997Y-144466734D01*
X205732997Y-144444217D01*
X205707320Y-144424514D01*
X205675485Y-144392679D01*
X205655779Y-144366998D01*
X205633263Y-144327999D01*
X205620879Y-144298102D01*
X205609223Y-144254601D01*
X205605000Y-144222513D01*
X205605000Y-144177484D01*
X205609223Y-144145398D01*
X205620879Y-144101895D01*
X205633261Y-144072001D01*
X205655783Y-144032993D01*
X205675476Y-144007329D01*
X205707324Y-143975481D01*
X205732996Y-143955781D01*
X205771997Y-143933263D01*
X205801905Y-143920877D01*
X205845394Y-143909225D01*
X205877485Y-143905000D01*
X205922513Y-143905000D01*
X205954601Y-143909223D01*
G37*
G04 #@! TD.AperFunction*
G04 #@! TA.AperFunction,Conductor*
G36*
X236054601Y-138709223D02*
G01*
X236098102Y-138720879D01*
X236127999Y-138733263D01*
X236167000Y-138755780D01*
X236192679Y-138775485D01*
X236224513Y-138807319D01*
X236244219Y-138833000D01*
X236266733Y-138871995D01*
X236279119Y-138901898D01*
X236290774Y-138945392D01*
X236295000Y-138977485D01*
X236295000Y-139022513D01*
X236290775Y-139054605D01*
X236284000Y-139079887D01*
X236279120Y-139098099D01*
X236266733Y-139128003D01*
X236244219Y-139166998D01*
X236224513Y-139192679D01*
X236192679Y-139224513D01*
X236166998Y-139244219D01*
X236128003Y-139266733D01*
X236098099Y-139279120D01*
X236079887Y-139284000D01*
X236054607Y-139290774D01*
X236022513Y-139295000D01*
X235977489Y-139295000D01*
X235945397Y-139290775D01*
X235901902Y-139279121D01*
X235871997Y-139266734D01*
X235832997Y-139244217D01*
X235807320Y-139224514D01*
X235775485Y-139192679D01*
X235755778Y-139166996D01*
X235733265Y-139128001D01*
X235720878Y-139098096D01*
X235709225Y-139054605D01*
X235705000Y-139022512D01*
X235705000Y-138977484D01*
X235709223Y-138945398D01*
X235720879Y-138901895D01*
X235733261Y-138872001D01*
X235755783Y-138832993D01*
X235775476Y-138807329D01*
X235807324Y-138775481D01*
X235832996Y-138755781D01*
X235871997Y-138733263D01*
X235901905Y-138720877D01*
X235945394Y-138709225D01*
X235977485Y-138705000D01*
X236022513Y-138705000D01*
X236054601Y-138709223D01*
G37*
G04 #@! TD.AperFunction*
G04 #@! TA.AperFunction,Conductor*
G36*
X244252702Y-134950617D02*
G01*
X244667276Y-134968718D01*
X244678011Y-134969658D01*
X245086740Y-135023468D01*
X245097382Y-135025344D01*
X245499865Y-135114572D01*
X245510302Y-135117369D01*
X245903473Y-135241336D01*
X245913616Y-135245027D01*
X246294494Y-135402792D01*
X246304285Y-135407358D01*
X246489370Y-135503707D01*
X246669942Y-135597707D01*
X246679310Y-135603115D01*
X247026996Y-135824615D01*
X247035857Y-135830820D01*
X247362906Y-136081773D01*
X247371193Y-136088727D01*
X247675122Y-136367228D01*
X247682771Y-136374877D01*
X247961272Y-136678806D01*
X247968226Y-136687093D01*
X248219179Y-137014142D01*
X248225384Y-137023003D01*
X248446884Y-137370689D01*
X248452292Y-137380057D01*
X248642638Y-137745707D01*
X248647210Y-137755511D01*
X248804966Y-138136368D01*
X248808666Y-138146534D01*
X248932628Y-138539692D01*
X248935428Y-138550141D01*
X249024654Y-138952614D01*
X249026532Y-138963267D01*
X249080339Y-139371968D01*
X249081282Y-139382744D01*
X249099382Y-139797297D01*
X249099500Y-139802706D01*
X249099500Y-187797293D01*
X249099382Y-187802702D01*
X249081282Y-188217255D01*
X249080339Y-188228031D01*
X249026532Y-188636732D01*
X249024654Y-188647385D01*
X248935428Y-189049858D01*
X248932628Y-189060307D01*
X248808666Y-189453465D01*
X248804966Y-189463631D01*
X248647210Y-189844488D01*
X248642638Y-189854292D01*
X248452292Y-190219942D01*
X248446884Y-190229310D01*
X248225384Y-190576996D01*
X248219179Y-190585857D01*
X247968226Y-190912906D01*
X247961272Y-190921193D01*
X247682771Y-191225122D01*
X247675122Y-191232771D01*
X247371193Y-191511272D01*
X247362906Y-191518226D01*
X247035857Y-191769179D01*
X247026996Y-191775384D01*
X246679310Y-191996884D01*
X246669942Y-192002292D01*
X246304292Y-192192638D01*
X246294488Y-192197210D01*
X245913631Y-192354966D01*
X245903465Y-192358666D01*
X245510307Y-192482628D01*
X245499858Y-192485428D01*
X245097385Y-192574654D01*
X245086732Y-192576532D01*
X244678031Y-192630339D01*
X244667255Y-192631282D01*
X244252703Y-192649382D01*
X244247294Y-192649500D01*
X161002706Y-192649500D01*
X160997297Y-192649382D01*
X160582744Y-192631282D01*
X160571968Y-192630339D01*
X160163267Y-192576532D01*
X160152614Y-192574654D01*
X159750141Y-192485428D01*
X159739692Y-192482628D01*
X159346534Y-192358666D01*
X159336368Y-192354966D01*
X158955511Y-192197210D01*
X158945707Y-192192638D01*
X158580057Y-192002292D01*
X158570689Y-191996884D01*
X158223003Y-191775384D01*
X158214142Y-191769179D01*
X157887093Y-191518226D01*
X157878806Y-191511272D01*
X157574877Y-191232771D01*
X157567228Y-191225122D01*
X157288727Y-190921193D01*
X157281773Y-190912906D01*
X157030820Y-190585857D01*
X157024615Y-190576996D01*
X156958209Y-190472760D01*
X156803114Y-190229309D01*
X156797707Y-190219942D01*
X156620789Y-189880086D01*
X156607358Y-189854285D01*
X156602789Y-189844488D01*
X156588713Y-189810505D01*
X156445027Y-189463616D01*
X156441333Y-189453465D01*
X156347107Y-189154619D01*
X156317369Y-189060302D01*
X156314571Y-189049858D01*
X156252084Y-188767999D01*
X156225344Y-188647382D01*
X156223467Y-188636732D01*
X156169658Y-188228011D01*
X156168718Y-188217276D01*
X156150618Y-187802702D01*
X156150500Y-187797293D01*
X156150500Y-187603499D01*
X156499500Y-187603499D01*
X156499500Y-187996500D01*
X156533751Y-188387995D01*
X156533751Y-188387999D01*
X156600756Y-188767999D01*
X156601993Y-188775015D01*
X156703707Y-189154616D01*
X156812793Y-189454327D01*
X156838124Y-189523921D01*
X157004195Y-189880062D01*
X157004207Y-189880086D01*
X157142320Y-190119305D01*
X157200423Y-190219942D01*
X157200695Y-190220412D01*
X157200704Y-190220427D01*
X157426115Y-190542347D01*
X157618793Y-190771971D01*
X157678722Y-190843391D01*
X157956609Y-191121278D01*
X158063738Y-191211170D01*
X158257652Y-191373884D01*
X158257658Y-191373888D01*
X158257659Y-191373889D01*
X158579579Y-191599300D01*
X158919920Y-191795796D01*
X158919934Y-191795802D01*
X158919937Y-191795804D01*
X159276078Y-191961875D01*
X159276083Y-191961876D01*
X159276092Y-191961881D01*
X159645384Y-192096293D01*
X160024985Y-192198007D01*
X160412007Y-192266249D01*
X160803502Y-192300499D01*
X160803503Y-192300500D01*
X160803504Y-192300500D01*
X161196497Y-192300500D01*
X161196497Y-192300499D01*
X161587993Y-192266249D01*
X161975015Y-192198007D01*
X162354616Y-192096293D01*
X162723908Y-191961881D01*
X163080080Y-191795796D01*
X163420421Y-191599300D01*
X163742341Y-191373889D01*
X164043391Y-191121278D01*
X164321278Y-190843391D01*
X164573889Y-190542341D01*
X164799300Y-190220421D01*
X164995796Y-189880080D01*
X165161881Y-189523908D01*
X165296293Y-189154616D01*
X165398007Y-188775015D01*
X165466249Y-188387993D01*
X165500500Y-187996496D01*
X165500500Y-187603504D01*
X165466249Y-187212007D01*
X165398237Y-186826290D01*
X173513400Y-186826290D01*
X173513400Y-187808709D01*
X173554042Y-188013026D01*
X173554293Y-188014287D01*
X173634507Y-188207940D01*
X173692733Y-188295082D01*
X173750960Y-188382226D01*
X173899173Y-188530439D01*
X173899176Y-188530441D01*
X174073460Y-188646893D01*
X174267113Y-188727107D01*
X174472690Y-188767999D01*
X174472693Y-188768000D01*
X174472695Y-188768000D01*
X174682307Y-188768000D01*
X174682308Y-188767999D01*
X174887887Y-188727107D01*
X175081540Y-188646893D01*
X175255824Y-188530441D01*
X175404041Y-188382224D01*
X175520493Y-188207940D01*
X175600707Y-188014287D01*
X175641600Y-187808705D01*
X175641600Y-186826295D01*
X175641600Y-186826292D01*
X175641599Y-186826290D01*
X176053400Y-186826290D01*
X176053400Y-187808709D01*
X176094042Y-188013026D01*
X176094293Y-188014287D01*
X176174507Y-188207940D01*
X176232733Y-188295082D01*
X176290960Y-188382226D01*
X176439173Y-188530439D01*
X176439176Y-188530441D01*
X176613460Y-188646893D01*
X176807113Y-188727107D01*
X177012690Y-188767999D01*
X177012693Y-188768000D01*
X177012695Y-188768000D01*
X177222307Y-188768000D01*
X177222308Y-188767999D01*
X177427887Y-188727107D01*
X177621540Y-188646893D01*
X177795824Y-188530441D01*
X177944041Y-188382224D01*
X178060493Y-188207940D01*
X178140707Y-188014287D01*
X178181600Y-187808705D01*
X178181600Y-186826295D01*
X178181600Y-186826292D01*
X178181599Y-186826290D01*
X178593400Y-186826290D01*
X178593400Y-187808709D01*
X178634042Y-188013026D01*
X178634293Y-188014287D01*
X178714507Y-188207940D01*
X178772733Y-188295082D01*
X178830960Y-188382226D01*
X178979173Y-188530439D01*
X178979176Y-188530441D01*
X179153460Y-188646893D01*
X179347113Y-188727107D01*
X179552690Y-188767999D01*
X179552693Y-188768000D01*
X179552695Y-188768000D01*
X179762307Y-188768000D01*
X179762308Y-188767999D01*
X179967887Y-188727107D01*
X180161540Y-188646893D01*
X180335824Y-188530441D01*
X180484041Y-188382224D01*
X180600493Y-188207940D01*
X180680707Y-188014287D01*
X180721600Y-187808705D01*
X180721600Y-186826295D01*
X180721600Y-186826292D01*
X180721599Y-186826290D01*
X181133401Y-186826290D01*
X181133401Y-187808709D01*
X181174043Y-188013026D01*
X181174294Y-188014287D01*
X181254508Y-188207940D01*
X181312734Y-188295082D01*
X181370961Y-188382226D01*
X181519174Y-188530439D01*
X181519177Y-188530441D01*
X181693461Y-188646893D01*
X181887114Y-188727107D01*
X182092691Y-188767999D01*
X182092694Y-188768000D01*
X182092696Y-188768000D01*
X182302308Y-188768000D01*
X182302309Y-188767999D01*
X182507888Y-188727107D01*
X182701541Y-188646893D01*
X182875825Y-188530441D01*
X183024042Y-188382224D01*
X183140494Y-188207940D01*
X183220708Y-188014287D01*
X183261601Y-187808705D01*
X183261601Y-186826295D01*
X183261601Y-186826292D01*
X183261600Y-186826290D01*
X183673400Y-186826290D01*
X183673400Y-187808709D01*
X183714042Y-188013026D01*
X183714293Y-188014287D01*
X183794507Y-188207940D01*
X183852733Y-188295082D01*
X183910960Y-188382226D01*
X184059173Y-188530439D01*
X184059176Y-188530441D01*
X184233460Y-188646893D01*
X184427113Y-188727107D01*
X184632690Y-188767999D01*
X184632693Y-188768000D01*
X184632695Y-188768000D01*
X184842307Y-188768000D01*
X184842308Y-188767999D01*
X185047887Y-188727107D01*
X185241540Y-188646893D01*
X185415824Y-188530441D01*
X185564041Y-188382224D01*
X185680493Y-188207940D01*
X185760707Y-188014287D01*
X185801600Y-187808705D01*
X185801600Y-186826295D01*
X185801600Y-186826292D01*
X185801599Y-186826290D01*
X186213400Y-186826290D01*
X186213400Y-187808709D01*
X186254042Y-188013026D01*
X186254293Y-188014287D01*
X186334507Y-188207940D01*
X186392733Y-188295082D01*
X186450960Y-188382226D01*
X186599173Y-188530439D01*
X186599176Y-188530441D01*
X186773460Y-188646893D01*
X186967113Y-188727107D01*
X187172690Y-188767999D01*
X187172693Y-188768000D01*
X187172695Y-188768000D01*
X187382307Y-188768000D01*
X187382308Y-188767999D01*
X187587887Y-188727107D01*
X187781540Y-188646893D01*
X187955824Y-188530441D01*
X188104041Y-188382224D01*
X188220493Y-188207940D01*
X188300707Y-188014287D01*
X188341600Y-187808705D01*
X188341600Y-186826295D01*
X188341600Y-186826292D01*
X188341599Y-186826290D01*
X188753400Y-186826290D01*
X188753400Y-187808709D01*
X188794042Y-188013026D01*
X188794293Y-188014287D01*
X188874507Y-188207940D01*
X188932733Y-188295082D01*
X188990960Y-188382226D01*
X189139173Y-188530439D01*
X189139176Y-188530441D01*
X189313460Y-188646893D01*
X189507113Y-188727107D01*
X189712690Y-188767999D01*
X189712693Y-188768000D01*
X189712695Y-188768000D01*
X189922307Y-188768000D01*
X189922308Y-188767999D01*
X190127887Y-188727107D01*
X190321540Y-188646893D01*
X190495824Y-188530441D01*
X190644041Y-188382224D01*
X190760493Y-188207940D01*
X190840707Y-188014287D01*
X190881600Y-187808705D01*
X190881600Y-186826295D01*
X190881600Y-186826292D01*
X190881599Y-186826290D01*
X191293399Y-186826290D01*
X191293399Y-187808709D01*
X191334041Y-188013026D01*
X191334292Y-188014287D01*
X191414506Y-188207940D01*
X191472732Y-188295082D01*
X191530959Y-188382226D01*
X191679172Y-188530439D01*
X191679175Y-188530441D01*
X191853459Y-188646893D01*
X192047112Y-188727107D01*
X192252689Y-188767999D01*
X192252692Y-188768000D01*
X192252694Y-188768000D01*
X192462306Y-188768000D01*
X192462307Y-188767999D01*
X192667886Y-188727107D01*
X192861539Y-188646893D01*
X193035823Y-188530441D01*
X193184040Y-188382224D01*
X193300492Y-188207940D01*
X193380706Y-188014287D01*
X193421599Y-187808705D01*
X193421599Y-186826295D01*
X193421599Y-186826292D01*
X193421598Y-186826290D01*
X195357399Y-186826290D01*
X195357399Y-187808709D01*
X195398041Y-188013026D01*
X195398292Y-188014287D01*
X195478506Y-188207940D01*
X195536732Y-188295082D01*
X195594959Y-188382226D01*
X195743172Y-188530439D01*
X195743175Y-188530441D01*
X195917459Y-188646893D01*
X196111112Y-188727107D01*
X196316689Y-188767999D01*
X196316692Y-188768000D01*
X196316694Y-188768000D01*
X196526306Y-188768000D01*
X196526307Y-188767999D01*
X196731886Y-188727107D01*
X196925539Y-188646893D01*
X197099823Y-188530441D01*
X197248040Y-188382224D01*
X197364492Y-188207940D01*
X197444706Y-188014287D01*
X197485599Y-187808705D01*
X197485599Y-186826295D01*
X197485599Y-186826292D01*
X197485598Y-186826290D01*
X197897400Y-186826290D01*
X197897400Y-187808709D01*
X197938042Y-188013026D01*
X197938293Y-188014287D01*
X198018507Y-188207940D01*
X198076733Y-188295082D01*
X198134960Y-188382226D01*
X198283173Y-188530439D01*
X198283176Y-188530441D01*
X198457460Y-188646893D01*
X198651113Y-188727107D01*
X198856690Y-188767999D01*
X198856693Y-188768000D01*
X198856695Y-188768000D01*
X199066307Y-188768000D01*
X199066308Y-188767999D01*
X199271887Y-188727107D01*
X199465540Y-188646893D01*
X199639824Y-188530441D01*
X199788041Y-188382224D01*
X199904493Y-188207940D01*
X199984707Y-188014287D01*
X200025600Y-187808705D01*
X200025600Y-186826295D01*
X200025600Y-186826292D01*
X200025599Y-186826290D01*
X200437400Y-186826290D01*
X200437400Y-187808709D01*
X200478042Y-188013026D01*
X200478293Y-188014287D01*
X200558507Y-188207940D01*
X200616733Y-188295082D01*
X200674960Y-188382226D01*
X200823173Y-188530439D01*
X200823176Y-188530441D01*
X200997460Y-188646893D01*
X201191113Y-188727107D01*
X201396690Y-188767999D01*
X201396693Y-188768000D01*
X201396695Y-188768000D01*
X201606307Y-188768000D01*
X201606308Y-188767999D01*
X201811887Y-188727107D01*
X202005540Y-188646893D01*
X202179824Y-188530441D01*
X202328041Y-188382224D01*
X202444493Y-188207940D01*
X202524707Y-188014287D01*
X202565600Y-187808705D01*
X202565600Y-186826295D01*
X202565600Y-186826292D01*
X202565599Y-186826290D01*
X202977400Y-186826290D01*
X202977400Y-187808709D01*
X203018042Y-188013026D01*
X203018293Y-188014287D01*
X203098507Y-188207940D01*
X203156733Y-188295082D01*
X203214960Y-188382226D01*
X203363173Y-188530439D01*
X203363176Y-188530441D01*
X203537460Y-188646893D01*
X203731113Y-188727107D01*
X203936690Y-188767999D01*
X203936693Y-188768000D01*
X203936695Y-188768000D01*
X204146307Y-188768000D01*
X204146308Y-188767999D01*
X204351887Y-188727107D01*
X204545540Y-188646893D01*
X204719824Y-188530441D01*
X204868041Y-188382224D01*
X204984493Y-188207940D01*
X205064707Y-188014287D01*
X205105600Y-187808705D01*
X205105600Y-186826295D01*
X205105600Y-186826292D01*
X205105599Y-186826290D01*
X205517400Y-186826290D01*
X205517400Y-187808709D01*
X205558042Y-188013026D01*
X205558293Y-188014287D01*
X205638507Y-188207940D01*
X205696733Y-188295082D01*
X205754960Y-188382226D01*
X205903173Y-188530439D01*
X205903176Y-188530441D01*
X206077460Y-188646893D01*
X206271113Y-188727107D01*
X206476690Y-188767999D01*
X206476693Y-188768000D01*
X206476695Y-188768000D01*
X206686307Y-188768000D01*
X206686308Y-188767999D01*
X206891887Y-188727107D01*
X207085540Y-188646893D01*
X207259824Y-188530441D01*
X207408041Y-188382224D01*
X207524493Y-188207940D01*
X207604707Y-188014287D01*
X207645600Y-187808705D01*
X207645600Y-186826295D01*
X207645600Y-186826292D01*
X207645599Y-186826290D01*
X208057401Y-186826290D01*
X208057401Y-187808709D01*
X208098043Y-188013026D01*
X208098294Y-188014287D01*
X208178508Y-188207940D01*
X208236734Y-188295082D01*
X208294961Y-188382226D01*
X208443174Y-188530439D01*
X208443177Y-188530441D01*
X208617461Y-188646893D01*
X208811114Y-188727107D01*
X209016691Y-188767999D01*
X209016694Y-188768000D01*
X209016696Y-188768000D01*
X209226308Y-188768000D01*
X209226309Y-188767999D01*
X209431888Y-188727107D01*
X209625541Y-188646893D01*
X209799825Y-188530441D01*
X209948042Y-188382224D01*
X210064494Y-188207940D01*
X210144708Y-188014287D01*
X210185601Y-187808705D01*
X210185601Y-186826295D01*
X210185601Y-186826292D01*
X210185600Y-186826290D01*
X210597400Y-186826290D01*
X210597400Y-187808709D01*
X210638042Y-188013026D01*
X210638293Y-188014287D01*
X210718507Y-188207940D01*
X210776733Y-188295082D01*
X210834960Y-188382226D01*
X210983173Y-188530439D01*
X210983176Y-188530441D01*
X211157460Y-188646893D01*
X211351113Y-188727107D01*
X211556690Y-188767999D01*
X211556693Y-188768000D01*
X211556695Y-188768000D01*
X211766307Y-188768000D01*
X211766308Y-188767999D01*
X211971887Y-188727107D01*
X212165540Y-188646893D01*
X212339824Y-188530441D01*
X212488041Y-188382224D01*
X212604493Y-188207940D01*
X212684707Y-188014287D01*
X212725600Y-187808705D01*
X212725600Y-186826295D01*
X212725600Y-186826292D01*
X212725599Y-186826290D01*
X213137400Y-186826290D01*
X213137400Y-187808709D01*
X213178042Y-188013026D01*
X213178293Y-188014287D01*
X213258507Y-188207940D01*
X213316733Y-188295082D01*
X213374960Y-188382226D01*
X213523173Y-188530439D01*
X213523176Y-188530441D01*
X213697460Y-188646893D01*
X213891113Y-188727107D01*
X214096690Y-188767999D01*
X214096693Y-188768000D01*
X214096695Y-188768000D01*
X214306307Y-188768000D01*
X214306308Y-188767999D01*
X214511887Y-188727107D01*
X214705540Y-188646893D01*
X214879824Y-188530441D01*
X215028041Y-188382224D01*
X215144493Y-188207940D01*
X215224707Y-188014287D01*
X215265600Y-187808705D01*
X215265600Y-186826295D01*
X215265600Y-186826292D01*
X215265599Y-186826290D01*
X215677400Y-186826290D01*
X215677400Y-187808709D01*
X215718042Y-188013026D01*
X215718293Y-188014287D01*
X215798507Y-188207940D01*
X215856733Y-188295082D01*
X215914960Y-188382226D01*
X216063173Y-188530439D01*
X216063176Y-188530441D01*
X216237460Y-188646893D01*
X216431113Y-188727107D01*
X216636690Y-188767999D01*
X216636693Y-188768000D01*
X216636695Y-188768000D01*
X216846307Y-188768000D01*
X216846308Y-188767999D01*
X217051887Y-188727107D01*
X217245540Y-188646893D01*
X217419824Y-188530441D01*
X217568041Y-188382224D01*
X217684493Y-188207940D01*
X217764707Y-188014287D01*
X217805600Y-187808705D01*
X217805600Y-186826295D01*
X217805600Y-186826292D01*
X217805599Y-186826290D01*
X218217399Y-186826290D01*
X218217399Y-187808709D01*
X218258041Y-188013026D01*
X218258292Y-188014287D01*
X218338506Y-188207940D01*
X218396732Y-188295082D01*
X218454959Y-188382226D01*
X218603172Y-188530439D01*
X218603175Y-188530441D01*
X218777459Y-188646893D01*
X218971112Y-188727107D01*
X219176689Y-188767999D01*
X219176692Y-188768000D01*
X219176694Y-188768000D01*
X219386306Y-188768000D01*
X219386307Y-188767999D01*
X219591886Y-188727107D01*
X219785539Y-188646893D01*
X219959823Y-188530441D01*
X220108040Y-188382224D01*
X220224492Y-188207940D01*
X220304706Y-188014287D01*
X220345599Y-187808705D01*
X220345599Y-187533918D01*
X239774500Y-187533918D01*
X239774500Y-187926919D01*
X239808751Y-188318414D01*
X239808751Y-188318418D01*
X239876991Y-188705424D01*
X239876993Y-188705435D01*
X239895637Y-188775015D01*
X239978707Y-189085035D01*
X240112805Y-189453465D01*
X240113124Y-189454340D01*
X240279195Y-189810481D01*
X240279207Y-189810505D01*
X240475695Y-190150831D01*
X240475704Y-190150846D01*
X240701115Y-190472766D01*
X240893793Y-190702390D01*
X240953722Y-190773810D01*
X241231609Y-191051697D01*
X241326847Y-191131611D01*
X241532652Y-191304303D01*
X241532658Y-191304307D01*
X241532659Y-191304308D01*
X241854579Y-191529719D01*
X242194920Y-191726215D01*
X242194934Y-191726221D01*
X242194937Y-191726223D01*
X242551078Y-191892294D01*
X242551083Y-191892295D01*
X242551092Y-191892300D01*
X242920384Y-192026712D01*
X243299985Y-192128426D01*
X243687007Y-192196668D01*
X244078502Y-192230918D01*
X244078503Y-192230919D01*
X244078504Y-192230919D01*
X244471497Y-192230919D01*
X244471497Y-192230918D01*
X244862993Y-192196668D01*
X245250015Y-192128426D01*
X245629616Y-192026712D01*
X245998908Y-191892300D01*
X246355080Y-191726215D01*
X246695421Y-191529719D01*
X247017341Y-191304308D01*
X247318391Y-191051697D01*
X247596278Y-190773810D01*
X247848889Y-190472760D01*
X248074300Y-190150840D01*
X248270796Y-189810499D01*
X248414278Y-189502797D01*
X248436875Y-189454340D01*
X248436875Y-189454339D01*
X248436881Y-189454327D01*
X248571293Y-189085035D01*
X248673007Y-188705434D01*
X248741249Y-188318412D01*
X248775500Y-187926915D01*
X248775500Y-187533923D01*
X248741249Y-187142426D01*
X248673007Y-186755404D01*
X248571293Y-186375803D01*
X248436881Y-186006511D01*
X248436876Y-186006502D01*
X248436875Y-186006497D01*
X248270804Y-185650356D01*
X248270792Y-185650332D01*
X248114477Y-185379587D01*
X248074300Y-185309998D01*
X247848889Y-184988078D01*
X247848888Y-184988077D01*
X247848884Y-184988071D01*
X247596275Y-184687025D01*
X247318393Y-184409143D01*
X247017347Y-184156534D01*
X246695427Y-183931123D01*
X246695424Y-183931121D01*
X246695421Y-183931119D01*
X246475598Y-183804204D01*
X246355086Y-183734626D01*
X246355062Y-183734614D01*
X245998921Y-183568543D01*
X245998910Y-183568539D01*
X245998908Y-183568538D01*
X245629616Y-183434126D01*
X245388960Y-183369642D01*
X245250016Y-183332412D01*
X245250005Y-183332410D01*
X244862997Y-183264170D01*
X244471500Y-183229919D01*
X244471496Y-183229919D01*
X244078504Y-183229919D01*
X244078499Y-183229919D01*
X243687004Y-183264170D01*
X243687000Y-183264170D01*
X243299994Y-183332410D01*
X243299983Y-183332412D01*
X243096555Y-183386921D01*
X242920384Y-183434126D01*
X242920381Y-183434127D01*
X242920380Y-183434127D01*
X242551078Y-183568543D01*
X242194937Y-183734614D01*
X242194913Y-183734626D01*
X241854587Y-183931114D01*
X241854572Y-183931123D01*
X241532652Y-184156534D01*
X241231606Y-184409143D01*
X240953724Y-184687025D01*
X240701115Y-184988071D01*
X240475704Y-185309991D01*
X240475695Y-185310006D01*
X240279207Y-185650332D01*
X240279195Y-185650356D01*
X240113124Y-186006497D01*
X240087799Y-186076078D01*
X239978707Y-186375803D01*
X239960063Y-186445384D01*
X239876993Y-186755402D01*
X239876991Y-186755413D01*
X239808751Y-187142419D01*
X239808751Y-187142423D01*
X239774500Y-187533918D01*
X220345599Y-187533918D01*
X220345599Y-186826295D01*
X220345599Y-186826292D01*
X220345598Y-186826290D01*
X220345338Y-186824981D01*
X220304706Y-186620713D01*
X220224492Y-186427060D01*
X220108040Y-186252776D01*
X220108038Y-186252773D01*
X219959825Y-186104560D01*
X219872681Y-186046333D01*
X219785539Y-185988107D01*
X219591886Y-185907893D01*
X219591878Y-185907891D01*
X219386307Y-185867000D01*
X219386304Y-185867000D01*
X219176694Y-185867000D01*
X219176691Y-185867000D01*
X218971119Y-185907891D01*
X218971111Y-185907893D01*
X218777460Y-185988106D01*
X218603172Y-186104560D01*
X218454959Y-186252773D01*
X218338505Y-186427061D01*
X218258292Y-186620712D01*
X218258290Y-186620720D01*
X218217399Y-186826290D01*
X217805599Y-186826290D01*
X217805339Y-186824981D01*
X217764707Y-186620713D01*
X217684493Y-186427060D01*
X217568041Y-186252776D01*
X217568039Y-186252773D01*
X217419826Y-186104560D01*
X217332682Y-186046333D01*
X217245540Y-185988107D01*
X217051887Y-185907893D01*
X217051879Y-185907891D01*
X216846308Y-185867000D01*
X216846305Y-185867000D01*
X216636695Y-185867000D01*
X216636692Y-185867000D01*
X216431120Y-185907891D01*
X216431112Y-185907893D01*
X216237461Y-185988106D01*
X216063173Y-186104560D01*
X215914960Y-186252773D01*
X215798506Y-186427061D01*
X215718293Y-186620712D01*
X215718291Y-186620720D01*
X215677400Y-186826290D01*
X215265599Y-186826290D01*
X215265339Y-186824981D01*
X215224707Y-186620713D01*
X215144493Y-186427060D01*
X215028041Y-186252776D01*
X215028039Y-186252773D01*
X214879826Y-186104560D01*
X214792682Y-186046333D01*
X214705540Y-185988107D01*
X214511887Y-185907893D01*
X214511879Y-185907891D01*
X214306308Y-185867000D01*
X214306305Y-185867000D01*
X214096695Y-185867000D01*
X214096692Y-185867000D01*
X213891120Y-185907891D01*
X213891112Y-185907893D01*
X213697461Y-185988106D01*
X213523173Y-186104560D01*
X213374960Y-186252773D01*
X213258506Y-186427061D01*
X213178293Y-186620712D01*
X213178291Y-186620720D01*
X213137400Y-186826290D01*
X212725599Y-186826290D01*
X212725339Y-186824981D01*
X212684707Y-186620713D01*
X212604493Y-186427060D01*
X212488041Y-186252776D01*
X212488039Y-186252773D01*
X212339826Y-186104560D01*
X212252682Y-186046333D01*
X212165540Y-185988107D01*
X211971887Y-185907893D01*
X211971879Y-185907891D01*
X211766308Y-185867000D01*
X211766305Y-185867000D01*
X211556695Y-185867000D01*
X211556692Y-185867000D01*
X211351120Y-185907891D01*
X211351112Y-185907893D01*
X211157461Y-185988106D01*
X210983173Y-186104560D01*
X210834960Y-186252773D01*
X210718506Y-186427061D01*
X210638293Y-186620712D01*
X210638291Y-186620720D01*
X210597400Y-186826290D01*
X210185600Y-186826290D01*
X210185340Y-186824981D01*
X210144708Y-186620713D01*
X210064494Y-186427060D01*
X209948042Y-186252776D01*
X209948040Y-186252773D01*
X209799827Y-186104560D01*
X209712683Y-186046333D01*
X209625541Y-185988107D01*
X209431888Y-185907893D01*
X209431880Y-185907891D01*
X209226309Y-185867000D01*
X209226306Y-185867000D01*
X209016696Y-185867000D01*
X209016693Y-185867000D01*
X208811121Y-185907891D01*
X208811113Y-185907893D01*
X208617462Y-185988106D01*
X208443174Y-186104560D01*
X208294961Y-186252773D01*
X208178507Y-186427061D01*
X208098294Y-186620712D01*
X208098292Y-186620720D01*
X208057401Y-186826290D01*
X207645599Y-186826290D01*
X207645339Y-186824981D01*
X207604707Y-186620713D01*
X207524493Y-186427060D01*
X207408041Y-186252776D01*
X207408039Y-186252773D01*
X207259826Y-186104560D01*
X207172682Y-186046333D01*
X207085540Y-185988107D01*
X206891887Y-185907893D01*
X206891879Y-185907891D01*
X206686308Y-185867000D01*
X206686305Y-185867000D01*
X206476695Y-185867000D01*
X206476692Y-185867000D01*
X206271120Y-185907891D01*
X206271112Y-185907893D01*
X206077461Y-185988106D01*
X205903173Y-186104560D01*
X205754960Y-186252773D01*
X205638506Y-186427061D01*
X205558293Y-186620712D01*
X205558291Y-186620720D01*
X205517400Y-186826290D01*
X205105599Y-186826290D01*
X205105339Y-186824981D01*
X205064707Y-186620713D01*
X204984493Y-186427060D01*
X204868041Y-186252776D01*
X204868039Y-186252773D01*
X204719826Y-186104560D01*
X204632682Y-186046333D01*
X204545540Y-185988107D01*
X204351887Y-185907893D01*
X204351879Y-185907891D01*
X204146308Y-185867000D01*
X204146305Y-185867000D01*
X203936695Y-185867000D01*
X203936692Y-185867000D01*
X203731120Y-185907891D01*
X203731112Y-185907893D01*
X203537461Y-185988106D01*
X203363173Y-186104560D01*
X203214960Y-186252773D01*
X203098506Y-186427061D01*
X203018293Y-186620712D01*
X203018291Y-186620720D01*
X202977400Y-186826290D01*
X202565599Y-186826290D01*
X202565339Y-186824981D01*
X202524707Y-186620713D01*
X202444493Y-186427060D01*
X202328041Y-186252776D01*
X202328039Y-186252773D01*
X202179826Y-186104560D01*
X202092682Y-186046333D01*
X202005540Y-185988107D01*
X201811887Y-185907893D01*
X201811879Y-185907891D01*
X201606308Y-185867000D01*
X201606305Y-185867000D01*
X201396695Y-185867000D01*
X201396692Y-185867000D01*
X201191120Y-185907891D01*
X201191112Y-185907893D01*
X200997461Y-185988106D01*
X200823173Y-186104560D01*
X200674960Y-186252773D01*
X200558506Y-186427061D01*
X200478293Y-186620712D01*
X200478291Y-186620720D01*
X200437400Y-186826290D01*
X200025599Y-186826290D01*
X200025339Y-186824981D01*
X199984707Y-186620713D01*
X199904493Y-186427060D01*
X199788041Y-186252776D01*
X199788039Y-186252773D01*
X199639826Y-186104560D01*
X199552682Y-186046333D01*
X199465540Y-185988107D01*
X199271887Y-185907893D01*
X199271879Y-185907891D01*
X199066308Y-185867000D01*
X199066305Y-185867000D01*
X198856695Y-185867000D01*
X198856692Y-185867000D01*
X198651120Y-185907891D01*
X198651112Y-185907893D01*
X198457461Y-185988106D01*
X198283173Y-186104560D01*
X198134960Y-186252773D01*
X198018506Y-186427061D01*
X197938293Y-186620712D01*
X197938291Y-186620720D01*
X197897400Y-186826290D01*
X197485598Y-186826290D01*
X197485338Y-186824981D01*
X197444706Y-186620713D01*
X197364492Y-186427060D01*
X197248040Y-186252776D01*
X197248038Y-186252773D01*
X197099825Y-186104560D01*
X197012681Y-186046333D01*
X196925539Y-185988107D01*
X196731886Y-185907893D01*
X196731878Y-185907891D01*
X196526307Y-185867000D01*
X196526304Y-185867000D01*
X196316694Y-185867000D01*
X196316691Y-185867000D01*
X196111119Y-185907891D01*
X196111111Y-185907893D01*
X195917460Y-185988106D01*
X195743172Y-186104560D01*
X195594959Y-186252773D01*
X195478505Y-186427061D01*
X195398292Y-186620712D01*
X195398290Y-186620720D01*
X195357399Y-186826290D01*
X193421598Y-186826290D01*
X193421338Y-186824981D01*
X193380706Y-186620713D01*
X193300492Y-186427060D01*
X193184040Y-186252776D01*
X193184038Y-186252773D01*
X193035825Y-186104560D01*
X192948681Y-186046333D01*
X192861539Y-185988107D01*
X192667886Y-185907893D01*
X192667878Y-185907891D01*
X192462307Y-185867000D01*
X192462304Y-185867000D01*
X192252694Y-185867000D01*
X192252691Y-185867000D01*
X192047119Y-185907891D01*
X192047111Y-185907893D01*
X191853460Y-185988106D01*
X191679172Y-186104560D01*
X191530959Y-186252773D01*
X191414505Y-186427061D01*
X191334292Y-186620712D01*
X191334290Y-186620720D01*
X191293399Y-186826290D01*
X190881599Y-186826290D01*
X190881339Y-186824981D01*
X190840707Y-186620713D01*
X190760493Y-186427060D01*
X190644041Y-186252776D01*
X190644039Y-186252773D01*
X190495826Y-186104560D01*
X190408682Y-186046333D01*
X190321540Y-185988107D01*
X190127887Y-185907893D01*
X190127879Y-185907891D01*
X189922308Y-185867000D01*
X189922305Y-185867000D01*
X189712695Y-185867000D01*
X189712692Y-185867000D01*
X189507120Y-185907891D01*
X189507112Y-185907893D01*
X189313461Y-185988106D01*
X189139173Y-186104560D01*
X188990960Y-186252773D01*
X188874506Y-186427061D01*
X188794293Y-186620712D01*
X188794291Y-186620720D01*
X188753400Y-186826290D01*
X188341599Y-186826290D01*
X188341339Y-186824981D01*
X188300707Y-186620713D01*
X188220493Y-186427060D01*
X188104041Y-186252776D01*
X188104039Y-186252773D01*
X187955826Y-186104560D01*
X187868682Y-186046333D01*
X187781540Y-185988107D01*
X187587887Y-185907893D01*
X187587879Y-185907891D01*
X187382308Y-185867000D01*
X187382305Y-185867000D01*
X187172695Y-185867000D01*
X187172692Y-185867000D01*
X186967120Y-185907891D01*
X186967112Y-185907893D01*
X186773461Y-185988106D01*
X186599173Y-186104560D01*
X186450960Y-186252773D01*
X186334506Y-186427061D01*
X186254293Y-186620712D01*
X186254291Y-186620720D01*
X186213400Y-186826290D01*
X185801599Y-186826290D01*
X185801339Y-186824981D01*
X185760707Y-186620713D01*
X185680493Y-186427060D01*
X185564041Y-186252776D01*
X185564039Y-186252773D01*
X185415826Y-186104560D01*
X185328682Y-186046333D01*
X185241540Y-185988107D01*
X185047887Y-185907893D01*
X185047879Y-185907891D01*
X184842308Y-185867000D01*
X184842305Y-185867000D01*
X184632695Y-185867000D01*
X184632692Y-185867000D01*
X184427120Y-185907891D01*
X184427112Y-185907893D01*
X184233461Y-185988106D01*
X184059173Y-186104560D01*
X183910960Y-186252773D01*
X183794506Y-186427061D01*
X183714293Y-186620712D01*
X183714291Y-186620720D01*
X183673400Y-186826290D01*
X183261600Y-186826290D01*
X183261340Y-186824981D01*
X183220708Y-186620713D01*
X183140494Y-186427060D01*
X183024042Y-186252776D01*
X183024040Y-186252773D01*
X182875827Y-186104560D01*
X182788683Y-186046333D01*
X182701541Y-185988107D01*
X182507888Y-185907893D01*
X182507880Y-185907891D01*
X182302309Y-185867000D01*
X182302306Y-185867000D01*
X182092696Y-185867000D01*
X182092693Y-185867000D01*
X181887121Y-185907891D01*
X181887113Y-185907893D01*
X181693462Y-185988106D01*
X181519174Y-186104560D01*
X181370961Y-186252773D01*
X181254507Y-186427061D01*
X181174294Y-186620712D01*
X181174292Y-186620720D01*
X181133401Y-186826290D01*
X180721599Y-186826290D01*
X180721339Y-186824981D01*
X180680707Y-186620713D01*
X180600493Y-186427060D01*
X180484041Y-186252776D01*
X180484039Y-186252773D01*
X180335826Y-186104560D01*
X180248682Y-186046333D01*
X180161540Y-185988107D01*
X179967887Y-185907893D01*
X179967879Y-185907891D01*
X179762308Y-185867000D01*
X179762305Y-185867000D01*
X179552695Y-185867000D01*
X179552692Y-185867000D01*
X179347120Y-185907891D01*
X179347112Y-185907893D01*
X179153461Y-185988106D01*
X178979173Y-186104560D01*
X178830960Y-186252773D01*
X178714506Y-186427061D01*
X178634293Y-186620712D01*
X178634291Y-186620720D01*
X178593400Y-186826290D01*
X178181599Y-186826290D01*
X178181339Y-186824981D01*
X178140707Y-186620713D01*
X178060493Y-186427060D01*
X177944041Y-186252776D01*
X177944039Y-186252773D01*
X177795826Y-186104560D01*
X177708682Y-186046333D01*
X177621540Y-185988107D01*
X177427887Y-185907893D01*
X177427879Y-185907891D01*
X177222308Y-185867000D01*
X177222305Y-185867000D01*
X177012695Y-185867000D01*
X177012692Y-185867000D01*
X176807120Y-185907891D01*
X176807112Y-185907893D01*
X176613461Y-185988106D01*
X176439173Y-186104560D01*
X176290960Y-186252773D01*
X176174506Y-186427061D01*
X176094293Y-186620712D01*
X176094291Y-186620720D01*
X176053400Y-186826290D01*
X175641599Y-186826290D01*
X175641339Y-186824981D01*
X175600707Y-186620713D01*
X175520493Y-186427060D01*
X175404041Y-186252776D01*
X175404039Y-186252773D01*
X175255826Y-186104560D01*
X175168682Y-186046333D01*
X175081540Y-185988107D01*
X174887887Y-185907893D01*
X174887879Y-185907891D01*
X174682308Y-185867000D01*
X174682305Y-185867000D01*
X174472695Y-185867000D01*
X174472692Y-185867000D01*
X174267120Y-185907891D01*
X174267112Y-185907893D01*
X174073461Y-185988106D01*
X173899173Y-186104560D01*
X173750960Y-186252773D01*
X173634506Y-186427061D01*
X173554293Y-186620712D01*
X173554291Y-186620720D01*
X173513400Y-186826290D01*
X165398237Y-186826290D01*
X165398007Y-186824985D01*
X165296293Y-186445384D01*
X165161881Y-186076092D01*
X165161876Y-186076083D01*
X165161875Y-186076078D01*
X164995804Y-185719937D01*
X164995792Y-185719913D01*
X164955619Y-185650332D01*
X164799300Y-185379579D01*
X164573889Y-185057659D01*
X164573888Y-185057658D01*
X164573884Y-185057652D01*
X164321275Y-184756606D01*
X164043393Y-184478724D01*
X163742347Y-184226115D01*
X163420427Y-184000704D01*
X163420424Y-184000702D01*
X163420421Y-184000700D01*
X163299895Y-183931114D01*
X163080086Y-183804207D01*
X163080062Y-183804195D01*
X162723921Y-183638124D01*
X162723910Y-183638120D01*
X162723908Y-183638119D01*
X162354616Y-183503707D01*
X162113960Y-183439223D01*
X161975016Y-183401993D01*
X161975005Y-183401991D01*
X161587997Y-183333751D01*
X161196500Y-183299500D01*
X161196496Y-183299500D01*
X160803504Y-183299500D01*
X160803499Y-183299500D01*
X160412004Y-183333751D01*
X160412000Y-183333751D01*
X160024994Y-183401991D01*
X160024983Y-183401993D01*
X159821555Y-183456502D01*
X159645384Y-183503707D01*
X159645381Y-183503708D01*
X159645380Y-183503708D01*
X159276078Y-183638124D01*
X158919937Y-183804195D01*
X158919913Y-183804207D01*
X158579587Y-184000695D01*
X158579572Y-184000704D01*
X158257652Y-184226115D01*
X157956606Y-184478724D01*
X157678724Y-184756606D01*
X157426115Y-185057652D01*
X157200704Y-185379572D01*
X157200695Y-185379587D01*
X157004207Y-185719913D01*
X157004195Y-185719937D01*
X156838124Y-186076078D01*
X156703708Y-186445380D01*
X156703708Y-186445382D01*
X156601993Y-186824983D01*
X156601991Y-186824994D01*
X156533751Y-187212000D01*
X156533751Y-187212004D01*
X156499500Y-187603499D01*
X156150500Y-187603499D01*
X156150500Y-182434108D01*
X178199500Y-182434108D01*
X178199500Y-182565891D01*
X178233608Y-182693187D01*
X178266554Y-182750250D01*
X178299500Y-182807314D01*
X178392686Y-182900500D01*
X178506814Y-182966392D01*
X178634108Y-183000500D01*
X178634110Y-183000500D01*
X178765890Y-183000500D01*
X178765892Y-183000500D01*
X178893186Y-182966392D01*
X179007314Y-182900500D01*
X179100500Y-182807314D01*
X179166392Y-182693186D01*
X179200500Y-182565892D01*
X179200500Y-182434108D01*
X179166392Y-182306814D01*
X179100500Y-182192686D01*
X179007314Y-182099500D01*
X178950250Y-182066554D01*
X178893187Y-182033608D01*
X178829539Y-182016554D01*
X178765892Y-181999500D01*
X178634108Y-181999500D01*
X178506812Y-182033608D01*
X178392686Y-182099500D01*
X178392683Y-182099502D01*
X178299502Y-182192683D01*
X178299500Y-182192686D01*
X178233608Y-182306812D01*
X178199500Y-182434108D01*
X156150500Y-182434108D01*
X156150500Y-180984108D01*
X161649500Y-180984108D01*
X161649500Y-181115891D01*
X161683608Y-181243187D01*
X161712476Y-181293186D01*
X161749500Y-181357314D01*
X161842686Y-181450500D01*
X161956814Y-181516392D01*
X162084108Y-181550500D01*
X162084110Y-181550500D01*
X162215890Y-181550500D01*
X162215892Y-181550500D01*
X162343186Y-181516392D01*
X162457314Y-181450500D01*
X162550500Y-181357314D01*
X162616392Y-181243186D01*
X162650500Y-181115892D01*
X162650500Y-181034108D01*
X169599500Y-181034108D01*
X169599500Y-181165891D01*
X169633608Y-181293187D01*
X169666554Y-181350250D01*
X169699500Y-181407314D01*
X169792686Y-181500500D01*
X169906814Y-181566392D01*
X170034108Y-181600500D01*
X170034110Y-181600500D01*
X170165890Y-181600500D01*
X170165892Y-181600500D01*
X170293186Y-181566392D01*
X170407314Y-181500500D01*
X170500500Y-181407314D01*
X170566392Y-181293186D01*
X170600500Y-181165892D01*
X170600500Y-181034108D01*
X170566392Y-180906814D01*
X170500500Y-180792686D01*
X170407314Y-180699500D01*
X170350250Y-180666554D01*
X170293187Y-180633608D01*
X170229539Y-180616554D01*
X170165892Y-180599500D01*
X170034108Y-180599500D01*
X169906812Y-180633608D01*
X169792686Y-180699500D01*
X169792683Y-180699502D01*
X169699502Y-180792683D01*
X169699500Y-180792686D01*
X169633608Y-180906812D01*
X169599500Y-181034108D01*
X162650500Y-181034108D01*
X162650500Y-180984108D01*
X162616392Y-180856814D01*
X162550500Y-180742686D01*
X162457314Y-180649500D01*
X162370712Y-180599500D01*
X162343187Y-180583608D01*
X162279539Y-180566554D01*
X162215892Y-180549500D01*
X162084108Y-180549500D01*
X161956812Y-180583608D01*
X161842686Y-180649500D01*
X161842683Y-180649502D01*
X161749502Y-180742683D01*
X161749500Y-180742686D01*
X161683608Y-180856812D01*
X161649500Y-180984108D01*
X156150500Y-180984108D01*
X156150500Y-180334108D01*
X176499500Y-180334108D01*
X176499500Y-180465891D01*
X176533608Y-180593187D01*
X176537253Y-180599500D01*
X176599500Y-180707314D01*
X176692686Y-180800500D01*
X176806814Y-180866392D01*
X176934108Y-180900500D01*
X176934110Y-180900500D01*
X177065890Y-180900500D01*
X177065892Y-180900500D01*
X177193186Y-180866392D01*
X177307314Y-180800500D01*
X177400500Y-180707314D01*
X177466392Y-180593186D01*
X177500500Y-180465892D01*
X177500500Y-180334108D01*
X177466392Y-180206814D01*
X177400500Y-180092686D01*
X177307314Y-179999500D01*
X177250250Y-179966554D01*
X177193187Y-179933608D01*
X177129539Y-179916554D01*
X177065892Y-179899500D01*
X176934108Y-179899500D01*
X176806812Y-179933608D01*
X176692686Y-179999500D01*
X176692683Y-179999502D01*
X176599502Y-180092683D01*
X176599500Y-180092686D01*
X176533608Y-180206812D01*
X176499500Y-180334108D01*
X156150500Y-180334108D01*
X156150500Y-179734108D01*
X217199500Y-179734108D01*
X217199500Y-179865891D01*
X217233608Y-179993187D01*
X217266554Y-180050250D01*
X217299500Y-180107314D01*
X217392686Y-180200500D01*
X217506814Y-180266392D01*
X217634108Y-180300500D01*
X217634110Y-180300500D01*
X217765890Y-180300500D01*
X217765892Y-180300500D01*
X217893186Y-180266392D01*
X218007314Y-180200500D01*
X218100500Y-180107314D01*
X218166392Y-179993186D01*
X218200500Y-179865892D01*
X218200500Y-179734108D01*
X218166392Y-179606814D01*
X218100500Y-179492686D01*
X218007314Y-179399500D01*
X217950250Y-179366554D01*
X217893187Y-179333608D01*
X217829539Y-179316554D01*
X217765892Y-179299500D01*
X217634108Y-179299500D01*
X217506812Y-179333608D01*
X217392686Y-179399500D01*
X217392683Y-179399502D01*
X217299502Y-179492683D01*
X217299500Y-179492686D01*
X217233608Y-179606812D01*
X217199500Y-179734108D01*
X156150500Y-179734108D01*
X156150500Y-175234108D01*
X167199500Y-175234108D01*
X167199500Y-175365891D01*
X167233608Y-175493187D01*
X167266554Y-175550250D01*
X167299500Y-175607314D01*
X167392686Y-175700500D01*
X167506814Y-175766392D01*
X167634108Y-175800500D01*
X167634110Y-175800500D01*
X167765890Y-175800500D01*
X167765892Y-175800500D01*
X167893186Y-175766392D01*
X167949103Y-175734108D01*
X236699500Y-175734108D01*
X236699500Y-175865891D01*
X236733608Y-175993187D01*
X236766554Y-176050250D01*
X236799500Y-176107314D01*
X236892686Y-176200500D01*
X237006814Y-176266392D01*
X237134108Y-176300500D01*
X237134110Y-176300500D01*
X237265890Y-176300500D01*
X237265892Y-176300500D01*
X237393186Y-176266392D01*
X237507314Y-176200500D01*
X237600500Y-176107314D01*
X237666392Y-175993186D01*
X237700500Y-175865892D01*
X237700500Y-175734108D01*
X237666392Y-175606814D01*
X237600500Y-175492686D01*
X237507314Y-175399500D01*
X237449100Y-175365890D01*
X237393187Y-175333608D01*
X237329539Y-175316554D01*
X237265892Y-175299500D01*
X237134108Y-175299500D01*
X237006812Y-175333608D01*
X236892686Y-175399500D01*
X236892683Y-175399502D01*
X236799502Y-175492683D01*
X236799500Y-175492686D01*
X236733608Y-175606812D01*
X236699500Y-175734108D01*
X167949103Y-175734108D01*
X168007314Y-175700500D01*
X168100500Y-175607314D01*
X168166392Y-175493186D01*
X168200500Y-175365892D01*
X168200500Y-175234108D01*
X168166392Y-175106814D01*
X168100500Y-174992686D01*
X168007314Y-174899500D01*
X167950250Y-174866554D01*
X167893187Y-174833608D01*
X167829539Y-174816554D01*
X167765892Y-174799500D01*
X167634108Y-174799500D01*
X167506812Y-174833608D01*
X167392686Y-174899500D01*
X167392683Y-174899502D01*
X167299502Y-174992683D01*
X167299500Y-174992686D01*
X167233608Y-175106812D01*
X167199500Y-175234108D01*
X156150500Y-175234108D01*
X156150500Y-172184108D01*
X169449500Y-172184108D01*
X169449500Y-172315891D01*
X169483608Y-172443187D01*
X169516554Y-172500250D01*
X169549500Y-172557314D01*
X169642686Y-172650500D01*
X169756814Y-172716392D01*
X169884108Y-172750500D01*
X169884110Y-172750500D01*
X170015890Y-172750500D01*
X170015892Y-172750500D01*
X170143186Y-172716392D01*
X170257314Y-172650500D01*
X170350500Y-172557314D01*
X170416392Y-172443186D01*
X170450500Y-172315892D01*
X170450500Y-172184108D01*
X170416392Y-172056814D01*
X170350500Y-171942686D01*
X170257314Y-171849500D01*
X170230654Y-171834108D01*
X220999500Y-171834108D01*
X220999500Y-171965891D01*
X221033608Y-172093187D01*
X221066554Y-172150250D01*
X221099500Y-172207314D01*
X221192686Y-172300500D01*
X221306814Y-172366392D01*
X221434108Y-172400500D01*
X221434110Y-172400500D01*
X221565890Y-172400500D01*
X221565892Y-172400500D01*
X221693186Y-172366392D01*
X221807314Y-172300500D01*
X221900500Y-172207314D01*
X221966392Y-172093186D01*
X222000500Y-171965892D01*
X222000500Y-171834108D01*
X221966392Y-171706814D01*
X221900500Y-171592686D01*
X221807314Y-171499500D01*
X221750250Y-171466554D01*
X221693187Y-171433608D01*
X221629539Y-171416554D01*
X221565892Y-171399500D01*
X221434108Y-171399500D01*
X221306812Y-171433608D01*
X221192686Y-171499500D01*
X221192683Y-171499502D01*
X221099502Y-171592683D01*
X221099500Y-171592686D01*
X221033608Y-171706812D01*
X220999500Y-171834108D01*
X170230654Y-171834108D01*
X170200250Y-171816554D01*
X170143187Y-171783608D01*
X170079539Y-171766554D01*
X170015892Y-171749500D01*
X169884108Y-171749500D01*
X169756812Y-171783608D01*
X169642686Y-171849500D01*
X169642683Y-171849502D01*
X169549502Y-171942683D01*
X169549500Y-171942686D01*
X169483608Y-172056812D01*
X169449500Y-172184108D01*
X156150500Y-172184108D01*
X156150500Y-170034108D01*
X166999500Y-170034108D01*
X166999500Y-170165892D01*
X167016554Y-170229539D01*
X167033608Y-170293187D01*
X167041475Y-170306812D01*
X167099500Y-170407314D01*
X167192686Y-170500500D01*
X167291521Y-170557563D01*
X167305944Y-170565890D01*
X167306814Y-170566392D01*
X167434108Y-170600500D01*
X167434110Y-170600500D01*
X167565890Y-170600500D01*
X167565892Y-170600500D01*
X167693186Y-170566392D01*
X167807314Y-170500500D01*
X167873706Y-170434108D01*
X168449500Y-170434108D01*
X168449500Y-170565891D01*
X168483608Y-170693187D01*
X168516554Y-170750250D01*
X168549500Y-170807314D01*
X168642686Y-170900500D01*
X168756814Y-170966392D01*
X168884108Y-171000500D01*
X168884110Y-171000500D01*
X169015890Y-171000500D01*
X169015892Y-171000500D01*
X169143186Y-170966392D01*
X169257314Y-170900500D01*
X169350500Y-170807314D01*
X169416392Y-170693186D01*
X169450500Y-170565892D01*
X169450500Y-170434108D01*
X169416392Y-170306814D01*
X169350500Y-170192686D01*
X169257314Y-170099500D01*
X169200250Y-170066554D01*
X169143187Y-170033608D01*
X169079539Y-170016554D01*
X169015892Y-169999500D01*
X168884108Y-169999500D01*
X168756812Y-170033608D01*
X168642686Y-170099500D01*
X168642683Y-170099502D01*
X168549502Y-170192683D01*
X168549500Y-170192686D01*
X168483608Y-170306812D01*
X168449500Y-170434108D01*
X167873706Y-170434108D01*
X167900500Y-170407314D01*
X167913023Y-170385622D01*
X167925520Y-170363980D01*
X167966390Y-170293189D01*
X167966392Y-170293186D01*
X168000500Y-170165892D01*
X168000500Y-170034108D01*
X167966392Y-169906814D01*
X167900500Y-169792686D01*
X167807314Y-169699500D01*
X167750250Y-169666554D01*
X167693187Y-169633608D01*
X167629539Y-169616554D01*
X167565892Y-169599500D01*
X167434108Y-169599500D01*
X167306812Y-169633608D01*
X167192686Y-169699500D01*
X167192683Y-169699502D01*
X167099502Y-169792683D01*
X167099500Y-169792686D01*
X167033608Y-169906812D01*
X167008773Y-169999500D01*
X166999500Y-170034108D01*
X156150500Y-170034108D01*
X156150500Y-167434108D01*
X164049500Y-167434108D01*
X164049500Y-167565891D01*
X164083608Y-167693187D01*
X164116554Y-167750250D01*
X164149500Y-167807314D01*
X164242686Y-167900500D01*
X164356814Y-167966392D01*
X164484108Y-168000500D01*
X164484110Y-168000500D01*
X164615890Y-168000500D01*
X164615892Y-168000500D01*
X164743186Y-167966392D01*
X164857314Y-167900500D01*
X164950500Y-167807314D01*
X165016392Y-167693186D01*
X165050500Y-167565892D01*
X165050500Y-167434108D01*
X165016392Y-167306814D01*
X164950500Y-167192686D01*
X164857314Y-167099500D01*
X164800250Y-167066554D01*
X164744053Y-167034108D01*
X245799500Y-167034108D01*
X245799500Y-167165892D01*
X245816554Y-167229539D01*
X245833608Y-167293187D01*
X245841475Y-167306812D01*
X245899500Y-167407314D01*
X245992686Y-167500500D01*
X246091521Y-167557563D01*
X246105944Y-167565890D01*
X246106814Y-167566392D01*
X246234108Y-167600500D01*
X246234110Y-167600500D01*
X246365890Y-167600500D01*
X246365892Y-167600500D01*
X246493186Y-167566392D01*
X246607314Y-167500500D01*
X246700500Y-167407314D01*
X246766392Y-167293186D01*
X246800500Y-167165892D01*
X246800500Y-167034108D01*
X246766392Y-166906814D01*
X246700500Y-166792686D01*
X246607314Y-166699500D01*
X246550250Y-166666554D01*
X246493187Y-166633608D01*
X246429539Y-166616554D01*
X246365892Y-166599500D01*
X246234108Y-166599500D01*
X246106812Y-166633608D01*
X245992686Y-166699500D01*
X245992683Y-166699502D01*
X245899502Y-166792683D01*
X245899500Y-166792686D01*
X245833608Y-166906812D01*
X245808773Y-166999500D01*
X245799500Y-167034108D01*
X164744053Y-167034108D01*
X164743187Y-167033608D01*
X164679539Y-167016554D01*
X164615892Y-166999500D01*
X164484108Y-166999500D01*
X164356812Y-167033608D01*
X164242686Y-167099500D01*
X164242683Y-167099502D01*
X164149502Y-167192683D01*
X164149500Y-167192686D01*
X164083608Y-167306812D01*
X164049500Y-167434108D01*
X156150500Y-167434108D01*
X156150500Y-166334108D01*
X232699500Y-166334108D01*
X232699500Y-166465891D01*
X232733608Y-166593187D01*
X232737253Y-166599500D01*
X232799500Y-166707314D01*
X232892686Y-166800500D01*
X233006814Y-166866392D01*
X233134108Y-166900500D01*
X233134110Y-166900500D01*
X233265890Y-166900500D01*
X233265892Y-166900500D01*
X233393186Y-166866392D01*
X233507314Y-166800500D01*
X233600500Y-166707314D01*
X233666392Y-166593186D01*
X233700500Y-166465892D01*
X233700500Y-166334108D01*
X233666392Y-166206814D01*
X233600500Y-166092686D01*
X233507314Y-165999500D01*
X233450250Y-165966554D01*
X233393187Y-165933608D01*
X233329539Y-165916554D01*
X233265892Y-165899500D01*
X233134108Y-165899500D01*
X233006812Y-165933608D01*
X232892686Y-165999500D01*
X232892683Y-165999502D01*
X232799502Y-166092683D01*
X232799500Y-166092686D01*
X232733608Y-166206812D01*
X232699500Y-166334108D01*
X156150500Y-166334108D01*
X156150500Y-159396530D01*
X160924500Y-159396530D01*
X160924500Y-159603469D01*
X160964868Y-159806412D01*
X160964870Y-159806420D01*
X161044058Y-159997596D01*
X161159024Y-160169657D01*
X161305342Y-160315975D01*
X161305345Y-160315977D01*
X161477402Y-160430941D01*
X161668580Y-160510130D01*
X161871530Y-160550499D01*
X161871534Y-160550500D01*
X161871535Y-160550500D01*
X162328466Y-160550500D01*
X162328467Y-160550499D01*
X162531420Y-160510130D01*
X162722598Y-160430941D01*
X162894655Y-160315977D01*
X163040977Y-160169655D01*
X163155941Y-159997598D01*
X163235130Y-159806420D01*
X163275500Y-159603465D01*
X163275500Y-159396535D01*
X163235130Y-159193580D01*
X163155941Y-159002402D01*
X163040977Y-158830345D01*
X163040975Y-158830342D01*
X162894657Y-158684024D01*
X162808626Y-158626541D01*
X162722598Y-158569059D01*
X162531420Y-158489870D01*
X162531412Y-158489868D01*
X162328469Y-158449500D01*
X162328465Y-158449500D01*
X161871535Y-158449500D01*
X161871530Y-158449500D01*
X161668587Y-158489868D01*
X161668579Y-158489870D01*
X161477403Y-158569058D01*
X161305342Y-158684024D01*
X161159024Y-158830342D01*
X161044058Y-159002403D01*
X160964870Y-159193579D01*
X160964868Y-159193587D01*
X160924500Y-159396530D01*
X156150500Y-159396530D01*
X156150500Y-156896530D01*
X160924500Y-156896530D01*
X160924500Y-157103469D01*
X160964868Y-157306412D01*
X160964870Y-157306420D01*
X161044058Y-157497596D01*
X161159024Y-157669657D01*
X161305342Y-157815975D01*
X161305345Y-157815977D01*
X161477402Y-157930941D01*
X161668580Y-158010130D01*
X161871530Y-158050499D01*
X161871534Y-158050500D01*
X161871535Y-158050500D01*
X162328466Y-158050500D01*
X162328467Y-158050499D01*
X162531420Y-158010130D01*
X162722598Y-157930941D01*
X162894655Y-157815977D01*
X163040977Y-157669655D01*
X163155941Y-157497598D01*
X163235130Y-157306420D01*
X163275500Y-157103465D01*
X163275500Y-156896535D01*
X163235130Y-156693580D01*
X163155941Y-156502402D01*
X163040977Y-156330345D01*
X163040975Y-156330342D01*
X162944741Y-156234108D01*
X183799500Y-156234108D01*
X183799500Y-156365891D01*
X183833608Y-156493187D01*
X183838929Y-156502403D01*
X183899500Y-156607314D01*
X183992686Y-156700500D01*
X184106814Y-156766392D01*
X184234108Y-156800500D01*
X184234110Y-156800500D01*
X184365890Y-156800500D01*
X184365892Y-156800500D01*
X184493186Y-156766392D01*
X184607314Y-156700500D01*
X184700500Y-156607314D01*
X184766392Y-156493186D01*
X184800500Y-156365892D01*
X184800500Y-156234108D01*
X184766392Y-156106814D01*
X184700500Y-155992686D01*
X184607314Y-155899500D01*
X184550250Y-155866554D01*
X184493187Y-155833608D01*
X184429539Y-155816554D01*
X184365892Y-155799500D01*
X184234108Y-155799500D01*
X184106812Y-155833608D01*
X183992686Y-155899500D01*
X183992683Y-155899502D01*
X183899502Y-155992683D01*
X183899500Y-155992686D01*
X183833608Y-156106812D01*
X183799500Y-156234108D01*
X162944741Y-156234108D01*
X162894657Y-156184024D01*
X162779100Y-156106812D01*
X162722598Y-156069059D01*
X162531420Y-155989870D01*
X162531412Y-155989868D01*
X162328469Y-155949500D01*
X162328465Y-155949500D01*
X161871535Y-155949500D01*
X161871530Y-155949500D01*
X161668587Y-155989868D01*
X161668579Y-155989870D01*
X161477403Y-156069058D01*
X161305342Y-156184024D01*
X161159024Y-156330342D01*
X161044058Y-156502403D01*
X160964870Y-156693579D01*
X160964868Y-156693587D01*
X160924500Y-156896530D01*
X156150500Y-156896530D01*
X156150500Y-154396530D01*
X160924500Y-154396530D01*
X160924500Y-154603469D01*
X160964868Y-154806412D01*
X160964870Y-154806420D01*
X161006661Y-154907313D01*
X161044059Y-154997598D01*
X161045998Y-155000500D01*
X161159024Y-155169657D01*
X161305342Y-155315975D01*
X161305345Y-155315977D01*
X161477402Y-155430941D01*
X161668580Y-155510130D01*
X161871530Y-155550499D01*
X161871534Y-155550500D01*
X161871535Y-155550500D01*
X162328466Y-155550500D01*
X162328467Y-155550499D01*
X162531420Y-155510130D01*
X162722598Y-155430941D01*
X162894655Y-155315977D01*
X163040977Y-155169655D01*
X163155941Y-154997598D01*
X163235130Y-154806420D01*
X163239472Y-154784586D01*
X163249514Y-154734108D01*
X199699500Y-154734108D01*
X199699500Y-154865892D01*
X199716554Y-154929539D01*
X199733608Y-154993187D01*
X199766554Y-155050250D01*
X199799500Y-155107314D01*
X199892686Y-155200500D01*
X200006814Y-155266392D01*
X200134108Y-155300500D01*
X200134110Y-155300500D01*
X200265890Y-155300500D01*
X200265892Y-155300500D01*
X200393186Y-155266392D01*
X200507314Y-155200500D01*
X200600500Y-155107314D01*
X200666392Y-154993186D01*
X200700500Y-154865892D01*
X200700500Y-154734108D01*
X200666392Y-154606814D01*
X200664461Y-154603469D01*
X200655520Y-154587982D01*
X200655519Y-154587981D01*
X200624415Y-154534108D01*
X215599500Y-154534108D01*
X215599500Y-154665892D01*
X215616554Y-154729539D01*
X215633608Y-154793187D01*
X215666554Y-154850250D01*
X215699500Y-154907314D01*
X215792686Y-155000500D01*
X215906814Y-155066392D01*
X216034108Y-155100500D01*
X216034110Y-155100500D01*
X216165890Y-155100500D01*
X216165892Y-155100500D01*
X216293186Y-155066392D01*
X216407314Y-155000500D01*
X216500500Y-154907314D01*
X216566392Y-154793186D01*
X216600500Y-154665892D01*
X216600500Y-154534108D01*
X216566392Y-154406814D01*
X216500500Y-154292686D01*
X216407314Y-154199500D01*
X216350250Y-154166554D01*
X216293187Y-154133608D01*
X216229539Y-154116554D01*
X216165892Y-154099500D01*
X216034108Y-154099500D01*
X215906812Y-154133608D01*
X215792686Y-154199500D01*
X215792683Y-154199502D01*
X215699502Y-154292683D01*
X215699500Y-154292686D01*
X215633608Y-154406812D01*
X215610600Y-154492683D01*
X215599500Y-154534108D01*
X200624415Y-154534108D01*
X200600500Y-154492686D01*
X200507314Y-154399500D01*
X200450250Y-154366554D01*
X200393187Y-154333608D01*
X200329539Y-154316554D01*
X200265892Y-154299500D01*
X200134108Y-154299500D01*
X200006812Y-154333608D01*
X199892686Y-154399500D01*
X199892683Y-154399502D01*
X199799502Y-154492683D01*
X199799500Y-154492686D01*
X199733608Y-154606812D01*
X199717778Y-154665892D01*
X199699500Y-154734108D01*
X163249514Y-154734108D01*
X163255943Y-154701789D01*
X163255943Y-154701788D01*
X163275499Y-154603469D01*
X163275500Y-154603466D01*
X163275500Y-154396534D01*
X163275499Y-154396530D01*
X163262983Y-154333608D01*
X163235130Y-154193580D01*
X163155941Y-154002402D01*
X163040977Y-153830345D01*
X163040975Y-153830342D01*
X162894657Y-153684024D01*
X162808626Y-153626541D01*
X162722598Y-153569059D01*
X162531420Y-153489870D01*
X162531412Y-153489868D01*
X162328469Y-153449500D01*
X162328465Y-153449500D01*
X161871535Y-153449500D01*
X161871530Y-153449500D01*
X161668587Y-153489868D01*
X161668579Y-153489870D01*
X161477403Y-153569058D01*
X161305342Y-153684024D01*
X161159024Y-153830342D01*
X161044058Y-154002403D01*
X160964870Y-154193579D01*
X160964868Y-154193587D01*
X160924500Y-154396530D01*
X156150500Y-154396530D01*
X156150500Y-151896530D01*
X160924500Y-151896530D01*
X160924500Y-152103469D01*
X160964868Y-152306412D01*
X160964870Y-152306420D01*
X161044058Y-152497596D01*
X161159024Y-152669657D01*
X161305342Y-152815975D01*
X161305345Y-152815977D01*
X161477402Y-152930941D01*
X161668580Y-153010130D01*
X161871530Y-153050499D01*
X161871534Y-153050500D01*
X161871535Y-153050500D01*
X162328466Y-153050500D01*
X162328467Y-153050499D01*
X162531420Y-153010130D01*
X162722598Y-152930941D01*
X162894655Y-152815977D01*
X163040977Y-152669655D01*
X163155941Y-152497598D01*
X163235130Y-152306420D01*
X163275500Y-152103465D01*
X163275500Y-151896535D01*
X163243191Y-151734108D01*
X169099500Y-151734108D01*
X169099500Y-151865892D01*
X169107711Y-151896535D01*
X169133608Y-151993187D01*
X169166554Y-152050250D01*
X169199500Y-152107314D01*
X169292686Y-152200500D01*
X169406814Y-152266392D01*
X169534108Y-152300500D01*
X169534110Y-152300500D01*
X169665890Y-152300500D01*
X169665892Y-152300500D01*
X169793186Y-152266392D01*
X169907314Y-152200500D01*
X170000500Y-152107314D01*
X170066392Y-151993186D01*
X170100500Y-151865892D01*
X170100500Y-151734108D01*
X170066392Y-151606814D01*
X170000500Y-151492686D01*
X169907314Y-151399500D01*
X169850250Y-151366554D01*
X169793187Y-151333608D01*
X169729539Y-151316554D01*
X169665892Y-151299500D01*
X169534108Y-151299500D01*
X169406812Y-151333608D01*
X169292686Y-151399500D01*
X169292683Y-151399502D01*
X169199502Y-151492683D01*
X169199500Y-151492686D01*
X169133608Y-151606812D01*
X169110359Y-151693580D01*
X169099500Y-151734108D01*
X163243191Y-151734108D01*
X163235130Y-151693580D01*
X163155941Y-151502402D01*
X163040977Y-151330345D01*
X163040975Y-151330342D01*
X162894657Y-151184024D01*
X162808626Y-151126541D01*
X162722598Y-151069059D01*
X162531420Y-150989870D01*
X162531412Y-150989868D01*
X162328469Y-150949500D01*
X162328465Y-150949500D01*
X161871535Y-150949500D01*
X161871530Y-150949500D01*
X161668587Y-150989868D01*
X161668579Y-150989870D01*
X161477403Y-151069058D01*
X161305342Y-151184024D01*
X161159024Y-151330342D01*
X161044058Y-151502403D01*
X160964870Y-151693579D01*
X160964868Y-151693587D01*
X160924500Y-151896530D01*
X156150500Y-151896530D01*
X156150500Y-139802706D01*
X156150618Y-139797297D01*
X156159079Y-139603503D01*
X156159079Y-139603499D01*
X156499500Y-139603499D01*
X156499500Y-139996500D01*
X156533751Y-140387995D01*
X156533751Y-140387999D01*
X156601991Y-140775005D01*
X156601993Y-140775015D01*
X156703707Y-141154616D01*
X156703708Y-141154618D01*
X156703708Y-141154619D01*
X156838124Y-141523921D01*
X157004195Y-141880062D01*
X157004207Y-141880086D01*
X157200695Y-142220412D01*
X157200704Y-142220427D01*
X157426115Y-142542347D01*
X157618793Y-142771971D01*
X157678722Y-142843391D01*
X157956609Y-143121278D01*
X158063738Y-143211170D01*
X158257652Y-143373884D01*
X158257658Y-143373888D01*
X158257659Y-143373889D01*
X158579579Y-143599300D01*
X158919920Y-143795796D01*
X158919934Y-143795802D01*
X158919937Y-143795804D01*
X159276078Y-143961875D01*
X159276083Y-143961876D01*
X159276092Y-143961881D01*
X159645384Y-144096293D01*
X160024985Y-144198007D01*
X160412007Y-144266249D01*
X160803502Y-144300499D01*
X160803503Y-144300500D01*
X160803504Y-144300500D01*
X161196497Y-144300500D01*
X161196497Y-144300499D01*
X161587993Y-144266249D01*
X161590024Y-144265891D01*
X161615311Y-144261432D01*
X161975015Y-144198007D01*
X162213489Y-144134108D01*
X205399500Y-144134108D01*
X205399500Y-144265892D01*
X205399596Y-144266249D01*
X205433608Y-144393187D01*
X205466554Y-144450250D01*
X205499500Y-144507314D01*
X205592686Y-144600500D01*
X205706814Y-144666392D01*
X205834108Y-144700500D01*
X205834110Y-144700500D01*
X205965890Y-144700500D01*
X205965892Y-144700500D01*
X206093186Y-144666392D01*
X206207314Y-144600500D01*
X206300500Y-144507314D01*
X206366392Y-144393186D01*
X206400500Y-144265892D01*
X206400500Y-144134108D01*
X206366392Y-144006814D01*
X206300500Y-143892686D01*
X206207314Y-143799500D01*
X206150250Y-143766554D01*
X206093187Y-143733608D01*
X206029539Y-143716554D01*
X205965892Y-143699500D01*
X205834108Y-143699500D01*
X205706812Y-143733608D01*
X205592686Y-143799500D01*
X205592683Y-143799502D01*
X205499502Y-143892683D01*
X205499500Y-143892686D01*
X205433608Y-144006812D01*
X205432899Y-144009459D01*
X205399500Y-144134108D01*
X162213489Y-144134108D01*
X162354616Y-144096293D01*
X162723908Y-143961881D01*
X163080080Y-143795796D01*
X163420421Y-143599300D01*
X163742341Y-143373889D01*
X164043391Y-143121278D01*
X164321278Y-142843391D01*
X164573889Y-142542341D01*
X164799300Y-142220421D01*
X164995796Y-141880080D01*
X165161881Y-141523908D01*
X165296293Y-141154616D01*
X165398007Y-140775015D01*
X165466249Y-140387993D01*
X165500500Y-139996496D01*
X165500500Y-139603504D01*
X165500500Y-139603499D01*
X239749500Y-139603499D01*
X239749500Y-139996500D01*
X239783751Y-140387995D01*
X239783751Y-140387999D01*
X239851991Y-140775005D01*
X239851993Y-140775015D01*
X239953707Y-141154616D01*
X239953708Y-141154618D01*
X239953708Y-141154619D01*
X240088124Y-141523921D01*
X240254195Y-141880062D01*
X240254207Y-141880086D01*
X240450695Y-142220412D01*
X240450704Y-142220427D01*
X240676115Y-142542347D01*
X240868793Y-142771971D01*
X240928722Y-142843391D01*
X241206609Y-143121278D01*
X241313738Y-143211170D01*
X241507652Y-143373884D01*
X241507658Y-143373888D01*
X241507659Y-143373889D01*
X241829579Y-143599300D01*
X242169920Y-143795796D01*
X242169934Y-143795802D01*
X242169937Y-143795804D01*
X242526078Y-143961875D01*
X242526083Y-143961876D01*
X242526092Y-143961881D01*
X242895384Y-144096293D01*
X243274985Y-144198007D01*
X243662007Y-144266249D01*
X244053502Y-144300499D01*
X244053503Y-144300500D01*
X244053504Y-144300500D01*
X244446497Y-144300500D01*
X244446497Y-144300499D01*
X244837993Y-144266249D01*
X244840024Y-144265891D01*
X244865311Y-144261432D01*
X245225015Y-144198007D01*
X245604616Y-144096293D01*
X245973908Y-143961881D01*
X246330080Y-143795796D01*
X246670421Y-143599300D01*
X246992341Y-143373889D01*
X247293391Y-143121278D01*
X247571278Y-142843391D01*
X247823889Y-142542341D01*
X248049300Y-142220421D01*
X248245796Y-141880080D01*
X248411881Y-141523908D01*
X248546293Y-141154616D01*
X248648007Y-140775015D01*
X248716249Y-140387993D01*
X248750500Y-139996496D01*
X248750500Y-139603504D01*
X248716249Y-139212007D01*
X248712930Y-139193186D01*
X248690485Y-139065890D01*
X248648007Y-138824985D01*
X248546293Y-138445384D01*
X248411881Y-138076092D01*
X248411876Y-138076083D01*
X248411875Y-138076078D01*
X248245804Y-137719937D01*
X248245792Y-137719913D01*
X248189379Y-137622203D01*
X248049300Y-137379579D01*
X247823889Y-137057659D01*
X247823888Y-137057658D01*
X247823884Y-137057652D01*
X247571275Y-136756606D01*
X247293393Y-136478724D01*
X247281076Y-136468389D01*
X247221971Y-136418793D01*
X246992347Y-136226115D01*
X246670427Y-136000704D01*
X246670424Y-136000702D01*
X246670421Y-136000700D01*
X246569305Y-135942320D01*
X246330086Y-135804207D01*
X246330062Y-135804195D01*
X245973921Y-135638124D01*
X245973910Y-135638120D01*
X245973908Y-135638119D01*
X245604616Y-135503707D01*
X245245049Y-135407361D01*
X245225016Y-135401993D01*
X245225005Y-135401991D01*
X244837997Y-135333751D01*
X244446500Y-135299500D01*
X244446496Y-135299500D01*
X244053504Y-135299500D01*
X244053499Y-135299500D01*
X243662004Y-135333751D01*
X243662000Y-135333751D01*
X243274994Y-135401991D01*
X243274983Y-135401993D01*
X243071555Y-135456502D01*
X242895384Y-135503707D01*
X242895381Y-135503708D01*
X242895380Y-135503708D01*
X242526078Y-135638124D01*
X242169937Y-135804195D01*
X242169913Y-135804207D01*
X241829587Y-136000695D01*
X241829572Y-136000704D01*
X241507652Y-136226115D01*
X241206606Y-136478724D01*
X240928724Y-136756606D01*
X240676115Y-137057652D01*
X240450704Y-137379572D01*
X240450695Y-137379587D01*
X240254207Y-137719913D01*
X240254195Y-137719937D01*
X240088124Y-138076078D01*
X240064359Y-138141373D01*
X239953707Y-138445384D01*
X239912412Y-138599500D01*
X239851993Y-138824983D01*
X239851991Y-138824994D01*
X239783751Y-139212000D01*
X239783751Y-139212004D01*
X239749500Y-139603499D01*
X165500500Y-139603499D01*
X165466249Y-139212007D01*
X165462930Y-139193186D01*
X165440485Y-139065890D01*
X165398007Y-138824985D01*
X165296293Y-138445384D01*
X165161881Y-138076092D01*
X165161876Y-138076083D01*
X165161875Y-138076078D01*
X164995804Y-137719937D01*
X164995792Y-137719913D01*
X164939379Y-137622203D01*
X164907098Y-137566290D01*
X173513400Y-137566290D01*
X173513400Y-138548709D01*
X173554291Y-138754279D01*
X173554293Y-138754287D01*
X173628777Y-138934108D01*
X173634507Y-138947940D01*
X173644748Y-138963267D01*
X173750960Y-139122226D01*
X173899173Y-139270439D01*
X173899176Y-139270441D01*
X174073460Y-139386893D01*
X174267113Y-139467107D01*
X174472690Y-139507999D01*
X174472693Y-139508000D01*
X174472695Y-139508000D01*
X174682307Y-139508000D01*
X174682308Y-139507999D01*
X174887887Y-139467107D01*
X175081540Y-139386893D01*
X175255824Y-139270441D01*
X175404041Y-139122224D01*
X175520493Y-138947940D01*
X175600707Y-138754287D01*
X175641600Y-138548705D01*
X175641600Y-137566295D01*
X175641600Y-137566292D01*
X175641599Y-137566290D01*
X176053400Y-137566290D01*
X176053400Y-138548709D01*
X176094291Y-138754279D01*
X176094293Y-138754287D01*
X176168777Y-138934108D01*
X176174507Y-138947940D01*
X176184748Y-138963267D01*
X176290960Y-139122226D01*
X176439173Y-139270439D01*
X176439176Y-139270441D01*
X176613460Y-139386893D01*
X176807113Y-139467107D01*
X177012690Y-139507999D01*
X177012693Y-139508000D01*
X177012695Y-139508000D01*
X177222307Y-139508000D01*
X177222308Y-139507999D01*
X177427887Y-139467107D01*
X177621540Y-139386893D01*
X177795824Y-139270441D01*
X177944041Y-139122224D01*
X178060493Y-138947940D01*
X178140707Y-138754287D01*
X178181600Y-138548705D01*
X178181600Y-137566295D01*
X178181600Y-137566292D01*
X178181599Y-137566290D01*
X178593400Y-137566290D01*
X178593400Y-138548709D01*
X178634291Y-138754279D01*
X178634293Y-138754287D01*
X178708777Y-138934108D01*
X178714507Y-138947940D01*
X178724748Y-138963267D01*
X178830960Y-139122226D01*
X178979173Y-139270439D01*
X178979176Y-139270441D01*
X179153460Y-139386893D01*
X179347113Y-139467107D01*
X179552690Y-139507999D01*
X179552693Y-139508000D01*
X179552695Y-139508000D01*
X179762307Y-139508000D01*
X179762308Y-139507999D01*
X179967887Y-139467107D01*
X180161540Y-139386893D01*
X180335824Y-139270441D01*
X180484041Y-139122224D01*
X180600493Y-138947940D01*
X180680707Y-138754287D01*
X180721600Y-138548705D01*
X180721600Y-137566295D01*
X180721600Y-137566292D01*
X180721599Y-137566290D01*
X181133400Y-137566290D01*
X181133400Y-138548709D01*
X181174291Y-138754279D01*
X181174293Y-138754287D01*
X181248777Y-138934108D01*
X181254507Y-138947940D01*
X181264748Y-138963267D01*
X181370960Y-139122226D01*
X181519173Y-139270439D01*
X181519176Y-139270441D01*
X181693460Y-139386893D01*
X181887113Y-139467107D01*
X182092690Y-139507999D01*
X182092693Y-139508000D01*
X182092695Y-139508000D01*
X182302307Y-139508000D01*
X182302308Y-139507999D01*
X182507887Y-139467107D01*
X182701540Y-139386893D01*
X182875824Y-139270441D01*
X183024041Y-139122224D01*
X183140493Y-138947940D01*
X183220707Y-138754287D01*
X183261600Y-138548705D01*
X183261600Y-137566295D01*
X183261600Y-137566292D01*
X183261599Y-137566290D01*
X183673400Y-137566290D01*
X183673400Y-138548709D01*
X183714291Y-138754279D01*
X183714293Y-138754287D01*
X183788777Y-138934108D01*
X183794507Y-138947940D01*
X183804748Y-138963267D01*
X183910960Y-139122226D01*
X184059173Y-139270439D01*
X184059176Y-139270441D01*
X184233460Y-139386893D01*
X184427113Y-139467107D01*
X184632690Y-139507999D01*
X184632693Y-139508000D01*
X184632695Y-139508000D01*
X184842307Y-139508000D01*
X184842308Y-139507999D01*
X185047887Y-139467107D01*
X185241540Y-139386893D01*
X185415824Y-139270441D01*
X185564041Y-139122224D01*
X185680493Y-138947940D01*
X185760707Y-138754287D01*
X185801600Y-138548705D01*
X185801600Y-137566295D01*
X185801600Y-137566292D01*
X185801599Y-137566290D01*
X186213400Y-137566290D01*
X186213400Y-138548709D01*
X186254291Y-138754279D01*
X186254293Y-138754287D01*
X186328777Y-138934108D01*
X186334507Y-138947940D01*
X186344748Y-138963267D01*
X186450960Y-139122226D01*
X186599173Y-139270439D01*
X186599176Y-139270441D01*
X186773460Y-139386893D01*
X186967113Y-139467107D01*
X187172690Y-139507999D01*
X187172693Y-139508000D01*
X187172695Y-139508000D01*
X187382307Y-139508000D01*
X187382308Y-139507999D01*
X187587887Y-139467107D01*
X187781540Y-139386893D01*
X187955824Y-139270441D01*
X188104041Y-139122224D01*
X188220493Y-138947940D01*
X188300707Y-138754287D01*
X188341600Y-138548705D01*
X188341600Y-137566295D01*
X188341600Y-137566292D01*
X188341599Y-137566290D01*
X191293400Y-137566290D01*
X191293400Y-138548709D01*
X191334291Y-138754279D01*
X191334293Y-138754287D01*
X191408777Y-138934108D01*
X191414507Y-138947940D01*
X191424748Y-138963267D01*
X191530960Y-139122226D01*
X191679173Y-139270439D01*
X191679176Y-139270441D01*
X191853460Y-139386893D01*
X192047113Y-139467107D01*
X192252690Y-139507999D01*
X192252693Y-139508000D01*
X192252695Y-139508000D01*
X192462307Y-139508000D01*
X192462308Y-139507999D01*
X192667887Y-139467107D01*
X192861540Y-139386893D01*
X193035824Y-139270441D01*
X193184041Y-139122224D01*
X193300493Y-138947940D01*
X193380707Y-138754287D01*
X193421600Y-138548705D01*
X193421600Y-137566295D01*
X193421600Y-137566292D01*
X193421599Y-137566290D01*
X193833400Y-137566290D01*
X193833400Y-138548709D01*
X193874291Y-138754279D01*
X193874293Y-138754287D01*
X193948777Y-138934108D01*
X193954507Y-138947940D01*
X193964748Y-138963267D01*
X194070960Y-139122226D01*
X194219173Y-139270439D01*
X194219176Y-139270441D01*
X194393460Y-139386893D01*
X194587113Y-139467107D01*
X194792690Y-139507999D01*
X194792693Y-139508000D01*
X194792695Y-139508000D01*
X195002307Y-139508000D01*
X195002308Y-139507999D01*
X195207887Y-139467107D01*
X195401540Y-139386893D01*
X195575824Y-139270441D01*
X195724041Y-139122224D01*
X195840493Y-138947940D01*
X195920707Y-138754287D01*
X195961600Y-138548705D01*
X195961600Y-137566295D01*
X195961600Y-137566292D01*
X195961599Y-137566290D01*
X196373400Y-137566290D01*
X196373400Y-138548709D01*
X196414291Y-138754279D01*
X196414293Y-138754287D01*
X196488777Y-138934108D01*
X196494507Y-138947940D01*
X196504748Y-138963267D01*
X196610960Y-139122226D01*
X196759173Y-139270439D01*
X196759176Y-139270441D01*
X196933460Y-139386893D01*
X197127113Y-139467107D01*
X197332690Y-139507999D01*
X197332693Y-139508000D01*
X197332695Y-139508000D01*
X197542307Y-139508000D01*
X197542308Y-139507999D01*
X197747887Y-139467107D01*
X197941540Y-139386893D01*
X198115824Y-139270441D01*
X198264041Y-139122224D01*
X198380493Y-138947940D01*
X198460707Y-138754287D01*
X198501600Y-138548705D01*
X198501600Y-137566295D01*
X198501600Y-137566292D01*
X198501599Y-137566290D01*
X201453400Y-137566290D01*
X201453400Y-138548709D01*
X201494291Y-138754279D01*
X201494293Y-138754287D01*
X201568777Y-138934108D01*
X201574507Y-138947940D01*
X201584748Y-138963267D01*
X201690960Y-139122226D01*
X201839173Y-139270439D01*
X201839176Y-139270441D01*
X202013460Y-139386893D01*
X202207113Y-139467107D01*
X202412690Y-139507999D01*
X202412693Y-139508000D01*
X202412695Y-139508000D01*
X202622307Y-139508000D01*
X202622308Y-139507999D01*
X202827887Y-139467107D01*
X203021540Y-139386893D01*
X203195824Y-139270441D01*
X203344041Y-139122224D01*
X203460493Y-138947940D01*
X203540707Y-138754287D01*
X203581600Y-138548705D01*
X203581600Y-137566295D01*
X203581600Y-137566292D01*
X203581599Y-137566290D01*
X203993400Y-137566290D01*
X203993400Y-138548709D01*
X204034291Y-138754279D01*
X204034293Y-138754287D01*
X204108777Y-138934108D01*
X204114507Y-138947940D01*
X204124748Y-138963267D01*
X204230960Y-139122226D01*
X204379173Y-139270439D01*
X204379176Y-139270441D01*
X204553460Y-139386893D01*
X204747113Y-139467107D01*
X204952690Y-139507999D01*
X204952693Y-139508000D01*
X204952695Y-139508000D01*
X205162307Y-139508000D01*
X205162308Y-139507999D01*
X205367887Y-139467107D01*
X205561540Y-139386893D01*
X205735824Y-139270441D01*
X205884041Y-139122224D01*
X206000493Y-138947940D01*
X206080707Y-138754287D01*
X206121600Y-138548705D01*
X206121600Y-137566295D01*
X206121600Y-137566292D01*
X206121599Y-137566290D01*
X206533400Y-137566290D01*
X206533400Y-138548709D01*
X206574291Y-138754279D01*
X206574293Y-138754287D01*
X206648777Y-138934108D01*
X206654507Y-138947940D01*
X206664748Y-138963267D01*
X206770960Y-139122226D01*
X206919173Y-139270439D01*
X206919176Y-139270441D01*
X207093460Y-139386893D01*
X207287113Y-139467107D01*
X207492690Y-139507999D01*
X207492693Y-139508000D01*
X207492695Y-139508000D01*
X207702307Y-139508000D01*
X207702308Y-139507999D01*
X207907887Y-139467107D01*
X208101540Y-139386893D01*
X208275824Y-139270441D01*
X208424041Y-139122224D01*
X208540493Y-138947940D01*
X208620707Y-138754287D01*
X208661600Y-138548705D01*
X208661600Y-137566295D01*
X208661600Y-137566292D01*
X208661599Y-137566290D01*
X209073400Y-137566290D01*
X209073400Y-138548709D01*
X209114291Y-138754279D01*
X209114293Y-138754287D01*
X209188777Y-138934108D01*
X209194507Y-138947940D01*
X209204748Y-138963267D01*
X209310960Y-139122226D01*
X209459173Y-139270439D01*
X209459176Y-139270441D01*
X209633460Y-139386893D01*
X209827113Y-139467107D01*
X210032690Y-139507999D01*
X210032693Y-139508000D01*
X210032695Y-139508000D01*
X210242307Y-139508000D01*
X210242308Y-139507999D01*
X210447887Y-139467107D01*
X210641540Y-139386893D01*
X210815824Y-139270441D01*
X210964041Y-139122224D01*
X211080493Y-138947940D01*
X211086222Y-138934108D01*
X235499500Y-138934108D01*
X235499500Y-139065891D01*
X235533608Y-139193187D01*
X235544474Y-139212007D01*
X235599500Y-139307314D01*
X235692686Y-139400500D01*
X235806814Y-139466392D01*
X235934108Y-139500500D01*
X235934110Y-139500500D01*
X236065890Y-139500500D01*
X236065892Y-139500500D01*
X236193186Y-139466392D01*
X236307314Y-139400500D01*
X236400500Y-139307314D01*
X236466392Y-139193186D01*
X236500500Y-139065892D01*
X236500500Y-138934108D01*
X236466392Y-138806814D01*
X236400500Y-138692686D01*
X236307314Y-138599500D01*
X236219342Y-138548709D01*
X236193187Y-138533608D01*
X236129539Y-138516554D01*
X236065892Y-138499500D01*
X235934108Y-138499500D01*
X235806812Y-138533608D01*
X235692686Y-138599500D01*
X235692683Y-138599502D01*
X235599502Y-138692683D01*
X235599500Y-138692686D01*
X235533608Y-138806812D01*
X235499500Y-138934108D01*
X211086222Y-138934108D01*
X211089883Y-138925268D01*
X211109245Y-138878528D01*
X211109245Y-138878526D01*
X211131419Y-138824994D01*
X211160707Y-138754287D01*
X211201600Y-138548705D01*
X211201600Y-137566295D01*
X211201600Y-137566292D01*
X211201599Y-137566290D01*
X211195571Y-137535984D01*
X211160707Y-137360713D01*
X211080493Y-137167060D01*
X210964041Y-136992776D01*
X210964039Y-136992773D01*
X210815826Y-136844560D01*
X210728682Y-136786333D01*
X210641540Y-136728107D01*
X210447887Y-136647893D01*
X210447879Y-136647891D01*
X210242308Y-136607000D01*
X210242305Y-136607000D01*
X210032695Y-136607000D01*
X210032692Y-136607000D01*
X209827120Y-136647891D01*
X209827112Y-136647893D01*
X209633461Y-136728106D01*
X209459173Y-136844560D01*
X209310960Y-136992773D01*
X209194506Y-137167061D01*
X209114293Y-137360712D01*
X209114291Y-137360720D01*
X209073400Y-137566290D01*
X208661599Y-137566290D01*
X208655571Y-137535984D01*
X208620707Y-137360713D01*
X208540493Y-137167060D01*
X208424041Y-136992776D01*
X208424039Y-136992773D01*
X208275826Y-136844560D01*
X208188682Y-136786333D01*
X208101540Y-136728107D01*
X207907887Y-136647893D01*
X207907879Y-136647891D01*
X207702308Y-136607000D01*
X207702305Y-136607000D01*
X207492695Y-136607000D01*
X207492692Y-136607000D01*
X207287120Y-136647891D01*
X207287112Y-136647893D01*
X207093461Y-136728106D01*
X206919173Y-136844560D01*
X206770960Y-136992773D01*
X206654506Y-137167061D01*
X206574293Y-137360712D01*
X206574291Y-137360720D01*
X206533400Y-137566290D01*
X206121599Y-137566290D01*
X206115571Y-137535984D01*
X206080707Y-137360713D01*
X206000493Y-137167060D01*
X205884041Y-136992776D01*
X205884039Y-136992773D01*
X205735826Y-136844560D01*
X205648682Y-136786333D01*
X205561540Y-136728107D01*
X205367887Y-136647893D01*
X205367879Y-136647891D01*
X205162308Y-136607000D01*
X205162305Y-136607000D01*
X204952695Y-136607000D01*
X204952692Y-136607000D01*
X204747120Y-136647891D01*
X204747112Y-136647893D01*
X204553461Y-136728106D01*
X204379173Y-136844560D01*
X204230960Y-136992773D01*
X204114506Y-137167061D01*
X204034293Y-137360712D01*
X204034291Y-137360720D01*
X203993400Y-137566290D01*
X203581599Y-137566290D01*
X203575571Y-137535984D01*
X203540707Y-137360713D01*
X203460493Y-137167060D01*
X203344041Y-136992776D01*
X203344039Y-136992773D01*
X203195826Y-136844560D01*
X203108682Y-136786333D01*
X203021540Y-136728107D01*
X202827887Y-136647893D01*
X202827879Y-136647891D01*
X202622308Y-136607000D01*
X202622305Y-136607000D01*
X202412695Y-136607000D01*
X202412692Y-136607000D01*
X202207120Y-136647891D01*
X202207112Y-136647893D01*
X202013461Y-136728106D01*
X201839173Y-136844560D01*
X201690960Y-136992773D01*
X201574506Y-137167061D01*
X201494293Y-137360712D01*
X201494291Y-137360720D01*
X201453400Y-137566290D01*
X198501599Y-137566290D01*
X198495571Y-137535984D01*
X198460707Y-137360713D01*
X198380493Y-137167060D01*
X198264041Y-136992776D01*
X198264039Y-136992773D01*
X198115826Y-136844560D01*
X198028682Y-136786333D01*
X197941540Y-136728107D01*
X197747887Y-136647893D01*
X197747879Y-136647891D01*
X197542308Y-136607000D01*
X197542305Y-136607000D01*
X197332695Y-136607000D01*
X197332692Y-136607000D01*
X197127120Y-136647891D01*
X197127112Y-136647893D01*
X196933461Y-136728106D01*
X196759173Y-136844560D01*
X196610960Y-136992773D01*
X196494506Y-137167061D01*
X196414293Y-137360712D01*
X196414291Y-137360720D01*
X196373400Y-137566290D01*
X195961599Y-137566290D01*
X195955571Y-137535984D01*
X195920707Y-137360713D01*
X195840493Y-137167060D01*
X195724041Y-136992776D01*
X195724039Y-136992773D01*
X195575826Y-136844560D01*
X195488682Y-136786333D01*
X195401540Y-136728107D01*
X195207887Y-136647893D01*
X195207879Y-136647891D01*
X195002308Y-136607000D01*
X195002305Y-136607000D01*
X194792695Y-136607000D01*
X194792692Y-136607000D01*
X194587120Y-136647891D01*
X194587112Y-136647893D01*
X194393461Y-136728106D01*
X194219173Y-136844560D01*
X194070960Y-136992773D01*
X193954506Y-137167061D01*
X193874293Y-137360712D01*
X193874291Y-137360720D01*
X193833400Y-137566290D01*
X193421599Y-137566290D01*
X193415571Y-137535984D01*
X193380707Y-137360713D01*
X193300493Y-137167060D01*
X193184041Y-136992776D01*
X193184039Y-136992773D01*
X193035826Y-136844560D01*
X192948682Y-136786333D01*
X192861540Y-136728107D01*
X192667887Y-136647893D01*
X192667879Y-136647891D01*
X192462308Y-136607000D01*
X192462305Y-136607000D01*
X192252695Y-136607000D01*
X192252692Y-136607000D01*
X192047120Y-136647891D01*
X192047112Y-136647893D01*
X191853461Y-136728106D01*
X191679173Y-136844560D01*
X191530960Y-136992773D01*
X191414506Y-137167061D01*
X191334293Y-137360712D01*
X191334291Y-137360720D01*
X191293400Y-137566290D01*
X188341599Y-137566290D01*
X188335571Y-137535984D01*
X188300707Y-137360713D01*
X188220493Y-137167060D01*
X188104041Y-136992776D01*
X188104039Y-136992773D01*
X187955826Y-136844560D01*
X187868682Y-136786333D01*
X187781540Y-136728107D01*
X187587887Y-136647893D01*
X187587879Y-136647891D01*
X187382308Y-136607000D01*
X187382305Y-136607000D01*
X187172695Y-136607000D01*
X187172692Y-136607000D01*
X186967120Y-136647891D01*
X186967112Y-136647893D01*
X186773461Y-136728106D01*
X186599173Y-136844560D01*
X186450960Y-136992773D01*
X186334506Y-137167061D01*
X186254293Y-137360712D01*
X186254291Y-137360720D01*
X186213400Y-137566290D01*
X185801599Y-137566290D01*
X185795571Y-137535984D01*
X185760707Y-137360713D01*
X185680493Y-137167060D01*
X185564041Y-136992776D01*
X185564039Y-136992773D01*
X185415826Y-136844560D01*
X185328682Y-136786333D01*
X185241540Y-136728107D01*
X185047887Y-136647893D01*
X185047879Y-136647891D01*
X184842308Y-136607000D01*
X184842305Y-136607000D01*
X184632695Y-136607000D01*
X184632692Y-136607000D01*
X184427120Y-136647891D01*
X184427112Y-136647893D01*
X184233461Y-136728106D01*
X184059173Y-136844560D01*
X183910960Y-136992773D01*
X183794506Y-137167061D01*
X183714293Y-137360712D01*
X183714291Y-137360720D01*
X183673400Y-137566290D01*
X183261599Y-137566290D01*
X183255571Y-137535984D01*
X183220707Y-137360713D01*
X183140493Y-137167060D01*
X183024041Y-136992776D01*
X183024039Y-136992773D01*
X182875826Y-136844560D01*
X182788682Y-136786333D01*
X182701540Y-136728107D01*
X182507887Y-136647893D01*
X182507879Y-136647891D01*
X182302308Y-136607000D01*
X182302305Y-136607000D01*
X182092695Y-136607000D01*
X182092692Y-136607000D01*
X181887120Y-136647891D01*
X181887112Y-136647893D01*
X181693461Y-136728106D01*
X181519173Y-136844560D01*
X181370960Y-136992773D01*
X181254506Y-137167061D01*
X181174293Y-137360712D01*
X181174291Y-137360720D01*
X181133400Y-137566290D01*
X180721599Y-137566290D01*
X180715571Y-137535984D01*
X180680707Y-137360713D01*
X180600493Y-137167060D01*
X180484041Y-136992776D01*
X180484039Y-136992773D01*
X180335826Y-136844560D01*
X180248682Y-136786333D01*
X180161540Y-136728107D01*
X179967887Y-136647893D01*
X179967879Y-136647891D01*
X179762308Y-136607000D01*
X179762305Y-136607000D01*
X179552695Y-136607000D01*
X179552692Y-136607000D01*
X179347120Y-136647891D01*
X179347112Y-136647893D01*
X179153461Y-136728106D01*
X178979173Y-136844560D01*
X178830960Y-136992773D01*
X178714506Y-137167061D01*
X178634293Y-137360712D01*
X178634291Y-137360720D01*
X178593400Y-137566290D01*
X178181599Y-137566290D01*
X178175571Y-137535984D01*
X178140707Y-137360713D01*
X178060493Y-137167060D01*
X177944041Y-136992776D01*
X177944039Y-136992773D01*
X177795826Y-136844560D01*
X177708682Y-136786333D01*
X177621540Y-136728107D01*
X177427887Y-136647893D01*
X177427879Y-136647891D01*
X177222308Y-136607000D01*
X177222305Y-136607000D01*
X177012695Y-136607000D01*
X177012692Y-136607000D01*
X176807120Y-136647891D01*
X176807112Y-136647893D01*
X176613461Y-136728106D01*
X176439173Y-136844560D01*
X176290960Y-136992773D01*
X176174506Y-137167061D01*
X176094293Y-137360712D01*
X176094291Y-137360720D01*
X176053400Y-137566290D01*
X175641599Y-137566290D01*
X175635571Y-137535984D01*
X175600707Y-137360713D01*
X175520493Y-137167060D01*
X175404041Y-136992776D01*
X175404039Y-136992773D01*
X175255826Y-136844560D01*
X175168682Y-136786333D01*
X175081540Y-136728107D01*
X174887887Y-136647893D01*
X174887879Y-136647891D01*
X174682308Y-136607000D01*
X174682305Y-136607000D01*
X174472695Y-136607000D01*
X174472692Y-136607000D01*
X174267120Y-136647891D01*
X174267112Y-136647893D01*
X174073461Y-136728106D01*
X173899173Y-136844560D01*
X173750960Y-136992773D01*
X173634506Y-137167061D01*
X173554293Y-137360712D01*
X173554291Y-137360720D01*
X173513400Y-137566290D01*
X164907098Y-137566290D01*
X164799300Y-137379579D01*
X164573889Y-137057659D01*
X164573888Y-137057658D01*
X164573884Y-137057652D01*
X164321275Y-136756606D01*
X164043393Y-136478724D01*
X164031076Y-136468389D01*
X163971971Y-136418793D01*
X163742347Y-136226115D01*
X163420427Y-136000704D01*
X163420424Y-136000702D01*
X163420421Y-136000700D01*
X163319305Y-135942320D01*
X163080086Y-135804207D01*
X163080062Y-135804195D01*
X162723921Y-135638124D01*
X162723910Y-135638120D01*
X162723908Y-135638119D01*
X162354616Y-135503707D01*
X161995049Y-135407361D01*
X161975016Y-135401993D01*
X161975005Y-135401991D01*
X161587997Y-135333751D01*
X161196500Y-135299500D01*
X161196496Y-135299500D01*
X160803504Y-135299500D01*
X160803499Y-135299500D01*
X160412004Y-135333751D01*
X160412000Y-135333751D01*
X160024994Y-135401991D01*
X160024983Y-135401993D01*
X159821555Y-135456502D01*
X159645384Y-135503707D01*
X159645381Y-135503708D01*
X159645380Y-135503708D01*
X159276078Y-135638124D01*
X158919937Y-135804195D01*
X158919913Y-135804207D01*
X158579587Y-136000695D01*
X158579572Y-136000704D01*
X158257652Y-136226115D01*
X157956606Y-136478724D01*
X157678724Y-136756606D01*
X157426115Y-137057652D01*
X157200704Y-137379572D01*
X157200695Y-137379587D01*
X157004207Y-137719913D01*
X157004195Y-137719937D01*
X156838124Y-138076078D01*
X156814359Y-138141373D01*
X156703707Y-138445384D01*
X156662412Y-138599500D01*
X156601993Y-138824983D01*
X156601991Y-138824994D01*
X156533751Y-139212000D01*
X156533751Y-139212004D01*
X156499500Y-139603499D01*
X156159079Y-139603499D01*
X156168718Y-139382721D01*
X156169658Y-139371990D01*
X156223468Y-138963255D01*
X156225345Y-138952614D01*
X156314574Y-138550128D01*
X156317368Y-138539702D01*
X156441338Y-138146518D01*
X156445024Y-138136390D01*
X156602795Y-137755496D01*
X156607353Y-137745722D01*
X156797713Y-137380045D01*
X156803108Y-137370700D01*
X157024622Y-137022992D01*
X157030812Y-137014152D01*
X157281780Y-136687084D01*
X157288718Y-136678815D01*
X157567238Y-136374866D01*
X157574866Y-136367238D01*
X157878815Y-136088718D01*
X157887084Y-136081780D01*
X158214152Y-135830812D01*
X158222992Y-135824622D01*
X158570700Y-135603108D01*
X158580045Y-135597713D01*
X158945722Y-135407353D01*
X158955496Y-135402795D01*
X159336390Y-135245024D01*
X159346518Y-135241338D01*
X159739702Y-135117368D01*
X159750128Y-135114574D01*
X160152621Y-135025343D01*
X160163255Y-135023468D01*
X160571990Y-134969658D01*
X160582721Y-134968718D01*
X160997297Y-134950617D01*
X161002706Y-134950500D01*
X161034351Y-134950500D01*
X175620064Y-134950500D01*
X239520064Y-134950500D01*
X244215649Y-134950500D01*
X244247294Y-134950500D01*
X244252702Y-134950617D01*
G37*
G04 #@! TD.AperFunction*
M02*
