G04 #@! TF.GenerationSoftware,KiCad,Pcbnew,9.0.7+1*
G04 #@! TF.CreationDate,2026-06-05T23:15:52+00:00*
G04 #@! TF.ProjectId,hw-module-gps,68772d6d-6f64-4756-9c65-2d6770732e6b,rev?*
G04 #@! TF.SameCoordinates,Original*
G04 #@! TF.FileFunction,Soldermask,Bot*
G04 #@! TF.FilePolarity,Negative*
%FSLAX46Y46*%
G04 Gerber Fmt 4.6, Leading zero omitted, Abs format (unit mm)*
G04 Created by KiCad (PCBNEW 9.0.7+1) date 2026-06-05 23:15:52*
%MOMM*%
%LPD*%
G01*
G04 APERTURE LIST*
%ADD10C,0.900000*%
%ADD11C,8.600000*%
%ADD12O,1.727200X2.500000*%
%ADD13O,1.950000X1.700000*%
G04 APERTURE END LIST*
D10*
X157775000Y-187800000D03*
X158719581Y-185519581D03*
X158719581Y-190080419D03*
X161000000Y-184575000D03*
D11*
X161000000Y-187800000D03*
D10*
X161000000Y-191025000D03*
X163280419Y-185519581D03*
X163280419Y-190080419D03*
X164225000Y-187800000D03*
D12*
X210137500Y-138057500D03*
X202517500Y-138057500D03*
X199977500Y-138057500D03*
X187277500Y-138057500D03*
X184737500Y-138057500D03*
X182197500Y-138057500D03*
X179657500Y-138057500D03*
X177117500Y-138057500D03*
X174577500Y-138057500D03*
X214201500Y-187317500D03*
X174577500Y-187317500D03*
X177117500Y-187317500D03*
X179657500Y-187317500D03*
X182197501Y-187317500D03*
X184737500Y-187317500D03*
X187277500Y-187317500D03*
X189817500Y-187317500D03*
X192357499Y-187317500D03*
X196421499Y-187317500D03*
X198961500Y-187317500D03*
X201501500Y-187317500D03*
X204041500Y-187317500D03*
X206581500Y-187317500D03*
X209121501Y-187317500D03*
X211661500Y-187317500D03*
X197437500Y-138057500D03*
X194897500Y-138057500D03*
X207597500Y-138057500D03*
X205057500Y-138057500D03*
X219281499Y-187317500D03*
X216741500Y-187317500D03*
X192357500Y-138057500D03*
D10*
X241050000Y-187730419D03*
X241994581Y-185450000D03*
X241994581Y-190010838D03*
X244275000Y-184505419D03*
D11*
X244275000Y-187730419D03*
D10*
X244275000Y-190955419D03*
X246555419Y-185450000D03*
X246555419Y-190010838D03*
X247500000Y-187730419D03*
X241025000Y-139800000D03*
X241969581Y-137519581D03*
X241969581Y-142080419D03*
X244250000Y-136575000D03*
D11*
X244250000Y-139800000D03*
D10*
X244250000Y-143025000D03*
X246530419Y-137519581D03*
X246530419Y-142080419D03*
X247475000Y-139800000D03*
G36*
G01*
X161375000Y-148650000D02*
X162825000Y-148650000D01*
G75*
G02*
X163075000Y-148900000I0J-250000D01*
G01*
X163075000Y-150100000D01*
G75*
G02*
X162825000Y-150350000I-250000J0D01*
G01*
X161375000Y-150350000D01*
G75*
G02*
X161125000Y-150100000I0J250000D01*
G01*
X161125000Y-148900000D01*
G75*
G02*
X161375000Y-148650000I250000J0D01*
G01*
G37*
D13*
X162100000Y-152000000D03*
X162100000Y-154500000D03*
X162100000Y-157000000D03*
X162100000Y-159500000D03*
D10*
X157775000Y-139800000D03*
X158719581Y-137519581D03*
X158719581Y-142080419D03*
X161000000Y-136575000D03*
D11*
X161000000Y-139800000D03*
D10*
X161000000Y-143025000D03*
X163280419Y-137519581D03*
X163280419Y-142080419D03*
X164225000Y-139800000D03*
M02*
