G04 #@! TF.GenerationSoftware,KiCad,Pcbnew,9.0.7+1*
G04 #@! TF.CreationDate,2026-06-05T22:23:58+00:00*
G04 #@! TF.ProjectId,hw-module-gps,68772d6d-6f64-4756-9c65-2d6770732e6b,rev?*
G04 #@! TF.SameCoordinates,Original*
G04 #@! TF.FileFunction,Legend,Top*
G04 #@! TF.FilePolarity,Positive*
%FSLAX46Y46*%
G04 Gerber Fmt 4.6, Leading zero omitted, Abs format (unit mm)*
G04 Created by KiCad (PCBNEW 9.0.7+1) date 2026-06-05 22:23:58*
%MOMM*%
%LPD*%
G01*
G04 APERTURE LIST*
%ADD10C,0.000000*%
%ADD11C,0.100000*%
%ADD12C,0.150000*%
%ADD13C,0.120000*%
%ADD14C,0.010000*%
%ADD15C,0.900000*%
%ADD16C,8.600000*%
%ADD17O,1.727200X2.500000*%
%ADD18O,1.950000X1.700000*%
G04 APERTURE END LIST*
D10*
G36*
X231645844Y-181018715D02*
G01*
X231746203Y-181084229D01*
X231746203Y-181084241D01*
X232225168Y-181396948D01*
X232484768Y-181566451D01*
X232484768Y-182645950D01*
X232497623Y-182654095D01*
X232509906Y-182663020D01*
X232521582Y-182672687D01*
X232532614Y-182683066D01*
X232542967Y-182694121D01*
X232552606Y-182705814D01*
X232561496Y-182718116D01*
X232569600Y-182730988D01*
X232576883Y-182744398D01*
X232583312Y-182758311D01*
X232588848Y-182772693D01*
X232593458Y-182787509D01*
X232597105Y-182802725D01*
X232599753Y-182818306D01*
X232601368Y-182834218D01*
X232601915Y-182850427D01*
X232601606Y-182862648D01*
X232600689Y-182874708D01*
X232599178Y-182886593D01*
X232597090Y-182898287D01*
X232594439Y-182909776D01*
X232591239Y-182921046D01*
X232587505Y-182932080D01*
X232583253Y-182942864D01*
X232578498Y-182953383D01*
X232573254Y-182963622D01*
X232567535Y-182973567D01*
X232561360Y-182983202D01*
X232554738Y-182992512D01*
X232547689Y-183001483D01*
X232540225Y-183010100D01*
X232532362Y-183018347D01*
X232524115Y-183026210D01*
X232515498Y-183033674D01*
X232506527Y-183040723D01*
X232497217Y-183047344D01*
X232487581Y-183053521D01*
X232477637Y-183059239D01*
X232467398Y-183064483D01*
X232456880Y-183069238D01*
X232446094Y-183073490D01*
X232435060Y-183077224D01*
X232423791Y-183080424D01*
X232412302Y-183083075D01*
X232400607Y-183085164D01*
X232388722Y-183086674D01*
X232376662Y-183087591D01*
X232364442Y-183087900D01*
X232352222Y-183087592D01*
X232340163Y-183086674D01*
X232328279Y-183085164D01*
X232316585Y-183083075D01*
X232305096Y-183080424D01*
X232293828Y-183077224D01*
X232282794Y-183073490D01*
X232272010Y-183069239D01*
X232261491Y-183064483D01*
X232251252Y-183059239D01*
X232241307Y-183053521D01*
X232231672Y-183047344D01*
X232222361Y-183040723D01*
X232213389Y-183033674D01*
X232204773Y-183026210D01*
X232196526Y-183018347D01*
X232188663Y-183010100D01*
X232181198Y-183001483D01*
X232174148Y-182992512D01*
X232167527Y-182983202D01*
X232161351Y-182973567D01*
X232155632Y-182963622D01*
X232150387Y-182953383D01*
X232145631Y-182942864D01*
X232141379Y-182932080D01*
X232137646Y-182921046D01*
X232134445Y-182909776D01*
X232131794Y-182898287D01*
X232129705Y-182886593D01*
X232128195Y-182874709D01*
X232127277Y-182862648D01*
X232126968Y-182850427D01*
X232127106Y-182842288D01*
X232127515Y-182834218D01*
X232128192Y-182826223D01*
X232129131Y-182818306D01*
X232130328Y-182810471D01*
X232131780Y-182802724D01*
X232133481Y-182795068D01*
X232135428Y-182787507D01*
X232137615Y-182780047D01*
X232140038Y-182772690D01*
X232142693Y-182765441D01*
X232145577Y-182758308D01*
X232148681Y-182751290D01*
X232152005Y-182744394D01*
X232155543Y-182737623D01*
X232159291Y-182730983D01*
X232163244Y-182724477D01*
X232167397Y-182718108D01*
X232171747Y-182711885D01*
X232176289Y-182705808D01*
X232181018Y-182699883D01*
X232185930Y-182694114D01*
X232191021Y-182688505D01*
X232196286Y-182683061D01*
X232201720Y-182677786D01*
X232207320Y-182672683D01*
X232213081Y-182667759D01*
X232218998Y-182663016D01*
X232225067Y-182658459D01*
X232231283Y-182654093D01*
X232237643Y-182649922D01*
X232244141Y-182645950D01*
X232244141Y-181696704D01*
X232005091Y-181540629D01*
X232005091Y-181540642D01*
X229623304Y-179985564D01*
X229623304Y-181872282D01*
X230560233Y-182483982D01*
X229623304Y-183095707D01*
X229623304Y-184982425D01*
X231643156Y-183663657D01*
X231863233Y-183807351D01*
X229382677Y-185426908D01*
X229382677Y-182965454D01*
X230120092Y-182483982D01*
X229382677Y-182002534D01*
X229382677Y-179541080D01*
X231645844Y-181018715D01*
G37*
G36*
X234627505Y-182002533D02*
G01*
X233890103Y-182483983D01*
X234627505Y-182965454D01*
X234627504Y-185426908D01*
X232005091Y-183714721D01*
X231785015Y-183571040D01*
X231785019Y-183571037D01*
X231785021Y-183571034D01*
X231785023Y-183571032D01*
X231785025Y-183571031D01*
X231785026Y-183571029D01*
X231785028Y-183571027D01*
X231089540Y-183116928D01*
X231089540Y-182432582D01*
X231076682Y-182424437D01*
X231064397Y-182415515D01*
X231052720Y-182405847D01*
X231041686Y-182395470D01*
X231031332Y-182384416D01*
X231021691Y-182372721D01*
X231012801Y-182360420D01*
X231004696Y-182347547D01*
X230997411Y-182334135D01*
X230990983Y-182320220D01*
X230985446Y-182305836D01*
X230980837Y-182291018D01*
X230977190Y-182275800D01*
X230974541Y-182260217D01*
X230972926Y-182244302D01*
X230972380Y-182228091D01*
X230972689Y-182215872D01*
X230973606Y-182203812D01*
X230975116Y-182191929D01*
X230977203Y-182180235D01*
X230979856Y-182168747D01*
X230983056Y-182157478D01*
X230986789Y-182146445D01*
X230991041Y-182135662D01*
X230995796Y-182125143D01*
X231001040Y-182114904D01*
X231006758Y-182104960D01*
X231012935Y-182095326D01*
X231019555Y-182086016D01*
X231026605Y-182077045D01*
X231034068Y-182068429D01*
X231041931Y-182060182D01*
X231050178Y-182052320D01*
X231058794Y-182044856D01*
X231067764Y-182037807D01*
X231077075Y-182031186D01*
X231086709Y-182025009D01*
X231096653Y-182019292D01*
X231106893Y-182014048D01*
X231117410Y-182009292D01*
X231128194Y-182005040D01*
X231139227Y-182001307D01*
X231150496Y-181998107D01*
X231161984Y-181995455D01*
X231173678Y-181993367D01*
X231185561Y-181991857D01*
X231197620Y-181990940D01*
X231209840Y-181990631D01*
X231222061Y-181990940D01*
X231234121Y-181991857D01*
X231246006Y-181993366D01*
X231257700Y-181995455D01*
X231269190Y-181998107D01*
X231280459Y-182001307D01*
X231291493Y-182005040D01*
X231302277Y-182009292D01*
X231312796Y-182014047D01*
X231323036Y-182019292D01*
X231332980Y-182025009D01*
X231342614Y-182031186D01*
X231351926Y-182037806D01*
X231360897Y-182044856D01*
X231369513Y-182052319D01*
X231377760Y-182060182D01*
X231385623Y-182068429D01*
X231393087Y-182077045D01*
X231400137Y-182086016D01*
X231406758Y-182095326D01*
X231412934Y-182104961D01*
X231418652Y-182114904D01*
X231423896Y-182125143D01*
X231428652Y-182135662D01*
X231432904Y-182146445D01*
X231436637Y-182157478D01*
X231439837Y-182168747D01*
X231442490Y-182180235D01*
X231444577Y-182191929D01*
X231446087Y-182203812D01*
X231447005Y-182215871D01*
X231447313Y-182228091D01*
X231447176Y-182236231D01*
X231446767Y-182244302D01*
X231446091Y-182252298D01*
X231445152Y-182260216D01*
X231443954Y-182268051D01*
X231442502Y-182275799D01*
X231440802Y-182283455D01*
X231438857Y-182291016D01*
X231436670Y-182298477D01*
X231434248Y-182305834D01*
X231431592Y-182313082D01*
X231428711Y-182320217D01*
X231425605Y-182327234D01*
X231422283Y-182334131D01*
X231418746Y-182340901D01*
X231414999Y-182347541D01*
X231411047Y-182354047D01*
X231406895Y-182360415D01*
X231402544Y-182366639D01*
X231398005Y-182372716D01*
X231393277Y-182378641D01*
X231388366Y-182384410D01*
X231383276Y-182390019D01*
X231378011Y-182395464D01*
X231372579Y-182400740D01*
X231366980Y-182405842D01*
X231361220Y-182410767D01*
X231355304Y-182415511D01*
X231349237Y-182420068D01*
X231343022Y-182424435D01*
X231336663Y-182428607D01*
X231330166Y-182432581D01*
X231330166Y-182986676D01*
X232753144Y-183915747D01*
X232753131Y-183915747D01*
X234386879Y-184982425D01*
X234386879Y-184458301D01*
X232909373Y-183493623D01*
X232909374Y-181852378D01*
X232896315Y-181844275D01*
X232883835Y-181835373D01*
X232871970Y-181825706D01*
X232860756Y-181815312D01*
X232850229Y-181804225D01*
X232840427Y-181792480D01*
X232831385Y-181780114D01*
X232823140Y-181767161D01*
X232815728Y-181753658D01*
X232809188Y-181739640D01*
X232803553Y-181725141D01*
X232798861Y-181710199D01*
X232795148Y-181694849D01*
X232792451Y-181679124D01*
X232790806Y-181663063D01*
X232790249Y-181646699D01*
X232790558Y-181634480D01*
X232791475Y-181622421D01*
X232792985Y-181610537D01*
X232795074Y-181598843D01*
X232797726Y-181587355D01*
X232800925Y-181576087D01*
X232804659Y-181565053D01*
X232808910Y-181554270D01*
X232813666Y-181543751D01*
X232818910Y-181533512D01*
X232824628Y-181523568D01*
X232830805Y-181513934D01*
X232837426Y-181504624D01*
X232844475Y-181495653D01*
X232851939Y-181487037D01*
X232859802Y-181478790D01*
X232868049Y-181470927D01*
X232876666Y-181463464D01*
X232885637Y-181456414D01*
X232894947Y-181449794D01*
X232904582Y-181443617D01*
X232914527Y-181437899D01*
X232924766Y-181432655D01*
X232935285Y-181427900D01*
X232946069Y-181423648D01*
X232957104Y-181419916D01*
X232968373Y-181416714D01*
X232979862Y-181414063D01*
X232991557Y-181411975D01*
X233003441Y-181410465D01*
X233015502Y-181409548D01*
X233027722Y-181409239D01*
X233039943Y-181409548D01*
X233052003Y-181410465D01*
X233063888Y-181411975D01*
X233075583Y-181414063D01*
X233087072Y-181416715D01*
X233098341Y-181419915D01*
X233109375Y-181423648D01*
X233120159Y-181427899D01*
X233130679Y-181432655D01*
X233140918Y-181437899D01*
X233150863Y-181443617D01*
X233160498Y-181449794D01*
X233169808Y-181456414D01*
X233178779Y-181463463D01*
X233187397Y-181470927D01*
X233195643Y-181478790D01*
X233203507Y-181487037D01*
X233210969Y-181495653D01*
X233218019Y-181504624D01*
X233224641Y-181513934D01*
X233230817Y-181523568D01*
X233236535Y-181533512D01*
X233241779Y-181543751D01*
X233246534Y-181554270D01*
X233250786Y-181565053D01*
X233254520Y-181576086D01*
X233257720Y-181587355D01*
X233260371Y-181598843D01*
X233262459Y-181610537D01*
X233263970Y-181622421D01*
X233264888Y-181634480D01*
X233265196Y-181646699D01*
X233265062Y-181654764D01*
X233264659Y-181662760D01*
X233263995Y-181670683D01*
X233263073Y-181678529D01*
X233261898Y-181686294D01*
X233260472Y-181693973D01*
X233258802Y-181701563D01*
X233256891Y-181709059D01*
X233254743Y-181716457D01*
X233252363Y-181723753D01*
X233249755Y-181730943D01*
X233246924Y-181738023D01*
X233243874Y-181744988D01*
X233240608Y-181751834D01*
X233237132Y-181758557D01*
X233233450Y-181765153D01*
X233229566Y-181771618D01*
X233225484Y-181777947D01*
X233221208Y-181784137D01*
X233216744Y-181790183D01*
X233212095Y-181796081D01*
X233207266Y-181801827D01*
X233202260Y-181807416D01*
X233197083Y-181812846D01*
X233191737Y-181818110D01*
X233186231Y-181823206D01*
X233180564Y-181828128D01*
X233174743Y-181832874D01*
X233168772Y-181837438D01*
X233162655Y-181841816D01*
X233156396Y-181846005D01*
X233150000Y-181850000D01*
X233150000Y-183363358D01*
X234386879Y-184170927D01*
X234386879Y-183095707D01*
X233449950Y-182483982D01*
X234386879Y-181872282D01*
X234386879Y-179985564D01*
X232367026Y-181304332D01*
X232146949Y-181160651D01*
X234627505Y-179541081D01*
X234627505Y-182002533D01*
G37*
D11*
X165980074Y-148922419D02*
X165503884Y-148922419D01*
X165503884Y-148922419D02*
X165456265Y-149398609D01*
X165456265Y-149398609D02*
X165503884Y-149350990D01*
X165503884Y-149350990D02*
X165599122Y-149303371D01*
X165599122Y-149303371D02*
X165837217Y-149303371D01*
X165837217Y-149303371D02*
X165932455Y-149350990D01*
X165932455Y-149350990D02*
X165980074Y-149398609D01*
X165980074Y-149398609D02*
X166027693Y-149493847D01*
X166027693Y-149493847D02*
X166027693Y-149731942D01*
X166027693Y-149731942D02*
X165980074Y-149827180D01*
X165980074Y-149827180D02*
X165932455Y-149874800D01*
X165932455Y-149874800D02*
X165837217Y-149922419D01*
X165837217Y-149922419D02*
X165599122Y-149922419D01*
X165599122Y-149922419D02*
X165503884Y-149874800D01*
X165503884Y-149874800D02*
X165456265Y-149827180D01*
X166313408Y-148922419D02*
X166646741Y-149922419D01*
X166646741Y-149922419D02*
X166980074Y-148922419D01*
X165361027Y-151372419D02*
X165932455Y-151372419D01*
X165646741Y-152372419D02*
X165646741Y-151372419D01*
X166170551Y-151372419D02*
X166837217Y-152372419D01*
X166837217Y-151372419D02*
X166170551Y-152372419D01*
X167218170Y-152372419D02*
X167218170Y-151372419D01*
X167218170Y-151372419D02*
X167456265Y-151372419D01*
X167456265Y-151372419D02*
X167599122Y-151420038D01*
X167599122Y-151420038D02*
X167694360Y-151515276D01*
X167694360Y-151515276D02*
X167741979Y-151610514D01*
X167741979Y-151610514D02*
X167789598Y-151800990D01*
X167789598Y-151800990D02*
X167789598Y-151943847D01*
X167789598Y-151943847D02*
X167741979Y-152134323D01*
X167741979Y-152134323D02*
X167694360Y-152229561D01*
X167694360Y-152229561D02*
X167599122Y-152324800D01*
X167599122Y-152324800D02*
X167456265Y-152372419D01*
X167456265Y-152372419D02*
X167218170Y-152372419D01*
X166075312Y-155072419D02*
X165741979Y-154596228D01*
X165503884Y-155072419D02*
X165503884Y-154072419D01*
X165503884Y-154072419D02*
X165884836Y-154072419D01*
X165884836Y-154072419D02*
X165980074Y-154120038D01*
X165980074Y-154120038D02*
X166027693Y-154167657D01*
X166027693Y-154167657D02*
X166075312Y-154262895D01*
X166075312Y-154262895D02*
X166075312Y-154405752D01*
X166075312Y-154405752D02*
X166027693Y-154500990D01*
X166027693Y-154500990D02*
X165980074Y-154548609D01*
X165980074Y-154548609D02*
X165884836Y-154596228D01*
X165884836Y-154596228D02*
X165503884Y-154596228D01*
X166408646Y-154072419D02*
X167075312Y-155072419D01*
X167075312Y-154072419D02*
X166408646Y-155072419D01*
X167456265Y-155072419D02*
X167456265Y-154072419D01*
X167456265Y-154072419D02*
X167694360Y-154072419D01*
X167694360Y-154072419D02*
X167837217Y-154120038D01*
X167837217Y-154120038D02*
X167932455Y-154215276D01*
X167932455Y-154215276D02*
X167980074Y-154310514D01*
X167980074Y-154310514D02*
X168027693Y-154500990D01*
X168027693Y-154500990D02*
X168027693Y-154643847D01*
X168027693Y-154643847D02*
X167980074Y-154834323D01*
X167980074Y-154834323D02*
X167932455Y-154929561D01*
X167932455Y-154929561D02*
X167837217Y-155024800D01*
X167837217Y-155024800D02*
X167694360Y-155072419D01*
X167694360Y-155072419D02*
X167456265Y-155072419D01*
X165503884Y-157522419D02*
X165503884Y-156522419D01*
X165503884Y-156522419D02*
X166075312Y-157522419D01*
X166075312Y-157522419D02*
X166075312Y-156522419D01*
X167265788Y-156474800D02*
X166408646Y-157760514D01*
X168170550Y-157427180D02*
X168122931Y-157474800D01*
X168122931Y-157474800D02*
X167980074Y-157522419D01*
X167980074Y-157522419D02*
X167884836Y-157522419D01*
X167884836Y-157522419D02*
X167741979Y-157474800D01*
X167741979Y-157474800D02*
X167646741Y-157379561D01*
X167646741Y-157379561D02*
X167599122Y-157284323D01*
X167599122Y-157284323D02*
X167551503Y-157093847D01*
X167551503Y-157093847D02*
X167551503Y-156950990D01*
X167551503Y-156950990D02*
X167599122Y-156760514D01*
X167599122Y-156760514D02*
X167646741Y-156665276D01*
X167646741Y-156665276D02*
X167741979Y-156570038D01*
X167741979Y-156570038D02*
X167884836Y-156522419D01*
X167884836Y-156522419D02*
X167980074Y-156522419D01*
X167980074Y-156522419D02*
X168122931Y-156570038D01*
X168122931Y-156570038D02*
X168170550Y-156617657D01*
X166027693Y-159120038D02*
X165932455Y-159072419D01*
X165932455Y-159072419D02*
X165789598Y-159072419D01*
X165789598Y-159072419D02*
X165646741Y-159120038D01*
X165646741Y-159120038D02*
X165551503Y-159215276D01*
X165551503Y-159215276D02*
X165503884Y-159310514D01*
X165503884Y-159310514D02*
X165456265Y-159500990D01*
X165456265Y-159500990D02*
X165456265Y-159643847D01*
X165456265Y-159643847D02*
X165503884Y-159834323D01*
X165503884Y-159834323D02*
X165551503Y-159929561D01*
X165551503Y-159929561D02*
X165646741Y-160024800D01*
X165646741Y-160024800D02*
X165789598Y-160072419D01*
X165789598Y-160072419D02*
X165884836Y-160072419D01*
X165884836Y-160072419D02*
X166027693Y-160024800D01*
X166027693Y-160024800D02*
X166075312Y-159977180D01*
X166075312Y-159977180D02*
X166075312Y-159643847D01*
X166075312Y-159643847D02*
X165884836Y-159643847D01*
X166503884Y-160072419D02*
X166503884Y-159072419D01*
X166503884Y-159072419D02*
X167075312Y-160072419D01*
X167075312Y-160072419D02*
X167075312Y-159072419D01*
X167551503Y-160072419D02*
X167551503Y-159072419D01*
X167551503Y-159072419D02*
X167789598Y-159072419D01*
X167789598Y-159072419D02*
X167932455Y-159120038D01*
X167932455Y-159120038D02*
X168027693Y-159215276D01*
X168027693Y-159215276D02*
X168075312Y-159310514D01*
X168075312Y-159310514D02*
X168122931Y-159500990D01*
X168122931Y-159500990D02*
X168122931Y-159643847D01*
X168122931Y-159643847D02*
X168075312Y-159834323D01*
X168075312Y-159834323D02*
X168027693Y-159929561D01*
X168027693Y-159929561D02*
X167932455Y-160024800D01*
X167932455Y-160024800D02*
X167789598Y-160072419D01*
X167789598Y-160072419D02*
X167551503Y-160072419D01*
D12*
X232792494Y-169389411D02*
X232744875Y-169484649D01*
X232744875Y-169484649D02*
X232744875Y-169627506D01*
X232744875Y-169627506D02*
X232792494Y-169770363D01*
X232792494Y-169770363D02*
X232887732Y-169865601D01*
X232887732Y-169865601D02*
X232982970Y-169913220D01*
X232982970Y-169913220D02*
X233173446Y-169960839D01*
X233173446Y-169960839D02*
X233316303Y-169960839D01*
X233316303Y-169960839D02*
X233506779Y-169913220D01*
X233506779Y-169913220D02*
X233602017Y-169865601D01*
X233602017Y-169865601D02*
X233697256Y-169770363D01*
X233697256Y-169770363D02*
X233744875Y-169627506D01*
X233744875Y-169627506D02*
X233744875Y-169532268D01*
X233744875Y-169532268D02*
X233697256Y-169389411D01*
X233697256Y-169389411D02*
X233649636Y-169341792D01*
X233649636Y-169341792D02*
X233316303Y-169341792D01*
X233316303Y-169341792D02*
X233316303Y-169532268D01*
X233078208Y-168913220D02*
X234078208Y-168913220D01*
X233125827Y-168913220D02*
X233078208Y-168817982D01*
X233078208Y-168817982D02*
X233078208Y-168627506D01*
X233078208Y-168627506D02*
X233125827Y-168532268D01*
X233125827Y-168532268D02*
X233173446Y-168484649D01*
X233173446Y-168484649D02*
X233268684Y-168437030D01*
X233268684Y-168437030D02*
X233554398Y-168437030D01*
X233554398Y-168437030D02*
X233649636Y-168484649D01*
X233649636Y-168484649D02*
X233697256Y-168532268D01*
X233697256Y-168532268D02*
X233744875Y-168627506D01*
X233744875Y-168627506D02*
X233744875Y-168817982D01*
X233744875Y-168817982D02*
X233697256Y-168913220D01*
X233697256Y-168056077D02*
X233744875Y-167960839D01*
X233744875Y-167960839D02*
X233744875Y-167770363D01*
X233744875Y-167770363D02*
X233697256Y-167675125D01*
X233697256Y-167675125D02*
X233602017Y-167627506D01*
X233602017Y-167627506D02*
X233554398Y-167627506D01*
X233554398Y-167627506D02*
X233459160Y-167675125D01*
X233459160Y-167675125D02*
X233411541Y-167770363D01*
X233411541Y-167770363D02*
X233411541Y-167913220D01*
X233411541Y-167913220D02*
X233363922Y-168008458D01*
X233363922Y-168008458D02*
X233268684Y-168056077D01*
X233268684Y-168056077D02*
X233221065Y-168056077D01*
X233221065Y-168056077D02*
X233125827Y-168008458D01*
X233125827Y-168008458D02*
X233078208Y-167913220D01*
X233078208Y-167913220D02*
X233078208Y-167770363D01*
X233078208Y-167770363D02*
X233125827Y-167675125D01*
X233744875Y-166437029D02*
X232744875Y-166437029D01*
X232744875Y-166437029D02*
X233459160Y-166103696D01*
X233459160Y-166103696D02*
X232744875Y-165770363D01*
X232744875Y-165770363D02*
X233744875Y-165770363D01*
X233744875Y-165151315D02*
X233697256Y-165246553D01*
X233697256Y-165246553D02*
X233649636Y-165294172D01*
X233649636Y-165294172D02*
X233554398Y-165341791D01*
X233554398Y-165341791D02*
X233268684Y-165341791D01*
X233268684Y-165341791D02*
X233173446Y-165294172D01*
X233173446Y-165294172D02*
X233125827Y-165246553D01*
X233125827Y-165246553D02*
X233078208Y-165151315D01*
X233078208Y-165151315D02*
X233078208Y-165008458D01*
X233078208Y-165008458D02*
X233125827Y-164913220D01*
X233125827Y-164913220D02*
X233173446Y-164865601D01*
X233173446Y-164865601D02*
X233268684Y-164817982D01*
X233268684Y-164817982D02*
X233554398Y-164817982D01*
X233554398Y-164817982D02*
X233649636Y-164865601D01*
X233649636Y-164865601D02*
X233697256Y-164913220D01*
X233697256Y-164913220D02*
X233744875Y-165008458D01*
X233744875Y-165008458D02*
X233744875Y-165151315D01*
X233744875Y-163960839D02*
X232744875Y-163960839D01*
X233697256Y-163960839D02*
X233744875Y-164056077D01*
X233744875Y-164056077D02*
X233744875Y-164246553D01*
X233744875Y-164246553D02*
X233697256Y-164341791D01*
X233697256Y-164341791D02*
X233649636Y-164389410D01*
X233649636Y-164389410D02*
X233554398Y-164437029D01*
X233554398Y-164437029D02*
X233268684Y-164437029D01*
X233268684Y-164437029D02*
X233173446Y-164389410D01*
X233173446Y-164389410D02*
X233125827Y-164341791D01*
X233125827Y-164341791D02*
X233078208Y-164246553D01*
X233078208Y-164246553D02*
X233078208Y-164056077D01*
X233078208Y-164056077D02*
X233125827Y-163960839D01*
X233078208Y-163056077D02*
X233744875Y-163056077D01*
X233078208Y-163484648D02*
X233602017Y-163484648D01*
X233602017Y-163484648D02*
X233697256Y-163437029D01*
X233697256Y-163437029D02*
X233744875Y-163341791D01*
X233744875Y-163341791D02*
X233744875Y-163198934D01*
X233744875Y-163198934D02*
X233697256Y-163103696D01*
X233697256Y-163103696D02*
X233649636Y-163056077D01*
X233744875Y-162437029D02*
X233697256Y-162532267D01*
X233697256Y-162532267D02*
X233602017Y-162579886D01*
X233602017Y-162579886D02*
X232744875Y-162579886D01*
X233697256Y-161675124D02*
X233744875Y-161770362D01*
X233744875Y-161770362D02*
X233744875Y-161960838D01*
X233744875Y-161960838D02*
X233697256Y-162056076D01*
X233697256Y-162056076D02*
X233602017Y-162103695D01*
X233602017Y-162103695D02*
X233221065Y-162103695D01*
X233221065Y-162103695D02*
X233125827Y-162056076D01*
X233125827Y-162056076D02*
X233078208Y-161960838D01*
X233078208Y-161960838D02*
X233078208Y-161770362D01*
X233078208Y-161770362D02*
X233125827Y-161675124D01*
X233125827Y-161675124D02*
X233221065Y-161627505D01*
X233221065Y-161627505D02*
X233316303Y-161627505D01*
X233316303Y-161627505D02*
X233411541Y-162103695D01*
X233078208Y-160532266D02*
X233744875Y-160294171D01*
X233744875Y-160294171D02*
X233078208Y-160056076D01*
X233744875Y-159151314D02*
X233744875Y-159722742D01*
X233744875Y-159437028D02*
X232744875Y-159437028D01*
X232744875Y-159437028D02*
X232887732Y-159532266D01*
X232887732Y-159532266D02*
X232982970Y-159627504D01*
X232982970Y-159627504D02*
X233030589Y-159722742D01*
X233649636Y-158722742D02*
X233697256Y-158675123D01*
X233697256Y-158675123D02*
X233744875Y-158722742D01*
X233744875Y-158722742D02*
X233697256Y-158770361D01*
X233697256Y-158770361D02*
X233649636Y-158722742D01*
X233649636Y-158722742D02*
X233744875Y-158722742D01*
X232744875Y-158056076D02*
X232744875Y-157960838D01*
X232744875Y-157960838D02*
X232792494Y-157865600D01*
X232792494Y-157865600D02*
X232840113Y-157817981D01*
X232840113Y-157817981D02*
X232935351Y-157770362D01*
X232935351Y-157770362D02*
X233125827Y-157722743D01*
X233125827Y-157722743D02*
X233363922Y-157722743D01*
X233363922Y-157722743D02*
X233554398Y-157770362D01*
X233554398Y-157770362D02*
X233649636Y-157817981D01*
X233649636Y-157817981D02*
X233697256Y-157865600D01*
X233697256Y-157865600D02*
X233744875Y-157960838D01*
X233744875Y-157960838D02*
X233744875Y-158056076D01*
X233744875Y-158056076D02*
X233697256Y-158151314D01*
X233697256Y-158151314D02*
X233649636Y-158198933D01*
X233649636Y-158198933D02*
X233554398Y-158246552D01*
X233554398Y-158246552D02*
X233363922Y-158294171D01*
X233363922Y-158294171D02*
X233125827Y-158294171D01*
X233125827Y-158294171D02*
X232935351Y-158246552D01*
X232935351Y-158246552D02*
X232840113Y-158198933D01*
X232840113Y-158198933D02*
X232792494Y-158151314D01*
X232792494Y-158151314D02*
X232744875Y-158056076D01*
X233649636Y-157294171D02*
X233697256Y-157246552D01*
X233697256Y-157246552D02*
X233744875Y-157294171D01*
X233744875Y-157294171D02*
X233697256Y-157341790D01*
X233697256Y-157341790D02*
X233649636Y-157294171D01*
X233649636Y-157294171D02*
X233744875Y-157294171D01*
X232744875Y-156627505D02*
X232744875Y-156532267D01*
X232744875Y-156532267D02*
X232792494Y-156437029D01*
X232792494Y-156437029D02*
X232840113Y-156389410D01*
X232840113Y-156389410D02*
X232935351Y-156341791D01*
X232935351Y-156341791D02*
X233125827Y-156294172D01*
X233125827Y-156294172D02*
X233363922Y-156294172D01*
X233363922Y-156294172D02*
X233554398Y-156341791D01*
X233554398Y-156341791D02*
X233649636Y-156389410D01*
X233649636Y-156389410D02*
X233697256Y-156437029D01*
X233697256Y-156437029D02*
X233744875Y-156532267D01*
X233744875Y-156532267D02*
X233744875Y-156627505D01*
X233744875Y-156627505D02*
X233697256Y-156722743D01*
X233697256Y-156722743D02*
X233649636Y-156770362D01*
X233649636Y-156770362D02*
X233554398Y-156817981D01*
X233554398Y-156817981D02*
X233363922Y-156865600D01*
X233363922Y-156865600D02*
X233125827Y-156865600D01*
X233125827Y-156865600D02*
X232935351Y-156817981D01*
X232935351Y-156817981D02*
X232840113Y-156770362D01*
X232840113Y-156770362D02*
X232792494Y-156722743D01*
X232792494Y-156722743D02*
X232744875Y-156627505D01*
X235354819Y-169437030D02*
X235354819Y-169913220D01*
X235354819Y-169913220D02*
X234354819Y-169913220D01*
X235354819Y-169103696D02*
X234688152Y-169103696D01*
X234354819Y-169103696D02*
X234402438Y-169151315D01*
X234402438Y-169151315D02*
X234450057Y-169103696D01*
X234450057Y-169103696D02*
X234402438Y-169056077D01*
X234402438Y-169056077D02*
X234354819Y-169103696D01*
X234354819Y-169103696D02*
X234450057Y-169103696D01*
X235307200Y-168198935D02*
X235354819Y-168294173D01*
X235354819Y-168294173D02*
X235354819Y-168484649D01*
X235354819Y-168484649D02*
X235307200Y-168579887D01*
X235307200Y-168579887D02*
X235259580Y-168627506D01*
X235259580Y-168627506D02*
X235164342Y-168675125D01*
X235164342Y-168675125D02*
X234878628Y-168675125D01*
X234878628Y-168675125D02*
X234783390Y-168627506D01*
X234783390Y-168627506D02*
X234735771Y-168579887D01*
X234735771Y-168579887D02*
X234688152Y-168484649D01*
X234688152Y-168484649D02*
X234688152Y-168294173D01*
X234688152Y-168294173D02*
X234735771Y-168198935D01*
X235307200Y-167389411D02*
X235354819Y-167484649D01*
X235354819Y-167484649D02*
X235354819Y-167675125D01*
X235354819Y-167675125D02*
X235307200Y-167770363D01*
X235307200Y-167770363D02*
X235211961Y-167817982D01*
X235211961Y-167817982D02*
X234831009Y-167817982D01*
X234831009Y-167817982D02*
X234735771Y-167770363D01*
X234735771Y-167770363D02*
X234688152Y-167675125D01*
X234688152Y-167675125D02*
X234688152Y-167484649D01*
X234688152Y-167484649D02*
X234735771Y-167389411D01*
X234735771Y-167389411D02*
X234831009Y-167341792D01*
X234831009Y-167341792D02*
X234926247Y-167341792D01*
X234926247Y-167341792D02*
X235021485Y-167817982D01*
X234688152Y-166913220D02*
X235354819Y-166913220D01*
X234783390Y-166913220D02*
X234735771Y-166865601D01*
X234735771Y-166865601D02*
X234688152Y-166770363D01*
X234688152Y-166770363D02*
X234688152Y-166627506D01*
X234688152Y-166627506D02*
X234735771Y-166532268D01*
X234735771Y-166532268D02*
X234831009Y-166484649D01*
X234831009Y-166484649D02*
X235354819Y-166484649D01*
X235307200Y-166056077D02*
X235354819Y-165960839D01*
X235354819Y-165960839D02*
X235354819Y-165770363D01*
X235354819Y-165770363D02*
X235307200Y-165675125D01*
X235307200Y-165675125D02*
X235211961Y-165627506D01*
X235211961Y-165627506D02*
X235164342Y-165627506D01*
X235164342Y-165627506D02*
X235069104Y-165675125D01*
X235069104Y-165675125D02*
X235021485Y-165770363D01*
X235021485Y-165770363D02*
X235021485Y-165913220D01*
X235021485Y-165913220D02*
X234973866Y-166008458D01*
X234973866Y-166008458D02*
X234878628Y-166056077D01*
X234878628Y-166056077D02*
X234831009Y-166056077D01*
X234831009Y-166056077D02*
X234735771Y-166008458D01*
X234735771Y-166008458D02*
X234688152Y-165913220D01*
X234688152Y-165913220D02*
X234688152Y-165770363D01*
X234688152Y-165770363D02*
X234735771Y-165675125D01*
X235307200Y-164817982D02*
X235354819Y-164913220D01*
X235354819Y-164913220D02*
X235354819Y-165103696D01*
X235354819Y-165103696D02*
X235307200Y-165198934D01*
X235307200Y-165198934D02*
X235211961Y-165246553D01*
X235211961Y-165246553D02*
X234831009Y-165246553D01*
X234831009Y-165246553D02*
X234735771Y-165198934D01*
X234735771Y-165198934D02*
X234688152Y-165103696D01*
X234688152Y-165103696D02*
X234688152Y-164913220D01*
X234688152Y-164913220D02*
X234735771Y-164817982D01*
X234735771Y-164817982D02*
X234831009Y-164770363D01*
X234831009Y-164770363D02*
X234926247Y-164770363D01*
X234926247Y-164770363D02*
X235021485Y-165246553D01*
X235259580Y-163008458D02*
X235307200Y-163056077D01*
X235307200Y-163056077D02*
X235354819Y-163198934D01*
X235354819Y-163198934D02*
X235354819Y-163294172D01*
X235354819Y-163294172D02*
X235307200Y-163437029D01*
X235307200Y-163437029D02*
X235211961Y-163532267D01*
X235211961Y-163532267D02*
X235116723Y-163579886D01*
X235116723Y-163579886D02*
X234926247Y-163627505D01*
X234926247Y-163627505D02*
X234783390Y-163627505D01*
X234783390Y-163627505D02*
X234592914Y-163579886D01*
X234592914Y-163579886D02*
X234497676Y-163532267D01*
X234497676Y-163532267D02*
X234402438Y-163437029D01*
X234402438Y-163437029D02*
X234354819Y-163294172D01*
X234354819Y-163294172D02*
X234354819Y-163198934D01*
X234354819Y-163198934D02*
X234402438Y-163056077D01*
X234402438Y-163056077D02*
X234450057Y-163008458D01*
X235259580Y-162008458D02*
X235307200Y-162056077D01*
X235307200Y-162056077D02*
X235354819Y-162198934D01*
X235354819Y-162198934D02*
X235354819Y-162294172D01*
X235354819Y-162294172D02*
X235307200Y-162437029D01*
X235307200Y-162437029D02*
X235211961Y-162532267D01*
X235211961Y-162532267D02*
X235116723Y-162579886D01*
X235116723Y-162579886D02*
X234926247Y-162627505D01*
X234926247Y-162627505D02*
X234783390Y-162627505D01*
X234783390Y-162627505D02*
X234592914Y-162579886D01*
X234592914Y-162579886D02*
X234497676Y-162532267D01*
X234497676Y-162532267D02*
X234402438Y-162437029D01*
X234402438Y-162437029D02*
X234354819Y-162294172D01*
X234354819Y-162294172D02*
X234354819Y-162198934D01*
X234354819Y-162198934D02*
X234402438Y-162056077D01*
X234402438Y-162056077D02*
X234450057Y-162008458D01*
X234831009Y-160484648D02*
X234878628Y-160341791D01*
X234878628Y-160341791D02*
X234926247Y-160294172D01*
X234926247Y-160294172D02*
X235021485Y-160246553D01*
X235021485Y-160246553D02*
X235164342Y-160246553D01*
X235164342Y-160246553D02*
X235259580Y-160294172D01*
X235259580Y-160294172D02*
X235307200Y-160341791D01*
X235307200Y-160341791D02*
X235354819Y-160437029D01*
X235354819Y-160437029D02*
X235354819Y-160817981D01*
X235354819Y-160817981D02*
X234354819Y-160817981D01*
X234354819Y-160817981D02*
X234354819Y-160484648D01*
X234354819Y-160484648D02*
X234402438Y-160389410D01*
X234402438Y-160389410D02*
X234450057Y-160341791D01*
X234450057Y-160341791D02*
X234545295Y-160294172D01*
X234545295Y-160294172D02*
X234640533Y-160294172D01*
X234640533Y-160294172D02*
X234735771Y-160341791D01*
X234735771Y-160341791D02*
X234783390Y-160389410D01*
X234783390Y-160389410D02*
X234831009Y-160484648D01*
X234831009Y-160484648D02*
X234831009Y-160817981D01*
X234878628Y-159627505D02*
X235354819Y-159627505D01*
X234354819Y-159960838D02*
X234878628Y-159627505D01*
X234878628Y-159627505D02*
X234354819Y-159294172D01*
X234688152Y-157770362D02*
X235354819Y-157770362D01*
X234307200Y-158008457D02*
X235021485Y-158246552D01*
X235021485Y-158246552D02*
X235021485Y-157627505D01*
X235259580Y-157246552D02*
X235307200Y-157198933D01*
X235307200Y-157198933D02*
X235354819Y-157246552D01*
X235354819Y-157246552D02*
X235307200Y-157294171D01*
X235307200Y-157294171D02*
X235259580Y-157246552D01*
X235259580Y-157246552D02*
X235354819Y-157246552D01*
X234354819Y-156579886D02*
X234354819Y-156484648D01*
X234354819Y-156484648D02*
X234402438Y-156389410D01*
X234402438Y-156389410D02*
X234450057Y-156341791D01*
X234450057Y-156341791D02*
X234545295Y-156294172D01*
X234545295Y-156294172D02*
X234735771Y-156246553D01*
X234735771Y-156246553D02*
X234973866Y-156246553D01*
X234973866Y-156246553D02*
X235164342Y-156294172D01*
X235164342Y-156294172D02*
X235259580Y-156341791D01*
X235259580Y-156341791D02*
X235307200Y-156389410D01*
X235307200Y-156389410D02*
X235354819Y-156484648D01*
X235354819Y-156484648D02*
X235354819Y-156579886D01*
X235354819Y-156579886D02*
X235307200Y-156675124D01*
X235307200Y-156675124D02*
X235259580Y-156722743D01*
X235259580Y-156722743D02*
X235164342Y-156770362D01*
X235164342Y-156770362D02*
X234973866Y-156817981D01*
X234973866Y-156817981D02*
X234735771Y-156817981D01*
X234735771Y-156817981D02*
X234545295Y-156770362D01*
X234545295Y-156770362D02*
X234450057Y-156722743D01*
X234450057Y-156722743D02*
X234402438Y-156675124D01*
X234402438Y-156675124D02*
X234354819Y-156579886D01*
X236964763Y-169913220D02*
X235964763Y-169913220D01*
X236964763Y-169484649D02*
X236440953Y-169484649D01*
X236440953Y-169484649D02*
X236345715Y-169532268D01*
X236345715Y-169532268D02*
X236298096Y-169627506D01*
X236298096Y-169627506D02*
X236298096Y-169770363D01*
X236298096Y-169770363D02*
X236345715Y-169865601D01*
X236345715Y-169865601D02*
X236393334Y-169913220D01*
X236298096Y-169151315D02*
X236298096Y-168770363D01*
X235964763Y-169008458D02*
X236821905Y-169008458D01*
X236821905Y-169008458D02*
X236917144Y-168960839D01*
X236917144Y-168960839D02*
X236964763Y-168865601D01*
X236964763Y-168865601D02*
X236964763Y-168770363D01*
X236298096Y-168579886D02*
X236298096Y-168198934D01*
X235964763Y-168437029D02*
X236821905Y-168437029D01*
X236821905Y-168437029D02*
X236917144Y-168389410D01*
X236917144Y-168389410D02*
X236964763Y-168294172D01*
X236964763Y-168294172D02*
X236964763Y-168198934D01*
X236298096Y-167865600D02*
X237298096Y-167865600D01*
X236345715Y-167865600D02*
X236298096Y-167770362D01*
X236298096Y-167770362D02*
X236298096Y-167579886D01*
X236298096Y-167579886D02*
X236345715Y-167484648D01*
X236345715Y-167484648D02*
X236393334Y-167437029D01*
X236393334Y-167437029D02*
X236488572Y-167389410D01*
X236488572Y-167389410D02*
X236774286Y-167389410D01*
X236774286Y-167389410D02*
X236869524Y-167437029D01*
X236869524Y-167437029D02*
X236917144Y-167484648D01*
X236917144Y-167484648D02*
X236964763Y-167579886D01*
X236964763Y-167579886D02*
X236964763Y-167770362D01*
X236964763Y-167770362D02*
X236917144Y-167865600D01*
X236917144Y-167008457D02*
X236964763Y-166913219D01*
X236964763Y-166913219D02*
X236964763Y-166722743D01*
X236964763Y-166722743D02*
X236917144Y-166627505D01*
X236917144Y-166627505D02*
X236821905Y-166579886D01*
X236821905Y-166579886D02*
X236774286Y-166579886D01*
X236774286Y-166579886D02*
X236679048Y-166627505D01*
X236679048Y-166627505D02*
X236631429Y-166722743D01*
X236631429Y-166722743D02*
X236631429Y-166865600D01*
X236631429Y-166865600D02*
X236583810Y-166960838D01*
X236583810Y-166960838D02*
X236488572Y-167008457D01*
X236488572Y-167008457D02*
X236440953Y-167008457D01*
X236440953Y-167008457D02*
X236345715Y-166960838D01*
X236345715Y-166960838D02*
X236298096Y-166865600D01*
X236298096Y-166865600D02*
X236298096Y-166722743D01*
X236298096Y-166722743D02*
X236345715Y-166627505D01*
X236869524Y-166151314D02*
X236917144Y-166103695D01*
X236917144Y-166103695D02*
X236964763Y-166151314D01*
X236964763Y-166151314D02*
X236917144Y-166198933D01*
X236917144Y-166198933D02*
X236869524Y-166151314D01*
X236869524Y-166151314D02*
X236964763Y-166151314D01*
X236345715Y-166151314D02*
X236393334Y-166103695D01*
X236393334Y-166103695D02*
X236440953Y-166151314D01*
X236440953Y-166151314D02*
X236393334Y-166198933D01*
X236393334Y-166198933D02*
X236345715Y-166151314D01*
X236345715Y-166151314D02*
X236440953Y-166151314D01*
X235917144Y-164960839D02*
X237202858Y-165817981D01*
X235917144Y-163913220D02*
X237202858Y-164770362D01*
X236298096Y-163151315D02*
X237107620Y-163151315D01*
X237107620Y-163151315D02*
X237202858Y-163198934D01*
X237202858Y-163198934D02*
X237250477Y-163246553D01*
X237250477Y-163246553D02*
X237298096Y-163341791D01*
X237298096Y-163341791D02*
X237298096Y-163484648D01*
X237298096Y-163484648D02*
X237250477Y-163579886D01*
X236917144Y-163151315D02*
X236964763Y-163246553D01*
X236964763Y-163246553D02*
X236964763Y-163437029D01*
X236964763Y-163437029D02*
X236917144Y-163532267D01*
X236917144Y-163532267D02*
X236869524Y-163579886D01*
X236869524Y-163579886D02*
X236774286Y-163627505D01*
X236774286Y-163627505D02*
X236488572Y-163627505D01*
X236488572Y-163627505D02*
X236393334Y-163579886D01*
X236393334Y-163579886D02*
X236345715Y-163532267D01*
X236345715Y-163532267D02*
X236298096Y-163437029D01*
X236298096Y-163437029D02*
X236298096Y-163246553D01*
X236298096Y-163246553D02*
X236345715Y-163151315D01*
X236964763Y-162675124D02*
X236298096Y-162675124D01*
X235964763Y-162675124D02*
X236012382Y-162722743D01*
X236012382Y-162722743D02*
X236060001Y-162675124D01*
X236060001Y-162675124D02*
X236012382Y-162627505D01*
X236012382Y-162627505D02*
X235964763Y-162675124D01*
X235964763Y-162675124D02*
X236060001Y-162675124D01*
X236298096Y-162341791D02*
X236298096Y-161960839D01*
X235964763Y-162198934D02*
X236821905Y-162198934D01*
X236821905Y-162198934D02*
X236917144Y-162151315D01*
X236917144Y-162151315D02*
X236964763Y-162056077D01*
X236964763Y-162056077D02*
X236964763Y-161960839D01*
X236964763Y-161627505D02*
X235964763Y-161627505D01*
X236964763Y-161198934D02*
X236440953Y-161198934D01*
X236440953Y-161198934D02*
X236345715Y-161246553D01*
X236345715Y-161246553D02*
X236298096Y-161341791D01*
X236298096Y-161341791D02*
X236298096Y-161484648D01*
X236298096Y-161484648D02*
X236345715Y-161579886D01*
X236345715Y-161579886D02*
X236393334Y-161627505D01*
X236298096Y-160294172D02*
X236964763Y-160294172D01*
X236298096Y-160722743D02*
X236821905Y-160722743D01*
X236821905Y-160722743D02*
X236917144Y-160675124D01*
X236917144Y-160675124D02*
X236964763Y-160579886D01*
X236964763Y-160579886D02*
X236964763Y-160437029D01*
X236964763Y-160437029D02*
X236917144Y-160341791D01*
X236917144Y-160341791D02*
X236869524Y-160294172D01*
X236964763Y-159817981D02*
X235964763Y-159817981D01*
X236345715Y-159817981D02*
X236298096Y-159722743D01*
X236298096Y-159722743D02*
X236298096Y-159532267D01*
X236298096Y-159532267D02*
X236345715Y-159437029D01*
X236345715Y-159437029D02*
X236393334Y-159389410D01*
X236393334Y-159389410D02*
X236488572Y-159341791D01*
X236488572Y-159341791D02*
X236774286Y-159341791D01*
X236774286Y-159341791D02*
X236869524Y-159389410D01*
X236869524Y-159389410D02*
X236917144Y-159437029D01*
X236917144Y-159437029D02*
X236964763Y-159532267D01*
X236964763Y-159532267D02*
X236964763Y-159722743D01*
X236964763Y-159722743D02*
X236917144Y-159817981D01*
X236869524Y-158913219D02*
X236917144Y-158865600D01*
X236917144Y-158865600D02*
X236964763Y-158913219D01*
X236964763Y-158913219D02*
X236917144Y-158960838D01*
X236917144Y-158960838D02*
X236869524Y-158913219D01*
X236869524Y-158913219D02*
X236964763Y-158913219D01*
X236917144Y-158008458D02*
X236964763Y-158103696D01*
X236964763Y-158103696D02*
X236964763Y-158294172D01*
X236964763Y-158294172D02*
X236917144Y-158389410D01*
X236917144Y-158389410D02*
X236869524Y-158437029D01*
X236869524Y-158437029D02*
X236774286Y-158484648D01*
X236774286Y-158484648D02*
X236488572Y-158484648D01*
X236488572Y-158484648D02*
X236393334Y-158437029D01*
X236393334Y-158437029D02*
X236345715Y-158389410D01*
X236345715Y-158389410D02*
X236298096Y-158294172D01*
X236298096Y-158294172D02*
X236298096Y-158103696D01*
X236298096Y-158103696D02*
X236345715Y-158008458D01*
X236964763Y-157437029D02*
X236917144Y-157532267D01*
X236917144Y-157532267D02*
X236869524Y-157579886D01*
X236869524Y-157579886D02*
X236774286Y-157627505D01*
X236774286Y-157627505D02*
X236488572Y-157627505D01*
X236488572Y-157627505D02*
X236393334Y-157579886D01*
X236393334Y-157579886D02*
X236345715Y-157532267D01*
X236345715Y-157532267D02*
X236298096Y-157437029D01*
X236298096Y-157437029D02*
X236298096Y-157294172D01*
X236298096Y-157294172D02*
X236345715Y-157198934D01*
X236345715Y-157198934D02*
X236393334Y-157151315D01*
X236393334Y-157151315D02*
X236488572Y-157103696D01*
X236488572Y-157103696D02*
X236774286Y-157103696D01*
X236774286Y-157103696D02*
X236869524Y-157151315D01*
X236869524Y-157151315D02*
X236917144Y-157198934D01*
X236917144Y-157198934D02*
X236964763Y-157294172D01*
X236964763Y-157294172D02*
X236964763Y-157437029D01*
X236964763Y-156675124D02*
X236298096Y-156675124D01*
X236393334Y-156675124D02*
X236345715Y-156627505D01*
X236345715Y-156627505D02*
X236298096Y-156532267D01*
X236298096Y-156532267D02*
X236298096Y-156389410D01*
X236298096Y-156389410D02*
X236345715Y-156294172D01*
X236345715Y-156294172D02*
X236440953Y-156246553D01*
X236440953Y-156246553D02*
X236964763Y-156246553D01*
X236440953Y-156246553D02*
X236345715Y-156198934D01*
X236345715Y-156198934D02*
X236298096Y-156103696D01*
X236298096Y-156103696D02*
X236298096Y-155960839D01*
X236298096Y-155960839D02*
X236345715Y-155865600D01*
X236345715Y-155865600D02*
X236440953Y-155817981D01*
X236440953Y-155817981D02*
X236964763Y-155817981D01*
X235917144Y-154627506D02*
X237202858Y-155484648D01*
X236964763Y-154389410D02*
X236298096Y-153865601D01*
X236298096Y-154389410D02*
X236964763Y-153865601D01*
X236298096Y-153627505D02*
X236298096Y-153246553D01*
X235964763Y-153484648D02*
X236821905Y-153484648D01*
X236821905Y-153484648D02*
X236917144Y-153437029D01*
X236917144Y-153437029D02*
X236964763Y-153341791D01*
X236964763Y-153341791D02*
X236964763Y-153246553D01*
X236917144Y-152532267D02*
X236964763Y-152627505D01*
X236964763Y-152627505D02*
X236964763Y-152817981D01*
X236964763Y-152817981D02*
X236917144Y-152913219D01*
X236917144Y-152913219D02*
X236821905Y-152960838D01*
X236821905Y-152960838D02*
X236440953Y-152960838D01*
X236440953Y-152960838D02*
X236345715Y-152913219D01*
X236345715Y-152913219D02*
X236298096Y-152817981D01*
X236298096Y-152817981D02*
X236298096Y-152627505D01*
X236298096Y-152627505D02*
X236345715Y-152532267D01*
X236345715Y-152532267D02*
X236440953Y-152484648D01*
X236440953Y-152484648D02*
X236536191Y-152484648D01*
X236536191Y-152484648D02*
X236631429Y-152960838D01*
X236917144Y-151627505D02*
X236964763Y-151722743D01*
X236964763Y-151722743D02*
X236964763Y-151913219D01*
X236964763Y-151913219D02*
X236917144Y-152008457D01*
X236917144Y-152008457D02*
X236869524Y-152056076D01*
X236869524Y-152056076D02*
X236774286Y-152103695D01*
X236774286Y-152103695D02*
X236488572Y-152103695D01*
X236488572Y-152103695D02*
X236393334Y-152056076D01*
X236393334Y-152056076D02*
X236345715Y-152008457D01*
X236345715Y-152008457D02*
X236298096Y-151913219D01*
X236298096Y-151913219D02*
X236298096Y-151722743D01*
X236298096Y-151722743D02*
X236345715Y-151627505D01*
X236964763Y-151198933D02*
X235964763Y-151198933D01*
X236964763Y-150770362D02*
X236440953Y-150770362D01*
X236440953Y-150770362D02*
X236345715Y-150817981D01*
X236345715Y-150817981D02*
X236298096Y-150913219D01*
X236298096Y-150913219D02*
X236298096Y-151056076D01*
X236298096Y-151056076D02*
X236345715Y-151151314D01*
X236345715Y-151151314D02*
X236393334Y-151198933D01*
X235917144Y-149579886D02*
X237202858Y-150437028D01*
X236964763Y-149246552D02*
X235964763Y-149246552D01*
X236964763Y-148817981D02*
X236440953Y-148817981D01*
X236440953Y-148817981D02*
X236345715Y-148865600D01*
X236345715Y-148865600D02*
X236298096Y-148960838D01*
X236298096Y-148960838D02*
X236298096Y-149103695D01*
X236298096Y-149103695D02*
X236345715Y-149198933D01*
X236345715Y-149198933D02*
X236393334Y-149246552D01*
X236298096Y-148437028D02*
X236964763Y-148246552D01*
X236964763Y-148246552D02*
X236488572Y-148056076D01*
X236488572Y-148056076D02*
X236964763Y-147865600D01*
X236964763Y-147865600D02*
X236298096Y-147675124D01*
X236583810Y-147294171D02*
X236583810Y-146532267D01*
X236964763Y-146056076D02*
X236298096Y-146056076D01*
X236393334Y-146056076D02*
X236345715Y-146008457D01*
X236345715Y-146008457D02*
X236298096Y-145913219D01*
X236298096Y-145913219D02*
X236298096Y-145770362D01*
X236298096Y-145770362D02*
X236345715Y-145675124D01*
X236345715Y-145675124D02*
X236440953Y-145627505D01*
X236440953Y-145627505D02*
X236964763Y-145627505D01*
X236440953Y-145627505D02*
X236345715Y-145579886D01*
X236345715Y-145579886D02*
X236298096Y-145484648D01*
X236298096Y-145484648D02*
X236298096Y-145341791D01*
X236298096Y-145341791D02*
X236345715Y-145246552D01*
X236345715Y-145246552D02*
X236440953Y-145198933D01*
X236440953Y-145198933D02*
X236964763Y-145198933D01*
X236964763Y-144579886D02*
X236917144Y-144675124D01*
X236917144Y-144675124D02*
X236869524Y-144722743D01*
X236869524Y-144722743D02*
X236774286Y-144770362D01*
X236774286Y-144770362D02*
X236488572Y-144770362D01*
X236488572Y-144770362D02*
X236393334Y-144722743D01*
X236393334Y-144722743D02*
X236345715Y-144675124D01*
X236345715Y-144675124D02*
X236298096Y-144579886D01*
X236298096Y-144579886D02*
X236298096Y-144437029D01*
X236298096Y-144437029D02*
X236345715Y-144341791D01*
X236345715Y-144341791D02*
X236393334Y-144294172D01*
X236393334Y-144294172D02*
X236488572Y-144246553D01*
X236488572Y-144246553D02*
X236774286Y-144246553D01*
X236774286Y-144246553D02*
X236869524Y-144294172D01*
X236869524Y-144294172D02*
X236917144Y-144341791D01*
X236917144Y-144341791D02*
X236964763Y-144437029D01*
X236964763Y-144437029D02*
X236964763Y-144579886D01*
X236964763Y-143389410D02*
X235964763Y-143389410D01*
X236917144Y-143389410D02*
X236964763Y-143484648D01*
X236964763Y-143484648D02*
X236964763Y-143675124D01*
X236964763Y-143675124D02*
X236917144Y-143770362D01*
X236917144Y-143770362D02*
X236869524Y-143817981D01*
X236869524Y-143817981D02*
X236774286Y-143865600D01*
X236774286Y-143865600D02*
X236488572Y-143865600D01*
X236488572Y-143865600D02*
X236393334Y-143817981D01*
X236393334Y-143817981D02*
X236345715Y-143770362D01*
X236345715Y-143770362D02*
X236298096Y-143675124D01*
X236298096Y-143675124D02*
X236298096Y-143484648D01*
X236298096Y-143484648D02*
X236345715Y-143389410D01*
X236298096Y-142484648D02*
X236964763Y-142484648D01*
X236298096Y-142913219D02*
X236821905Y-142913219D01*
X236821905Y-142913219D02*
X236917144Y-142865600D01*
X236917144Y-142865600D02*
X236964763Y-142770362D01*
X236964763Y-142770362D02*
X236964763Y-142627505D01*
X236964763Y-142627505D02*
X236917144Y-142532267D01*
X236917144Y-142532267D02*
X236869524Y-142484648D01*
X236964763Y-141865600D02*
X236917144Y-141960838D01*
X236917144Y-141960838D02*
X236821905Y-142008457D01*
X236821905Y-142008457D02*
X235964763Y-142008457D01*
X236917144Y-141103695D02*
X236964763Y-141198933D01*
X236964763Y-141198933D02*
X236964763Y-141389409D01*
X236964763Y-141389409D02*
X236917144Y-141484647D01*
X236917144Y-141484647D02*
X236821905Y-141532266D01*
X236821905Y-141532266D02*
X236440953Y-141532266D01*
X236440953Y-141532266D02*
X236345715Y-141484647D01*
X236345715Y-141484647D02*
X236298096Y-141389409D01*
X236298096Y-141389409D02*
X236298096Y-141198933D01*
X236298096Y-141198933D02*
X236345715Y-141103695D01*
X236345715Y-141103695D02*
X236440953Y-141056076D01*
X236440953Y-141056076D02*
X236536191Y-141056076D01*
X236536191Y-141056076D02*
X236631429Y-141532266D01*
X236583810Y-140627504D02*
X236583810Y-139865600D01*
X236298096Y-138960838D02*
X237107620Y-138960838D01*
X237107620Y-138960838D02*
X237202858Y-139008457D01*
X237202858Y-139008457D02*
X237250477Y-139056076D01*
X237250477Y-139056076D02*
X237298096Y-139151314D01*
X237298096Y-139151314D02*
X237298096Y-139294171D01*
X237298096Y-139294171D02*
X237250477Y-139389409D01*
X236917144Y-138960838D02*
X236964763Y-139056076D01*
X236964763Y-139056076D02*
X236964763Y-139246552D01*
X236964763Y-139246552D02*
X236917144Y-139341790D01*
X236917144Y-139341790D02*
X236869524Y-139389409D01*
X236869524Y-139389409D02*
X236774286Y-139437028D01*
X236774286Y-139437028D02*
X236488572Y-139437028D01*
X236488572Y-139437028D02*
X236393334Y-139389409D01*
X236393334Y-139389409D02*
X236345715Y-139341790D01*
X236345715Y-139341790D02*
X236298096Y-139246552D01*
X236298096Y-139246552D02*
X236298096Y-139056076D01*
X236298096Y-139056076D02*
X236345715Y-138960838D01*
X236298096Y-138484647D02*
X237298096Y-138484647D01*
X236345715Y-138484647D02*
X236298096Y-138389409D01*
X236298096Y-138389409D02*
X236298096Y-138198933D01*
X236298096Y-138198933D02*
X236345715Y-138103695D01*
X236345715Y-138103695D02*
X236393334Y-138056076D01*
X236393334Y-138056076D02*
X236488572Y-138008457D01*
X236488572Y-138008457D02*
X236774286Y-138008457D01*
X236774286Y-138008457D02*
X236869524Y-138056076D01*
X236869524Y-138056076D02*
X236917144Y-138103695D01*
X236917144Y-138103695D02*
X236964763Y-138198933D01*
X236964763Y-138198933D02*
X236964763Y-138389409D01*
X236964763Y-138389409D02*
X236917144Y-138484647D01*
X236917144Y-137627504D02*
X236964763Y-137532266D01*
X236964763Y-137532266D02*
X236964763Y-137341790D01*
X236964763Y-137341790D02*
X236917144Y-137246552D01*
X236917144Y-137246552D02*
X236821905Y-137198933D01*
X236821905Y-137198933D02*
X236774286Y-137198933D01*
X236774286Y-137198933D02*
X236679048Y-137246552D01*
X236679048Y-137246552D02*
X236631429Y-137341790D01*
X236631429Y-137341790D02*
X236631429Y-137484647D01*
X236631429Y-137484647D02*
X236583810Y-137579885D01*
X236583810Y-137579885D02*
X236488572Y-137627504D01*
X236488572Y-137627504D02*
X236440953Y-137627504D01*
X236440953Y-137627504D02*
X236345715Y-137579885D01*
X236345715Y-137579885D02*
X236298096Y-137484647D01*
X236298096Y-137484647D02*
X236298096Y-137341790D01*
X236298096Y-137341790D02*
X236345715Y-137246552D01*
X175593499Y-168381080D02*
X175641118Y-168428700D01*
X175641118Y-168428700D02*
X175593499Y-168476319D01*
X175593499Y-168476319D02*
X175545880Y-168428700D01*
X175545880Y-168428700D02*
X175593499Y-168381080D01*
X175593499Y-168381080D02*
X175593499Y-168476319D01*
D11*
X-188094Y-3007419D02*
X-188094Y-3816942D01*
X-188094Y-3816942D02*
X-140475Y-3912180D01*
X-140475Y-3912180D02*
X-92856Y-3959800D01*
X-92856Y-3959800D02*
X2381Y-4007419D01*
X2381Y-4007419D02*
X192857Y-4007419D01*
X192857Y-4007419D02*
X288095Y-3959800D01*
X288095Y-3959800D02*
X335714Y-3912180D01*
X335714Y-3912180D02*
X383333Y-3816942D01*
X383333Y-3816942D02*
X383333Y-3007419D01*
X1288095Y-3340752D02*
X1288095Y-4007419D01*
X1050000Y-2959800D02*
X811905Y-3674085D01*
X811905Y-3674085D02*
X1430952Y-3674085D01*
X2240476Y-3007419D02*
X2050000Y-3007419D01*
X2050000Y-3007419D02*
X1954762Y-3055038D01*
X1954762Y-3055038D02*
X1907143Y-3102657D01*
X1907143Y-3102657D02*
X1811905Y-3245514D01*
X1811905Y-3245514D02*
X1764286Y-3435990D01*
X1764286Y-3435990D02*
X1764286Y-3816942D01*
X1764286Y-3816942D02*
X1811905Y-3912180D01*
X1811905Y-3912180D02*
X1859524Y-3959800D01*
X1859524Y-3959800D02*
X1954762Y-4007419D01*
X1954762Y-4007419D02*
X2145238Y-4007419D01*
X2145238Y-4007419D02*
X2240476Y-3959800D01*
X2240476Y-3959800D02*
X2288095Y-3912180D01*
X2288095Y-3912180D02*
X2335714Y-3816942D01*
X2335714Y-3816942D02*
X2335714Y-3578847D01*
X2335714Y-3578847D02*
X2288095Y-3483609D01*
X2288095Y-3483609D02*
X2240476Y-3435990D01*
X2240476Y-3435990D02*
X2145238Y-3388371D01*
X2145238Y-3388371D02*
X1954762Y-3388371D01*
X1954762Y-3388371D02*
X1859524Y-3435990D01*
X1859524Y-3435990D02*
X1811905Y-3483609D01*
X1811905Y-3483609D02*
X1764286Y-3578847D01*
D13*
X163759420Y-180590000D02*
X164040580Y-180590000D01*
X163759420Y-181610000D02*
X164040580Y-181610000D01*
D12*
X169497500Y-139827500D02*
X169497500Y-174117499D01*
X169497500Y-174117499D02*
X172037500Y-176657500D01*
X172037500Y-136017500D02*
X172037500Y-137287500D01*
X172037500Y-137287500D02*
X169497500Y-139827500D01*
X172037500Y-176657500D02*
X172037500Y-187833500D01*
X173561500Y-189357500D02*
X172037500Y-187833500D01*
X238077500Y-136017500D02*
X172037500Y-136017500D01*
X238077500Y-189357500D02*
X173561500Y-189357500D01*
X238077500Y-189357500D02*
X238077500Y-136017500D01*
D11*
X245527500Y-179067499D02*
X238077500Y-179067500D01*
X238077500Y-171967500D01*
X245527500Y-171967500D01*
X245527500Y-179067499D01*
D13*
X162032936Y-167160000D02*
X162487064Y-167160000D01*
X162032936Y-168630000D02*
X162487064Y-168630000D01*
X173865000Y-182227064D02*
X173865000Y-181772936D01*
X175335000Y-182227064D02*
X175335000Y-181772936D01*
X162690000Y-173550000D02*
X162690000Y-177310000D01*
X162690000Y-177310000D02*
X163950000Y-177310000D01*
X169510000Y-173550000D02*
X169510000Y-177310000D01*
X169510000Y-177310000D02*
X168250000Y-177310000D01*
X169740000Y-172510000D02*
X169410000Y-172270000D01*
X169740000Y-172030000D01*
X169740000Y-172510000D01*
G36*
X169740000Y-172510000D02*
G01*
X169410000Y-172270000D01*
X169740000Y-172030000D01*
X169740000Y-172510000D01*
G37*
D14*
X234792242Y-137279364D02*
X234770204Y-137318059D01*
X234734971Y-137379513D01*
X234687711Y-137461702D01*
X234629589Y-137562604D01*
X234561771Y-137680195D01*
X234485423Y-137812454D01*
X234401714Y-137957358D01*
X234311806Y-138112882D01*
X234216867Y-138277008D01*
X234180732Y-138339451D01*
X234084083Y-138506513D01*
X233991938Y-138665926D01*
X233905475Y-138815645D01*
X233825871Y-138953624D01*
X233754305Y-139077815D01*
X233691955Y-139186173D01*
X233639998Y-139276652D01*
X233599613Y-139347205D01*
X233571979Y-139395785D01*
X233558272Y-139420346D01*
X233556974Y-139422915D01*
X233545220Y-139415431D01*
X233513795Y-139389386D01*
X233465594Y-139347441D01*
X233403510Y-139292254D01*
X233330439Y-139226483D01*
X233249276Y-139152788D01*
X233162916Y-139073826D01*
X233074253Y-138992260D01*
X232986182Y-138910746D01*
X232901599Y-138831944D01*
X232823397Y-138758511D01*
X232754472Y-138693107D01*
X232697719Y-138638391D01*
X232656032Y-138597023D01*
X232642363Y-138582836D01*
X232598201Y-138535820D01*
X232634619Y-138512472D01*
X232653693Y-138501093D01*
X232697421Y-138475512D01*
X232763619Y-138436998D01*
X232850102Y-138386814D01*
X232954685Y-138326224D01*
X233075183Y-138256497D01*
X233209412Y-138178893D01*
X233355187Y-138094680D01*
X233510323Y-138005121D01*
X233670000Y-137913002D01*
X233833117Y-137818924D01*
X233989709Y-137728598D01*
X234137506Y-137643335D01*
X234274240Y-137564443D01*
X234397642Y-137493231D01*
X234505444Y-137431009D01*
X234595377Y-137379087D01*
X234665173Y-137338772D01*
X234712564Y-137311376D01*
X234734786Y-137298493D01*
X234772330Y-137277493D01*
X234795831Y-137266075D01*
X234799920Y-137265449D01*
X234792242Y-137279364D01*
G36*
X234792242Y-137279364D02*
G01*
X234770204Y-137318059D01*
X234734971Y-137379513D01*
X234687711Y-137461702D01*
X234629589Y-137562604D01*
X234561771Y-137680195D01*
X234485423Y-137812454D01*
X234401714Y-137957358D01*
X234311806Y-138112882D01*
X234216867Y-138277008D01*
X234180732Y-138339451D01*
X234084083Y-138506513D01*
X233991938Y-138665926D01*
X233905475Y-138815645D01*
X233825871Y-138953624D01*
X233754305Y-139077815D01*
X233691955Y-139186173D01*
X233639998Y-139276652D01*
X233599613Y-139347205D01*
X233571979Y-139395785D01*
X233558272Y-139420346D01*
X233556974Y-139422915D01*
X233545220Y-139415431D01*
X233513795Y-139389386D01*
X233465594Y-139347441D01*
X233403510Y-139292254D01*
X233330439Y-139226483D01*
X233249276Y-139152788D01*
X233162916Y-139073826D01*
X233074253Y-138992260D01*
X232986182Y-138910746D01*
X232901599Y-138831944D01*
X232823397Y-138758511D01*
X232754472Y-138693107D01*
X232697719Y-138638391D01*
X232656032Y-138597023D01*
X232642363Y-138582836D01*
X232598201Y-138535820D01*
X232634619Y-138512472D01*
X232653693Y-138501093D01*
X232697421Y-138475512D01*
X232763619Y-138436998D01*
X232850102Y-138386814D01*
X232954685Y-138326224D01*
X233075183Y-138256497D01*
X233209412Y-138178893D01*
X233355187Y-138094680D01*
X233510323Y-138005121D01*
X233670000Y-137913002D01*
X233833117Y-137818924D01*
X233989709Y-137728598D01*
X234137506Y-137643335D01*
X234274240Y-137564443D01*
X234397642Y-137493231D01*
X234505444Y-137431009D01*
X234595377Y-137379087D01*
X234665173Y-137338772D01*
X234712564Y-137311376D01*
X234734786Y-137298493D01*
X234772330Y-137277493D01*
X234795831Y-137266075D01*
X234799920Y-137265449D01*
X234792242Y-137279364D01*
G37*
X231531966Y-139181499D02*
X231559881Y-139218886D01*
X231594725Y-139275766D01*
X231633754Y-139347688D01*
X231670844Y-139422985D01*
X231715818Y-139525440D01*
X231756226Y-139633183D01*
X231792969Y-139749927D01*
X231826942Y-139879382D01*
X231859044Y-140025260D01*
X231890173Y-140191274D01*
X231921226Y-140381134D01*
X231950145Y-140577531D01*
X231975800Y-140748166D01*
X232001198Y-140891455D01*
X232027602Y-141010992D01*
X232056273Y-141110370D01*
X232088473Y-141193182D01*
X232125464Y-141263022D01*
X232168512Y-141323482D01*
X232218875Y-141378155D01*
X232237583Y-141395786D01*
X232281139Y-141434000D01*
X232316682Y-141462268D01*
X232337583Y-141475382D01*
X232339297Y-141475732D01*
X232349806Y-141480319D01*
X232349923Y-141496242D01*
X232338254Y-141526735D01*
X232313396Y-141575032D01*
X232273953Y-141644373D01*
X232245587Y-141692560D01*
X232201247Y-141764417D01*
X232163279Y-141820257D01*
X232134416Y-141856333D01*
X232117388Y-141868887D01*
X232117264Y-141868879D01*
X232101037Y-141861094D01*
X232060400Y-141839108D01*
X231997566Y-141804197D01*
X231914752Y-141757637D01*
X231814172Y-141700705D01*
X231698040Y-141634677D01*
X231568571Y-141560828D01*
X231427980Y-141480436D01*
X231278482Y-141394776D01*
X231122292Y-141305125D01*
X230961624Y-141212757D01*
X230798693Y-141118950D01*
X230635713Y-141024982D01*
X230474900Y-140932126D01*
X230318469Y-140841660D01*
X230168633Y-140754859D01*
X230027608Y-140673000D01*
X229897609Y-140597359D01*
X229780849Y-140529213D01*
X229679545Y-140469837D01*
X229595911Y-140420507D01*
X229532162Y-140382500D01*
X229490511Y-140357093D01*
X229473175Y-140345560D01*
X229472805Y-140345076D01*
X229485835Y-140335957D01*
X229523245Y-140312935D01*
X229582514Y-140277466D01*
X229661118Y-140231004D01*
X229756538Y-140175004D01*
X229866250Y-140110919D01*
X229987734Y-140040204D01*
X230118468Y-139964313D01*
X230255930Y-139884700D01*
X230397598Y-139802822D01*
X230540951Y-139720130D01*
X230683467Y-139638079D01*
X230822624Y-139558124D01*
X230955901Y-139481719D01*
X231080776Y-139410318D01*
X231194727Y-139345376D01*
X231295233Y-139288347D01*
X231379772Y-139240685D01*
X231445822Y-139203845D01*
X231490861Y-139179280D01*
X231512370Y-139168446D01*
X231513714Y-139168049D01*
X231531966Y-139181499D01*
G36*
X231531966Y-139181499D02*
G01*
X231559881Y-139218886D01*
X231594725Y-139275766D01*
X231633754Y-139347688D01*
X231670844Y-139422985D01*
X231715818Y-139525440D01*
X231756226Y-139633183D01*
X231792969Y-139749927D01*
X231826942Y-139879382D01*
X231859044Y-140025260D01*
X231890173Y-140191274D01*
X231921226Y-140381134D01*
X231950145Y-140577531D01*
X231975800Y-140748166D01*
X232001198Y-140891455D01*
X232027602Y-141010992D01*
X232056273Y-141110370D01*
X232088473Y-141193182D01*
X232125464Y-141263022D01*
X232168512Y-141323482D01*
X232218875Y-141378155D01*
X232237583Y-141395786D01*
X232281139Y-141434000D01*
X232316682Y-141462268D01*
X232337583Y-141475382D01*
X232339297Y-141475732D01*
X232349806Y-141480319D01*
X232349923Y-141496242D01*
X232338254Y-141526735D01*
X232313396Y-141575032D01*
X232273953Y-141644373D01*
X232245587Y-141692560D01*
X232201247Y-141764417D01*
X232163279Y-141820257D01*
X232134416Y-141856333D01*
X232117388Y-141868887D01*
X232117264Y-141868879D01*
X232101037Y-141861094D01*
X232060400Y-141839108D01*
X231997566Y-141804197D01*
X231914752Y-141757637D01*
X231814172Y-141700705D01*
X231698040Y-141634677D01*
X231568571Y-141560828D01*
X231427980Y-141480436D01*
X231278482Y-141394776D01*
X231122292Y-141305125D01*
X230961624Y-141212757D01*
X230798693Y-141118950D01*
X230635713Y-141024982D01*
X230474900Y-140932126D01*
X230318469Y-140841660D01*
X230168633Y-140754859D01*
X230027608Y-140673000D01*
X229897609Y-140597359D01*
X229780849Y-140529213D01*
X229679545Y-140469837D01*
X229595911Y-140420507D01*
X229532162Y-140382500D01*
X229490511Y-140357093D01*
X229473175Y-140345560D01*
X229472805Y-140345076D01*
X229485835Y-140335957D01*
X229523245Y-140312935D01*
X229582514Y-140277466D01*
X229661118Y-140231004D01*
X229756538Y-140175004D01*
X229866250Y-140110919D01*
X229987734Y-140040204D01*
X230118468Y-139964313D01*
X230255930Y-139884700D01*
X230397598Y-139802822D01*
X230540951Y-139720130D01*
X230683467Y-139638079D01*
X230822624Y-139558124D01*
X230955901Y-139481719D01*
X231080776Y-139410318D01*
X231194727Y-139345376D01*
X231295233Y-139288347D01*
X231379772Y-139240685D01*
X231445822Y-139203845D01*
X231490861Y-139179280D01*
X231512370Y-139168446D01*
X231513714Y-139168049D01*
X231531966Y-139181499D01*
G37*
X235346281Y-137579598D02*
X235347559Y-137622896D01*
X235348796Y-137694286D01*
X235349983Y-137792327D01*
X235351115Y-137915578D01*
X235352186Y-138062597D01*
X235353188Y-138231943D01*
X235354119Y-138422175D01*
X235354968Y-138631849D01*
X235355733Y-138859527D01*
X235356403Y-139103765D01*
X235356976Y-139363123D01*
X235357444Y-139636159D01*
X235357802Y-139921432D01*
X235358042Y-140217500D01*
X235358159Y-140522921D01*
X235358171Y-140651076D01*
X235358171Y-143751030D01*
X234974847Y-143529947D01*
X234893680Y-143483144D01*
X234789165Y-143422898D01*
X234664802Y-143351222D01*
X234524082Y-143270131D01*
X234370503Y-143181637D01*
X234207562Y-143087760D01*
X234038754Y-142990509D01*
X233867575Y-142891900D01*
X233697520Y-142793947D01*
X233654512Y-142769175D01*
X233497857Y-142678848D01*
X233348803Y-142592711D01*
X233209568Y-142512058D01*
X233082371Y-142438184D01*
X232969432Y-142372383D01*
X232872967Y-142315950D01*
X232795200Y-142270179D01*
X232738346Y-142236365D01*
X232704625Y-142215802D01*
X232696040Y-142210047D01*
X232689189Y-142197942D01*
X232691158Y-142177906D01*
X232703736Y-142145381D01*
X232728712Y-142095806D01*
X232767876Y-142024626D01*
X232770989Y-142019084D01*
X232808476Y-141953526D01*
X232841319Y-141898202D01*
X232866205Y-141858545D01*
X232879820Y-141839989D01*
X232880487Y-141839469D01*
X232899390Y-141843953D01*
X232941605Y-141864515D01*
X233004832Y-141899817D01*
X233086772Y-141948520D01*
X233185123Y-142009282D01*
X233297584Y-142080764D01*
X233325165Y-142098556D01*
X233401699Y-142144907D01*
X233467557Y-142178658D01*
X233516782Y-142196847D01*
X233526507Y-142198714D01*
X233569311Y-142197885D01*
X233637209Y-142188606D01*
X233725843Y-142172032D01*
X233830859Y-142149319D01*
X233947902Y-142121626D01*
X234072617Y-142090110D01*
X234200645Y-142055925D01*
X234327634Y-142020229D01*
X234449228Y-141984179D01*
X234561072Y-141948932D01*
X234658809Y-141915644D01*
X234738087Y-141885472D01*
X234785122Y-141864439D01*
X234835225Y-141839663D01*
X234883167Y-141816270D01*
X234885794Y-141815003D01*
X234934220Y-141776301D01*
X234966828Y-141719816D01*
X234982454Y-141654061D01*
X234979937Y-141587549D01*
X234958114Y-141528795D01*
X234929382Y-141495742D01*
X234850583Y-141448141D01*
X234752377Y-141413261D01*
X234644779Y-141394123D01*
X234583780Y-141391412D01*
X234469935Y-141402330D01*
X234375660Y-141434376D01*
X234296379Y-141489274D01*
X234278733Y-141506393D01*
X234229235Y-141557339D01*
X233879362Y-141560837D01*
X233529489Y-141564336D01*
X233394531Y-141475182D01*
X233333445Y-141433346D01*
X233278493Y-141393055D01*
X233237336Y-141360057D01*
X233222192Y-141345874D01*
X233184810Y-141305719D01*
X233214098Y-141251335D01*
X233235085Y-141216961D01*
X233251378Y-141198154D01*
X233254307Y-141196951D01*
X233266728Y-141184097D01*
X233275977Y-141162104D01*
X233284313Y-141140850D01*
X233300149Y-141108306D01*
X233325033Y-141061678D01*
X233360509Y-140998172D01*
X233408123Y-140914992D01*
X233469422Y-140809347D01*
X233502932Y-140751938D01*
X233543071Y-140684406D01*
X233571659Y-140640115D01*
X233592039Y-140615145D01*
X233607553Y-140605577D01*
X233621546Y-140607492D01*
X233624796Y-140609089D01*
X233645267Y-140624624D01*
X233683665Y-140657864D01*
X233735696Y-140704938D01*
X233797066Y-140761972D01*
X233849090Y-140811300D01*
X233972567Y-140924970D01*
X234079591Y-141013895D01*
X234171240Y-141078866D01*
X234248588Y-141120679D01*
X234287866Y-141134783D01*
X234322249Y-141140608D01*
X234380899Y-141146625D01*
X234457117Y-141152304D01*
X234544202Y-141157116D01*
X234599268Y-141159381D01*
X234694464Y-141162541D01*
X234764062Y-141163931D01*
X234813409Y-141163142D01*
X234847854Y-141159765D01*
X234872743Y-141153392D01*
X234893425Y-141143613D01*
X234906054Y-141135933D01*
X234954727Y-141091579D01*
X234988645Y-141034426D01*
X235003438Y-140974292D01*
X234998086Y-140929227D01*
X234974930Y-140888424D01*
X234933462Y-140837276D01*
X234880912Y-140782958D01*
X234824516Y-140732643D01*
X234771505Y-140693506D01*
X234745889Y-140679095D01*
X234710814Y-140657509D01*
X234657389Y-140618247D01*
X234589789Y-140564898D01*
X234512190Y-140501048D01*
X234428769Y-140430285D01*
X234343698Y-140356196D01*
X234261155Y-140282368D01*
X234185316Y-140212389D01*
X234120355Y-140149845D01*
X234072669Y-140100740D01*
X234025032Y-140046221D01*
X233989908Y-140000358D01*
X233970949Y-139968189D01*
X233968864Y-139957511D01*
X233977274Y-139941147D01*
X233999846Y-139900330D01*
X234035224Y-139837414D01*
X234082054Y-139754756D01*
X234138981Y-139654711D01*
X234204649Y-139539634D01*
X234277703Y-139411881D01*
X234356788Y-139273806D01*
X234440548Y-139127766D01*
X234527629Y-138976116D01*
X234616676Y-138821210D01*
X234706332Y-138665404D01*
X234795243Y-138511056D01*
X234882054Y-138360518D01*
X234965409Y-138216146D01*
X235043954Y-138080296D01*
X235116333Y-137955323D01*
X235181190Y-137843583D01*
X235237171Y-137747430D01*
X235282920Y-137669221D01*
X235317083Y-137611311D01*
X235338304Y-137576054D01*
X235344963Y-137565835D01*
X235346281Y-137579598D01*
G36*
X235346281Y-137579598D02*
G01*
X235347559Y-137622896D01*
X235348796Y-137694286D01*
X235349983Y-137792327D01*
X235351115Y-137915578D01*
X235352186Y-138062597D01*
X235353188Y-138231943D01*
X235354119Y-138422175D01*
X235354968Y-138631849D01*
X235355733Y-138859527D01*
X235356403Y-139103765D01*
X235356976Y-139363123D01*
X235357444Y-139636159D01*
X235357802Y-139921432D01*
X235358042Y-140217500D01*
X235358159Y-140522921D01*
X235358171Y-140651076D01*
X235358171Y-143751030D01*
X234974847Y-143529947D01*
X234893680Y-143483144D01*
X234789165Y-143422898D01*
X234664802Y-143351222D01*
X234524082Y-143270131D01*
X234370503Y-143181637D01*
X234207562Y-143087760D01*
X234038754Y-142990509D01*
X233867575Y-142891900D01*
X233697520Y-142793947D01*
X233654512Y-142769175D01*
X233497857Y-142678848D01*
X233348803Y-142592711D01*
X233209568Y-142512058D01*
X233082371Y-142438184D01*
X232969432Y-142372383D01*
X232872967Y-142315950D01*
X232795200Y-142270179D01*
X232738346Y-142236365D01*
X232704625Y-142215802D01*
X232696040Y-142210047D01*
X232689189Y-142197942D01*
X232691158Y-142177906D01*
X232703736Y-142145381D01*
X232728712Y-142095806D01*
X232767876Y-142024626D01*
X232770989Y-142019084D01*
X232808476Y-141953526D01*
X232841319Y-141898202D01*
X232866205Y-141858545D01*
X232879820Y-141839989D01*
X232880487Y-141839469D01*
X232899390Y-141843953D01*
X232941605Y-141864515D01*
X233004832Y-141899817D01*
X233086772Y-141948520D01*
X233185123Y-142009282D01*
X233297584Y-142080764D01*
X233325165Y-142098556D01*
X233401699Y-142144907D01*
X233467557Y-142178658D01*
X233516782Y-142196847D01*
X233526507Y-142198714D01*
X233569311Y-142197885D01*
X233637209Y-142188606D01*
X233725843Y-142172032D01*
X233830859Y-142149319D01*
X233947902Y-142121626D01*
X234072617Y-142090110D01*
X234200645Y-142055925D01*
X234327634Y-142020229D01*
X234449228Y-141984179D01*
X234561072Y-141948932D01*
X234658809Y-141915644D01*
X234738087Y-141885472D01*
X234785122Y-141864439D01*
X234835225Y-141839663D01*
X234883167Y-141816270D01*
X234885794Y-141815003D01*
X234934220Y-141776301D01*
X234966828Y-141719816D01*
X234982454Y-141654061D01*
X234979937Y-141587549D01*
X234958114Y-141528795D01*
X234929382Y-141495742D01*
X234850583Y-141448141D01*
X234752377Y-141413261D01*
X234644779Y-141394123D01*
X234583780Y-141391412D01*
X234469935Y-141402330D01*
X234375660Y-141434376D01*
X234296379Y-141489274D01*
X234278733Y-141506393D01*
X234229235Y-141557339D01*
X233879362Y-141560837D01*
X233529489Y-141564336D01*
X233394531Y-141475182D01*
X233333445Y-141433346D01*
X233278493Y-141393055D01*
X233237336Y-141360057D01*
X233222192Y-141345874D01*
X233184810Y-141305719D01*
X233214098Y-141251335D01*
X233235085Y-141216961D01*
X233251378Y-141198154D01*
X233254307Y-141196951D01*
X233266728Y-141184097D01*
X233275977Y-141162104D01*
X233284313Y-141140850D01*
X233300149Y-141108306D01*
X233325033Y-141061678D01*
X233360509Y-140998172D01*
X233408123Y-140914992D01*
X233469422Y-140809347D01*
X233502932Y-140751938D01*
X233543071Y-140684406D01*
X233571659Y-140640115D01*
X233592039Y-140615145D01*
X233607553Y-140605577D01*
X233621546Y-140607492D01*
X233624796Y-140609089D01*
X233645267Y-140624624D01*
X233683665Y-140657864D01*
X233735696Y-140704938D01*
X233797066Y-140761972D01*
X233849090Y-140811300D01*
X233972567Y-140924970D01*
X234079591Y-141013895D01*
X234171240Y-141078866D01*
X234248588Y-141120679D01*
X234287866Y-141134783D01*
X234322249Y-141140608D01*
X234380899Y-141146625D01*
X234457117Y-141152304D01*
X234544202Y-141157116D01*
X234599268Y-141159381D01*
X234694464Y-141162541D01*
X234764062Y-141163931D01*
X234813409Y-141163142D01*
X234847854Y-141159765D01*
X234872743Y-141153392D01*
X234893425Y-141143613D01*
X234906054Y-141135933D01*
X234954727Y-141091579D01*
X234988645Y-141034426D01*
X235003438Y-140974292D01*
X234998086Y-140929227D01*
X234974930Y-140888424D01*
X234933462Y-140837276D01*
X234880912Y-140782958D01*
X234824516Y-140732643D01*
X234771505Y-140693506D01*
X234745889Y-140679095D01*
X234710814Y-140657509D01*
X234657389Y-140618247D01*
X234589789Y-140564898D01*
X234512190Y-140501048D01*
X234428769Y-140430285D01*
X234343698Y-140356196D01*
X234261155Y-140282368D01*
X234185316Y-140212389D01*
X234120355Y-140149845D01*
X234072669Y-140100740D01*
X234025032Y-140046221D01*
X233989908Y-140000358D01*
X233970949Y-139968189D01*
X233968864Y-139957511D01*
X233977274Y-139941147D01*
X233999846Y-139900330D01*
X234035224Y-139837414D01*
X234082054Y-139754756D01*
X234138981Y-139654711D01*
X234204649Y-139539634D01*
X234277703Y-139411881D01*
X234356788Y-139273806D01*
X234440548Y-139127766D01*
X234527629Y-138976116D01*
X234616676Y-138821210D01*
X234706332Y-138665404D01*
X234795243Y-138511056D01*
X234882054Y-138360518D01*
X234965409Y-138216146D01*
X235043954Y-138080296D01*
X235116333Y-137955323D01*
X235181190Y-137843583D01*
X235237171Y-137747430D01*
X235282920Y-137669221D01*
X235317083Y-137611311D01*
X235338304Y-137576054D01*
X235344963Y-137565835D01*
X235346281Y-137579598D01*
G37*
D13*
X166107836Y-169740000D02*
X165892164Y-169740000D01*
X166107836Y-170460000D02*
X165892164Y-170460000D01*
X158590000Y-146940000D02*
X158590000Y-162060000D01*
X158590000Y-162060000D02*
X164560000Y-162060000D01*
X159350000Y-147700000D02*
X159350000Y-154500000D01*
X159350000Y-161300000D02*
X159350000Y-154500000D01*
X162300000Y-146950000D02*
X162300000Y-147700000D01*
X162300000Y-147700000D02*
X159350000Y-147700000D01*
X162300000Y-161300000D02*
X159350000Y-161300000D01*
X162300000Y-162050000D02*
X162300000Y-161300000D01*
X163800000Y-146950000D02*
X163800000Y-148750000D01*
X163800000Y-148750000D02*
X164550000Y-148750000D01*
X163800000Y-150250000D02*
X163800000Y-158750000D01*
X163800000Y-158750000D02*
X164550000Y-158750000D01*
X163800000Y-160250000D02*
X163800000Y-162050000D01*
X163800000Y-162050000D02*
X164550000Y-162050000D01*
X164550000Y-146950000D02*
X163800000Y-146950000D01*
X164550000Y-148750000D02*
X164550000Y-146950000D01*
X164550000Y-150250000D02*
X163800000Y-150250000D01*
X164550000Y-158750000D02*
X164550000Y-150250000D01*
X164550000Y-160250000D02*
X163800000Y-160250000D01*
X164550000Y-162050000D02*
X164550000Y-160250000D01*
X164560000Y-146940000D02*
X158590000Y-146940000D01*
X164560000Y-162060000D02*
X164560000Y-146940000D01*
X164850000Y-146650000D02*
X163600000Y-146650000D01*
X164850000Y-147900000D02*
X164850000Y-146650000D01*
D10*
G36*
X159316310Y-163492083D02*
G01*
X159373810Y-163527619D01*
X159412381Y-163579940D01*
X159425238Y-163649762D01*
X159402381Y-163732619D01*
X159338095Y-163764048D01*
X159273095Y-163732619D01*
X159246667Y-163628333D01*
X159246667Y-163472619D01*
X159316310Y-163492083D01*
G37*
G36*
X159316310Y-164917798D02*
G01*
X159373810Y-164953333D01*
X159412381Y-165005655D01*
X159425238Y-165075476D01*
X159402381Y-165158333D01*
X159338095Y-165189762D01*
X159273095Y-165158333D01*
X159246667Y-165054048D01*
X159246667Y-164898333D01*
X159316310Y-164917798D01*
G37*
G36*
X159151488Y-165713333D02*
G01*
X159235952Y-165736905D01*
X159303452Y-165778690D01*
X159353095Y-165841190D01*
X159383631Y-165927262D01*
X159393810Y-166039762D01*
X159393810Y-166189762D01*
X158706667Y-166189762D01*
X158706667Y-166039762D01*
X158717024Y-165927262D01*
X158748095Y-165841190D01*
X158798452Y-165778690D01*
X158866667Y-165736905D01*
X158951310Y-165713333D01*
X159050952Y-165705476D01*
X159151488Y-165713333D01*
G37*
G36*
X159687143Y-164221190D02*
G01*
X159687143Y-165116905D01*
X159687143Y-166372619D01*
X159687143Y-166670238D01*
X158312857Y-166670238D01*
X158312857Y-166372619D01*
X158312857Y-166031190D01*
X158550952Y-166031190D01*
X158550952Y-166372619D01*
X159550952Y-166372619D01*
X159550952Y-166031190D01*
X159544048Y-165920952D01*
X159523333Y-165824524D01*
X159488810Y-165741905D01*
X159441825Y-165672698D01*
X159383730Y-165616508D01*
X159314524Y-165573333D01*
X159235397Y-165542778D01*
X159147540Y-165524444D01*
X159050952Y-165518333D01*
X158954365Y-165524444D01*
X158866508Y-165542778D01*
X158787381Y-165573333D01*
X158718175Y-165616508D01*
X158660079Y-165672698D01*
X158613095Y-165741905D01*
X158578571Y-165824524D01*
X158557857Y-165920952D01*
X158550952Y-166031190D01*
X158312857Y-166031190D01*
X158312857Y-165036905D01*
X158825238Y-165036905D01*
X158832917Y-165121190D01*
X158855952Y-165196905D01*
X158893274Y-165261726D01*
X158943810Y-165313333D01*
X159005952Y-165348869D01*
X159078095Y-165365476D01*
X159078095Y-165186905D01*
X159000238Y-165135476D01*
X158973810Y-165038333D01*
X159008095Y-164935476D01*
X159052024Y-164904405D01*
X159115238Y-164894048D01*
X159132381Y-164894048D01*
X159132381Y-165074048D01*
X159139206Y-165168333D01*
X159159683Y-165245476D01*
X159193810Y-165305476D01*
X159264524Y-165363333D01*
X159353810Y-165382619D01*
X159460952Y-165354048D01*
X159504702Y-165317976D01*
X159538810Y-165266905D01*
X159560774Y-165200119D01*
X159568095Y-165116905D01*
X159558810Y-165036369D01*
X159530952Y-164971905D01*
X159488810Y-164921726D01*
X159436667Y-164884048D01*
X159550952Y-164866905D01*
X159550952Y-164711190D01*
X159115238Y-164711190D01*
X159029841Y-164720873D01*
X158958413Y-164749921D01*
X158900952Y-164798333D01*
X158858889Y-164863571D01*
X158833651Y-164943095D01*
X158825238Y-165036905D01*
X158312857Y-165036905D01*
X158312857Y-164284048D01*
X158652381Y-164284048D01*
X158652381Y-164445476D01*
X158842381Y-164466905D01*
X158842381Y-164588333D01*
X158995238Y-164588333D01*
X158995238Y-164466905D01*
X159303810Y-164466905D01*
X159421310Y-164450119D01*
X159496667Y-164399762D01*
X159537381Y-164321548D01*
X159550952Y-164221190D01*
X159550952Y-164096905D01*
X159395238Y-164096905D01*
X159395238Y-164185476D01*
X159375952Y-164261905D01*
X159305238Y-164284048D01*
X158995238Y-164284048D01*
X158995238Y-164092619D01*
X158842381Y-164092619D01*
X158842381Y-164284048D01*
X158652381Y-164284048D01*
X158312857Y-164284048D01*
X158312857Y-163611190D01*
X158825238Y-163611190D01*
X158832917Y-163695476D01*
X158855952Y-163771190D01*
X158893274Y-163836012D01*
X158943810Y-163887619D01*
X159005952Y-163923155D01*
X159078095Y-163939762D01*
X159078095Y-163761190D01*
X159000238Y-163709762D01*
X158973810Y-163612619D01*
X159008095Y-163509762D01*
X159052024Y-163478690D01*
X159115238Y-163468333D01*
X159132381Y-163468333D01*
X159132381Y-163648333D01*
X159139206Y-163742619D01*
X159159683Y-163819762D01*
X159193810Y-163879762D01*
X159264524Y-163937619D01*
X159353810Y-163956905D01*
X159460952Y-163928333D01*
X159504702Y-163892262D01*
X159538810Y-163841190D01*
X159560774Y-163774405D01*
X159568095Y-163691190D01*
X159558810Y-163610655D01*
X159530952Y-163546190D01*
X159488810Y-163496012D01*
X159436667Y-163458333D01*
X159550952Y-163441190D01*
X159550952Y-163285476D01*
X159115238Y-163285476D01*
X159029841Y-163295159D01*
X158958413Y-163324206D01*
X158900952Y-163372619D01*
X158858889Y-163437857D01*
X158833651Y-163517381D01*
X158825238Y-163611190D01*
X158312857Y-163611190D01*
X158312857Y-163285476D01*
X158312857Y-162987857D01*
X159000000Y-162529762D01*
X159687143Y-162987857D01*
X159687143Y-163285476D01*
X159687143Y-163691190D01*
X159687143Y-164221190D01*
G37*
D13*
X168540580Y-180590000D02*
X168259420Y-180590000D01*
X168540580Y-181610000D02*
X168259420Y-181610000D01*
X161892164Y-169740000D02*
X162107836Y-169740000D01*
X161892164Y-170460000D02*
X162107836Y-170460000D01*
X160615000Y-163940000D02*
X160615000Y-165860000D01*
X160615000Y-165860000D02*
X163300000Y-165860000D01*
X163300000Y-163940000D02*
X160615000Y-163940000D01*
D10*
G36*
X236593505Y-187422241D02*
G01*
X236415505Y-187422241D01*
X236415505Y-186608241D01*
X236593505Y-186608241D01*
X236593505Y-187422241D01*
G37*
G36*
X237085505Y-178730241D02*
G01*
X236093505Y-178730241D01*
X236093505Y-178518241D01*
X237085505Y-178518241D01*
X237085505Y-178730241D01*
G37*
G36*
X237085505Y-179224241D02*
G01*
X235645505Y-179224241D01*
X235645505Y-179012241D01*
X237085505Y-179012241D01*
X237085505Y-179224241D01*
G37*
G36*
X235868505Y-178525241D02*
G01*
X235905505Y-178624241D01*
X235868505Y-178723241D01*
X235775505Y-178762241D01*
X235682505Y-178723241D01*
X235645505Y-178624241D01*
X235682505Y-178525241D01*
X235775505Y-178486241D01*
X235868505Y-178525241D01*
G37*
G36*
X237058505Y-181854241D02*
G01*
X237097505Y-181952241D01*
X237058505Y-182051241D01*
X236965505Y-182090241D01*
X236870505Y-182051241D01*
X236831505Y-181952241D01*
X236870505Y-181854241D01*
X236965505Y-181816241D01*
X237058505Y-181854241D01*
G37*
G36*
X237085505Y-187802241D02*
G01*
X236705505Y-188066241D01*
X237085505Y-188332241D01*
X237085505Y-188558241D01*
X236589505Y-188206241D01*
X236093505Y-188558241D01*
X236093505Y-188332241D01*
X236473505Y-188066241D01*
X236093505Y-187802241D01*
X236093505Y-187574241D01*
X236589505Y-187926241D01*
X237085505Y-187574241D01*
X237085505Y-187802241D01*
G37*
G36*
X236271505Y-186052241D02*
G01*
X236761505Y-186052241D01*
X236874505Y-186017241D01*
X236905505Y-185896241D01*
X236905505Y-185782241D01*
X237085505Y-185782241D01*
X237085505Y-185946241D01*
X237067755Y-186077241D01*
X237014505Y-186178241D01*
X236915755Y-186242741D01*
X236761505Y-186264241D01*
X236271505Y-186264241D01*
X236271505Y-186434241D01*
X236093505Y-186434241D01*
X236093505Y-186264241D01*
X235841505Y-186238241D01*
X235841505Y-186052241D01*
X236093505Y-186052241D01*
X236093505Y-185772241D01*
X236271505Y-185772241D01*
X236271505Y-186052241D01*
G37*
G36*
X237085505Y-177518241D02*
G01*
X236537505Y-177518241D01*
X236411505Y-177532991D01*
X236321505Y-177577241D01*
X236267505Y-177650991D01*
X236249505Y-177754241D01*
X236270505Y-177861991D01*
X236333505Y-177949241D01*
X236435505Y-178006991D01*
X236573505Y-178026241D01*
X237085505Y-178026241D01*
X237085505Y-178238241D01*
X236093505Y-178238241D01*
X236093505Y-178050241D01*
X236267505Y-178034241D01*
X236185255Y-177977491D01*
X236122505Y-177899241D01*
X236082755Y-177803491D01*
X236069505Y-177694241D01*
X236097505Y-177533491D01*
X236181505Y-177411241D01*
X236268394Y-177354019D01*
X236379727Y-177319685D01*
X236515505Y-177308241D01*
X237085505Y-177308241D01*
X237085505Y-177518241D01*
G37*
G36*
X237085505Y-179684241D02*
G01*
X236537505Y-179684241D01*
X236411505Y-179698991D01*
X236321505Y-179743241D01*
X236267505Y-179816991D01*
X236249505Y-179920241D01*
X236270505Y-180027991D01*
X236333505Y-180115241D01*
X236435505Y-180172991D01*
X236573505Y-180192241D01*
X237085505Y-180192241D01*
X237085505Y-180404241D01*
X236093505Y-180404241D01*
X236093505Y-180216241D01*
X236267505Y-180200241D01*
X236185255Y-180143491D01*
X236122505Y-180065241D01*
X236082755Y-179969491D01*
X236069505Y-179860241D01*
X236097505Y-179699491D01*
X236181505Y-179577241D01*
X236268394Y-179520019D01*
X236379727Y-179485685D01*
X236515505Y-179474241D01*
X237085505Y-179474241D01*
X237085505Y-179684241D01*
G37*
G36*
X237085505Y-182496241D02*
G01*
X236537505Y-182496241D01*
X236411505Y-182510616D01*
X236321505Y-182553741D01*
X236267505Y-182625616D01*
X236249505Y-182726241D01*
X236270505Y-182835991D01*
X236333505Y-182925241D01*
X236435505Y-182984491D01*
X236573505Y-183004241D01*
X237085505Y-183004241D01*
X237085505Y-183216241D01*
X235645505Y-183216241D01*
X235645505Y-183004241D01*
X236253505Y-183004241D01*
X236176755Y-182944491D01*
X236118505Y-182865241D01*
X236081755Y-182771491D01*
X236069505Y-182668241D01*
X236097505Y-182509241D01*
X236181505Y-182388241D01*
X236268394Y-182331574D01*
X236379727Y-182297574D01*
X236515505Y-182286241D01*
X237085505Y-182286241D01*
X237085505Y-182496241D01*
G37*
G36*
X236898005Y-183503241D02*
G01*
X237011505Y-183606241D01*
X237065949Y-183696685D01*
X237098616Y-183800019D01*
X237109505Y-183916241D01*
X237093005Y-184054491D01*
X237043505Y-184177241D01*
X236964755Y-184279741D01*
X236860505Y-184357241D01*
X236734255Y-184405991D01*
X236589505Y-184422241D01*
X236444755Y-184405991D01*
X236318505Y-184357241D01*
X236214255Y-184279741D01*
X236135505Y-184177241D01*
X236086005Y-184054491D01*
X236069505Y-183916241D01*
X236080172Y-183800130D01*
X236112172Y-183697130D01*
X236165505Y-183607241D01*
X236278505Y-183504491D01*
X236425505Y-183446241D01*
X236425505Y-183668241D01*
X236297505Y-183756241D01*
X236263005Y-183830241D01*
X236251505Y-183916241D01*
X236290505Y-184060241D01*
X236404505Y-184166241D01*
X236488255Y-184196241D01*
X236589505Y-184206241D01*
X236690755Y-184196241D01*
X236774505Y-184166241D01*
X236889505Y-184060241D01*
X236929505Y-183916241D01*
X236918005Y-183830241D01*
X236883505Y-183756241D01*
X236828005Y-183700241D01*
X236753505Y-183668241D01*
X236753505Y-183446241D01*
X236898005Y-183503241D01*
G37*
G36*
X237093255Y-181272991D02*
G01*
X237044505Y-181393241D01*
X236966505Y-181494491D01*
X236862505Y-181572241D01*
X236735755Y-181621741D01*
X236589505Y-181638241D01*
X236443255Y-181621491D01*
X236316505Y-181571241D01*
X236212505Y-181492491D01*
X236134505Y-181390241D01*
X236085755Y-181269741D01*
X236069505Y-181136241D01*
X236251505Y-181136241D01*
X236289505Y-181277241D01*
X236402505Y-181382241D01*
X236486755Y-181412241D01*
X236589505Y-181422241D01*
X236692255Y-181412241D01*
X236776505Y-181382241D01*
X236889505Y-181278241D01*
X236927505Y-181138241D01*
X236889505Y-180997241D01*
X236776505Y-180892241D01*
X236692255Y-180862241D01*
X236589505Y-180852241D01*
X236486755Y-180861991D01*
X236402505Y-180891241D01*
X236289505Y-180995241D01*
X236251505Y-181136241D01*
X236069505Y-181136241D01*
X236085755Y-181001491D01*
X236134505Y-180881241D01*
X236212505Y-180779741D01*
X236316505Y-180701241D01*
X236443255Y-180650991D01*
X236589505Y-180634241D01*
X236735755Y-180650991D01*
X236862505Y-180701241D01*
X236966505Y-180779991D01*
X237044505Y-180882241D01*
X237093255Y-181003241D01*
X237109505Y-181138241D01*
X237093255Y-181272991D01*
G37*
G36*
X236639505Y-176886241D02*
G01*
X236766255Y-176857491D01*
X236858505Y-176791241D01*
X236914755Y-176699491D01*
X236933505Y-176594241D01*
X236892505Y-176443241D01*
X236781505Y-176352241D01*
X236781505Y-176140241D01*
X236910005Y-176199991D01*
X237015505Y-176299241D01*
X237086005Y-176432491D01*
X237109505Y-176594241D01*
X237093255Y-176731991D01*
X237044505Y-176853241D01*
X236966755Y-176953991D01*
X236863505Y-177030241D01*
X236738005Y-177078241D01*
X236593505Y-177094241D01*
X236447005Y-177078491D01*
X236319505Y-177031241D01*
X236214505Y-176955741D01*
X236135505Y-176855241D01*
X236086005Y-176732991D01*
X236069739Y-176594241D01*
X236243505Y-176594241D01*
X236259255Y-176694241D01*
X236306505Y-176782241D01*
X236385255Y-176848241D01*
X236495505Y-176882241D01*
X236495505Y-176322241D01*
X236391505Y-176345741D01*
X236311505Y-176404241D01*
X236260505Y-176489741D01*
X236243505Y-176594241D01*
X236069739Y-176594241D01*
X236069505Y-176592241D01*
X236085755Y-176455741D01*
X236134505Y-176338241D01*
X236210255Y-176242241D01*
X236307505Y-176170241D01*
X236421005Y-176125241D01*
X236545505Y-176110241D01*
X236588505Y-176111241D01*
X236639505Y-176114241D01*
X236639505Y-176882241D01*
X236639505Y-176886241D01*
G37*
G36*
X236639505Y-185382241D02*
G01*
X236766255Y-185353491D01*
X236858505Y-185287241D01*
X236914755Y-185195491D01*
X236933505Y-185090241D01*
X236892505Y-184939241D01*
X236781505Y-184848241D01*
X236781505Y-184636241D01*
X236910005Y-184695991D01*
X237015505Y-184795241D01*
X237086005Y-184928491D01*
X237109505Y-185090241D01*
X237093255Y-185227991D01*
X237044505Y-185349241D01*
X236966755Y-185449991D01*
X236863505Y-185526241D01*
X236738005Y-185574241D01*
X236593505Y-185590241D01*
X236447005Y-185574491D01*
X236319505Y-185527241D01*
X236214505Y-185451741D01*
X236135505Y-185351241D01*
X236086005Y-185228991D01*
X236069739Y-185090241D01*
X236243505Y-185090241D01*
X236259255Y-185190241D01*
X236306505Y-185278241D01*
X236385255Y-185344241D01*
X236495505Y-185378241D01*
X236495505Y-184818241D01*
X236391505Y-184841741D01*
X236311505Y-184900241D01*
X236260505Y-184985741D01*
X236243505Y-185090241D01*
X236069739Y-185090241D01*
X236069505Y-185088241D01*
X236085755Y-184951741D01*
X236134505Y-184834241D01*
X236210255Y-184738241D01*
X236307505Y-184666241D01*
X236421005Y-184621241D01*
X236545505Y-184606241D01*
X236588505Y-184607241D01*
X236639505Y-184610241D01*
X236639505Y-185378241D01*
X236639505Y-185382241D01*
G37*
%LPC*%
G36*
G01*
X162675000Y-181350000D02*
X162675000Y-180850000D01*
G75*
G02*
X162900000Y-180625000I225000J0D01*
G01*
X163350000Y-180625000D01*
G75*
G02*
X163575000Y-180850000I0J-225000D01*
G01*
X163575000Y-181350000D01*
G75*
G02*
X163350000Y-181575000I-225000J0D01*
G01*
X162900000Y-181575000D01*
G75*
G02*
X162675000Y-181350000I0J225000D01*
G01*
G37*
G36*
G01*
X164225000Y-181350000D02*
X164225000Y-180850000D01*
G75*
G02*
X164450000Y-180625000I225000J0D01*
G01*
X164900000Y-180625000D01*
G75*
G02*
X165125000Y-180850000I0J-225000D01*
G01*
X165125000Y-181350000D01*
G75*
G02*
X164900000Y-181575000I-225000J0D01*
G01*
X164450000Y-181575000D01*
G75*
G02*
X164225000Y-181350000I0J225000D01*
G01*
G37*
D15*
X157775000Y-187800000D03*
X158719581Y-185519581D03*
X158719581Y-190080419D03*
X161000000Y-184575000D03*
D16*
X161000000Y-187800000D03*
D15*
X161000000Y-191025000D03*
X163280419Y-185519581D03*
X163280419Y-190080419D03*
X164225000Y-187800000D03*
D17*
X210137500Y-138057500D03*
X202517500Y-138057500D03*
X199977500Y-138057500D03*
X187277500Y-138057500D03*
X184737500Y-138057500D03*
X182197500Y-138057500D03*
X179657500Y-138057500D03*
X177117500Y-138057500D03*
X174577500Y-138057500D03*
X214201500Y-187317500D03*
X174577500Y-187317500D03*
X177117500Y-187317500D03*
X179657500Y-187317500D03*
X182197501Y-187317500D03*
X184737500Y-187317500D03*
X187277500Y-187317500D03*
X189817500Y-187317500D03*
X192357499Y-187317500D03*
X196421499Y-187317500D03*
X198961500Y-187317500D03*
X201501500Y-187317500D03*
X204041500Y-187317500D03*
X206581500Y-187317500D03*
X209121501Y-187317500D03*
X211661500Y-187317500D03*
X197437500Y-138057500D03*
X194897500Y-138057500D03*
X207597500Y-138057500D03*
X205057500Y-138057500D03*
X219281499Y-187317500D03*
X216741500Y-187317500D03*
X192357500Y-138057500D03*
G36*
G01*
X160835000Y-168345000D02*
X160835000Y-167445000D01*
G75*
G02*
X161085000Y-167195000I250000J0D01*
G01*
X161610000Y-167195000D01*
G75*
G02*
X161860000Y-167445000I0J-250000D01*
G01*
X161860000Y-168345000D01*
G75*
G02*
X161610000Y-168595000I-250000J0D01*
G01*
X161085000Y-168595000D01*
G75*
G02*
X160835000Y-168345000I0J250000D01*
G01*
G37*
G36*
G01*
X162660000Y-168345000D02*
X162660000Y-167445000D01*
G75*
G02*
X162910000Y-167195000I250000J0D01*
G01*
X163435000Y-167195000D01*
G75*
G02*
X163685000Y-167445000I0J-250000D01*
G01*
X163685000Y-168345000D01*
G75*
G02*
X163435000Y-168595000I-250000J0D01*
G01*
X162910000Y-168595000D01*
G75*
G02*
X162660000Y-168345000I0J250000D01*
G01*
G37*
G36*
G01*
X175050000Y-183425000D02*
X174150000Y-183425000D01*
G75*
G02*
X173900000Y-183175000I0J250000D01*
G01*
X173900000Y-182650000D01*
G75*
G02*
X174150000Y-182400000I250000J0D01*
G01*
X175050000Y-182400000D01*
G75*
G02*
X175300000Y-182650000I0J-250000D01*
G01*
X175300000Y-183175000D01*
G75*
G02*
X175050000Y-183425000I-250000J0D01*
G01*
G37*
G36*
G01*
X175050000Y-181600000D02*
X174150000Y-181600000D01*
G75*
G02*
X173900000Y-181350000I0J250000D01*
G01*
X173900000Y-180825000D01*
G75*
G02*
X174150000Y-180575000I250000J0D01*
G01*
X175050000Y-180575000D01*
G75*
G02*
X175300000Y-180825000I0J-250000D01*
G01*
X175300000Y-181350000D01*
G75*
G02*
X175050000Y-181600000I-250000J0D01*
G01*
G37*
G36*
G01*
X168025000Y-171250000D02*
X168775000Y-171250000D01*
G75*
G02*
X169150000Y-171625000I0J-375000D01*
G01*
X169150000Y-172875000D01*
G75*
G02*
X168775000Y-173250000I-375000J0D01*
G01*
X168025000Y-173250000D01*
G75*
G02*
X167650000Y-172875000I0J375000D01*
G01*
X167650000Y-171625000D01*
G75*
G02*
X168025000Y-171250000I375000J0D01*
G01*
G37*
G36*
G01*
X165725000Y-171250000D02*
X166475000Y-171250000D01*
G75*
G02*
X166850000Y-171625000I0J-375000D01*
G01*
X166850000Y-172875000D01*
G75*
G02*
X166475000Y-173250000I-375000J0D01*
G01*
X165725000Y-173250000D01*
G75*
G02*
X165350000Y-172875000I0J375000D01*
G01*
X165350000Y-171625000D01*
G75*
G02*
X165725000Y-171250000I375000J0D01*
G01*
G37*
G36*
G01*
X164700000Y-177550000D02*
X167500000Y-177550000D01*
G75*
G02*
X168000000Y-178050000I0J-500000D01*
G01*
X168000000Y-179050000D01*
G75*
G02*
X167500000Y-179550000I-500000J0D01*
G01*
X164700000Y-179550000D01*
G75*
G02*
X164200000Y-179050000I0J500000D01*
G01*
X164200000Y-178050000D01*
G75*
G02*
X164700000Y-177550000I500000J0D01*
G01*
G37*
G36*
G01*
X163425000Y-171250000D02*
X164175000Y-171250000D01*
G75*
G02*
X164550000Y-171625000I0J-375000D01*
G01*
X164550000Y-172875000D01*
G75*
G02*
X164175000Y-173250000I-375000J0D01*
G01*
X163425000Y-173250000D01*
G75*
G02*
X163050000Y-172875000I0J375000D01*
G01*
X163050000Y-171625000D01*
G75*
G02*
X163425000Y-171250000I375000J0D01*
G01*
G37*
D15*
X241050000Y-187730419D03*
X241994581Y-185450000D03*
X241994581Y-190010838D03*
X244275000Y-184505419D03*
D16*
X244275000Y-187730419D03*
D15*
X244275000Y-190955419D03*
X246555419Y-185450000D03*
X246555419Y-190010838D03*
X247500000Y-187730419D03*
G36*
G01*
X166760000Y-169930000D02*
X166760000Y-170270000D01*
G75*
G02*
X166620000Y-170410000I-140000J0D01*
G01*
X166340000Y-170410000D01*
G75*
G02*
X166200000Y-170270000I0J140000D01*
G01*
X166200000Y-169930000D01*
G75*
G02*
X166340000Y-169790000I140000J0D01*
G01*
X166620000Y-169790000D01*
G75*
G02*
X166760000Y-169930000I0J-140000D01*
G01*
G37*
G36*
G01*
X165800000Y-169930000D02*
X165800000Y-170270000D01*
G75*
G02*
X165660000Y-170410000I-140000J0D01*
G01*
X165380000Y-170410000D01*
G75*
G02*
X165240000Y-170270000I0J140000D01*
G01*
X165240000Y-169930000D01*
G75*
G02*
X165380000Y-169790000I140000J0D01*
G01*
X165660000Y-169790000D01*
G75*
G02*
X165800000Y-169930000I0J-140000D01*
G01*
G37*
X241025000Y-139800000D03*
X241969581Y-137519581D03*
X241969581Y-142080419D03*
X244250000Y-136575000D03*
D16*
X244250000Y-139800000D03*
D15*
X244250000Y-143025000D03*
X246530419Y-137519581D03*
X246530419Y-142080419D03*
X247475000Y-139800000D03*
G36*
G01*
X161375000Y-148650000D02*
X162825000Y-148650000D01*
G75*
G02*
X163075000Y-148900000I0J-250000D01*
G01*
X163075000Y-150100000D01*
G75*
G02*
X162825000Y-150350000I-250000J0D01*
G01*
X161375000Y-150350000D01*
G75*
G02*
X161125000Y-150100000I0J250000D01*
G01*
X161125000Y-148900000D01*
G75*
G02*
X161375000Y-148650000I250000J0D01*
G01*
G37*
D18*
X162100000Y-152000000D03*
X162100000Y-154500000D03*
X162100000Y-157000000D03*
X162100000Y-159500000D03*
G36*
G01*
X169625000Y-180850000D02*
X169625000Y-181350000D01*
G75*
G02*
X169400000Y-181575000I-225000J0D01*
G01*
X168950000Y-181575000D01*
G75*
G02*
X168725000Y-181350000I0J225000D01*
G01*
X168725000Y-180850000D01*
G75*
G02*
X168950000Y-180625000I225000J0D01*
G01*
X169400000Y-180625000D01*
G75*
G02*
X169625000Y-180850000I0J-225000D01*
G01*
G37*
G36*
G01*
X168075000Y-180850000D02*
X168075000Y-181350000D01*
G75*
G02*
X167850000Y-181575000I-225000J0D01*
G01*
X167400000Y-181575000D01*
G75*
G02*
X167175000Y-181350000I0J225000D01*
G01*
X167175000Y-180850000D01*
G75*
G02*
X167400000Y-180625000I225000J0D01*
G01*
X167850000Y-180625000D01*
G75*
G02*
X168075000Y-180850000I0J-225000D01*
G01*
G37*
G36*
G01*
X161240000Y-170270000D02*
X161240000Y-169930000D01*
G75*
G02*
X161380000Y-169790000I140000J0D01*
G01*
X161660000Y-169790000D01*
G75*
G02*
X161800000Y-169930000I0J-140000D01*
G01*
X161800000Y-170270000D01*
G75*
G02*
X161660000Y-170410000I-140000J0D01*
G01*
X161380000Y-170410000D01*
G75*
G02*
X161240000Y-170270000I0J140000D01*
G01*
G37*
G36*
G01*
X162200000Y-170270000D02*
X162200000Y-169930000D01*
G75*
G02*
X162340000Y-169790000I140000J0D01*
G01*
X162620000Y-169790000D01*
G75*
G02*
X162760000Y-169930000I0J-140000D01*
G01*
X162760000Y-170270000D01*
G75*
G02*
X162620000Y-170410000I-140000J0D01*
G01*
X162340000Y-170410000D01*
G75*
G02*
X162200000Y-170270000I0J140000D01*
G01*
G37*
G36*
G01*
X160875000Y-165356250D02*
X160875000Y-164443750D01*
G75*
G02*
X161118750Y-164200000I243750J0D01*
G01*
X161606250Y-164200000D01*
G75*
G02*
X161850000Y-164443750I0J-243750D01*
G01*
X161850000Y-165356250D01*
G75*
G02*
X161606250Y-165600000I-243750J0D01*
G01*
X161118750Y-165600000D01*
G75*
G02*
X160875000Y-165356250I0J243750D01*
G01*
G37*
G36*
G01*
X162750000Y-165356250D02*
X162750000Y-164443750D01*
G75*
G02*
X162993750Y-164200000I243750J0D01*
G01*
X163481250Y-164200000D01*
G75*
G02*
X163725000Y-164443750I0J-243750D01*
G01*
X163725000Y-165356250D01*
G75*
G02*
X163481250Y-165600000I-243750J0D01*
G01*
X162993750Y-165600000D01*
G75*
G02*
X162750000Y-165356250I0J243750D01*
G01*
G37*
D15*
X157775000Y-139800000D03*
X158719581Y-137519581D03*
X158719581Y-142080419D03*
X161000000Y-136575000D03*
D16*
X161000000Y-139800000D03*
D15*
X161000000Y-143025000D03*
X163280419Y-137519581D03*
X163280419Y-142080419D03*
X164225000Y-139800000D03*
%LPD*%
M02*
